<?xml version="1.0" encoding="utf-8"?>
<!-- Generator: Adobe Illustrator 25.4.1, SVG Export Plug-In . SVG Version: 6.00 Build 0)  -->
<svg version="1.1" id="Layer_1" xmlns="http://www.w3.org/2000/svg" xmlns:xlink="http://www.w3.org/1999/xlink" x="0px" y="0px"
	 viewBox="0 0 691.136 407.142" style="enable-background:new 0 0 691.136 407.142;" xml:space="preserve">
<style type="text/css">
	.st0{fill:#EBF0F1;}
	.st1{fill:#DFE9F2;}
	.st2{fill:#A8B0B6;}
	.st3{clip-path:url(#SVGID_00000157294093667350331560000006026465480092824733_);}
	.st4{fill:#CCCCCC;}
	.st5{fill:#876441;}
	.st6{fill:#F3A48A;}
	.st7{fill:#CF5D43;}
	.st8{fill:#DD6D4E;}
	.st9{fill:#ABA97B;}
	.st10{fill:#E3E0A2;}
	.st11{fill:#303030;}
	.st12{fill:#EFEDE3;}
	.st13{fill:#353535;}
	.st14{fill:#9F714A;}
	.st15{fill:#775336;}
	.st16{fill:#412C19;}
	.st17{fill:#B5B573;}
	.st18{clip-path:url(#SVGID_00000078036149295868736420000017505221741245440391_);}
	.st19{fill:#3B9A64;}
	.st20{fill:#AC614E;}
	.st21{fill:#C1C57C;}
	.st22{clip-path:url(#SVGID_00000121968468302231222650000003727898397232715455_);}
	.st23{fill:#4CA66F;}
	.st24{fill:#FCF9EE;}
	.st25{fill:#F47F64;}
	.st26{fill:#668F95;}
	.st27{fill:#EBE6D5;}
	.st28{fill:#005D68;}
	.st29{fill:#FFC099;}
	.st30{fill:#003239;}
	.st31{fill:#DF8E7A;}
	.st32{fill:#B77B67;}
	.st33{fill:#68472F;}
	.st34{fill:#FBA983;}
	.st35{fill:#FFFFFF;}
	.st36{fill:#F88D61;}
	.st37{fill:#C79072;}
	.st38{fill:#573C28;}
	.st39{fill:#FFA16C;}
	.st40{fill:#F5F5F5;}
	.st41{fill:#E1E1E1;}
	.st42{fill:#ECECEC;}
	.st43{fill:#FAFAFA;}
	.st44{fill:#1A2E35;}
	.st45{fill:#375A64;}
	.st46{opacity:0.3;}
	.st47{fill:#498269;}
	.st48{fill:#946962;}
	.st49{fill:#6F4540;}
	.st50{fill:#CE4F41;}
	.st51{opacity:0.6;}
	.st52{fill:#305A46;}
	.st53{fill:#F7D858;}
	.st54{opacity:0.2;}
	.st55{opacity:0.4;}
	.st56{fill:#101010;}
	.st57{fill:#6AB792;}
	.st58{fill:#D25F3B;}
	.st59{fill:#E57E5B;}
	.st60{fill:none;stroke:#D25F3B;stroke-width:1.3008;stroke-linecap:round;stroke-linejoin:round;stroke-miterlimit:10;}
	.st61{fill:none;stroke:#498269;stroke-width:1.8047;stroke-linecap:round;stroke-linejoin:round;stroke-miterlimit:10;}
	.st62{fill:#39ACB2;}
	.st63{clip-path:url(#SVGID_00000023270564334094373950000005408761385360891819_);}
	.st64{fill:none;stroke:#305A46;stroke-width:3.1006;stroke-linecap:round;stroke-linejoin:round;stroke-miterlimit:10;}
	.st65{fill:#EC8A63;}
	.st66{fill:#FFB890;}
	.st67{fill:none;stroke:#EC8A63;stroke-width:2.028;stroke-linecap:round;stroke-linejoin:round;stroke-miterlimit:10;}
	.st68{opacity:0.26;fill:#FFFFFF;}
	.st69{fill:none;stroke:#FFFFFF;stroke-width:1.9299;stroke-linecap:round;stroke-linejoin:round;stroke-miterlimit:10;}
	.st70{fill:#DAF0FA;}
	.st71{fill:#FFBF9D;}
	.st72{fill:#FF9A6C;}
	.st73{fill:none;stroke:#44555B;stroke-miterlimit:10;}
	.st74{fill:#C78976;}
	.st75{fill:#BF654E;}
	.st76{fill:none;stroke:#44555B;stroke-width:0.05;stroke-miterlimit:10;}
	.st77{fill:none;stroke:#44555B;stroke-width:0.0469;stroke-miterlimit:10;}
	.st78{fill:#FF735D;}
	.st79{clip-path:url(#SVGID_00000164485739483134838730000007437434259782781878_);}
	.st80{fill:#FFDAD9;}
	.st81{fill:#DCDFE0;}
	.st82{fill:none;stroke:#B6E1F4;stroke-width:5.3697;stroke-linecap:round;stroke-linejoin:round;stroke-miterlimit:10;}
	.st83{fill:none;stroke:#B6E1F4;stroke-width:5.0288;stroke-miterlimit:10;}
	.st84{opacity:0.44;fill:#B6E1F4;}
	.st85{fill:#E07280;}
	.st86{fill:#7E5780;}
	.st87{opacity:0.22;fill:#7E5780;}
	.st88{fill:none;stroke:#FFD0C5;stroke-width:0.3194;stroke-miterlimit:10;}
	.st89{fill:none;stroke:#FFD0C5;stroke-width:0.3836;stroke-miterlimit:10;}
	.st90{fill:none;stroke:#401A49;stroke-width:1.5344;stroke-linecap:round;stroke-linejoin:round;stroke-miterlimit:10;}
	.st91{fill:#401A49;}
	.st92{fill:none;stroke:#161C3E;stroke-width:1.1265;stroke-linecap:round;stroke-linejoin:round;stroke-miterlimit:10;}
	.st93{opacity:0.09;fill:#E07280;}
	.st94{fill:none;stroke:#401A49;stroke-width:0.9884;stroke-linecap:round;stroke-linejoin:round;stroke-miterlimit:10;}
	.st95{fill:none;stroke:#401A49;stroke-width:0.7672;stroke-linecap:round;stroke-linejoin:round;stroke-miterlimit:10;}
	.st96{fill:#994975;}
	.st97{fill:#FF8A9A;}
	.st98{fill:none;stroke:#161C3E;stroke-width:1.0685;stroke-linecap:round;stroke-linejoin:round;stroke-miterlimit:10;}
	.st99{opacity:0.35;fill:#EF5D6B;}
	.st100{fill:none;stroke:#401A49;stroke-width:0.9376;stroke-linecap:round;stroke-linejoin:round;stroke-miterlimit:10;}
	.st101{fill:#FFF5EB;}
	.st102{fill:#F2B2D6;}
	.st103{fill:none;stroke:#FFF5EB;stroke-width:0.8381;stroke-linecap:round;stroke-linejoin:round;stroke-miterlimit:10;}
	.st104{opacity:0.22;fill:#401A49;}
	.st105{fill:none;stroke:#FFDAD9;stroke-width:0.8381;stroke-miterlimit:10;}
	.st106{fill:none;stroke:#FFDAD9;stroke-width:0.8381;stroke-linecap:round;stroke-linejoin:round;stroke-miterlimit:10;}
	.st107{fill:none;stroke:#401A49;stroke-width:1.6763;stroke-linecap:round;stroke-linejoin:round;stroke-miterlimit:10;}
	.st108{fill:#FFD0C5;}
	.st109{fill:#FDB22C;}
	.st110{fill:#1A8B91;}
	.st111{fill:none;stroke:#000000;stroke-width:0.8147;stroke-linecap:round;stroke-linejoin:round;stroke-miterlimit:10;}
	.st112{fill:#ECA079;}
	.st113{fill:#FDF1F5;}
	.st114{fill:#E6C6CE;}
	.st115{fill:#862904;}
	.st116{fill:#DC845E;}
	.st117{fill:none;stroke:#000000;stroke-width:0.848;stroke-linecap:round;stroke-linejoin:round;stroke-miterlimit:10;}
	.st118{clip-path:url(#XMLID_00000079468101120228363260000001130932773714227120_);}
	.st119{clip-path:url(#XMLID_00000165932868232463372010000015749540262634103742_);}
	.st120{fill:none;stroke:#000000;stroke-width:0.8027;stroke-linecap:round;stroke-linejoin:round;stroke-miterlimit:10;}
	.st121{fill:none;stroke:#FFFFFF;stroke-width:2.99;stroke-linecap:round;stroke-linejoin:round;}
	.st122{fill:none;stroke:#FFFFFF;stroke-width:2.99;stroke-linecap:round;stroke-linejoin:round;stroke-dasharray:18.4657,18.4657;}
	.st123{fill:none;stroke:#000000;stroke-width:0.9784;stroke-linecap:round;stroke-linejoin:round;stroke-miterlimit:10;}
	.st124{clip-path:url(#XMLID_00000004530600476548694790000013998637863091034037_);}
	.st125{fill:none;stroke:#000000;stroke-width:0.682;stroke-linecap:round;stroke-linejoin:round;stroke-miterlimit:10;}
	.st126{fill:#AE3700;}
	.st127{fill:none;stroke:#FFFFFF;stroke-width:1.7082;stroke-linecap:round;stroke-linejoin:round;stroke-miterlimit:10;}
	.st128{fill:none;stroke:#000000;stroke-width:0.9976;stroke-linecap:round;stroke-linejoin:round;stroke-miterlimit:10;}
	.st129{fill:#528E72;}
	.st130{fill:#F0DBE0;}
	.st131{fill:#89331A;}
	.st132{fill:none;stroke:#CCDADC;stroke-linecap:round;stroke-linejoin:round;}
	.st133{opacity:0.45;fill:#F7E3C7;enable-background:new    ;}
	.st134{fill:#222222;}
	.st135{fill:#F47365;}
	.st136{fill:none;stroke:#222222;stroke-width:0.211;stroke-linecap:round;stroke-linejoin:round;}
	.st137{opacity:0.5;fill:#F43D4F;enable-background:new    ;}
	.st138{fill:#F43D4F;}
	.st139{fill:none;stroke:#FFF7EE;stroke-width:0.422;stroke-miterlimit:10;}
	.st140{fill:#FBB244;}
	.st141{fill:#FFF7EE;}
	.st142{opacity:0.22;}
	.st143{clip-path:url(#SVGID_00000049211057284796757810000000019352916753332100_);}
	.st144{fill:none;stroke:#FFFFFF;stroke-width:0.422;stroke-linecap:round;stroke-linejoin:round;}
	.st145{fill:none;stroke:#222222;stroke-width:2.166;stroke-linecap:round;stroke-linejoin:round;}
	.st146{fill:none;stroke:#222222;stroke-width:2.1655;stroke-linecap:round;stroke-linejoin:round;stroke-miterlimit:3.9991;}
	.st147{clip-path:url(#SVGID_00000008108439510886834960000004020204144717370556_);}
	.st148{fill:none;stroke:#222222;stroke-width:0.422;stroke-linecap:round;stroke-linejoin:round;}
	.st149{fill:#00454F;}
	.st150{fill:#B0B4B5;}
	.st151{fill-rule:evenodd;clip-rule:evenodd;fill:#00454F;}
	.st152{fill:#D2DADB;}
	.st153{fill:none;stroke:#FFFFFF;stroke-width:3.3017;stroke-miterlimit:10;}
	.st154{fill:#05454F;}
	.st155{fill:none;stroke:#707070;}
	.st156{fill:#F5F7F6;}
</style>
<g>
	<path class="st26" d="M558.346,238.892c-0.56-18.76,9.64-35.9,18.63-52.38c83.16-144.93-22.12-229.11-163.11-164.43
		c-23.82,12.12-44.92,28.97-68.15,42.19c-81.41,51.94-183.44,19.86-195.01,140.55c-4.39,25.65-9.94,55.2-31,72.87
		c-30.18,30.34-99.56,3.21-118.43,36.21c-5.56,15.76,8.33,29.58,17.11,41.29c11.23,18.39,9.32,35.57,3.02,51.95h667.86
		c0.75-3.13,1.37-6.3,1.87-9.53C688.646,298.442,562.916,316.612,558.346,238.892z"/>
</g>
<g>
	<g>
		<g>
			<g>
				<path class="st12" d="M598.434,287.583v35.89l-77.189-1.056l-4.09-5.278l1.583-28.5c0,0,11.875-2.243,12.271-2.243
					C531.406,286.396,598.434,287.583,598.434,287.583z"/>
				<path class="st7" d="M604.695,328.882h-80.356c-8.048,0-14.573-6.524-14.573-14.573v-18.883c0-8.049,6.524-14.573,14.573-14.573
					h80.229c1.568,0,2.838,1.271,2.838,2.838v1.573c0,1.936-1.569,3.505-3.505,3.505h-74.079c-4.664,0-8.444,3.781-8.444,8.444
					v14.779c0,4.664,3.781,8.444,8.444,8.444h74.258c1.837,0,3.327,1.49,3.327,3.327v2.406
					C607.407,327.669,606.193,328.882,604.695,328.882z"/>
			</g>
			<g>
				<path class="st24" d="M523.754,257.895h66.999c1.932,0,3.672,1.17,4.401,2.959l0.845,2.073c0.563,1.382,0.852,2.86,0.852,4.352
					v4.991c0,2.325-0.703,4.595-2.015,6.514l0,0c-0.886,1.295-2.353,2.069-3.922,2.069h-67.16V257.895z"/>
				<path class="st2" d="M511.087,283.531h79.826c2.455,0,4.748-1.208,6.134-3.233c1.624-2.374,2.481-5.149,2.481-8.027v-4.991
					c0-1.852-0.353-3.658-1.051-5.365l-0.844-2.071c-1.145-2.811-3.846-4.626-6.879-4.626h-79.666c-1.48,0-2.677,1.199-2.677,2.677
					c0,1.479,1.198,2.677,2.677,2.677h79.666c0.847,0,1.6,0.507,1.922,1.293l0.844,2.073c0.434,1.063,0.654,2.187,0.654,3.341v4.991
					c0,1.794-0.533,3.524-1.545,5.003c-0.387,0.565-1.028,0.902-1.715,0.902h-79.826c-1.48,0-2.677,1.199-2.677,2.677
					C508.409,282.332,509.607,283.531,511.087,283.531z"/>
			</g>
			
				<rect x="535.628" y="244.965" transform="matrix(-1 -4.486423e-11 4.486423e-11 -1 1146.7291 501.2765)" class="st6" width="75.473" height="11.347"/>
			<g>
				<rect x="523.754" y="230.978" class="st27" width="65.181" height="13.986"/>
				<path class="st5" d="M519.796,246.303h69.138c0.74,0,1.339-0.599,1.339-1.339v-13.986c0-0.74-0.599-1.339-1.339-1.339h-69.138
					c-0.74,0-1.339,0.599-1.339,1.339s0.599,1.339,1.339,1.339h67.799v11.309h-67.799c-0.74,0-1.339,0.599-1.339,1.339
					C518.457,245.704,519.056,246.303,519.796,246.303z"/>
			</g>
		</g>
		<g>
			<path class="st28" d="M417.805,311.72c0,0-11.697,8.43-24.151,8.718c-12.454,0.289-33.127-4.26-38.396-4.359
				s-39.188-71.114-39.188-71.114v-6.993h63.862c0,0,29.165,18.148,37.874,31.403c8.708,13.256,11.078,22.167,10.682,25.334
				S417.805,311.72,417.805,311.72z"/>
			<path class="st29" d="M289.416,236.784c0,0-12.53-20.141-17.016-24.1c-4.486-3.958-6.07-7.389-6.07-10.028
				s-3.304-10.206-3.304-10.206l16.361,4.486l22.167,21.639l-2.111,16.361L289.416,236.784z"/>
			<path class="st30" d="M379.931,296.424c0,0-5.014,28.5-25.862,36.945c0,0-6.069,3.431-10.292,0l-3.695-6.861l12.139-26.125
				l19.792-7.389L379.931,296.424z"/>
			<path class="st29" d="M363.834,299.854c0,0,16.625,9.236,20.32,11.084c3.694,1.847,5.014,5.014,5.014,5.014l-5.542,14.25
				l-35.889-15.174l6.07-12.007L363.834,299.854z"/>
			<path class="st31" d="M389.168,310.938c0,0,15.57,5.806,19,6.597c3.431,0.792,6.334,1.847,9.764,2.111
				c3.43,0.264,8.972-1.319,12.667,0c3.694,1.32,9.5-4.486,15.042,3.827c5.542,8.313,9.764,20.452,2.903,24.938
				c-6.861,4.486-11.875-4.75-26.125-8.181c-14.25-3.431-42.223-8.295-44.334-9.953c-2.111-1.658-1.449-3.031-1.449-3.031
				s8.047-9.183,7.519-16.308C384.154,310.938,386.759,310.047,389.168,310.938z"/>
			<path class="st29" d="M456.46,282.965l-10.292,24.278l-4.486,7.785l-21.111,3.299l-7.653-7.785c0,0,7.125-26.785,7.653-27.577
				C421.099,282.174,456.46,282.965,456.46,282.965z"/>
			<path class="st6" d="M447.642,303.766c0,0,3.276,6.849,0.637,10.177c-2.639,3.328-11.611,14.693-10.292,16.135
				c1.319,1.443,5.542,1.706,1.583,2.762c-3.958,1.055-4.222,2.375-1.715,4.486c2.507,2.111,13.062,11.348,18.604,13.723
				c5.542,2.375,11.145,5.196,12.139,8.709c1.343,4.744-7.653,16.625-25.861,10.82c-13.656-4.354-23.157-14.201-29.614-19.52
				c-2.152-1.773-3.967-3.043-5.484-3.439c-6.07-1.583-8.709-3.958-7.917-7.125c0.792-3.167,5.542-8.709,6.597-17.021
				c1.056-8.313,0.73-16.246,7.622-16.766c0,0,0.031,7.339,15.601,7.236C445.113,313.841,447.642,303.766,447.642,303.766z"/>
			<path class="st32" d="M413.124,351.058c-2.152-1.773-3.967-3.043-5.484-3.439c-6.07-1.583-8.709-3.958-7.917-7.125
				c0.792-3.167,5.542-8.709,6.597-17.021c0,0,9.764,8.577,9.764,18.077C416.085,351.049,413.124,351.058,413.124,351.058z"/>
			<path class="st33" d="M372.278,103.32l-49.084,0.198l-18.604-3.563c0,0,0-30.875,5.938-45.126l56.605,5.146L372.278,103.32z"/>
			<path class="st34" d="M311.319,104.706c0,0,4.948-10.094,17.021-8.709c2.487,0.285,34.438,1.979,34.438,1.979
				s8.709,7.125,9.896,7.917c1.188,0.792-15.438,32.855-15.438,32.855l-12.667,14.646l-9.105,1.583l-17.813-15.042L311.319,104.706z
				"/>
			<path class="st27" d="M379.008,242.853c0,0-49.48,4.75-62.543,4.354c-13.063-0.396-17.417-10.688-18.604-12.271
				c-1.187-1.583,1.188-17.417,1.188-23.75c0-6.333-13.063-39.584-13.063-39.584l-16.229-20.583c0,0,7.125-28.896,23.75-43.147
				c16.625-14.25,32.063-11.875,32.063-11.875s-7.818,1.484-7.818,5.839c0,4.354,3.76,37.308,21.969,46.808
				c0,0,24.999-8.568,22.377-50.735l-0.223-0.084c0,0,6.445,0.547,12.779,3.318c6.333,2.771,20.979,15.042,33.25,34.438
				c12.271,19.396,14.25,28.896,14.25,28.896l-19.396,55.813L379.008,242.853z"/>
			<g>
				<path class="st35" d="M305.485,113.973c0,0,2.375-2.639,3.958-2.375c1.583,0.264,3.695,0.792,1.847,3.431
					s-0.792,4.486-3.167,5.014C305.749,120.57,303.902,116.875,305.485,113.973z"/>
				<path class="st35" d="M358.028,224.909c0,0,2.375-2.639,3.958-2.375c1.583,0.264,3.695,0.792,1.847,3.431
					c-1.847,2.639-0.792,4.486-3.167,5.014C358.292,231.506,356.445,227.811,358.028,224.909z"/>
				<path class="st35" d="M290.736,141.255c0,0,3.167-4.486,5.014-2.903c1.847,1.583-0.264,3.167-0.528,4.75
					C294.958,144.685,288.36,147.588,290.736,141.255z"/>
				<path class="st35" d="M395.619,144.538c0,0,3.167-4.486,5.014-2.903c1.847,1.583-0.264,3.167-0.528,4.75
					C399.841,147.968,393.244,150.871,395.619,144.538z"/>
				<path class="st35" d="M370.979,189.815c0,0,3.167-4.486,5.014-2.903s-0.264,3.167-0.528,4.75
					C375.201,193.245,368.604,196.148,370.979,189.815z"/>
				<path class="st35" d="M311.918,140.914c0,0,1.583-3.431,4.486-2.111c2.903,1.319,1.319,3.694,1.055,5.278
					C317.196,145.664,310.862,147.511,311.918,140.914z"/>
				<path class="st35" d="M290.679,124.908c0,0,1.584-3.431,4.486-2.111c2.903,1.32,1.32,3.695,1.056,5.278
					C295.957,129.658,289.623,131.505,290.679,124.908z"/>
				<path class="st35" d="M356.181,204.589c0,0,1.583-3.431,4.486-2.111c2.903,1.32,1.319,3.695,1.055,5.278
					C361.459,209.339,355.125,211.186,356.181,204.589z"/>
				<path class="st35" d="M330.056,226.756c0,0,1.583-3.431,4.486-2.111c2.903,1.32,1.319,3.695,1.055,5.278
					C335.333,231.506,329,233.353,330.056,226.756z"/>
				<path class="st35" d="M396.556,163.95c0,0,1.583-3.431,4.486-2.111c2.903,1.319,1.319,3.694,1.055,5.278
					C401.834,168.7,395.501,170.547,396.556,163.95z"/>
				<path class="st35" d="M299.18,163.422c0,0,2.375-6.597,5.014-5.542c2.639,1.056,0,3.431,0.792,5.806
					C305.777,166.061,298.125,167.908,299.18,163.422z"/>
				<path class="st35" d="M387.63,128.838c0,0,2.375-6.597,5.014-5.542c2.639,1.056,0,3.431,0.792,5.806
					C394.227,131.477,386.574,133.325,387.63,128.838z"/>
			</g>
			<polygon class="st24" points="306.569,164.741 270.944,133.866 265.93,148.116 294.958,167.908 			"/>
			<polygon class="st35" points="307.097,165.005 355.389,144.949 355.389,155.505 308.944,170.283 			"/>
			<polygon class="st8" points="306.569,164.741 303.402,220.95 356.709,201.158 360.931,147.588 			"/>
			<polygon class="st35" points="346.681,169.227 346.417,189.019 321.611,197.2 322.667,176.352 			"/>
			<polygon class="st7" points="303.402,220.95 260.916,190.867 260.388,135.713 306.569,164.741 			"/>
			<path class="st29" d="M263.027,192.45c0,0,0.528-5.278,2.375-9.236c1.847-3.958,2.639-6.861,4.75-7.917
				c2.111-1.056,2.903-0.264,4.222,0.264c1.319,0.528,3.958,2.903,4.222,6.334c0.264,3.431-1.583,11.084,0.792,15.042
				c2.375,3.958,2.375,7.653,2.111,8.445c-0.264,0.792-6.07,3.958-6.07,3.958l-9.5-6.07L263.027,192.45z"/>
			<path class="st29" d="M394.973,231.242c0,0-14.25-23.75-19.264-39.848c-5.014-16.097-8.181-33.515-8.181-33.515l14.514-11.611
				c0,0,0.528,10.028,5.542,17.945c5.014,7.917,19.528,25.597,22.695,30.875c3.167,5.278,2.375,18.736-0.528,23.75
				C406.848,223.853,394.973,231.242,394.973,231.242z"/>
			<path class="st29" d="M356.709,153.394c0,0,2.639-12.403,4.222-15.57c1.583-3.167,10.82-13.459,14.25-13.986
				c3.431-0.528,8.181,8.445,9.764,12.403c1.583,3.958,1.847,8.972-1.056,12.139c-2.903,3.167-8.709,6.861-12.403,10.556
				c-3.695,3.695-10.292,6.334-11.875,5.806C358.028,164.213,354.598,161.839,356.709,153.394z"/>
			<g>
				<path class="st36" d="M267.248,189.16c0.324,0,0.606-0.234,0.661-0.562c0.008-0.048,0.787-4.801,1.652-6.536
					c0.392-0.784,0.873-2.037,1.336-3.249c0.491-1.286,1.237-3.23,1.532-3.535c0.29-0.231,0.33-0.646,0.097-0.935
					c-0.23-0.288-0.656-0.331-0.947-0.097c-0.481,0.384-0.96,1.541-1.932,4.088c-0.452,1.182-0.92,2.402-1.284,3.128
					c-0.957,1.916-1.744,6.717-1.778,6.92c-0.058,0.365,0.188,0.709,0.554,0.768C267.177,189.158,267.214,189.16,267.248,189.16z"/>
				<path class="st36" d="M270.417,189.821c0.322,0,0.604-0.23,0.659-0.557c0.01-0.062,1.053-6.147,2.063-8.418
					c1.062-2.386,1.846-4.983,1.877-5.093c0.107-0.354-0.094-0.727-0.447-0.833c-0.371-0.107-0.729,0.096-0.834,0.448
					c-0.008,0.026-0.795,2.628-1.82,4.934c-1.077,2.424-2.115,8.48-2.157,8.736c-0.063,0.365,0.183,0.71,0.546,0.772
					C270.344,189.818,270.38,189.821,270.417,189.821z"/>
				<path class="st36" d="M274.111,190.745c0.332,0,0.62-0.247,0.664-0.584c0.008-0.063,0.792-6.212,1.182-8.414
					c0.384-2.175,1.03-4.25,1.035-4.271c0.112-0.353-0.086-0.728-0.437-0.839c-0.371-0.11-0.729,0.089-0.839,0.439
					c-0.029,0.088-0.68,2.178-1.077,4.438c-0.395,2.233-1.161,8.223-1.192,8.476c-0.047,0.368,0.212,0.702,0.58,0.749
					C274.056,190.743,274.085,190.745,274.111,190.745z"/>
				<path class="st36" d="M359.61,165.41c0.23,0,0.452-0.119,0.578-0.332c0.018-0.032,1.848-3.158,3.391-5.213
					c1.211-1.617,7.702-7.015,10.968-9.643c0.288-0.233,0.332-0.654,0.099-0.941c-0.23-0.29-0.651-0.333-0.941-0.102
					c-0.39,0.315-9.585,7.731-11.198,9.884c-1.589,2.118-3.399,5.211-3.475,5.341c-0.186,0.319-0.078,0.73,0.24,0.915
					C359.38,165.381,359.495,165.41,359.61,165.41z"/>
				<path class="st36" d="M358.029,164.091c0.285,0,0.549-0.183,0.638-0.469c0.013-0.042,1.315-4.186,2.586-6.472
					c1.273-2.29,9.08-11.41,9.159-11.501c0.24-0.279,0.209-0.703-0.071-0.944c-0.288-0.235-0.708-0.205-0.944,0.073
					c-0.327,0.379-7.977,9.314-9.315,11.721c-1.339,2.408-2.635,6.549-2.69,6.723c-0.11,0.353,0.086,0.728,0.439,0.839
					C357.895,164.082,357.963,164.091,358.029,164.091z"/>
				<path class="st36" d="M356.18,159.869c0.34,0,0.633-0.258,0.667-0.603c0.502-5.029,8.756-15.913,8.839-16.023
					c0.222-0.294,0.167-0.714-0.128-0.937c-0.293-0.224-0.711-0.17-0.939,0.127c-0.348,0.459-8.565,11.296-9.106,16.7
					c-0.036,0.367,0.233,0.695,0.601,0.732C356.136,159.868,356.159,159.869,356.18,159.869z"/>
			</g>
			<path class="st35" d="M340.875,128.73c0.107,0,0.214-0.026,0.311-0.077c20.202-10.633,19.237-32.213,19.227-32.43
				c-0.021-0.369-0.319-0.692-0.706-0.63c-0.369,0.021-0.651,0.336-0.633,0.704c0.013,0.208,0.902,20.69-18.15,30.979
				c-1.759-1.32-10.529-8.892-10.991-28.788c-0.008-0.365-0.306-0.654-0.669-0.654c-0.005,0-0.01,0-0.016,0
				c-0.369,0.009-0.662,0.315-0.654,0.685c0.531,22.796,11.462,29.822,11.927,30.11C340.629,128.696,340.752,128.73,340.875,128.73z
				"/>
			<path class="st35" d="M337.708,132.414c0,1.53,1.241,2.771,2.771,2.771c1.53,0,2.771-1.24,2.771-2.771s-0.845-5.41-2.375-5.41
				C339.345,127.005,337.708,130.884,337.708,132.414z"/>
			<path class="st29" d="M367.792,87.025c0,0-8.445,11.215-14.25,15.306c-5.806,4.09-14.514,4.222-19.528,1.056
				C329,100.22,321.215,89.4,319.5,72.247c0,0-3.035,1.583-4.75-1.056c-1.715-2.639-4.09-10.952-5.146-12.799
				c-1.056-1.847-1.056-7.125,1.583-8.049c2.639-0.924,5.818,1.747,6.346,2.275c0.528,0.528,2.231-3.331,2.231-3.331l30.875-10.028
				c0,0,16.493,19,16.757,19.396C367.66,59.052,367.792,87.025,367.792,87.025z"/>
			<path class="st37" d="M319.094,64.22c0,0-3.123-8.924-5.354-7.586c-2.231,1.339,2.677,13.833,3.57,12.494
				C318.202,67.79,319.094,64.22,319.094,64.22z"/>
			<path class="st33" d="M333.618,72.115c0,1.093,0.886,1.979,1.979,1.979c1.093,0,1.979-0.886,1.979-1.979
				c0-1.093-0.886-1.979-1.979-1.979C334.504,70.136,333.618,71.022,333.618,72.115z"/>
			<path class="st33" d="M359.084,78.448c0,1.093,0.886,1.979,1.979,1.979s1.979-0.886,1.979-1.979c0-1.093-0.886-1.979-1.979-1.979
				S359.084,77.355,359.084,78.448z"/>
			<path class="st38" d="M337.84,64.858c0,0-2.771-2.639-7.389-3.035c-4.618-0.396-5.806,0.66-6.333-0.66
				c-0.528-1.319-1.847-3.431-0.132-4.486c1.715-1.056,7.389-3.563,11.611-1.452c4.222,2.111,5.938,6.466,5.806,7.785
				C341.271,64.33,339.556,65.386,337.84,64.858z"/>
			<path class="st38" d="M365.285,70.268c0,0-5.674,1.188-7.389-0.132c-1.715-1.32-1.715-1.847-0.924-3.299
				c0.792-1.451,1.056-4.222,5.146-4.354C366.209,62.351,365.285,70.268,365.285,70.268z"/>
			<path class="st35" d="M346.588,94.896c0,0-4.043,0.349-8.834-4.357c-4.791-4.706-4.642-6.449-4.941-5.926
				c-0.299,0.523-1.048,7.32,4.043,10.632S346.737,96.29,346.588,94.896z"/>
			<path class="st33" d="M347.736,44.406c0,0-8.181,5.806-15.174,10.424c-6.993,4.618-9.104,6.597-10.028,5.938
				c-0.924-0.66-3.167-4.75-5.278-7.257c-2.111-2.507-4.222-3.562-4.618-3.562c-0.396,0,0.396,0,0.396,0s0.132-5.674,3.695-11.875
				c3.562-6.202,6.465-18.472,23.09-19l6.334,1.32L347.736,44.406z"/>
			<path class="st15" d="M398.668,108.796c0,0,0.264,5.014-1.319,6.069c-1.583,1.056-16.097,12.403-32.459,12.931
				c0,0-2.111-0.528-1.32-3.958c0.792-3.431,4.486-35.362,1.32-48.556c-3.167-13.195-15.57-21.903-17.681-29.82
				c0,0-5.542-8.972-6.07-21.903c0,0-0.264-3.695,1.319-4.222c0,0,1.583-6.334,15.833-5.014
				c14.25,1.319,26.389,18.472,30.348,29.556C392.598,54.962,398.931,106.949,398.668,108.796z"/>
			<path class="st28" d="M379.931,237.971c0,0,26.785-71.515,31.139-78.64c4.354-7.125,14.25-18.604,37.605-15.438
				c23.354,3.167,32.459,21.771,33.251,33.25c0.792,11.479-7.917,104.106-10.688,106.085c-2.771,1.979-28.104,18.604-69.668-0.396
				C401.57,282.833,377.688,257.631,379.931,237.971z"/>
			<path class="st30" d="M401.092,283.715c-0.293-0.158-0.486-0.451-0.52-0.783c-0.024-0.241-0.575-6.118,0.79-23.532
				c1.574-20.068,14.95-63.511,15.083-63.948c0.165-0.528,0.735-0.826,1.255-0.663c0.531,0.165,0.829,0.727,0.664,1.256
				c-0.133,0.434-13.444,43.665-14.999,63.511c-1.124,14.335-0.928,20.848-0.832,22.641c4.458,2.233,38.582,18.221,68.184,0.173
				c0.476-0.288,1.093-0.142,1.38,0.335c0.288,0.473,0.139,1.092-0.335,1.38c-10.779,6.573-22.124,8.777-32.49,8.777
				C418.311,292.863,401.343,283.852,401.092,283.715z M401.544,282.831h0.026H401.544z"/>
			<path class="st39" d="M363.085,87.673c0,0-2.418-4.306-5.302-4.146c-2.884,0.16-3.15,4.625-0.864,4.784s2.871,0.459,4.253,1.027
				C362.554,89.906,363.724,88.652,363.085,87.673z"/>
			<path class="st39" d="M326.093,77.976c0,0,4.153-2.854,6.935-1.429c2.782,1.425,1.215,5.616-1.108,4.747
				c-2.322-0.869-3.022-0.855-4.62-0.95C325.703,80.249,325.062,78.585,326.093,77.976z"/>
			<path class="st36" d="M352.337,69.965c0,0-1.004,9.956-1.924,15.478c-0.086,0.517-0.586,1.422-1.924,1.589
				c-1.856,0.232-4.183-0.502-4.183-0.502s-1.506-1.171-1.339-2.51c0.167-1.339,4.016-15.394,4.016-15.394s0.502-1.004,1.673-0.837
				S352.504,68.292,352.337,69.965z"/>
			<path class="st28" d="M379.931,296.424c0,0-32.22,4.291-33.988,38.101c0,0-5.332-2.475-12.061-4.322
				c-6.729-1.847-29.688-16.098-40.771-16.493c-11.084-0.396-54.626-11.084-62.543-24.938c-7.917-13.854-8.709-38.792,4.354-51.459
				c11.455-11.108,39.98-9.104,55.813-4.354c13.065,3.919,30.172,15.924,44.873,26.007c3.116,2.137,6.123,4.187,8.961,6.056
				C360.799,275.708,379.931,296.424,379.931,296.424z"/>
			<path class="st30" d="M379.193,297.105l1.475-1.362c-0.191-0.208-19.4-20.929-35.547-31.561
				c-2.831-1.866-5.836-3.913-8.944-6.045l-1.135,1.655c3.119,2.14,6.134,4.195,8.976,6.066
				C359.961,276.358,379.002,296.899,379.193,297.105z"/>
		</g>
	</g>
	<path class="st32" d="M442.738,370.578c18.208,5.806,27.204-6.076,25.861-10.82c-0.994-3.513-6.597-6.334-12.139-8.709
		c0,0-11.348,7.917-13.723,16.889V370.578z"/>
</g>
</svg>
