<?xml version="1.0" encoding="utf-8"?>
<!-- Generator: Adobe Illustrator 25.4.1, SVG Export Plug-In . SVG Version: 6.00 Build 0)  -->
<svg version="1.1" id="Layer_1" xmlns="http://www.w3.org/2000/svg" xmlns:xlink="http://www.w3.org/1999/xlink" x="0px" y="0px"
	 viewBox="0 0 752.617 446.608" style="enable-background:new 0 0 752.617 446.608;" xml:space="preserve">
<style type="text/css">
	.st0{fill:#EBF0F1;}
	.st1{fill:#DFE9F2;}
	.st2{fill:#A8B0B6;}
	.st3{clip-path:url(#SVGID_00000016774407784138271700000005057146825565536432_);}
	.st4{fill:#CCCCCC;}
	.st5{fill:#876441;}
	.st6{fill:#F3A48A;}
	.st7{fill:#CF5D43;}
	.st8{fill:#DD6D4E;}
	.st9{fill:#ABA97B;}
	.st10{fill:#E3E0A2;}
	.st11{fill:#303030;}
	.st12{fill:#EFEDE3;}
	.st13{fill:#353535;}
	.st14{fill:#9F714A;}
	.st15{fill:#775336;}
	.st16{fill:#412C19;}
	.st17{fill:#B5B573;}
	.st18{clip-path:url(#SVGID_00000165235250100348595120000013107168553754967940_);}
	.st19{fill:#3B9A64;}
	.st20{fill:#AC614E;}
	.st21{fill:#C1C57C;}
	.st22{clip-path:url(#SVGID_00000170990017444343619850000018104092323629769363_);}
	.st23{fill:#4CA66F;}
	.st24{fill:#FCF9EE;}
	.st25{fill:#F47F64;}
	.st26{fill:#668F95;}
	.st27{fill:#EBE6D5;}
	.st28{fill:#005D68;}
	.st29{fill:#FFC099;}
	.st30{fill:#003239;}
	.st31{fill:#DF8E7A;}
	.st32{fill:#B77B67;}
	.st33{fill:#68472F;}
	.st34{fill:#FBA983;}
	.st35{fill:#FFFFFF;}
	.st36{fill:#F88D61;}
	.st37{fill:#C79072;}
	.st38{fill:#573C28;}
	.st39{fill:#FFA16C;}
	.st40{fill:#F5F5F5;}
	.st41{fill:#E1E1E1;}
	.st42{fill:#ECECEC;}
	.st43{fill:#FAFAFA;}
	.st44{fill:#1A2E35;}
	.st45{fill:#375A64;}
	.st46{opacity:0.3;}
	.st47{fill:#498269;}
	.st48{fill:#946962;}
	.st49{fill:#6F4540;}
	.st50{fill:#CE4F41;}
	.st51{opacity:0.6;}
	.st52{fill:#305A46;}
	.st53{fill:#F7D858;}
	.st54{opacity:0.2;}
	.st55{opacity:0.4;}
	.st56{fill:#101010;}
	.st57{fill:#6AB792;}
	.st58{fill:#D25F3B;}
	.st59{fill:#E57E5B;}
	.st60{fill:none;stroke:#D25F3B;stroke-width:1.3008;stroke-linecap:round;stroke-linejoin:round;stroke-miterlimit:10;}
	.st61{fill:none;stroke:#498269;stroke-width:1.8047;stroke-linecap:round;stroke-linejoin:round;stroke-miterlimit:10;}
	.st62{fill:#39ACB2;}
	.st63{clip-path:url(#SVGID_00000033371423514028026050000010380538881603145386_);}
	.st64{fill:none;stroke:#305A46;stroke-width:3.1006;stroke-linecap:round;stroke-linejoin:round;stroke-miterlimit:10;}
	.st65{fill:#EC8A63;}
	.st66{fill:#FFB890;}
	.st67{fill:none;stroke:#EC8A63;stroke-width:2.028;stroke-linecap:round;stroke-linejoin:round;stroke-miterlimit:10;}
	.st68{opacity:0.26;fill:#FFFFFF;}
	.st69{fill:none;stroke:#FFFFFF;stroke-width:1.9299;stroke-linecap:round;stroke-linejoin:round;stroke-miterlimit:10;}
	.st70{fill:#DAF0FA;}
	.st71{fill:#FFBF9D;}
	.st72{fill:#FF9A6C;}
	.st73{fill:none;stroke:#44555B;stroke-miterlimit:10;}
	.st74{fill:#C78976;}
	.st75{fill:#BF654E;}
	.st76{fill:none;stroke:#44555B;stroke-width:0.05;stroke-miterlimit:10;}
	.st77{fill:none;stroke:#44555B;stroke-width:0.0469;stroke-miterlimit:10;}
	.st78{fill:#FF735D;}
	.st79{clip-path:url(#SVGID_00000175300652440264115470000003558426975325944969_);}
	.st80{fill:#FFDAD9;}
	.st81{fill:#DCDFE0;}
	.st82{fill:none;stroke:#B6E1F4;stroke-width:5.3697;stroke-linecap:round;stroke-linejoin:round;stroke-miterlimit:10;}
	.st83{fill:none;stroke:#B6E1F4;stroke-width:5.0288;stroke-miterlimit:10;}
	.st84{opacity:0.44;fill:#B6E1F4;}
	.st85{fill:#E07280;}
	.st86{fill:#7E5780;}
	.st87{opacity:0.22;fill:#7E5780;}
	.st88{fill:none;stroke:#FFD0C5;stroke-width:0.3194;stroke-miterlimit:10;}
	.st89{fill:none;stroke:#FFD0C5;stroke-width:0.3836;stroke-miterlimit:10;}
	.st90{fill:none;stroke:#401A49;stroke-width:1.5344;stroke-linecap:round;stroke-linejoin:round;stroke-miterlimit:10;}
	.st91{fill:#401A49;}
	.st92{fill:none;stroke:#161C3E;stroke-width:1.1265;stroke-linecap:round;stroke-linejoin:round;stroke-miterlimit:10;}
	.st93{opacity:0.09;fill:#E07280;}
	.st94{fill:none;stroke:#401A49;stroke-width:0.9884;stroke-linecap:round;stroke-linejoin:round;stroke-miterlimit:10;}
	.st95{fill:none;stroke:#401A49;stroke-width:0.7672;stroke-linecap:round;stroke-linejoin:round;stroke-miterlimit:10;}
	.st96{fill:#994975;}
	.st97{fill:#FF8A9A;}
	.st98{fill:none;stroke:#161C3E;stroke-width:1.0685;stroke-linecap:round;stroke-linejoin:round;stroke-miterlimit:10;}
	.st99{opacity:0.35;fill:#EF5D6B;}
	.st100{fill:none;stroke:#401A49;stroke-width:0.9376;stroke-linecap:round;stroke-linejoin:round;stroke-miterlimit:10;}
	.st101{fill:#FFF5EB;}
	.st102{fill:#F2B2D6;}
	.st103{fill:none;stroke:#FFF5EB;stroke-width:0.8381;stroke-linecap:round;stroke-linejoin:round;stroke-miterlimit:10;}
	.st104{opacity:0.22;fill:#401A49;}
	.st105{fill:none;stroke:#FFDAD9;stroke-width:0.8381;stroke-miterlimit:10;}
	.st106{fill:none;stroke:#FFDAD9;stroke-width:0.8381;stroke-linecap:round;stroke-linejoin:round;stroke-miterlimit:10;}
	.st107{fill:none;stroke:#401A49;stroke-width:1.6763;stroke-linecap:round;stroke-linejoin:round;stroke-miterlimit:10;}
	.st108{fill:#FFD0C5;}
	.st109{fill:#FDB22C;}
	.st110{fill:#1A8B91;}
	.st111{fill:none;stroke:#000000;stroke-width:0.8147;stroke-linecap:round;stroke-linejoin:round;stroke-miterlimit:10;}
	.st112{fill:#ECA079;}
	.st113{fill:#FDF1F5;}
	.st114{fill:#E6C6CE;}
	.st115{fill:#862904;}
	.st116{fill:#DC845E;}
	.st117{fill:none;stroke:#000000;stroke-width:0.848;stroke-linecap:round;stroke-linejoin:round;stroke-miterlimit:10;}
	.st118{clip-path:url(#XMLID_00000023252747431406055600000010613034359110572454_);}
	.st119{clip-path:url(#XMLID_00000117668952849063702240000001134508261553896110_);}
	.st120{fill:none;stroke:#000000;stroke-width:0.8027;stroke-linecap:round;stroke-linejoin:round;stroke-miterlimit:10;}
	.st121{fill:none;stroke:#FFFFFF;stroke-width:2.99;stroke-linecap:round;stroke-linejoin:round;}
	.st122{fill:none;stroke:#FFFFFF;stroke-width:2.99;stroke-linecap:round;stroke-linejoin:round;stroke-dasharray:18.4657,18.4657;}
	.st123{fill:none;stroke:#000000;stroke-width:0.9784;stroke-linecap:round;stroke-linejoin:round;stroke-miterlimit:10;}
	.st124{clip-path:url(#XMLID_00000165955005124481524020000016197924737542177948_);}
	.st125{fill:none;stroke:#000000;stroke-width:0.682;stroke-linecap:round;stroke-linejoin:round;stroke-miterlimit:10;}
	.st126{fill:#AE3700;}
	.st127{fill:none;stroke:#FFFFFF;stroke-width:1.7082;stroke-linecap:round;stroke-linejoin:round;stroke-miterlimit:10;}
	.st128{fill:none;stroke:#000000;stroke-width:0.9976;stroke-linecap:round;stroke-linejoin:round;stroke-miterlimit:10;}
	.st129{fill:#528E72;}
	.st130{fill:#F0DBE0;}
	.st131{fill:#89331A;}
	.st132{fill:none;stroke:#CCDADC;stroke-linecap:round;stroke-linejoin:round;}
	.st133{opacity:0.45;fill:#F7E3C7;enable-background:new    ;}
	.st134{fill:#222222;}
	.st135{fill:#F47365;}
	.st136{fill:none;stroke:#222222;stroke-width:0.211;stroke-linecap:round;stroke-linejoin:round;}
	.st137{opacity:0.5;fill:#F43D4F;enable-background:new    ;}
	.st138{fill:#F43D4F;}
	.st139{fill:none;stroke:#FFF7EE;stroke-width:0.422;stroke-miterlimit:10;}
	.st140{fill:#FBB244;}
	.st141{fill:#FFF7EE;}
	.st142{opacity:0.22;}
	.st143{clip-path:url(#SVGID_00000114761993878630627360000015804268514469319838_);}
	.st144{fill:none;stroke:#FFFFFF;stroke-width:0.422;stroke-linecap:round;stroke-linejoin:round;}
	.st145{fill:none;stroke:#222222;stroke-width:2.166;stroke-linecap:round;stroke-linejoin:round;}
	.st146{fill:none;stroke:#222222;stroke-width:2.1655;stroke-linecap:round;stroke-linejoin:round;stroke-miterlimit:3.9991;}
	.st147{clip-path:url(#SVGID_00000153702038043998096970000014934597999392173719_);}
	.st148{fill:none;stroke:#222222;stroke-width:0.422;stroke-linecap:round;stroke-linejoin:round;}
	.st149{fill:#00454F;}
	.st150{fill:#B0B4B5;}
	.st151{fill-rule:evenodd;clip-rule:evenodd;fill:#00454F;}
	.st152{fill:#D2DADB;}
	.st153{fill:none;stroke:#FFFFFF;stroke-width:3.3017;stroke-miterlimit:10;}
	.st154{fill:#05454F;}
	.st155{fill:none;stroke:#707070;}
	.st156{fill:#F5F7F6;}
</style>
<g>
	<defs>
		<rect id="SVGID_00000160171266055360338170000002688260307278736562_" width="752.617" height="446.345"/>
	</defs>
	<clipPath id="SVGID_00000013182816877347102000000018150437269423689097_">
		<use xlink:href="#SVGID_00000160171266055360338170000002688260307278736562_"  style="overflow:visible;"/>
	</clipPath>
	<g style="clip-path:url(#SVGID_00000013182816877347102000000018150437269423689097_);">
		<path class="st0" d="M15.154,774.25C5.27,684.404-4.619,593.769,4.896,503.885c4.646-43.886,14.625-88.9,41.786-124.246
			c49.703-64.68,143.288-81.488,202.961-137.643c35.69-33.586,57.403-79.639,94.884-111.329
			C402.065,82.021,487.918,76.23,561.05,97.242c37.63,10.812,73.928,28.403,101.439,55.598
			c48.568,48.01,63.717,118.92,68.877,186.063c11.476,149.347-11.55,291.04-38.343,438.522c-0.202,1.11,8.408-10.663,0.227,0.227
			L15.154,774.25z"/>
		<g>
			<g>
				<path class="st70" d="M14.729,323.399l74.373,200.817l3.438,9.29h145.89L158.472,310.96H23.848
					C17.166,310.96,12.485,317.335,14.729,323.399z"/>
				<path class="st84" d="M14.729,323.399l74.373,200.817l19.933-3.645L28.69,310.96h-4.842
					C17.166,310.96,12.485,317.335,14.729,323.399z"/>
			</g>
		</g>
		<g>
			<g>
				<g>
					<g>
						<path class="st91" d="M160.359,161.727c-2.579,1.415-5.14,2.978-7.024,5.169c-1.804,2.098-2.892,4.662-3.822,7.222
							c-0.988,2.721-1.836,5.637-1.184,8.446c0.645,2.78,2.691,5.123,3.338,7.902c0.712,3.059-0.348,6.203-0.905,9.292
							c-0.664,3.687-0.597,7.543,0.655,11.087c1.252,3.544,3.757,6.752,7.205,8.552c1.269,0.662,2.676,1.149,3.717,2.105
							c2.203,2.025,2.059,5.373,3.216,8.071c1.164,2.714,3.685,4.74,6.466,6.008c2.781,1.267,5.839,1.866,8.862,2.454
							c0.447,0.087,0.936,0.169,1.34-0.034c0.435-0.218,0.635-0.696,0.797-1.137c4.867-13.231,5.87-27.613,3.773-41.477
							c-1.393-9.208-4.132-18.206-7.857-26.799c-0.933-2.152-1.928-4.279-2.98-6.38c-0.566-1.13-2.048-5.535-3.273-6.008
							C170.411,155.322,162.435,160.588,160.359,161.727z"/>
						<g>
							<g>
								<path class="st85" d="M176.382,266.024l45.491,10.03l-2.419-14.987l-1.973-12.328l-0.04-0.204l-0.589-3.663l-39.455-21.199
									c0.001,0.056-0.011,0.596-0.036,1.528c-1.255,0.017-0.605,0.225-0.605,0.225
									C176.58,233.068,176.382,266.024,176.382,266.024z"/>
								<path class="st91" d="M183.415,235.62c7.712,19.864,23.668,24.807,36.443,25.549l-1.872-12.4
									c-2.159,0.178-4.422,0.26-6.567,0.103c-0.037,0.001-0.093,0.001-0.15-0.016c-0.392-0.013-0.783-0.064-1.157-0.096
									c-0.56-0.067-1.12-0.134-1.68-0.201c-0.392-0.069-0.803-0.138-1.195-0.189c-0.243-0.053-0.504-0.105-0.748-0.158
									C200.532,247.079,188.382,239.112,183.415,235.62z"/>
							</g>
							<g>
								<path class="st91" d="M191.128,147.716c4.004-1.642,7.714-3.928,11.682-5.654c3.968-1.726,8.358-2.893,12.615-2.116
									c2.073,0.378,4.063,1.208,6.165,1.352c3.416,0.233,6.801-1.368,10.194-0.908c3.842,0.521,7.078,3.977,7.345,7.845
									c0.209,3.026-1.15,6.322,0.348,8.959c0.467,0.822,1.178,1.488,1.628,2.32c0.592,1.091,0.69,2.387,0.587,3.623
									c-0.283,3.385-2.3,6.822-5.538,7.85c-1.558,0.495-3.233,0.403-4.864,0.305c-11.642-0.693-23.284-1.386-34.926-2.08
									c-2.844-0.169-5.711-0.342-8.465-1.071c-2.247-0.594-4.382-1.549-6.461-2.588c-3.064-1.531-15.429-6.604-9.756-10.982
									C176.832,150.598,185.19,150.151,191.128,147.716z"/>
								<path class="st85" d="M247.248,202.918c0.359,10.416-0.352,21.607-5.131,30.471c-0.297,0.527-0.61,1.072-0.941,1.583
									c-0.033,0.085-0.082,0.187-0.148,0.272c-10.17,16.182-34.654,20.446-53.318,4.043c-0.017-0.017-0.017-0.017-0.017-0.017
									c0-0.034-0.017-0.033-0.017-0.033c-3.316-2.928-6.421-6.484-9.248-10.753l-0.017-0.017c-0.499-0.72-0.966-1.473-1.432-2.244
									c-0.328-0.519-0.656-1.089-0.985-1.642c-0.191-0.42-0.433-0.805-0.641-1.225c-1.161-2.163-3.432-4.024-4.795-6.168
									c-0.776-1.206-1.486-2.48-2.128-3.772c-0.538-1.074-1.026-2.182-1.463-3.291c-0.892-2.302-1.583-4.657-2.037-7.083
									c-0.164-0.859-0.31-1.702-0.389-2.562c-0.113-0.843-0.191-1.67-0.22-2.547c-0.06-0.692-0.086-1.367-0.095-2.059
									l-0.004-0.338c-0.072-19.237,13.272-36.779,32.182-41.086c7.847-1.777,16.015-1.009,23.401,1.882
									c4.364,1.698,8.433,4.143,12.022,7.287c6.87,6.005,11.845,11.681,14.384,20.92c0.515,1.885,0.931,3.923,1.248,6.148
									c0.018,0.101,0.019,0.202,0.038,0.303c0.656,4.873-0.372,7.521-0.274,11.084
									C247.224,202.361,247.245,202.648,247.248,202.918z"/>
								<path class="st91" d="M219.75,152.57c-9.817-2.537-20.294-2.29-30.077,0.707c-0.972,0.298-2.008,0.675-2.601,1.553
									c-0.159,0.236-0.263,0.488-0.337,0.745c-0.162,0.029-0.325,0.055-0.486,0.084c-6.353,1.167-12.944,2.779-17.778,7.064
									c-4.413,3.912-6.852,9.693-7.677,15.532c-0.825,5.839-0.169,11.785,0.779,17.606c0.156,0.957,0.334,1.947,0.888,2.743
									c0.576,0.826,1.489,1.341,2.377,1.815c4.421,2.36,10.724,6.586,16.127,5.795c0.348,0.495,0.702,0.99,1.066,1.484
									c0.479,0.652,1.037,1.334,1.826,1.514c0.893,0.204,1.799-0.311,2.456-0.948c1.611-1.562,2.285-3.837,2.757-6.031
									c0.675-3.136,1.068-6.332,1.173-9.538c0.023-0.701,0.024-1.425-0.044-2.133c0.618-0.3,1.307-0.516,1.942-0.769
									c3.232-1.285,5.83-4.394,5.931-7.871c0.095-3.279-1.857-6.83-0.175-9.646c0.709-1.188,1.951-1.965,2.75-3.095
									c0.881-1.246,1.133-2.811,1.136-4.35c5.073-0.556,10.179-3.054,14.568-5.942c2.379-1.566,5.234-2.74,7.91-1.991
									c2.182,0.611,4.165,2.463,6.396,2.011C228.09,155.344,223.866,153.633,219.75,152.57z"/>
								<g>
									<g>
										<g>
											<g>
												<path class="st85" d="M182.926,204.817c-2.906-2.512-5.883-5.067-9.444-6.504c-3.562-1.437-7.879-1.579-11.04,0.602
													c-4.368,3.014-5.077,9.434-3.265,14.422c1.948,5.362,6.354,9.774,11.712,11.731c5.359,1.957,11.571,1.421,16.515-1.423
													C188.106,215.168,188.33,209.487,182.926,204.817z"/>
												<g>
													<path class="st92" d="M171.431,205.224c-2.504,2.999-3.555,7.159-2.776,10.987"/>
													<path class="st92" d="M176.549,214.357c0.047,0.087,0.093,0.174,0.139,0.26c-1.076-3.056-3.961-5.395-7.173-5.816"/>
												</g>
											</g>
											<g>
												<path class="st93" d="M177.423,222.628c0.017,1.237,0.156,2.437,0.402,3.6c0.152,0.776,0.356,1.515,0.596,2.254
													c2.832,4.274,5.937,7.82,9.246,10.763c0,0,0.018,0,0.018,0.017c2.687,1.395,5.755,2.167,9.006,2.124
													c10.496-0.141,18.881-8.772,18.74-19.268c-0.003-0.212-0.006-0.424-0.026-0.618c-0.455-10.209-8.94-18.278-19.224-18.14
													c-4.17,0.056-7.987,1.45-11.084,3.754C180.372,210.624,177.338,216.285,177.423,222.628z"/>
												<path class="st93" d="M233.93,220.684c0.078,5.851,2.916,11.032,7.25,14.295c0.329-0.518,0.638-1.056,0.927-1.594
													c4.804-8.862,5.504-20.061,5.147-30.455C239.454,205.071,233.817,212.264,233.93,220.684z"/>
												<g>
													<g>
														<g>
															<path class="st91" d="M234.187,199.32c0.031,2.276,1.9,4.097,4.177,4.066c2.277-0.03,4.097-1.9,4.066-4.177
																c-0.031-2.276-1.901-4.097-4.177-4.066C235.977,195.174,234.156,197.044,234.187,199.32z"/>
															<path class="st91" d="M203.911,200.105c0.031,2.276,1.901,4.097,4.177,4.066c2.276-0.03,4.097-1.901,4.066-4.177
																c-0.031-2.276-1.9-4.097-4.177-4.066C205.702,195.959,203.881,197.829,203.911,200.105z"/>
														</g>
													</g>
													<g>
														<g>
															<path class="st94" d="M229.663,201.861c1.148,1.979,3.507,8.552,3.243,10.825c-0.222,1.914-1.561,3.656-3.353,4.362"
																/>
															<path class="st94" d="M225.376,216.849c-0.254-0.598-0.823-1.081-1.471-1.123c-0.648-0.042-1.321,0.438-1.394,1.083"
																/>
														</g>
														<path class="st94" d="M227.493,224.294c-4.199,0.94-8.804-0.141-12.145-2.852"/>
													</g>
												</g>
											</g>
										</g>
									</g>
									<path class="st91" d="M197.854,188.938c-0.562,0.988-0.718,2.199-0.197,3.235c0.905,1.797,3.44,2.506,5.67,2.607
										c3.143,0.142,6.297-0.5,8.989-1.831c4.992-2.467,2.894-7.997-2.406-9.266C205.921,182.728,199.56,185.94,197.854,188.938z"
										/>
									<path class="st91" d="M247.456,190.687c-0.954,0.654-2.249,1.06-3.446,1.229c-2.731,0.391-5.521,0.108-7.983-0.822
										c-4.549-1.712-3.214-6.696,1.291-8.26c2.522-0.878,6.369,0.134,8.89,1.705
										C246.723,186.423,247.139,188.462,247.456,190.687z"/>
								</g>
							</g>
						</g>
					</g>
					<path class="st35" d="M176.201,251.484c0,0,27.23,17.485,42.336,1.014l1.077,2.765c0,0,21.161,62.964,23.512,111.15
						c2.351,48.186,9.794,93.629,9.794,93.629l-72.475,0.392l-8.619-206.455L176.201,251.484z"/>
					<path class="st52" d="M193.958,384.233c-0.783,49.361,1.181,92.062-5.478,102.251c-6.659,10.188-37.607,38.39-57.585,37.607
						c-19.993-0.783-28.601-2.747-28.601-2.747s1.902-45.003,4.879-95.668c0.23-4.051,0.476-8.132,0.721-12.229
						c3.606-58.782,7.086-122.774,11.959-129.172c17.107-22.461,45.504-31.277,56.474-32.443
						C176.328,251.833,194.74,334.873,193.958,384.233z"/>
					<polyline class="st95" points="176.328,251.833 150.41,284.798 171.565,299.946 160.596,322.668 192.981,355.053 					"/>
					<g>
						<path class="st91" d="M221.912,294.488l0.922,5.157l-5.21-1.634l-39.67-48.282c-0.758-0.922-0.412-2.458,0.772-3.431l0,0
							c1.184-0.973,2.758-1.014,3.516-0.092L221.912,294.488z"/>
						<g>
							<path class="st85" d="M159.751,307.846c0,0,12.876-32.695,15.528-35.763c2.944-3.407,9.614-10.361,13.163-10.518
								c3.549-0.157,16.707,0.002,21.748,4.028c5.04,4.025,15.981,14.681,14.099,19.511c-1.882,4.831-6.838,8.816-16.218,6.617
								c-9.381-2.2-12.895-0.392-12.895-0.392s0.102,8.837-5.611,16.143c-5.713,7.306-13.796,11.853-13.796,11.853L159.751,307.846z
								"/>
							<path class="st95" d="M192.993,279.769c0,0,14.567,2.36,18.019,4.457c2.634,1.6,8.146,4.373,9.823,5.578"/>
							<path class="st95" d="M197.281,271.966c0,0,11.64,2.607,16.909,5.719c5.269,3.112,9.708,7.976,9.708,7.976"/>
							<path class="st95" d="M202.264,265.821c0,0,10.698,3.463,15.334,7.425c4.636,3.961,6.561,7.607,6.837,8.965"/>
						</g>
					</g>
					<path class="st52" d="M281.909,325.671c-5.738-27.676-19.026-46.324-22.599-50.961c-0.299-0.44-0.6-0.836-0.906-1.142
						c-8.227-8.227-23.505-14.103-39.175-19.196c0,0,20.371,195.094,23.897,204.888c3.526,9.794,12.536,30.557,19.196,31.34
						c6.66,0.784,40.743-1.175,40.743-1.175s-2.539-10.219-6.065-25.208l6.065,25.208l7.052-0.784
						C310.116,488.641,288.569,357.795,281.909,325.671z"/>
					<g>
						<path class="st52" d="M120.115,283.753c0,0-32.516,39.567-34.474,80.31c-1.959,40.742,32.124,66.206,59.938,52.887
							c27.815-13.32,39.567-103.031,39.567-103.031L120.115,283.753z"/>
						<g>
							<path class="st95" d="M158.245,301.774l26.9,12.145c0,0-8.357,71.691-32.124,90.234c-23.766,18.543-45.444,8.88-45.444,8.88"
								/>
							<line class="st95" x1="158.245" y1="301.774" x2="121.682" y2="357.403"/>
							<line class="st95" x1="118.809" y1="351.135" x2="130.561" y2="343.822"/>
						</g>
						<path class="st95" d="M111.573,413.837c2.226-2.873,4.564-5.84,7.817-7.462c2.787-1.39,6.019-1.659,9.12-1.371
							c4.86,0.45,9.784,2.368,12.853,6.164"/>
						<path class="st91" d="M149.338,407.31c-12.843,16.817-34.309,18.382-42.165,18.366c0.23-4.051,0.476-8.132,0.721-12.229
							c2.823,0.506,6.107,1.059,9.866,1.673C133.519,417.652,148.51,407.847,149.338,407.31z"/>
					</g>
					<g>
						<polyline class="st95" points="219.229,254.372 238.686,270.695 228.761,294.984 242.864,308.564 230.851,358.709 						"/>
						<path class="st95" d="M268.981,319.795c0,0,14.103,53.279,18.804,81.877c4.701,28.598,15.278,87.753,15.278,87.753"/>
						<line class="st95" x1="277.078" y1="328.152" x2="275.511" y2="345.65"/>
						<line class="st95" x1="241.167" y1="338.207" x2="263.497" y2="336.64"/>
					</g>
				</g>
			</g>
		</g>
		<g>
			<g>
				<g>
					<path class="st70" d="M717.479,323.684l-74.373,200.817l-3.438,9.29h-145.89l79.958-222.545H708.36
						C715.042,311.246,719.723,317.62,717.479,323.684z"/>
					<path class="st84" d="M717.479,323.684l-74.373,200.817l-19.933-3.645l80.345-209.61h4.842
						C715.042,311.246,719.723,317.62,717.479,323.684z"/>
				</g>
			</g>
			<g>
				<g>
					<g>
						<path class="st96" d="M548.659,207.21c-1.24-3.939-2.833-7.811-5.247-11.164c-2.732-3.789-6.453-6.806-10.61-8.951
							c-1.834-0.949-3.761-1.707-5.735-2.306c0.637-2.787,1.057-5.623,1.209-8.477c0.139-2.621,0.073-5.253-0.202-7.864
							c-0.183-1.736,0.017-6.646-2.559-5.528c-7.974,3.462-14.007,10.687-16.941,18.87c-0.599,1.67-1.047,3.383-1.411,5.113
							c-2.91,8.225-2.787,17.469,0.377,25.603c1.442,3.688,3.52,7.426,2.933,11.331c-0.503,3.403-2.967,6.186-5.716,8.248
							c-2.749,2.062-5.867,3.587-8.566,5.699c-8.063,6.336-11.315,18.137-7.627,27.709l6.219,0.033
							c-0.452-4.425,0.168-8.951,1.811-13.075c0.721,4.459,1.794,8.851,3.319,13.092l48.109,0.201
							C551.626,246.217,554.543,226.168,548.659,207.21z"/>
						<path class="st96" d="M621.238,264.227l-7.325,0.084c-0.101-4.828-1.14-9.069-2.699-13.745
							c-0.419,4.71-1.425,9.353-2.967,13.796l-21.439,0.218l-3.168,0.034l-1.592,0.017l-1.927,0.017l-2.464,0.034l-3.219,0.034
							l-16.612,0.168c-0.235-1.391-0.486-2.766-0.738-4.14c-0.486-2.531-1.006-5.029-1.458-7.543
							c-0.067-0.335-0.117-0.654-0.185-0.989c-0.268-1.492-0.503-3-0.704-4.509c-0.201-1.458-0.369-2.933-0.486-4.425v-0.017
							c-0.687-9.203-0.352-18.439-0.754-27.658c-0.05-0.972-0.101-1.944-0.151-2.917c-0.218-3.57-0.536-7.124-0.905-10.678
							c-0.168-1.559-0.352-3.118-0.536-4.677c-0.067-0.654-0.151-1.308-0.218-1.961c-0.285-2.313-0.57-4.61-0.855-6.923
							c-0.989-7.879-1.978-15.74-2.95-23.602c-0.234-1.877-0.469-3.772-0.704-5.649c-0.201-1.509-0.436-3.671-0.637-5.163
							c1.878,0.184,3.738,0.436,5.599,0.754c1.911,0.318,3.822,0.704,5.699,1.173c4.626,1.123,9.136,2.682,13.444,4.694
							c4.375,2.028,8.532,4.526,12.371,7.526c10.678,8.348,18.673,20.735,20.769,34.481c0.788,5.129,1.006,10.929,4.71,14.382
							c1.861,1.743,4.358,2.565,6.403,4.057c3.973,2.867,5.967,7.895,7.09,12.807C624.909,243.877,624.406,254.521,621.238,264.227z
							"/>
						<g>
							<path class="st97" d="M577.89,271.154l-43.02,10.092l2.103-14.246l1.714-11.718l0.035-0.194l0.513-3.482l37.152-20.608
								c0,0.053,0.018,0.566,0.053,1.449c0,0.017,0,0.017,0,0.017C576.706,239.711,577.89,271.154,577.89,271.154z"/>
							<path class="st91" d="M571.214,242.305c-7.062,18.938-22.133,23.83-34.24,24.696l1.617-11.785
								c2.05,0.142,4.198,0.191,6.23,0.014c0.035,0,0.088,0,0.142-0.017c0.371-0.018,0.742-0.071,1.096-0.106
								c0.53-0.071,1.06-0.141,1.591-0.212c0.371-0.07,0.76-0.141,1.131-0.194c0.23-0.053,0.477-0.106,0.707-0.159
								C555.126,253.391,566.548,245.681,571.214,242.305z"/>
						</g>
						<path class="st97" d="M588.538,204.143v0.318c0,0.654-0.017,1.308-0.067,1.961c-0.017,0.821-0.084,1.609-0.184,2.414
							c-0.067,0.821-0.184,1.626-0.335,2.431c-0.402,2.313-1.023,4.56-1.844,6.755c-0.402,1.056-0.838,2.112-1.341,3.135
							c-0.587,1.24-1.257,2.447-1.978,3.604c-1.257,2.045-3.386,3.839-4.459,5.917c-0.201,0.402-0.419,0.771-0.603,1.157
							c-0.302,0.537-0.603,1.073-0.905,1.576c-0.436,0.738-0.872,1.458-1.324,2.146l-0.017,0.017
							c-2.632,4.09-5.532,7.493-8.633,10.326c0,0-0.017,0-0.017,0.017c0,0,0,0-0.017,0.017c-17.5,15.807-40.784,12.069-50.623-3.151
							c-0.067-0.084-0.117-0.168-0.151-0.251c-0.319-0.486-0.62-0.989-0.905-1.492c-4.66-8.348-5.465-18.958-5.264-28.832
							c0-0.268,0.017-0.536,0.017-0.805c0.05-3.386-0.956-5.884-0.402-10.51c1.525-12.606,6.705-19.143,14.516-26.166
							c3.369-3.017,7.191-5.398,11.315-7.057c6.956-2.833,14.701-3.671,22.16-2.079
							C575.479,169.427,588.353,185.905,588.538,204.143z"/>
						<g>
							<g>
								<g>
									<path class="st97" d="M570.905,213.184c2.724-2.419,5.515-4.88,8.875-6.289c3.36-1.408,7.453-1.598,10.479,0.431
										c4.181,2.803,4.935,8.883,3.28,13.637c-1.779,5.11-5.902,9.351-10.959,11.275c-5.058,1.924-10.956,1.495-15.683-1.14
										C566.124,223.067,565.839,217.682,570.905,213.184z"/>
									<g>
										<path class="st98" d="M581.812,213.424c2.413,2.812,3.463,6.745,2.773,10.386"/>
										<path class="st98" d="M577.074,222.152c-0.043,0.083-0.086,0.166-0.129,0.249c0.982-2.912,3.688-5.167,6.729-5.608"/>
									</g>
								</g>
								<g>
									<path class="st99" d="M576.351,230.007c0,1.173-0.117,2.313-0.335,3.419c-0.134,0.738-0.318,1.442-0.536,2.146
										c-2.632,4.09-5.532,7.493-8.633,10.326c0,0-0.017,0-0.017,0.017c-2.531,1.358-5.431,2.129-8.515,2.129
										c-9.957,0-18.02-8.079-18.02-18.036c0-0.201,0-0.402,0.017-0.587c0.302-9.689,8.247-17.45,18.003-17.45
										c3.956,0,7.594,1.274,10.561,3.42C573.401,218.659,576.351,223.989,576.351,230.007z"/>
									<path class="st99" d="M522.731,228.882c0,5.55-2.625,10.501-6.694,13.651c-0.319-0.487-0.619-0.994-0.9-1.5
										c-4.669-8.344-5.475-18.957-5.269-28.821C517.293,214.144,522.731,220.894,522.731,228.882z"/>
									<g>
										<g>
											<g>
												<path class="st91" d="M522.215,208.623c0,2.159-1.751,3.91-3.91,3.91c-2.16,0-3.91-1.751-3.91-3.91
													c0-2.159,1.751-3.91,3.91-3.91C520.465,204.713,522.215,206.463,522.215,208.623z"/>
												<path class="st91" d="M550.941,208.981c0,2.159-1.75,3.91-3.91,3.91s-3.91-1.751-3.91-3.91c0-2.159,1.75-3.91,3.91-3.91
													S550.941,206.822,550.941,208.981z"/>
											</g>
											<path class="st91" d="M546.15,200.998c0.448,0.1,0.882,0.18,1.253,0.266c1.284,0.297,8.072,1.892,7.695-0.778
												c-0.041-0.291-0.213-0.544-0.393-0.776c-1.707-2.206-4.574-3.554-7.296-3.914c-1.869-0.247-4.936,0.598-4.353,3.091
												C543.369,200.225,544.823,200.701,546.15,200.998z"/>
											<path class="st91" d="M519.824,200.374c-1.159,0.29-2.404,0.387-3.207,0.466c-1.202,0.118-3.995,0.337-4.634-1.025
												c-0.156-0.332-0.113-0.729,0.025-1.069c0.542-1.326,2.347-2.212,3.61-2.673c1.506-0.55,3.157-0.702,4.729-0.365
												c1.177,0.253,2.77,1.321,2.309,2.721C522.309,199.483,521.12,200.05,519.824,200.374z"/>
										</g>
										<g>
											<g>
												<path class="st100" d="M525.487,215.174c-1.064,1.892-2.165,3.956-1.886,6.109c0.235,1.812,1.527,3.448,3.236,4.095"/>
												<path class="st100" d="M530.795,225.136c0.233-0.57,0.767-1.036,1.381-1.084c0.614-0.048,1.258,0.398,1.336,1.009"/>
											</g>
											<path class="st101" d="M538.93,228.767c-2.282,1.837-5.209,2.865-8.138,2.862c-0.561-0.001-0.864,0.657-0.471,1.057
												c1.234,1.256,3.543,2.964,6.282,1.913c2.76-1.059,3.295-3.714,3.349-5.343C539.97,228.72,539.347,228.431,538.93,228.767
												z"/>
										</g>
									</g>
								</g>
							</g>
							<g>
								<path class="st96" d="M591.367,205.96c-0.855,0.034-1.827,0.084-2.883,0.134c-0.285,0.033-0.57,0.05-0.872,0.067
									c-2.229,0.151-4.727,0.352-7.275,0.52c-1.24,0.067-2.481,0.134-3.705,0.184c-3.52,0.134-6.873,0.101-9.37-0.352
									c-0.134-0.017-0.251-0.034-0.369-0.067c-5.582-2.883-10.912-6.403-15.204-11.08c-1.81-1.944-3.436-4.107-4.811-6.521
									c0.034,2.347,0.268,4.694,0.704,6.99c0.302,1.576,0.687,3.118,1.157,4.626c-1.257-0.586-2.498-1.223-3.721-1.877
									c-0.637-0.352-1.257-0.704-1.878-1.073c-4.928-2.933-9.404-6.571-12.823-11.147c-0.151-0.184-0.285-0.385-0.419-0.587
									c-0.855-1.173-1.626-2.431-2.296-3.721c-1.308-2.514-2.28-5.23-2.816-8.012c-0.017-0.084-0.034-0.168-0.05-0.252
									c-0.771-4.14-0.201-7.928,1.542-11.03c1.911-3.42,5.213-6.035,9.655-7.376c5.045-1.525,10.242-1.777,15.321-1.022
									c0.017,0,0.017,0,0.034,0c2.229,0.352,4.408,0.888,6.554,1.592c10.208,3.386,19.277,10.762,24.524,19.981
									c2.799,4.928,4.207,10.192,5.079,15.757C588.299,197.109,591.635,200.462,591.367,205.96z"/>
								<path class="st96" d="M568.925,212.384c0.326,1.277,0.958,2.822,2.274,2.891c1.221,0.064,2.024-1.213,2.551-2.316
									c0.561-1.173,1.122-2.346,1.684-3.519c0.928-1.94,1.864-3.902,2.322-6.003c0.458-2.101,0.401-4.387-0.593-6.294
									c-1.221-2.344-3.958-3.878-6.568-3.457c-3.009,0.485-5.364,3.683-4.838,6.665
									C566.468,204.371,567.915,208.419,568.925,212.384z"/>
							</g>
						</g>
					</g>
					<g>
						<path class="st102" d="M537.582,264.31c0,0,20.347,16.495,40.034-2.336l9.897,4.333l-2.568,184.032H513.9l10.271-181.179
							L537.582,264.31z"/>
						<g>
							<path class="st47" d="M490.128,287.951c0,0-8.581,2.97-18.152,47.854c-9.571,44.884-35.643,164.684-35.643,164.684
								l47.854,3.3l24.092-187.125L490.128,287.951z"/>
							<path class="st47" d="M533.587,265.879L511.332,524.38l-50.502-12.411c0,0,17.127-208.229,27.391-222.122
								C499.919,274.011,533.587,265.879,533.587,265.879z"/>
						</g>
						<g>
							<polyline class="st103" points="533.587,265.879 507.338,298.263 521.033,315.668 505.341,346.483 523.886,384.145 							
								"/>
							<path class="st103" d="M491.217,332.644c0,0-7.276,26.535-7.276,35.523c0,8.988,3.852,32.527,3.852,32.527l-5.279,46.507"/>
						</g>
						<g>
							<g>
								<path class="st44" d="M509.62,446.345c0,0,103.782,3.421,103.857,3.424c1.281,0.042,4.921,9.391,5.392,10.405
									c3.917,8.417,7.127,17.205,9.303,26.236c4.214,17.496,3.567,37.624-5.716,53.466c-11.807,20.15-34.886,23.942-56.199,27.093
									c-23.103,3.415-46.728,2.951-69.761-0.789l-5.136,87.308l-58.205,7.418c0,0-39.828-160.634-12.554-192.306
									C438.29,448.057,509.62,446.345,509.62,446.345z"/>
							</g>
						</g>
						<g>
							<g>
								<path class="st47" d="M580.291,262.991l-26.588,265.241c0,0,48.244,21.031,95.868,5.992
									c2.711-0.856-14.551-108.707-16.691-126.254c-2.14-17.547-8.56-121.547-8.56-121.547S602.118,266.842,580.291,262.991z"/>
								<g>
									<polyline class="st103" points="580.291,262.991 608.056,288.99 586.657,317.237 601.208,333.073 566.97,396.414 									
										"/>
									<g>
										<g>
											<path class="st47" d="M624.319,286.423c0,0,22.255,19.687,31.243,57.778c8.988,38.09,24.823,106.139,2.996,117.695
												c-21.827,11.556-41.514,1.284-53.926-36.806c-12.411-38.09-7.704-62.913-7.704-62.913L624.319,286.423z"/>
											<path class="st103" d="M641.724,466.032c0,0-19.687-3.139-32.526-24.252c-12.84-21.114-13.695-79.034-13.695-79.034
												l33.097-16.263c0,0,20.543,19.973,25.679,33.097"/>
										</g>
									</g>
								</g>
							</g>
							<g>
								<path class="st97" d="M599.282,360.677c0,0-4.28-7.276-5.778-8.346c-1.498-1.07-23.967-23.325-20.971-27.177
									c0,0,1.284-1.284,2.568-0.428c0,0-10.913-13.481-8.56-16.263c2.354-2.782,19.616,16.406,19.616,16.406l0.499-0.571
									c0,0-16.477-19.259-13.909-23.111c2.568-3.852,21.185,18.617,21.185,18.617s-15.835-21.613-13.053-25.251
									c3.402-4.449,28.782,26.535,28.782,26.535s-5.749-15.078-2.388-20.47c0.417-0.669,1.294-0.931,2.016-0.615
									c1.277,0.559,2.832,1.826,5.079,6.427c3.244,6.641,9.095,22.897,10.058,28.568c0.789,4.646,1.605,12.411,1.605,12.411
									L599.282,360.677z"/>
								<path class="st91" d="M575.101,324.727l8.774,10.593C583.875,335.319,576.064,330.505,575.101,324.727z"/>
							</g>
						</g>
					</g>
				</g>
			</g>
		</g>
		<g>
			<g>
				<polygon class="st47" points="466.537,205.191 483.513,238.061 444.142,225.057 				"/>
				<g>
					
						<ellipse transform="matrix(0.3765 -0.9264 0.9264 0.3765 91.8228 514.7927)" class="st47" cx="428.37" cy="189.178" rx="46.716" ry="46.716"/>
					<g>
						<path class="st35" d="M445.736,189.659c0,2.366,1.918,4.285,4.285,4.285c2.366,0,4.285-1.918,4.285-4.285
							c0-2.367-1.918-4.285-4.285-4.285C447.654,185.374,445.736,187.293,445.736,189.659z"/>
						<path class="st35" d="M423.292,189.659c0,2.366,1.918,4.285,4.285,4.285c2.366,0,4.285-1.918,4.285-4.285
							c0-2.367-1.918-4.285-4.285-4.285C425.21,185.374,423.292,187.293,423.292,189.659z"/>
						<path class="st35" d="M400.848,189.659c0,2.366,1.918,4.285,4.285,4.285c2.366,0,4.285-1.918,4.285-4.285
							c0-2.367-1.918-4.285-4.285-4.285C402.766,185.374,400.848,187.293,400.848,189.659z"/>
					</g>
				</g>
			</g>
			<g>
				
					<ellipse transform="matrix(0.7071 -0.7071 0.7071 0.7071 -8.2165 261.8038)" class="st70" cx="311.917" cy="140.82" rx="47.363" ry="47.363"/>
				<g>
					<path class="st47" d="M286.55,152.969c-0.825,0-1.494-0.669-1.494-1.494v-19.968c0-0.825,0.669-1.494,1.494-1.494
						c0.825,0,1.494,0.669,1.494,1.494v19.968C288.044,152.3,287.375,152.969,286.55,152.969z"/>
					<path class="st47" d="M299.234,160.305c-0.825,0-1.494-0.669-1.494-1.494v-34.434c0-0.825,0.669-1.494,1.494-1.494
						c0.825,0,1.494,0.669,1.494,1.494v34.434C300.728,159.636,300.059,160.305,299.234,160.305z"/>
					<path class="st47" d="M337.284,152.969c-0.825,0-1.494-0.669-1.494-1.494v-19.968c0-0.825,0.669-1.494,1.494-1.494
						c0.825,0,1.494,0.669,1.494,1.494v19.968C338.778,152.3,338.109,152.969,337.284,152.969z"/>
					<path class="st47" d="M324.6,160.305c-0.825,0-1.494-0.669-1.494-1.494v-34.434c0-0.825,0.669-1.494,1.494-1.494
						c0.825,0,1.494,0.669,1.494,1.494v34.434C326.094,159.636,325.425,160.305,324.6,160.305z"/>
					<path class="st47" d="M311.917,164.787c-0.825,0-1.494-0.669-1.494-1.494v-50.938c0-0.825,0.669-1.494,1.494-1.494
						c0.825,0,1.494,0.669,1.494,1.494v50.938C313.411,164.118,312.742,164.787,311.917,164.787z"/>
				</g>
			</g>
			<g>
				<g>
					<ellipse class="st70" cx="414.278" cy="60.318" rx="43.656" ry="45.384"/>
				</g>
				<polygon class="st47" points="406.931,40.845 406.931,77.809 433.132,57.706 				"/>
			</g>
		</g>
	</g>
</g>
</svg>
