<?xml version="1.0" encoding="utf-8"?>
<!-- Generator: Adobe Illustrator 25.4.1, SVG Export Plug-In . SVG Version: 6.00 Build 0)  -->
<svg version="1.1" id="Layer_1" xmlns="http://www.w3.org/2000/svg" xmlns:xlink="http://www.w3.org/1999/xlink" x="0px" y="0px"
	 viewBox="0 0 675.125 655.609" style="enable-background:new 0 0 675.125 655.609;" xml:space="preserve">
<style type="text/css">
	.st0{fill:#EBF0F1;}
	.st1{fill:#DFE9F2;}
	.st2{fill:#A8B0B6;}
	.st3{clip-path:url(#SVGID_00000053518470993280556750000008308566972258565531_);}
	.st4{fill:#CCCCCC;}
	.st5{fill:#876441;}
	.st6{fill:#F3A48A;}
	.st7{fill:#CF5D43;}
	.st8{fill:#DD6D4E;}
	.st9{fill:#ABA97B;}
	.st10{fill:#E3E0A2;}
	.st11{fill:#303030;}
	.st12{fill:#EFEDE3;}
	.st13{fill:#353535;}
	.st14{fill:#9F714A;}
	.st15{fill:#775336;}
	.st16{fill:#412C19;}
	.st17{fill:#B5B573;}
	.st18{clip-path:url(#SVGID_00000101788116300950251020000005180859462289622684_);}
	.st19{fill:#3B9A64;}
	.st20{fill:#AC614E;}
	.st21{fill:#C1C57C;}
	.st22{clip-path:url(#SVGID_00000040549443015070906890000014340713830556467903_);}
	.st23{fill:#4CA66F;}
	.st24{fill:#FCF9EE;}
	.st25{fill:#F47F64;}
	.st26{fill:#668F95;}
	.st27{fill:#EBE6D5;}
	.st28{fill:#005D68;}
	.st29{fill:#FFC099;}
	.st30{fill:#003239;}
	.st31{fill:#DF8E7A;}
	.st32{fill:#B77B67;}
	.st33{fill:#68472F;}
	.st34{fill:#FBA983;}
	.st35{fill:#FFFFFF;}
	.st36{fill:#F88D61;}
	.st37{fill:#C79072;}
	.st38{fill:#573C28;}
	.st39{fill:#FFA16C;}
	.st40{fill:#F5F5F5;}
	.st41{fill:#E1E1E1;}
	.st42{fill:#ECECEC;}
	.st43{fill:#FAFAFA;}
	.st44{fill:#1A2E35;}
	.st45{fill:#375A64;}
	.st46{opacity:0.3;}
	.st47{fill:#498269;}
	.st48{fill:#946962;}
	.st49{fill:#6F4540;}
	.st50{fill:#CE4F41;}
	.st51{opacity:0.6;}
	.st52{fill:#305A46;}
	.st53{fill:#F7D858;}
	.st54{opacity:0.2;}
	.st55{opacity:0.4;}
	.st56{fill:#101010;}
	.st57{fill:#6AB792;}
	.st58{fill:#D25F3B;}
	.st59{fill:#E57E5B;}
	.st60{fill:none;stroke:#D25F3B;stroke-width:1.3008;stroke-linecap:round;stroke-linejoin:round;stroke-miterlimit:10;}
	.st61{fill:none;stroke:#498269;stroke-width:1.8047;stroke-linecap:round;stroke-linejoin:round;stroke-miterlimit:10;}
	.st62{fill:#39ACB2;}
	.st63{clip-path:url(#SVGID_00000061433195186062814220000016466642388320361127_);}
	.st64{fill:none;stroke:#305A46;stroke-width:3.1006;stroke-linecap:round;stroke-linejoin:round;stroke-miterlimit:10;}
	.st65{fill:#EC8A63;}
	.st66{fill:#FFB890;}
	.st67{fill:none;stroke:#EC8A63;stroke-width:2.028;stroke-linecap:round;stroke-linejoin:round;stroke-miterlimit:10;}
	.st68{opacity:0.26;fill:#FFFFFF;}
	.st69{fill:none;stroke:#FFFFFF;stroke-width:1.9299;stroke-linecap:round;stroke-linejoin:round;stroke-miterlimit:10;}
	.st70{fill:#DAF0FA;}
	.st71{fill:#FFBF9D;}
	.st72{fill:#FF9A6C;}
	.st73{fill:none;stroke:#44555B;stroke-miterlimit:10;}
	.st74{fill:#C78976;}
	.st75{fill:#BF654E;}
	.st76{fill:none;stroke:#44555B;stroke-width:0.05;stroke-miterlimit:10;}
	.st77{fill:none;stroke:#44555B;stroke-width:0.0469;stroke-miterlimit:10;}
	.st78{fill:#FF735D;}
	.st79{clip-path:url(#SVGID_00000150064433889662522200000000524053132669876397_);}
	.st80{fill:#FFDAD9;}
	.st81{fill:#DCDFE0;}
	.st82{fill:none;stroke:#B6E1F4;stroke-width:5.3697;stroke-linecap:round;stroke-linejoin:round;stroke-miterlimit:10;}
	.st83{fill:none;stroke:#B6E1F4;stroke-width:5.0288;stroke-miterlimit:10;}
	.st84{opacity:0.44;fill:#B6E1F4;}
	.st85{fill:#E07280;}
	.st86{fill:#7E5780;}
	.st87{opacity:0.22;fill:#7E5780;}
	.st88{fill:none;stroke:#FFD0C5;stroke-width:0.3194;stroke-miterlimit:10;}
	.st89{fill:none;stroke:#FFD0C5;stroke-width:0.3836;stroke-miterlimit:10;}
	.st90{fill:none;stroke:#401A49;stroke-width:1.5344;stroke-linecap:round;stroke-linejoin:round;stroke-miterlimit:10;}
	.st91{fill:#401A49;}
	.st92{fill:none;stroke:#161C3E;stroke-width:1.1265;stroke-linecap:round;stroke-linejoin:round;stroke-miterlimit:10;}
	.st93{opacity:0.09;fill:#E07280;}
	.st94{fill:none;stroke:#401A49;stroke-width:0.9884;stroke-linecap:round;stroke-linejoin:round;stroke-miterlimit:10;}
	.st95{fill:none;stroke:#401A49;stroke-width:0.7672;stroke-linecap:round;stroke-linejoin:round;stroke-miterlimit:10;}
	.st96{fill:#994975;}
	.st97{fill:#FF8A9A;}
	.st98{fill:none;stroke:#161C3E;stroke-width:1.0685;stroke-linecap:round;stroke-linejoin:round;stroke-miterlimit:10;}
	.st99{opacity:0.35;fill:#EF5D6B;}
	.st100{fill:none;stroke:#401A49;stroke-width:0.9376;stroke-linecap:round;stroke-linejoin:round;stroke-miterlimit:10;}
	.st101{fill:#FFF5EB;}
	.st102{fill:#F2B2D6;}
	.st103{fill:none;stroke:#FFF5EB;stroke-width:0.8381;stroke-linecap:round;stroke-linejoin:round;stroke-miterlimit:10;}
	.st104{opacity:0.22;fill:#401A49;}
	.st105{fill:none;stroke:#FFDAD9;stroke-width:0.8381;stroke-miterlimit:10;}
	.st106{fill:none;stroke:#FFDAD9;stroke-width:0.8381;stroke-linecap:round;stroke-linejoin:round;stroke-miterlimit:10;}
	.st107{fill:none;stroke:#401A49;stroke-width:1.6763;stroke-linecap:round;stroke-linejoin:round;stroke-miterlimit:10;}
	.st108{fill:#FFD0C5;}
	.st109{fill:#FDB22C;}
	.st110{fill:#1A8B91;}
	.st111{fill:none;stroke:#000000;stroke-width:0.8147;stroke-linecap:round;stroke-linejoin:round;stroke-miterlimit:10;}
	.st112{fill:#ECA079;}
	.st113{fill:#FDF1F5;}
	.st114{fill:#E6C6CE;}
	.st115{fill:#862904;}
	.st116{fill:#DC845E;}
	.st117{fill:none;stroke:#000000;stroke-width:0.848;stroke-linecap:round;stroke-linejoin:round;stroke-miterlimit:10;}
	.st118{clip-path:url(#XMLID_00000023262750087103296210000008325212091947937425_);}
	.st119{clip-path:url(#XMLID_00000094587186407260928390000006144362841211297212_);}
	.st120{fill:none;stroke:#000000;stroke-width:0.8027;stroke-linecap:round;stroke-linejoin:round;stroke-miterlimit:10;}
	.st121{fill:none;stroke:#FFFFFF;stroke-width:2.99;stroke-linecap:round;stroke-linejoin:round;}
	.st122{fill:none;stroke:#FFFFFF;stroke-width:2.99;stroke-linecap:round;stroke-linejoin:round;stroke-dasharray:18.4657,18.4657;}
	.st123{fill:none;stroke:#000000;stroke-width:0.9784;stroke-linecap:round;stroke-linejoin:round;stroke-miterlimit:10;}
	.st124{clip-path:url(#XMLID_00000093178800842760067940000002983503881846068631_);}
	.st125{fill:none;stroke:#000000;stroke-width:0.682;stroke-linecap:round;stroke-linejoin:round;stroke-miterlimit:10;}
	.st126{fill:#AE3700;}
	.st127{fill:none;stroke:#FFFFFF;stroke-width:1.7082;stroke-linecap:round;stroke-linejoin:round;stroke-miterlimit:10;}
	.st128{fill:none;stroke:#000000;stroke-width:0.9976;stroke-linecap:round;stroke-linejoin:round;stroke-miterlimit:10;}
	.st129{fill:#528E72;}
	.st130{fill:#F0DBE0;}
	.st131{fill:#89331A;}
	.st132{fill:none;stroke:#CCDADC;stroke-linecap:round;stroke-linejoin:round;}
	.st133{opacity:0.45;fill:#F7E3C7;enable-background:new    ;}
	.st134{fill:#222222;}
	.st135{fill:#F47365;}
	.st136{fill:none;stroke:#222222;stroke-width:0.211;stroke-linecap:round;stroke-linejoin:round;}
	.st137{opacity:0.5;fill:#F43D4F;enable-background:new    ;}
	.st138{fill:#F43D4F;}
	.st139{fill:none;stroke:#FFF7EE;stroke-width:0.422;stroke-miterlimit:10;}
	.st140{fill:#FBB244;}
	.st141{fill:#FFF7EE;}
	.st142{opacity:0.22;}
	.st143{clip-path:url(#SVGID_00000122694439105890022800000003543057639207899284_);}
	.st144{fill:none;stroke:#FFFFFF;stroke-width:0.422;stroke-linecap:round;stroke-linejoin:round;}
	.st145{fill:none;stroke:#222222;stroke-width:2.166;stroke-linecap:round;stroke-linejoin:round;}
	.st146{fill:none;stroke:#222222;stroke-width:2.1655;stroke-linecap:round;stroke-linejoin:round;stroke-miterlimit:3.9991;}
	.st147{clip-path:url(#SVGID_00000087396986896179502780000001376889868382344609_);}
	.st148{fill:none;stroke:#222222;stroke-width:0.422;stroke-linecap:round;stroke-linejoin:round;}
	.st149{fill:#00454F;}
	.st150{fill:#B0B4B5;}
	.st151{fill-rule:evenodd;clip-rule:evenodd;fill:#00454F;}
	.st152{fill:#D2DADB;}
	.st153{fill:none;stroke:#FFFFFF;stroke-width:3.3017;stroke-miterlimit:10;}
	.st154{fill:#05454F;}
	.st155{fill:none;stroke:#707070;}
	.st156{fill:#F5F7F6;}
</style>
<g>
	<g>
		<path class="st0" d="M615.065,26.06c-11.42-7.78-21.69-16.58-31.27-26.06h-516c-5.06,7.26-9.61,14.95-13.58,23.12
			c-38.38,136.34,140.79,164.5,114.3,272.45c-7.14,25.84-28.28,44.93-47.48,63.62c-174.48,162.69-66.31,321.86,153.27,293.01
			c37.6-6.5,73.48-20.6,110.74-28.85c112.27-30.89,219.38,26.18,290.08-51.6V69.39C655.155,54.88,635.315,40.15,615.065,26.06z"/>
	</g>
	<g>
		<g>
			<path class="st1" d="M469.448,401.248c0.82,0,7.924-0.547,10.383-1.366c2.459-0.82,3.279-0.82,2.732-2.459
				c-0.547-1.639-2.459-3.552-2.732-4.918c-0.273-1.366-4.372,1.639-4.372,1.639s3.006-3.825,1.639-4.645
				c-1.366-0.82-1.913-1.913-3.006-1.639c-1.093,0.273-2.732,2.459-2.732,2.459s0.547-3.552-1.093-3.279
				c-1.639,0.273-5.191,5.465-5.465,7.651C464.529,396.876,469.448,401.248,469.448,401.248z"/>
			<path class="st2" d="M460.158,402.067c0,0,1.093-6.011,5.465-9.017c0,0,6.011,3.279,7.104,7.924c0,0-4.099,4.099-9.017,4.372
				S460.158,402.067,460.158,402.067z"/>
			<path class="st1" d="M384.744,445.785c0,0,9.563,3.279,27.597,2.732c18.034-0.547,33.881-3.006,40.439-5.738
				c6.558-2.732,20.22-12.842,22.405-15.574l1.366-4.372c0,0-7.924-20.493-21.039-27.051c-13.115-6.558-27.324-12.569-42.625-13.662
				c-15.301-1.093-48.363,7.924-61.205,16.394c-12.842,8.47,9.836,26.504,9.836,26.504L384.744,445.785z"/>
			<path class="st1" d="M481.743,429.391c0,0,3.279,2.186,9.017,1.639c5.738-0.546,4.918-1.639,6.011-2.732
				c1.093-1.093-3.279-2.186-3.279-2.186s4.099-0.547,4.099-1.366s0-2.732-0.273-3.825c-0.273-1.093-1.366-1.639-1.913-3.279
				c-0.547-1.639-0.273-3.005-2.459-2.732c-2.186,0.273-9.017,2.732-10.656,3.825C480.65,419.828,481.743,429.391,481.743,429.391z"
				/>
			<path class="st2" d="M475.186,420.101c0,0-0.273,3.552-1.366,5.191c-1.093,1.639-0.82,4.372-0.82,4.372s6.284,2.732,12.022,1.366
				c0,0,1.366-4.099,1.913-5.738c0.547-1.639-1.093-7.378-2.459-7.651C484.476,417.642,479.284,417.095,475.186,420.101z"/>
			<g>
				<defs>
					<path id="SVGID_1_" d="M384.744,445.785c0,0,9.563,3.279,27.597,2.732c18.034-0.547,33.881-3.006,40.439-5.738
						c6.558-2.732,20.22-12.842,22.405-15.574l1.366-4.372c0,0-7.924-20.493-21.039-27.051
						c-13.115-6.558-27.324-12.569-42.625-13.662c-15.301-1.093-48.363,7.924-61.205,16.394c-12.842,8.47,9.836,26.504,9.836,26.504
						L384.744,445.785z"/>
				</defs>
				<clipPath id="SVGID_00000013190812165787396850000002897760058612522112_">
					<use xlink:href="#SVGID_1_"  style="overflow:visible;"/>
				</clipPath>
				<g style="clip-path:url(#SVGID_00000013190812165787396850000002897760058612522112_);">
					<path class="st4" d="M389.317,453.439c-8.752-38.374-37.828-63.75-38.121-64.002l2.711-3.15
						c1.237,1.064,30.409,26.532,39.463,66.229L389.317,453.439z"/>
					<path class="st4" d="M410.283,448.805c-6.471-46.376-42.906-61.64-43.273-61.789l1.561-3.852
						c0.39,0.157,39.03,16.34,45.828,65.067L410.283,448.805z"/>
					<path class="st4" d="M440.584,449.303c-7.4-30.946-42.063-66.558-42.412-66.915l2.967-2.91
						c1.459,1.488,35.821,36.802,43.487,68.859L440.584,449.303z"/>
					<path class="st4" d="M461.313,443.399c-2.001-34.664-38.302-62.61-38.668-62.888l2.513-3.31
						c1.559,1.183,38.196,29.401,40.304,65.959L461.313,443.399z"/>
				</g>
			</g>
		</g>
		<path class="st5" d="M215.975,509.632c0,0,3.643,6.922,9.836,10.747c6.193,3.825,12.205,4.736,12.933,3.825
			c0.729-0.911-2.915-4.554-1.275-4.736c1.639-0.182,9.472,3.461,13.48,2.55c4.008-0.911-6.193-15.119-9.29-16.576
			c-3.097-1.457-18.034,0.729-21.677,1.093C216.339,506.899,215.975,509.632,215.975,509.632z"/>
		<path class="st6" d="M125.989,352.612c0,0-10.93-27.324-36.067-33.335c-25.138-6.011-44.264,4.372-57.38,21.312
			C19.427,357.53-8.443,409.991,2.486,457.535s46.997,69.402,85.796,72.135c38.8,2.732,105.47-3.279,119.678-11.476
			c14.208-8.197,15.848-13.115,11.476-18.034c-4.372-4.918-24.045-14.755-32.242-26.777
			C178.997,461.36,125.989,352.612,125.989,352.612z"/>
		<g>
			<path class="st7" d="M342.21,512.728c0,0-5.1-2.732-8.197-5.647c-3.097-2.914-9.472-1.275-8.926,0.547
				c0.546,1.822,4.19,8.015,8.561,8.926C338.021,517.464,342.21,512.728,342.21,512.728z"/>
			<path class="st8" d="M324.723,526.026c0,0,10.201-21.13,47.179-22.77c36.978-1.639,63.573,6.193,77.417,13.844
				c0,0,1.457,0.911,3.461,0.911c2.004,0,9.29-2.004,13.115-0.364c3.825,1.639,0.182,6.011-2.186,6.74
				c-2.368,0.729-8.561,1.822-11.112,0.729c0,0-4.918,10.929-14.208,12.751c0,0,2.732,1.457,3.825,4.372
				c1.093,2.915,2.186,3.825,2.004,4.918c-0.182,1.093-2.55,1.639-5.1,0.729c-2.55-0.911-8.379-2.186-9.837-4.918
				c0,0-68.309,16.394-102.008-9.108c0,0-4.736,1.639-9.654,0.729s-10.383-4.918-9.654-6.375c0.729-1.457,2.368,0.729,6.922-0.547
				C319.441,526.39,321.627,524.933,324.723,526.026z"/>
		</g>
		<g>
			<path class="st9" d="M463.163,482.399c0,0-1.644,1.797,2.186,1.002c8.71-1.808,23.971,2.273,27.324,1.457
				c6.74-1.639,6.831-11.749,6.558-19.126c-0.164-4.43-0.919-9.451-1.733-13.643c-0.542-2.79-1.809-0.245-2.245-1.882
				c-1.093-4.099-1.717-4.156-5.542-4.156c-3.27,0-5.038-2.053-6.311,3.837c-0.216,1.001-0.404,2.011-0.563,3.003
				c-1.093,6.831-1.639,15.028-7.377,15.848c0,0-10.11-0.273-12.296-0.273C460.977,468.464,463.163,482.399,463.163,482.399z"/>
			<path class="st10" d="M497.497,452.088c-0.542-2.79-1.109-5.212-1.546-6.85c-1.093-4.098-1.913-6.831-5.738-6.831
				c-3.27,0-5.541,5.589-6.815,11.479c0,0,6.815,3.458,13.281,2.456L497.497,452.088z"/>
			<path class="st11" d="M282.554,428.845c0,0,7.104-6.011,12.022-8.47c4.918-2.459,6.011-2.732,8.197-3.005
				c2.186-0.273,7.104,2.459,11.476,4.099c4.372,1.639,17.487,15.848,25.958,21.586c8.47,5.738,31.149,15.301,31.149,15.301
				l11.476-2.459c0,0,6.284-5.738,6.558-8.197c0.273-2.459-22.952-29.236-24.865-31.969c-1.913-2.732-26.777-38.526-31.696-44.538
				c-4.918-6.011-12.022-13.389-18.853-13.389c-6.831,0-31.149,2.186-46.45,15.574c-15.301,13.389-54.921,39.619-54.921,39.619
				l-2.459,22.952L282.554,428.845z"/>
			<path class="st8" d="M264.793,346.327c0,0-3.279-3.552-3.279-4.372c0-0.82,41.259-33.881,42.625-34.154
				c1.366-0.273,2.732,16.667,14.208,24.865c0,0-0.82,17.76,7.651,26.231l-36.614,36.614l-1.913-3.552l-15.028-36.887
				L264.793,346.327z"/>
			<path class="st12" d="M315.879,335.344c0,0-14.746-10.329-16.932-18.799L260.422,346.6c0,0,3.005,10.11,12.842,16.394
				l4.099,3.279L315.879,335.344z"/>
			<path class="st13" d="M194.025,483.765c0,0,9.563,3.825,16.394,4.918c6.831,1.093,15.028,1.639,25.957,1.639
				c10.93,0,30.056,1.913,48.09,1.639c18.034-0.273,42.625-4.918,57.926-1.913c15.301,3.006,73.227,7.104,93.174,4.372
				c19.946-2.732,30.329-7.104,30.329-7.104s-2.732-11.476-0.546-22.132c0,0-11.749-1.639-21.586-3.552
				c-9.836-1.913-60.932-10.383-66.397-11.749c-5.465-1.366-22.679-4.645-29.783-6.284c-7.104-1.639-17.487-5.465-28.417-9.017
				c-10.93-3.552-33.608-7.924-36.614-8.47c-3.006-0.547-5.465-0.547-6.285-1.913c-0.82-1.366-28.143-4.918-34.974-4.918
				c-6.831,0-30.602,6.558-30.602,6.558l-18.58,45.357L194.025,483.765z"/>
			<path class="st14" d="M144.569,325.561c0,0,7.104-15.574,7.924-21.859l4.099-12.022l0.82-14.482l18.307,2.186l17.487,13.662
				c0,0,1.913,16.121,1.913,16.941c0,0.82-1.093,2.732-2.459,2.732c-1.366,0-3.005,0.273-3.005,0.273s-1.639,5.191-1.913,6.831
				c-0.273,1.639-2.186,3.825-6.558,4.099c-4.372,0.273-6.558-0.82-6.558-0.82s-4.918,10.656-5.465,14.208
				c-0.546,3.552-11.749-1.639-11.749-1.639L144.569,325.561z"/>
			<path class="st15" d="M193.743,298.673c0,0,1.375,10.494,1.375,11.314c0,0.82-1.093,2.732-2.459,2.732
				c-1.366,0-3.005,0.273-3.005,0.273s-0.24,0.054-0.24-1.504c0-1.559,2.771-12.469,2.771-12.469S192.401,298.369,193.743,298.673z"
				/>
			<path class="st16" d="M182.822,296.871c0,0,1.822-0.364,3.825,0.182c2.004,0.547,2.915,1.822,3.461,0.547
				c0.547-1.275,0.911-2.914-0.911-3.643c-1.822-0.729-4.554-1.457-5.829-1.275c-1.275,0.182-2.55,1.275-2.55,2.186
				C180.819,295.778,182.458,297.418,182.822,296.871z"/>
			<path class="st16" d="M173.35,293.41c0,0-1.822-6.74-5.283-7.833c-3.461-1.093-5.829-2.914-7.104-0.729
				c-1.275,2.186,0.729,10.201,6.193,11.84c0,0,2.186,0.911,0.182,3.279c-2.004,2.368-7.104,6.74-9.29,6.922
				c-2.186,0.182-5.465-0.911-6.011-1.093c-0.547-0.182-4.19-5.1-6.011-9.472c-1.822-4.372-2.742-6.95-1.467-13.325
				c1.275-6.375,8.572-21.301,17.132-21.103c2.919,0.068,4.19,0.182,4.19,0.182s-1.249-5.351,0.137-7.757
				c1.217-2.114,2.467-1.836,2.976,0.55c0.583,2.733,3.262,6.843,3.262,6.843s-0.546-5.283,0.365-6.011
				c0.911-0.729,2.186,2.914,4.007,4.554c1.822,1.639,1.093,4.19,1.093,4.19s3.825-0.546,6.558,0.182
				c2.732,0.729,7.651,6.011,8.015,8.926c0.364,2.915,2.732,7.469,5.647,10.383c2.914,2.914,2.55,4.554,2.55,5.647
				c0,1.093-3.643,6.375-7.104,4.736c-3.461-1.639-9.338-4.679-10.075-5.06c-1.379-0.712-3.072-0.276-3.955,0.999
				c-1.001,1.445-2.159,3.19-2.546,4.061C176.083,295.96,173.897,294.139,173.35,293.41z"/>
			<path class="st17" d="M123.439,339.314c0,0-5.829,14.573-5.465,22.223c0.364,7.651,17.123,65.577,21.495,72.863
				c4.372,7.286,11.658,21.495,11.658,21.495s26.959,22.223,33.881,25.866c6.922,3.643,9.017,2.004,9.017,2.004
				s14.3-16.941,16.85-28.963c2.55-12.022,2.55-15.301,3.643-19.309c1.093-4.007,2.55-12.022,2.914-14.208
				s0.729-14.573,0.729-14.573s-26.595-16.03-28.417-18.944C187.923,384.854,123.439,339.314,123.439,339.314z"/>
			<g>
				<defs>
					<path id="SVGID_00000097501945428878491210000000031997376940175488_" d="M123.439,339.314c0,0-5.829,14.573-5.465,22.223
						c0.364,7.651,17.123,65.577,21.495,72.863c4.372,7.286,11.658,21.495,11.658,21.495s26.959,22.223,33.881,25.866
						c6.922,3.643,9.017,2.004,9.017,2.004s14.3-16.941,16.85-28.963c2.55-12.022,2.55-15.301,3.643-19.309
						c1.093-4.007,2.55-12.022,2.914-14.208s0.729-14.573,0.729-14.573s-26.595-16.03-28.417-18.944
						C187.923,384.854,123.439,339.314,123.439,339.314z"/>
				</defs>
				<clipPath id="SVGID_00000026163989744608706980000010084183875570437261_">
					<use xlink:href="#SVGID_00000097501945428878491210000000031997376940175488_"  style="overflow:visible;"/>
				</clipPath>
				<g style="clip-path:url(#SVGID_00000026163989744608706980000010084183875570437261_);">
					<path class="st19" d="M170.8,477.39c0,0,30.603-18.216,40.439-53.919c9.837-35.703,3.643-35.703,3.643-35.703l-5.465-1.093
						c0,0-11.837,34.577-20.402,45.539c-9.108,11.658-12.022,17.851-26.231,22.952c-7.489,2.688-14.208,3.643-14.208,3.643
						s9.108,9.472,10.201,10.201C159.871,469.739,170.8,477.39,170.8,477.39z"/>
					<path class="st19" d="M135.826,438.044c0,0,29.509,2.186,49.183-25.138c19.673-27.324,21.13-32.424,21.13-32.424l-6.193-7.286
						c0,0-32.06,36.067-44.811,39.71c-12.751,3.643-27.324,2.55-27.324,2.55L135.826,438.044z"/>
					<path class="st19" d="M120.889,392.869c0,0,16.758,4.736,37.524-5.465c20.766-10.201,34.974-23.681,34.974-23.681l-3.643-9.108
						c0,0-49.001,21.768-77.69,6.193L120.889,392.869z"/>
				</g>
			</g>
			<path class="st14" d="M174.807,411.084c0,0,24.409,20.037,41.532,20.766s35.703-21.859,40.803-31.696
				c5.1-9.837,7.651-14.937,10.201-16.03c2.55-1.093,12.387-5.465,12.387-5.465l6.922-8.744l-10.201-13.844
				c0,0-7.286,3.643-11.658,11.294c-4.372,7.651-21.859,21.13-28.417,24.409c-6.558,3.279-14.937,8.744-17.852,8.379
				c-2.914-0.364-21.13-12.387-22.223-13.115S174.807,411.084,174.807,411.084z"/>
			<path class="st14" d="M275.176,356.437c0,0,6.011-1.366,8.744-2.186c2.732-0.82,4.098-3.279,5.465-3.279
				c1.366,0,2.459,3.005,0.547,4.918c-1.913,1.913-10.11,7.377-10.656,9.017c-0.546,1.639,2.271,11.87,2.271,11.87l-5.715,3.81
				l-5.027-14.314C270.805,366.273,273.81,357.53,275.176,356.437z"/>
			<path class="st15" d="M168.477,293.046c0,0-0.137-3.552-2.459-4.508c-2.322-0.956-2.459,0.41-2.049,1.776
				c0.41,1.366,1.093,3.142,2.049,2.869C166.975,292.909,168.204,293.729,168.477,293.046z"/>
			<path class="st20" d="M186.645,307.006c0,0-3.218-2.299-5.977-2.483c-2.758-0.184-2.758,3.494-1.747,3.77
				c1.011,0.276,3.954,0.46,5.701,1.287C186.37,310.408,187.381,307.926,186.645,307.006z"/>
			<circle class="st16" cx="185.623" cy="301.585" r="1.351"/>
			<path class="st21" d="M145.298,322.556c0,0-13.48,3.643-18.58,9.472c-5.1,5.829-6.558,21.13-6.193,25.502
				c0.364,4.372,11.294,17.487,18.58,24.045c7.286,6.558,33.153,33.517,35.339,33.153c2.186-0.364,23.316-20.402,25.866-28.417
				c0,0,1.093-1.093-0.364-2.915c-1.457-1.822-8.744-12.022-12.022-20.037c-3.279-8.015-10.216-24.056-18.58-30.602
				C160.963,326.199,150.762,322.191,145.298,322.556z"/>
			<g>
				<defs>
					<path id="SVGID_00000031891935811894919380000017152466063434010280_" d="M145.298,322.556c0,0-13.48,3.643-18.58,9.472
						c-5.1,5.829-6.558,21.13-6.193,25.502c0.364,4.372,11.294,17.487,18.58,24.045c7.286,6.558,33.153,33.517,35.339,33.153
						c2.186-0.364,23.316-20.402,25.866-28.417c0,0,1.093-1.093-0.364-2.915c-1.457-1.822-8.744-12.022-12.022-20.037
						c-3.279-8.015-10.216-24.056-18.58-30.602C160.963,326.199,150.762,322.191,145.298,322.556z"/>
				</defs>
				<clipPath id="SVGID_00000133496499195077304970000010461513591312647358_">
					<use xlink:href="#SVGID_00000031891935811894919380000017152466063434010280_"  style="overflow:visible;"/>
				</clipPath>
				<g style="clip-path:url(#SVGID_00000133496499195077304970000010461513591312647358_);">
					<path class="st23" d="M120.889,392.869c0,0,16.758,4.736,37.524-5.465c20.766-10.201,34.974-23.681,34.974-23.681l-3.643-9.108
						c0,0-49.001,21.768-77.69,6.193L120.889,392.869z"/>
					<path class="st23" d="M113.967,346.327c0,0,17.76,3.552,33.881,0.82c16.121-2.732,29.783-8.743,29.783-8.743l-4.099-6.011
						l-8.197-5.191c0,0-25.138,7.104-42.898,2.732L113.967,346.327z"/>
					<path class="st23" d="M154.406,399.608c0,0,28.417-7.104,40.166-28.69l5.738,7.378c0,0-25.411,32.242-33.062,33.335
						L154.406,399.608z"/>
				</g>
			</g>
			<path class="st24" d="M275.996,367.366c0,0-2.459,4.372-1.093,10.11c1.366,5.738,9.017,20.22,9.017,20.22l35.248-34.155
				c0,0-4.372-21.039-3.552-28.143L275.996,367.366z"/>
		</g>
		<g>
			<path class="st6" d="M160.417,497.427c0,0-7.651-36.067-8.744-51.368c-1.093-15.301-8.197-49.183-24.591-66.67
				c-16.394-17.487-31.696-21.859-37.16-21.859s-15.848,21.312-15.848,21.312l51.915,92.901L160.417,497.427z"/>
			<g>
				<path class="st25" d="M193.222,489.432c-0.146,0-0.294-0.042-0.426-0.128c-11.114-7.294-38.792-29.418-39.955-30.581
					c-1.086-1.086-1.686-8.37-1.946-12.617c-1.2-16.809-8.882-49.651-24.381-66.185c-16.027-17.095-30.944-21.612-36.592-21.612
					c-0.43,0-0.779-0.349-0.779-0.779s0.349-0.779,0.779-0.779c5.882,0,21.337,4.62,37.729,22.105
					c17.764,18.948,23.925,54.895,24.8,67.147c0.308,5.02,0.974,10.893,1.514,11.642c1.131,1.13,28.627,23.098,39.686,30.357
					c0.36,0.236,0.461,0.719,0.224,1.079C193.726,489.308,193.476,489.432,193.222,489.432z"/>
				<path class="st25" d="M149.486,468.15c-0.354,0-0.675-0.244-0.758-0.604c-16.132-69.904-59.851-95.971-60.291-96.227
					c-0.372-0.216-0.499-0.693-0.283-1.064c0.215-0.373,0.695-0.498,1.064-0.283c0.446,0.259,44.746,26.669,61.027,97.224
					c0.097,0.42-0.164,0.838-0.583,0.935C149.604,468.144,149.544,468.15,149.486,468.15z"/>
			</g>
		</g>
	</g>
</g>
</svg>
