<?xml version="1.0" encoding="utf-8"?>
<!-- Generator: Adobe Illustrator 25.4.1, SVG Export Plug-In . SVG Version: 6.00 Build 0)  -->
<svg version="1.1" id="Layer_1" xmlns="http://www.w3.org/2000/svg" xmlns:xlink="http://www.w3.org/1999/xlink" x="0px" y="0px"
	 viewBox="0 0 524.578 509.819" style="enable-background:new 0 0 524.578 509.819;" xml:space="preserve">
<style type="text/css">
	.st0{fill:#EBF0F1;}
	.st1{fill:#DFE9F2;}
	.st2{fill:#A8B0B6;}
	.st3{clip-path:url(#SVGID_00000013902416457690120900000010539715581915959700_);}
	.st4{fill:#CCCCCC;}
	.st5{fill:#876441;}
	.st6{fill:#F3A48A;}
	.st7{fill:#CF5D43;}
	.st8{fill:#DD6D4E;}
	.st9{fill:#ABA97B;}
	.st10{fill:#E3E0A2;}
	.st11{fill:#303030;}
	.st12{fill:#EFEDE3;}
	.st13{fill:#353535;}
	.st14{fill:#9F714A;}
	.st15{fill:#775336;}
	.st16{fill:#412C19;}
	.st17{fill:#B5B573;}
	.st18{clip-path:url(#SVGID_00000180350634707049437580000015394425652960422076_);}
	.st19{fill:#3B9A64;}
	.st20{fill:#AC614E;}
	.st21{fill:#C1C57C;}
	.st22{clip-path:url(#SVGID_00000073714012697932230560000014489041622793345412_);}
	.st23{fill:#4CA66F;}
	.st24{fill:#FCF9EE;}
	.st25{fill:#F47F64;}
	.st26{fill:#668F95;}
	.st27{fill:#EBE6D5;}
	.st28{fill:#005D68;}
	.st29{fill:#FFC099;}
	.st30{fill:#003239;}
	.st31{fill:#DF8E7A;}
	.st32{fill:#B77B67;}
	.st33{fill:#68472F;}
	.st34{fill:#FBA983;}
	.st35{fill:#FFFFFF;}
	.st36{fill:#F88D61;}
	.st37{fill:#C79072;}
	.st38{fill:#573C28;}
	.st39{fill:#FFA16C;}
	.st40{fill:#F5F5F5;}
	.st41{fill:#E1E1E1;}
	.st42{fill:#ECECEC;}
	.st43{fill:#FAFAFA;}
	.st44{fill:#1A2E35;}
	.st45{fill:#375A64;}
	.st46{opacity:0.3;}
	.st47{fill:#498269;}
	.st48{fill:#946962;}
	.st49{fill:#6F4540;}
	.st50{fill:#CE4F41;}
	.st51{opacity:0.6;}
	.st52{fill:#305A46;}
	.st53{fill:#F7D858;}
	.st54{opacity:0.2;}
	.st55{opacity:0.4;}
	.st56{fill:#101010;}
	.st57{fill:#6AB792;}
	.st58{fill:#D25F3B;}
	.st59{fill:#E57E5B;}
	.st60{fill:none;stroke:#D25F3B;stroke-width:1.3008;stroke-linecap:round;stroke-linejoin:round;stroke-miterlimit:10;}
	.st61{fill:none;stroke:#498269;stroke-width:1.8047;stroke-linecap:round;stroke-linejoin:round;stroke-miterlimit:10;}
	.st62{fill:#39ACB2;}
	.st63{clip-path:url(#SVGID_00000027572367167087957800000013951605188435836298_);}
	.st64{fill:none;stroke:#305A46;stroke-width:3.1006;stroke-linecap:round;stroke-linejoin:round;stroke-miterlimit:10;}
	.st65{fill:#EC8A63;}
	.st66{fill:#FFB890;}
	.st67{fill:none;stroke:#EC8A63;stroke-width:2.028;stroke-linecap:round;stroke-linejoin:round;stroke-miterlimit:10;}
	.st68{opacity:0.26;fill:#FFFFFF;}
	.st69{fill:none;stroke:#FFFFFF;stroke-width:1.9299;stroke-linecap:round;stroke-linejoin:round;stroke-miterlimit:10;}
	.st70{fill:#DAF0FA;}
	.st71{fill:#FFBF9D;}
	.st72{fill:#FF9A6C;}
	.st73{fill:none;stroke:#44555B;stroke-miterlimit:10;}
	.st74{fill:#C78976;}
	.st75{fill:#BF654E;}
	.st76{fill:none;stroke:#44555B;stroke-width:0.05;stroke-miterlimit:10;}
	.st77{fill:none;stroke:#44555B;stroke-width:0.0469;stroke-miterlimit:10;}
	.st78{fill:#FF735D;}
	.st79{clip-path:url(#SVGID_00000047742097168935844470000013026303959051075213_);}
	.st80{fill:#FFDAD9;}
	.st81{fill:#DCDFE0;}
	.st82{fill:none;stroke:#B6E1F4;stroke-width:5.3697;stroke-linecap:round;stroke-linejoin:round;stroke-miterlimit:10;}
	.st83{fill:none;stroke:#B6E1F4;stroke-width:5.0288;stroke-miterlimit:10;}
	.st84{opacity:0.44;fill:#B6E1F4;}
	.st85{fill:#E07280;}
	.st86{fill:#7E5780;}
	.st87{opacity:0.22;fill:#7E5780;}
	.st88{fill:none;stroke:#FFD0C5;stroke-width:0.3194;stroke-miterlimit:10;}
	.st89{fill:none;stroke:#FFD0C5;stroke-width:0.3836;stroke-miterlimit:10;}
	.st90{fill:none;stroke:#401A49;stroke-width:1.5344;stroke-linecap:round;stroke-linejoin:round;stroke-miterlimit:10;}
	.st91{fill:#401A49;}
	.st92{fill:none;stroke:#161C3E;stroke-width:1.1265;stroke-linecap:round;stroke-linejoin:round;stroke-miterlimit:10;}
	.st93{opacity:0.09;fill:#E07280;}
	.st94{fill:none;stroke:#401A49;stroke-width:0.9884;stroke-linecap:round;stroke-linejoin:round;stroke-miterlimit:10;}
	.st95{fill:none;stroke:#401A49;stroke-width:0.7672;stroke-linecap:round;stroke-linejoin:round;stroke-miterlimit:10;}
	.st96{fill:#994975;}
	.st97{fill:#FF8A9A;}
	.st98{fill:none;stroke:#161C3E;stroke-width:1.0685;stroke-linecap:round;stroke-linejoin:round;stroke-miterlimit:10;}
	.st99{opacity:0.35;fill:#EF5D6B;}
	.st100{fill:none;stroke:#401A49;stroke-width:0.9376;stroke-linecap:round;stroke-linejoin:round;stroke-miterlimit:10;}
	.st101{fill:#FFF5EB;}
	.st102{fill:#F2B2D6;}
	.st103{fill:none;stroke:#FFF5EB;stroke-width:0.8381;stroke-linecap:round;stroke-linejoin:round;stroke-miterlimit:10;}
	.st104{opacity:0.22;fill:#401A49;}
	.st105{fill:none;stroke:#FFDAD9;stroke-width:0.8381;stroke-miterlimit:10;}
	.st106{fill:none;stroke:#FFDAD9;stroke-width:0.8381;stroke-linecap:round;stroke-linejoin:round;stroke-miterlimit:10;}
	.st107{fill:none;stroke:#401A49;stroke-width:1.6763;stroke-linecap:round;stroke-linejoin:round;stroke-miterlimit:10;}
	.st108{fill:#FFD0C5;}
	.st109{fill:#FDB22C;}
	.st110{fill:#1A8B91;}
	.st111{fill:none;stroke:#000000;stroke-width:0.8147;stroke-linecap:round;stroke-linejoin:round;stroke-miterlimit:10;}
	.st112{fill:#ECA079;}
	.st113{fill:#FDF1F5;}
	.st114{fill:#E6C6CE;}
	.st115{fill:#862904;}
	.st116{fill:#DC845E;}
	.st117{fill:none;stroke:#000000;stroke-width:0.848;stroke-linecap:round;stroke-linejoin:round;stroke-miterlimit:10;}
	.st118{clip-path:url(#XMLID_00000061438592975996871150000016048904051948708267_);}
	.st119{clip-path:url(#XMLID_00000066495932549417684510000008323683141978802845_);}
	.st120{fill:none;stroke:#000000;stroke-width:0.8027;stroke-linecap:round;stroke-linejoin:round;stroke-miterlimit:10;}
	.st121{fill:none;stroke:#FFFFFF;stroke-width:2.99;stroke-linecap:round;stroke-linejoin:round;}
	.st122{fill:none;stroke:#FFFFFF;stroke-width:2.99;stroke-linecap:round;stroke-linejoin:round;stroke-dasharray:18.4657,18.4657;}
	.st123{fill:none;stroke:#000000;stroke-width:0.9784;stroke-linecap:round;stroke-linejoin:round;stroke-miterlimit:10;}
	.st124{clip-path:url(#XMLID_00000029737980124685699700000012209565183007444389_);}
	.st125{fill:none;stroke:#000000;stroke-width:0.682;stroke-linecap:round;stroke-linejoin:round;stroke-miterlimit:10;}
	.st126{fill:#AE3700;}
	.st127{fill:none;stroke:#FFFFFF;stroke-width:1.7082;stroke-linecap:round;stroke-linejoin:round;stroke-miterlimit:10;}
	.st128{fill:none;stroke:#000000;stroke-width:0.9976;stroke-linecap:round;stroke-linejoin:round;stroke-miterlimit:10;}
	.st129{fill:#528E72;}
	.st130{fill:#F0DBE0;}
	.st131{fill:#89331A;}
	.st132{fill:none;stroke:#CCDADC;stroke-linecap:round;stroke-linejoin:round;}
	.st133{opacity:0.45;fill:#F7E3C7;enable-background:new    ;}
	.st134{fill:#222222;}
	.st135{fill:#F47365;}
	.st136{fill:none;stroke:#222222;stroke-width:0.211;stroke-linecap:round;stroke-linejoin:round;}
	.st137{opacity:0.5;fill:#F43D4F;enable-background:new    ;}
	.st138{fill:#F43D4F;}
	.st139{fill:none;stroke:#FFF7EE;stroke-width:0.422;stroke-miterlimit:10;}
	.st140{fill:#FBB244;}
	.st141{fill:#FFF7EE;}
	.st142{opacity:0.22;}
	.st143{clip-path:url(#SVGID_00000026163526484540041190000002108830940811265160_);}
	.st144{fill:none;stroke:#FFFFFF;stroke-width:0.422;stroke-linecap:round;stroke-linejoin:round;}
	.st145{fill:none;stroke:#222222;stroke-width:2.166;stroke-linecap:round;stroke-linejoin:round;}
	.st146{fill:none;stroke:#222222;stroke-width:2.1655;stroke-linecap:round;stroke-linejoin:round;stroke-miterlimit:3.9991;}
	.st147{clip-path:url(#SVGID_00000013903203019518926610000012797337214309585288_);}
	.st148{fill:none;stroke:#222222;stroke-width:0.422;stroke-linecap:round;stroke-linejoin:round;}
	.st149{fill:#00454F;}
	.st150{fill:#B0B4B5;}
	.st151{fill-rule:evenodd;clip-rule:evenodd;fill:#00454F;}
	.st152{fill:#D2DADB;}
	.st153{fill:none;stroke:#FFFFFF;stroke-width:3.3017;stroke-miterlimit:10;}
	.st154{fill:#05454F;}
	.st155{fill:none;stroke:#707070;}
	.st156{fill:#F5F7F6;}
</style>
<g>
	<defs>
		
			<rect id="SVGID_00000160171266055360338170000002688260307278736562_" x="-92.873" y="-778.318" width="752.617" height="446.345"/>
	</defs>
	<clipPath id="SVGID_00000175313669178228749460000006656234555726532751_">
		<use xlink:href="#SVGID_00000160171266055360338170000002688260307278736562_"  style="overflow:visible;"/>
	</clipPath>
	<g style="clip-path:url(#SVGID_00000175313669178228749460000006656234555726532751_);">
		<g>
			<ellipse class="st80" cx="266.886" cy="-2.481" rx="355.269" ry="27.224"/>
			<ellipse class="st81" cx="266.886" cy="-2.481" rx="355.269" ry="27.224"/>
		</g>
		<g>
			<g>
				<line class="st82" x1="47.97" y1="-206.29" x2="41.979" y2="2.565"/>
				<line class="st82" x1="228.293" y1="-206.29" x2="260.534" y2="1.709"/>
			</g>
		</g>
		<g>
			<g>
				<g>
					<g>
						<path class="st85" d="M113.158,8.512C107.81,8.06,73.296-37.227,63.905-49.679c-1.404-1.846-1.37-4.401,0.057-6.216
							l15.516-19.822l9.185-11.749l31.555,21.076l-8.397,13.651c0,0,0,0,0.004,0.018C111.937-51.84,119.315,9.033,113.158,8.512z"/>
						<path class="st86" d="M113.158,8.512C107.81,8.06,73.296-37.227,63.905-49.679c-1.404-1.846-1.37-4.401,0.057-6.216
							l15.516-19.822c0.859,2.893,2.792,5.496,4.881,7.742c7.242,7.817,17.027,13.206,27.467,15.253
							C111.937-51.84,119.315,9.033,113.158,8.512z"/>
						<path class="st87" d="M113.158,8.512C107.81,8.06,73.296-37.227,63.905-49.679c-1.404-1.846-1.37-4.401,0.057-6.216
							l15.516-19.822c0.859,2.893,2.792,5.496,4.881,7.742c7.242,7.817,17.027,13.206,27.467,15.253
							C111.937-51.84,119.315,9.033,113.158,8.512z"/>
						<path class="st88" d="M64.319-56.745c1.95,6.776,6.315,12.558,10.66,18.111c12.777,16.331,25.188,31.339,39.143,46.675"/>
					</g>
					<g>
						<path class="st85" d="M188.375,8.181c-5.677,3.053-70.105-19.87-87.72-26.238c-2.624-0.936-4.266-3.529-4.02-6.291
							l2.608-30.12l1.534-17.845l45.571,0.506l0.506,19.241c0,0,0,0,0.015,0.015C147.561-51.736,194.912,4.668,188.375,8.181z"/>
						<path class="st86" d="M188.375,8.181c-5.677,3.053-70.105-19.87-87.72-26.238c-2.624-0.936-4.266-3.529-4.02-6.291
							l2.608-30.12c2.762,2.348,6.414,3.698,9.989,4.588c12.413,3.115,25.793,2.117,37.638-2.67
							C147.561-51.736,194.912,4.668,188.375,8.181z"/>
						<path class="st89" d="M96.437-25.436c6.406,5.537,14.59,8.492,22.604,11.229c23.566,8.05,45.897,15.007,69.996,21.284"/>
					</g>
				</g>
			</g>
		</g>
		<g>
			<g>
				<g>
					<line class="st82" x1="498.492" y1="-206.004" x2="504.484" y2="2.85"/>
					<line class="st82" x1="318.169" y1="-206.004" x2="285.072" y2="2.85"/>
				</g>
			</g>
		</g>
	</g>
</g>
<g>
	<path class="st0" d="M10.096,494.955c-7.07-64.268-14.144-131.535-7.338-195.83c3.323-31.392,10.461-63.592,29.891-88.876
		c35.553-46.267,102.497-58.29,145.182-98.458c25.53-24.025,41.061-56.968,67.872-79.635C286.861-2.643,348.274-6.786,400.586,8.245
		c26.917,7.734,52.882,20.317,72.561,39.77c34.741,34.342,45.578,85.066,49.269,133.095c8.209,106.831-8.262,208.349-27.427,313.845
		c-0.144,0.794,6.014-7.79,0.162,0H10.096z"/>
	<ellipse class="st152" cx="255.862" cy="496.023" rx="242.476" ry="13.796"/>
	<g>
		<path class="st149" d="M452.83,381.356h66.017c0-18.242-14.775-33.017-33-33.017C467.606,348.34,452.83,363.114,452.83,381.356z"
			/>
		<path class="st149" d="M29.377,53.469v409.537c0,18.242,14.791,33.017,33.017,33.017H419.83
			c-18.241,0-33.017-14.775-33.017-33.017V53.469c-11.159,0-11.159,16.508-22.318,16.508c-11.177,0-11.177-16.508-22.336-16.508
			c-11.176,0-11.176,16.508-22.335,16.508c-11.176,0-11.176-16.508-22.336-16.508c-11.176,0-11.176,16.508-22.335,16.508
			c-11.176,0-11.176-16.508-22.352-16.508c-11.16,0-11.16,16.508-22.336,16.508c-11.159,0-11.159-16.508-22.335-16.508
			s-11.176,16.508-22.335,16.508c-11.177,0-11.177-16.508-22.336-16.508c-11.176,0-11.176,16.508-22.335,16.508
			c-11.176,0-11.176-16.508-22.352-16.508c-11.16,0-11.16,16.508-22.336,16.508S85.257,53.469,74.098,53.469
			c-11.193,0-11.193,16.508-22.368,16.508C40.552,69.977,40.552,53.469,29.377,53.469z"/>
		<path class="st26" d="M386.813,348.34v114.666c0,18.242,14.775,33.017,33.017,33.017c18.225,0,33-14.775,33-33.017v-81.65
			c0-18.242,14.775-33.017,33.017-33.017H386.813z"/>
		<line class="st153" x1="346.698" y1="124.976" x2="72.635" y2="124.976"/>
		<line class="st153" x1="346.698" y1="164.489" x2="72.635" y2="164.489"/>
		<line class="st153" x1="346.698" y1="204.002" x2="72.635" y2="204.002"/>
		<line class="st153" x1="346.698" y1="243.515" x2="72.635" y2="243.515"/>
		<line class="st153" x1="346.698" y1="283.028" x2="72.635" y2="283.028"/>
		<line class="st153" x1="346.698" y1="322.541" x2="72.635" y2="322.541"/>
		<line class="st153" x1="346.698" y1="362.054" x2="72.635" y2="362.054"/>
		<line class="st153" x1="346.698" y1="401.567" x2="72.635" y2="401.567"/>
		<line class="st153" x1="346.698" y1="441.08" x2="72.635" y2="441.08"/>
	</g>
</g>
</svg>
