<?xml version="1.0" encoding="utf-8"?>
<!-- Generator: Adobe Illustrator 25.4.1, SVG Export Plug-In . SVG Version: 6.00 Build 0)  -->
<svg version="1.1" id="Layer_1" xmlns="http://www.w3.org/2000/svg" xmlns:xlink="http://www.w3.org/1999/xlink" x="0px" y="0px"
	 viewBox="0 0 459.437 441.802" style="enable-background:new 0 0 459.437 441.802;" xml:space="preserve">
<style type="text/css">
	.st0{fill:#EBF0F1;}
	.st1{fill:#DFE9F2;}
	.st2{fill:#A8B0B6;}
	.st3{clip-path:url(#SVGID_00000087385243557577732920000000578226372381974927_);}
	.st4{fill:#CCCCCC;}
	.st5{fill:#876441;}
	.st6{fill:#F3A48A;}
	.st7{fill:#CF5D43;}
	.st8{fill:#DD6D4E;}
	.st9{fill:#ABA97B;}
	.st10{fill:#E3E0A2;}
	.st11{fill:#303030;}
	.st12{fill:#EFEDE3;}
	.st13{fill:#353535;}
	.st14{fill:#9F714A;}
	.st15{fill:#775336;}
	.st16{fill:#412C19;}
	.st17{fill:#B5B573;}
	.st18{clip-path:url(#SVGID_00000075866476463160769670000012110377493749783733_);}
	.st19{fill:#3B9A64;}
	.st20{fill:#AC614E;}
	.st21{fill:#C1C57C;}
	.st22{clip-path:url(#SVGID_00000054962113535625841550000016218306382547234951_);}
	.st23{fill:#4CA66F;}
	.st24{fill:#FCF9EE;}
	.st25{fill:#F47F64;}
	.st26{fill:#668F95;}
	.st27{fill:#EBE6D5;}
	.st28{fill:#005D68;}
	.st29{fill:#FFC099;}
	.st30{fill:#003239;}
	.st31{fill:#DF8E7A;}
	.st32{fill:#B77B67;}
	.st33{fill:#68472F;}
	.st34{fill:#FBA983;}
	.st35{fill:#FFFFFF;}
	.st36{fill:#F88D61;}
	.st37{fill:#C79072;}
	.st38{fill:#573C28;}
	.st39{fill:#FFA16C;}
	.st40{fill:#F5F5F5;}
	.st41{fill:#E1E1E1;}
	.st42{fill:#ECECEC;}
	.st43{fill:#FAFAFA;}
	.st44{fill:#1A2E35;}
	.st45{fill:#375A64;}
	.st46{opacity:0.3;}
	.st47{fill:#498269;}
	.st48{fill:#946962;}
	.st49{fill:#6F4540;}
	.st50{fill:#CE4F41;}
	.st51{opacity:0.6;}
	.st52{fill:#305A46;}
	.st53{fill:#F7D858;}
	.st54{opacity:0.2;}
	.st55{opacity:0.4;}
	.st56{fill:#101010;}
	.st57{fill:#6AB792;}
	.st58{fill:#D25F3B;}
	.st59{fill:#E57E5B;}
	.st60{fill:none;stroke:#D25F3B;stroke-width:1.3008;stroke-linecap:round;stroke-linejoin:round;stroke-miterlimit:10;}
	.st61{fill:none;stroke:#498269;stroke-width:1.8047;stroke-linecap:round;stroke-linejoin:round;stroke-miterlimit:10;}
	.st62{fill:#39ACB2;}
	.st63{clip-path:url(#SVGID_00000029738007391517160910000018243570100109079733_);}
	.st64{fill:none;stroke:#305A46;stroke-width:3.1006;stroke-linecap:round;stroke-linejoin:round;stroke-miterlimit:10;}
	.st65{fill:#EC8A63;}
	.st66{fill:#FFB890;}
	.st67{fill:none;stroke:#EC8A63;stroke-width:2.028;stroke-linecap:round;stroke-linejoin:round;stroke-miterlimit:10;}
	.st68{opacity:0.26;fill:#FFFFFF;}
	.st69{fill:none;stroke:#FFFFFF;stroke-width:1.9299;stroke-linecap:round;stroke-linejoin:round;stroke-miterlimit:10;}
	.st70{fill:#DAF0FA;}
	.st71{fill:#FFBF9D;}
	.st72{fill:#FF9A6C;}
	.st73{fill:none;stroke:#44555B;stroke-miterlimit:10;}
	.st74{fill:#C78976;}
	.st75{fill:#BF654E;}
	.st76{fill:none;stroke:#44555B;stroke-width:0.05;stroke-miterlimit:10;}
	.st77{fill:none;stroke:#44555B;stroke-width:0.0469;stroke-miterlimit:10;}
	.st78{fill:#FF735D;}
	.st79{clip-path:url(#SVGID_00000154418565834894299100000001228769052203551888_);}
	.st80{fill:#FFDAD9;}
	.st81{fill:#DCDFE0;}
	.st82{fill:none;stroke:#B6E1F4;stroke-width:5.3697;stroke-linecap:round;stroke-linejoin:round;stroke-miterlimit:10;}
	.st83{fill:none;stroke:#B6E1F4;stroke-width:5.0288;stroke-miterlimit:10;}
	.st84{opacity:0.44;fill:#B6E1F4;}
	.st85{fill:#E07280;}
	.st86{fill:#7E5780;}
	.st87{opacity:0.22;fill:#7E5780;}
	.st88{fill:none;stroke:#FFD0C5;stroke-width:0.3194;stroke-miterlimit:10;}
	.st89{fill:none;stroke:#FFD0C5;stroke-width:0.3836;stroke-miterlimit:10;}
	.st90{fill:none;stroke:#401A49;stroke-width:1.5344;stroke-linecap:round;stroke-linejoin:round;stroke-miterlimit:10;}
	.st91{fill:#401A49;}
	.st92{fill:none;stroke:#161C3E;stroke-width:1.1265;stroke-linecap:round;stroke-linejoin:round;stroke-miterlimit:10;}
	.st93{opacity:0.09;fill:#E07280;}
	.st94{fill:none;stroke:#401A49;stroke-width:0.9884;stroke-linecap:round;stroke-linejoin:round;stroke-miterlimit:10;}
	.st95{fill:none;stroke:#401A49;stroke-width:0.7672;stroke-linecap:round;stroke-linejoin:round;stroke-miterlimit:10;}
	.st96{fill:#994975;}
	.st97{fill:#FF8A9A;}
	.st98{fill:none;stroke:#161C3E;stroke-width:1.0685;stroke-linecap:round;stroke-linejoin:round;stroke-miterlimit:10;}
	.st99{opacity:0.35;fill:#EF5D6B;}
	.st100{fill:none;stroke:#401A49;stroke-width:0.9376;stroke-linecap:round;stroke-linejoin:round;stroke-miterlimit:10;}
	.st101{fill:#FFF5EB;}
	.st102{fill:#F2B2D6;}
	.st103{fill:none;stroke:#FFF5EB;stroke-width:0.8381;stroke-linecap:round;stroke-linejoin:round;stroke-miterlimit:10;}
	.st104{opacity:0.22;fill:#401A49;}
	.st105{fill:none;stroke:#FFDAD9;stroke-width:0.8381;stroke-miterlimit:10;}
	.st106{fill:none;stroke:#FFDAD9;stroke-width:0.8381;stroke-linecap:round;stroke-linejoin:round;stroke-miterlimit:10;}
	.st107{fill:none;stroke:#401A49;stroke-width:1.6763;stroke-linecap:round;stroke-linejoin:round;stroke-miterlimit:10;}
	.st108{fill:#FFD0C5;}
	.st109{fill:#FDB22C;}
	.st110{fill:#1A8B91;}
	.st111{fill:none;stroke:#000000;stroke-width:0.8147;stroke-linecap:round;stroke-linejoin:round;stroke-miterlimit:10;}
	.st112{fill:#ECA079;}
	.st113{fill:#FDF1F5;}
	.st114{fill:#E6C6CE;}
	.st115{fill:#862904;}
	.st116{fill:#DC845E;}
	.st117{fill:none;stroke:#000000;stroke-width:0.848;stroke-linecap:round;stroke-linejoin:round;stroke-miterlimit:10;}
	.st118{clip-path:url(#XMLID_00000164495691527767835720000003451715376752381581_);}
	.st119{clip-path:url(#XMLID_00000163777290626759805450000008438307886671964344_);}
	.st120{fill:none;stroke:#000000;stroke-width:0.8027;stroke-linecap:round;stroke-linejoin:round;stroke-miterlimit:10;}
	.st121{fill:none;stroke:#FFFFFF;stroke-width:2.99;stroke-linecap:round;stroke-linejoin:round;}
	.st122{fill:none;stroke:#FFFFFF;stroke-width:2.99;stroke-linecap:round;stroke-linejoin:round;stroke-dasharray:18.4657,18.4657;}
	.st123{fill:none;stroke:#000000;stroke-width:0.9784;stroke-linecap:round;stroke-linejoin:round;stroke-miterlimit:10;}
	.st124{clip-path:url(#XMLID_00000106841157145243119160000000075962553127150773_);}
	.st125{fill:none;stroke:#000000;stroke-width:0.682;stroke-linecap:round;stroke-linejoin:round;stroke-miterlimit:10;}
	.st126{fill:#AE3700;}
	.st127{fill:none;stroke:#FFFFFF;stroke-width:1.7082;stroke-linecap:round;stroke-linejoin:round;stroke-miterlimit:10;}
	.st128{fill:none;stroke:#000000;stroke-width:0.9976;stroke-linecap:round;stroke-linejoin:round;stroke-miterlimit:10;}
	.st129{fill:#528E72;}
	.st130{fill:#F0DBE0;}
	.st131{fill:#89331A;}
	.st132{fill:none;stroke:#CCDADC;stroke-linecap:round;stroke-linejoin:round;}
	.st133{opacity:0.45;fill:#F7E3C7;enable-background:new    ;}
	.st134{fill:#222222;}
	.st135{fill:#F47365;}
	.st136{fill:none;stroke:#222222;stroke-width:0.211;stroke-linecap:round;stroke-linejoin:round;}
	.st137{opacity:0.5;fill:#F43D4F;enable-background:new    ;}
	.st138{fill:#F43D4F;}
	.st139{fill:none;stroke:#FFF7EE;stroke-width:0.422;stroke-miterlimit:10;}
	.st140{fill:#FBB244;}
	.st141{fill:#FFF7EE;}
	.st142{opacity:0.22;}
	.st143{clip-path:url(#SVGID_00000157986585923487571030000017213287532475107494_);}
	.st144{fill:none;stroke:#FFFFFF;stroke-width:0.422;stroke-linecap:round;stroke-linejoin:round;}
	.st145{fill:none;stroke:#222222;stroke-width:2.166;stroke-linecap:round;stroke-linejoin:round;}
	.st146{fill:none;stroke:#222222;stroke-width:2.1655;stroke-linecap:round;stroke-linejoin:round;stroke-miterlimit:3.9991;}
	.st147{clip-path:url(#SVGID_00000026881591837612221630000016584795202588040890_);}
	.st148{fill:none;stroke:#222222;stroke-width:0.422;stroke-linecap:round;stroke-linejoin:round;}
	.st149{fill:#00454F;}
	.st150{fill:#B0B4B5;}
	.st151{fill-rule:evenodd;clip-rule:evenodd;fill:#00454F;}
	.st152{fill:#D2DADB;}
	.st153{fill:none;stroke:#FFFFFF;stroke-width:3.3017;stroke-miterlimit:10;}
	.st154{fill:#05454F;}
	.st155{fill:none;stroke:#707070;}
	.st156{fill:#F5F7F6;}
</style>
<g>
	<g>
		<g>
			<g>
				<g>
					<g>
						<g>
							<g>
								<rect x="118.25" y="366.63" class="st40" width="13.468" height="16.011"/>
							</g>
						</g>
					</g>
					<g>
						<g>
							<g>
								<rect x="57.849" y="365.586" class="st41" width="60.865" height="18.062"/>
							</g>
						</g>
					</g>
					<g>
						<g>
							<g>
								<path class="st41" d="M132.127,367.105h-15.044v-1.519h15.044c0.419,0,0.759,0.34,0.759,0.76l0,0
									C132.886,366.765,132.546,367.105,132.127,367.105z"/>
							</g>
						</g>
					</g>
					<g>
						<g>
							<g>
								<path class="st41" d="M132.127,383.648h-15.044v-1.519h15.044c0.419,0,0.759,0.34,0.759,0.759l0,0
									C132.886,383.308,132.546,383.648,132.127,383.648z"/>
							</g>
						</g>
					</g>
					<g>
						<g>
							<g>
								<rect x="106.738" y="365.586" class="st42" width="7.191" height="18.062"/>
							</g>
						</g>
					</g>
					<g>
						<g>
							<g>
								<rect x="63.25" y="365.586" class="st42" width="7.191" height="18.062"/>
							</g>
						</g>
					</g>
					<g>
						<g>
							<g>
								<g>
									<path class="st41" d="M131.718,369.278c0,0.044-2.915,0.08-6.51,0.08c-3.596,0-6.51-0.036-6.51-0.08
										c0-0.044,2.914-0.08,6.51-0.08C128.804,369.198,131.718,369.234,131.718,369.278z"/>
								</g>
							</g>
						</g>
					</g>
					<g>
						<g>
							<g>
								<g>
									<path class="st41" d="M131.718,371.679c0,0.044-2.915,0.08-6.51,0.08c-3.596,0-6.51-0.036-6.51-0.08
										c0-0.044,2.914-0.08,6.51-0.08C128.804,371.599,131.718,371.635,131.718,371.679z"/>
								</g>
							</g>
						</g>
					</g>
					<g>
						<g>
							<g>
								<g>
									<path class="st41" d="M131.718,374.636c0,0.044-2.915,0.08-6.51,0.08c-3.596,0-6.51-0.036-6.51-0.08
										c0-0.044,2.914-0.08,6.51-0.08C128.804,374.556,131.718,374.591,131.718,374.636z"/>
								</g>
							</g>
						</g>
					</g>
					<g>
						<g>
							<g>
								<g>
									<path class="st41" d="M131.718,377.592c0,0.044-2.915,0.08-6.51,0.08c-3.596,0-6.51-0.036-6.51-0.08
										c0-0.044,2.914-0.08,6.51-0.08C128.804,377.512,131.718,377.548,131.718,377.592z"/>
								</g>
							</g>
						</g>
					</g>
					<g>
						<g>
							<g>
								<g>
									<path class="st41" d="M131.718,380.548c0,0.044-2.915,0.08-6.51,0.08c-3.596,0-6.51-0.036-6.51-0.08
										c0-0.044,2.914-0.08,6.51-0.08C128.804,380.468,131.718,380.504,131.718,380.548z"/>
								</g>
							</g>
						</g>
					</g>
				</g>
				<g>
					<g>
						<g>
							<rect x="75.49" y="373.01" class="st42" width="27.382" height="3.252"/>
						</g>
					</g>
				</g>
			</g>
			<g>
				<g>
					<g>
						<g>
							<rect x="117.907" y="384.002" class="st43" width="13.675" height="9.756"/>
						</g>
					</g>
				</g>
				<g>
					<g>
						<g>
							<rect x="59.865" y="383.648" class="st42" width="58.195" height="10.464"/>
						</g>
					</g>
				</g>
				<g>
					<g>
						<g>
							<path class="st42" d="M117.637,384.356h14.698c0.196,0,0.354-0.158,0.354-0.354l0,0c0-0.195-0.158-0.354-0.354-0.354h-14.698
								V384.356z"/>
						</g>
					</g>
				</g>
				<g>
					<g>
						<g>
							<path class="st42" d="M117.637,394.112h14.705c0.192,0,0.347-0.155,0.347-0.347v-0.014c0-0.192-0.155-0.347-0.347-0.347
								h-14.705V394.112z"/>
						</g>
					</g>
				</g>
				<g>
					<g>
						<g>
							<g>
								<path class="st41" d="M131.582,385.855c0,0.044-3.027,0.08-6.761,0.08c-3.735,0-6.761-0.036-6.761-0.08
									c0-0.044,3.027-0.08,6.761-0.08C128.555,385.775,131.582,385.811,131.582,385.855z"/>
							</g>
						</g>
					</g>
				</g>
				<g>
					<g>
						<g>
							<g>
								<path class="st41" d="M131.582,387.701c0,0.044-3.027,0.08-6.761,0.08c-3.735,0-6.761-0.036-6.761-0.08
									c0-0.044,3.027-0.08,6.761-0.08C128.555,387.621,131.582,387.657,131.582,387.701z"/>
							</g>
						</g>
					</g>
				</g>
				<g>
					<g>
						<g>
							<g>
								<path class="st41" d="M131.582,389.547c0,0.044-3.027,0.08-6.761,0.08c-3.735,0-6.761-0.036-6.761-0.08
									c0-0.044,3.027-0.08,6.761-0.08C128.555,389.467,131.582,389.503,131.582,389.547z"/>
							</g>
						</g>
					</g>
				</g>
				<g>
					<g>
						<g>
							<g>
								<path class="st41" d="M131.582,391.393c0,0.044-3.027,0.08-6.761,0.08c-3.735,0-6.761-0.036-6.761-0.08
									c0-0.044,3.027-0.08,6.761-0.08C128.555,391.313,131.582,391.348,131.582,391.393z"/>
							</g>
						</g>
					</g>
				</g>
			</g>
			<g>
				<g>
					<g>
						<g>
							<rect x="119.698" y="395.042" class="st42" width="13.958" height="26.447"/>
						</g>
					</g>
				</g>
				<g>
					<g>
						<g>
							<rect x="54.181" y="394.112" class="st41" width="65.517" height="28.675"/>
						</g>
					</g>
				</g>
				<g>
					<g>
						<g>
							<path class="st41" d="M134.748,422.787h-16.841v-1.86h16.841c0.514,0,0.93,0.416,0.93,0.93l0,0
								C135.678,422.371,135.262,422.787,134.748,422.787z"/>
						</g>
					</g>
				</g>
				<g>
					<g>
						<g>
							<path class="st41" d="M134.766,395.972h-16.86v-1.86h16.86c0.503,0,0.911,0.408,0.911,0.911v0.037
								C135.678,395.564,135.27,395.972,134.766,395.972z"/>
						</g>
					</g>
				</g>
				<g>
					<g>
						<g>
							<g>
								<path class="st41" d="M133.656,398.587c0,0.044-3.125,0.08-6.978,0.08c-3.855,0-6.979-0.036-6.979-0.08
									c0-0.044,3.124-0.08,6.979-0.08C130.531,398.507,133.656,398.543,133.656,398.587z"/>
							</g>
						</g>
					</g>
				</g>
				<g>
					<g>
						<g>
							<g>
								<path class="st41" d="M133.656,401.979c0,0.044-3.125,0.08-6.978,0.08c-3.855,0-6.979-0.036-6.979-0.08
									c0-0.044,3.124-0.08,6.979-0.08C130.531,401.899,133.656,401.935,133.656,401.979z"/>
							</g>
						</g>
					</g>
				</g>
				<g>
					<g>
						<g>
							<g>
								<path class="st41" d="M133.656,405.371c0,0.044-3.125,0.08-6.978,0.08c-3.855,0-6.979-0.036-6.979-0.08
									c0-0.044,3.124-0.08,6.979-0.08C130.531,405.291,133.656,405.327,133.656,405.371z"/>
							</g>
						</g>
					</g>
				</g>
				<g>
					<g>
						<g>
							<g>
								<path class="st41" d="M133.656,408.763c0,0.044-3.125,0.08-6.978,0.08c-3.855,0-6.979-0.036-6.979-0.08
									c0-0.044,3.124-0.08,6.979-0.08C130.531,408.683,133.656,408.719,133.656,408.763z"/>
							</g>
						</g>
					</g>
				</g>
				<g>
					<g>
						<g>
							<g>
								<path class="st41" d="M133.656,412.155c0,0.044-3.125,0.08-6.978,0.08c-3.855,0-6.979-0.036-6.979-0.08
									c0-0.044,3.124-0.08,6.979-0.08C130.531,412.075,133.656,412.111,133.656,412.155z"/>
							</g>
						</g>
					</g>
				</g>
				<g>
					<g>
						<g>
							<g>
								<path class="st41" d="M133.656,415.547c0,0.044-3.125,0.08-6.978,0.08c-3.855,0-6.979-0.036-6.979-0.08
									c0-0.044,3.124-0.08,6.979-0.08C130.531,415.467,133.656,415.503,133.656,415.547z"/>
							</g>
						</g>
					</g>
				</g>
				<g>
					<g>
						<g>
							<g>
								<path class="st41" d="M133.656,418.939c0,0.044-3.125,0.08-6.978,0.08c-3.855,0-6.979-0.036-6.979-0.08
									c0-0.044,3.124-0.08,6.979-0.08C130.531,418.859,133.656,418.895,133.656,418.939z"/>
							</g>
						</g>
					</g>
				</g>
			</g>
		</g>
	</g>
	<g>
		<g>
			<g>
				<path class="st43" d="M25.362,139.094l-9.129,32.051c2.776,3.264,5.745,6.374,10.8,7.836l24.38,6.152l8.605-37.831
					L25.362,139.094z"/>
			</g>
			<g>
				<polygon class="st40" points="24.101,136.982 14.973,169.034 25.772,176.869 50.152,183.021 60.135,146.832 				"/>
			</g>
			<g>
				<path class="st41" d="M19.704,167.635l-4.731,1.399c0,0,1.464,2.832,3.779,4.477c2.314,1.645,4.582,2.743,7.021,3.358
					C25.772,176.869,20.576,173.792,19.704,167.635z"/>
			</g>
		</g>
		<g>
			<polygon class="st42" points="19.836,143.694 37.098,139.696 36.281,136.063 18.759,139.793 			"/>
		</g>
		<g>
			<polygon class="st42" points="62.413,155.827 52.49,141.146 49.392,143.212 59.157,158.231 			"/>
		</g>
		<g>
			<g>
				<path class="st41" d="M52.992,157.178c-0.017,0.064-6.166-1.557-13.731-3.621c-7.568-2.065-13.686-3.79-13.669-3.854
					c0.017-0.064,6.164,1.557,13.732,3.621C46.89,155.388,53.009,157.114,52.992,157.178z"/>
			</g>
		</g>
		<g>
			<g>
				<path class="st41" d="M51.523,162.086c-0.018,0.064-6.166-1.557-13.731-3.621c-7.568-2.065-13.686-3.79-13.669-3.854
					c0.018-0.064,6.164,1.557,13.732,3.621C45.42,160.297,51.54,162.022,51.523,162.086z"/>
			</g>
		</g>
		<g>
			<g>
				<path class="st41" d="M50.481,166.509c-0.018,0.064-6.166-1.557-13.731-3.621c-7.567-2.065-13.686-3.79-13.669-3.854
					c0.017-0.064,6.164,1.557,13.732,3.621C44.379,164.719,50.499,166.444,50.481,166.509z"/>
			</g>
		</g>
		<g>
			<g>
				<path class="st41" d="M49.301,170.718c-0.017,0.064-6.166-1.557-13.731-3.621c-7.568-2.064-13.686-3.79-13.669-3.854
					c0.018-0.064,6.164,1.557,13.732,3.621C43.199,168.928,49.319,170.654,49.301,170.718z"/>
			</g>
		</g>
	</g>
	<g>
		<g>
			<g>
				<path class="st43" d="M335.254,134.275l6.352,32.715c3.951,1.656,8.006,3.087,13.176,2.105l24.526-5.538l-9.433-37.633
					L335.254,134.275z"/>
			</g>
			<g>
				<polygon class="st40" points="333.175,132.962 339.527,165.677 352.703,167.782 377.229,162.244 369.768,125.452 				"/>
			</g>
			<g>
				<path class="st41" d="M343.114,162.29l-3.587,3.387c0,0,2.587,1.864,5.395,2.285c2.808,0.421,5.327,0.374,7.78-0.18
					C352.703,167.782,346.676,167.387,343.114,162.29z"/>
			</g>
		</g>
		<g>
			<polygon class="st42" points="332.406,140.877 345.994,129.505 343.623,126.634 329.681,137.884 			"/>
		</g>
		<g>
			<polygon class="st42" points="375.867,132.445 360.378,123.838 358.549,127.081 374.05,136.061 			"/>
		</g>
		<g>
			<g>
				<path class="st41" d="M368.075,137.91c0.013,0.065-6.203,1.399-13.884,2.98c-7.683,1.581-13.92,2.809-13.934,2.744
					c-0.013-0.065,6.202-1.399,13.885-2.98C361.823,139.073,368.062,137.845,368.075,137.91z"/>
			</g>
		</g>
		<g>
			<g>
				<path class="st41" d="M368.985,142.952c0.013,0.065-6.203,1.399-13.884,2.979c-7.683,1.581-13.92,2.809-13.934,2.744
					s6.202-1.399,13.885-2.98C362.733,144.115,368.971,142.887,368.985,142.952z"/>
			</g>
		</g>
		<g>
			<g>
				<path class="st41" d="M370.055,147.367c0.013,0.065-6.203,1.399-13.884,2.98c-7.683,1.581-13.92,2.809-13.934,2.744
					c-0.013-0.065,6.202-1.399,13.885-2.98C363.803,148.531,370.042,147.302,370.055,147.367z"/>
			</g>
		</g>
		<g>
			<g>
				<path class="st41" d="M370.907,151.655c0.013,0.065-6.203,1.399-13.884,2.979c-7.683,1.581-13.92,2.809-13.934,2.744
					c-0.013-0.065,6.202-1.399,13.885-2.98C364.655,152.819,370.894,151.59,370.907,151.655z"/>
			</g>
		</g>
	</g>
	<g>
		<g>
			<path class="st44" d="M459.437,423.11c0,0.14-102.857,0.253-229.707,0.253C102.835,423.363,0,423.25,0,423.11
				c0-0.14,102.835-0.253,229.729-0.253C356.58,422.857,459.437,422.97,459.437,423.11z"/>
		</g>
	</g>
	<g>
		<g>
			<g>
				<rect x="150.471" y="327.615" class="st45" width="151.23" height="96.088"/>
			</g>
			<g>
				<path class="st45" d="M298.336,358.596H146.712c-9.129,0-16.529-7.4-16.529-16.529v-0.665c0-9.129,7.4-16.529,16.529-16.529
					h151.624c9.129,0,16.529,7.4,16.529,16.529v0.665C314.865,351.196,307.465,358.596,298.336,358.596z"/>
			</g>
			<g>
				<g>
					<path class="st44" d="M301.908,358.137c0,0.13-35.329,0.236-78.899,0.236c-43.585,0-78.906-0.106-78.906-0.236
						c0-0.13,35.321-0.236,78.906-0.236C266.579,357.901,301.908,358.006,301.908,358.137z"/>
				</g>
			</g>
			<g>
				<g>
					<path class="st44" d="M170.671,424.472c-0.13,0-0.236-14.647-0.236-32.712c0-18.071,0.106-32.715,0.236-32.715
						c0.13,0,0.236,14.644,0.236,32.715C170.907,409.825,170.801,424.472,170.671,424.472z"/>
				</g>
			</g>
			<g>
				<g>
					<path class="st44" d="M266.262,344.988c-0.075,0.009-0.226-0.957-0.591-2.486c-0.363-1.529-0.985-3.613-1.952-5.803
						c-0.973-2.189-2.1-4.049-2.989-5.345c-0.888-1.297-1.503-2.058-1.445-2.108c0.04-0.036,0.748,0.65,1.716,1.912
						c0.968,1.259,2.161,3.125,3.15,5.349c0.983,2.226,1.564,4.362,1.847,5.925C266.283,343.997,266.316,344.982,266.262,344.988z"
						/>
				</g>
			</g>
			<g>
				<g>
					<path class="st44" d="M274.385,339.946c-0.081,0.028-0.413-0.964-1.22-2.424c-0.8-1.46-2.156-3.351-4.072-5.022
						c-1.923-1.663-3.986-2.742-5.543-3.33c-1.559-0.594-2.587-0.784-2.57-0.869c0.006-0.032,0.266-0.007,0.735,0.065
						c0.47,0.064,1.14,0.227,1.948,0.489c1.616,0.517,3.766,1.579,5.74,3.288c1.967,1.715,3.319,3.695,4.057,5.223
						c0.373,0.763,0.628,1.404,0.757,1.861C274.355,339.682,274.416,339.936,274.385,339.946z"/>
				</g>
			</g>
		</g>
		<g class="st46">
			<g>
				<path d="M184.237,325.57c6.041,33.324,16.561,67.711,31.353,98.177h6.802c2.781-3.847,1.857-9.219,0.122-13.637
					c-1.735-4.419-4.199-8.76-4.175-13.507c0.015-2.932,0.991-5.769,1.351-8.678c1.392-11.226-6.32-21.492-8.101-32.662
					c-0.644-4.04-0.277-8.704,2.785-11.419c2.683-2.379,6.615-2.559,10.2-2.474c9.375,0.223,18.891,1.395,28.039-0.666
					c9.149-2.061,18.147-8.316,20.036-17.502C243.178,323.991,213.708,324.78,184.237,325.57z"/>
			</g>
		</g>
	</g>
	<g>
		<g>
			<g>
				<path class="st47" d="M273.017,220.96l29.642-7.994c0,0-6.358-18.805-11.302-32.39c-4.359-11.978-11.693-16.968-15.498-19.679
					c-1.545-1.1-3.324-1.808-5.204-2.059c-7.012-0.938-26.192-3.456-35.706-4.249c-11.773-0.981-36.349,5.496-36.349,5.496
					s-21.56,11.955-28.829,16.783c-1.782,1.184-3.142,2.891-3.888,4.896c-1.345,3.615-3.053,9.827-5.102,17.863
					c-1.303,5.11-5.613,22.014-5.613,22.014l25.279-0.777c5.094,15.468,9.813,29.362,9.813,29.362l-4.578,28.451
					c0,0,34.553,13.818,43.383,12.837c8.83-0.981,48.839-16.435,48.839-16.435s-4.578-45.13-4.578-46.438
					C273.326,228.153,273.189,224.874,273.017,220.96z"/>
			</g>
			<g class="st46">
				<g>
					<path d="M243.86,190.871c-1.856-2.361-5.094-3.333-8.082-3.032c-2.988,0.301-5.757,1.711-8.241,3.398
						c-7.663,5.203-13.101,13.04-17.917,20.952c-8.387,13.78-15.449,28.366-21.057,43.491l0.198,3.873
						c6.284-0.793,10.385-6.092,13.112-11.809c2.727-5.717,3.902-12.051,6.307-17.91c4.571-11.139,13.739-20.308,24.877-24.881
						c3.744,0.387,7.769-0.815,10.218-3.674C245.723,198.419,246.186,193.831,243.86,190.871z"/>
				</g>
			</g>
			<g>
				<g>
					<path class="st44" d="M273.3,225.87c-0.139,0.012-0.978-8.197-1.874-18.334c-0.896-10.141-1.509-18.368-1.37-18.381
						c0.139-0.012,0.978,8.196,1.874,18.336C272.826,217.629,273.439,225.858,273.3,225.87z"/>
				</g>
			</g>
			<g>
				<g>
					<path class="st44" d="M173.714,189.156c0.034-0.007,0.165,0.447,0.372,1.274c0.219,0.926,0.498,2.105,0.831,3.514
						c0.68,2.972,1.586,7.084,2.556,11.632c0.97,4.55,1.82,8.674,2.411,11.665c0.27,1.423,0.496,2.613,0.674,3.548
						c0.148,0.84,0.214,1.308,0.18,1.316c-0.034,0.007-0.165-0.446-0.372-1.273c-0.219-0.926-0.498-2.104-0.831-3.513
						c-0.68-2.972-1.586-7.085-2.556-11.635c-0.97-4.549-1.82-8.674-2.411-11.665c-0.27-1.423-0.496-2.613-0.674-3.547
						C173.745,189.631,173.68,189.163,173.714,189.156z"/>
				</g>
			</g>
			<g>
				<g>
					<path class="st44" d="M268.783,159.194c0.146,0.04-0.707,3.329-1.294,7.465c-0.603,4.134-0.711,7.53-0.863,7.527
						c-0.066-0.001-0.124-0.853-0.095-2.232c0.028-1.378,0.158-3.283,0.457-5.368c0.301-2.084,0.713-3.948,1.075-5.278
						C268.423,159.978,268.719,159.177,268.783,159.194z"/>
				</g>
			</g>
		</g>
		<g>
			<g>
				<path class="st48" d="M273.017,220.96c-0.266,0.078,7.532,26.88,7.532,26.88l-22.92-1.866l-10.938,13.408l39.062,14.389
					c0,0,24.2-10.792,24.2-11.773c0-0.981-8.705-48.652-8.705-48.652L273.017,220.96z"/>
			</g>
			<g>
				<g>
					<g>
						<path class="st44" d="M256.153,224.069c-0.028-0.049,0.555,0.106,1.174-0.553c0.285-0.318,0.551-0.843,0.5-1.473
							c-0.041-0.623-0.558-1.28-1.332-1.546c-0.765-0.287-1.775-0.189-2.544,0.464c-0.385,0.315-0.71,0.736-0.953,1.222
							c-0.121,0.243-0.222,0.503-0.297,0.775c-0.07,0.271-0.154,0.57-0.034,0.745c0.11,0.181,0.41,0.234,0.67,0.171
							c0.256-0.059,0.505-0.248,0.683-0.472c0.36-0.462,0.47-1.147,0.27-1.739c-0.429-1.221-2.143-1.756-3.439-1.134
							c-0.663,0.285-1.259,0.78-1.736,1.375c-0.226,0.289-0.408,0.638-0.44,0.98c-0.036,0.335,0.164,0.647,0.476,0.708
							c0.315,0.062,0.704-0.082,0.967-0.331c0.265-0.239,0.407-0.624,0.443-1.005c0.059-0.776-0.347-1.61-1.017-2.061
							c-0.682-0.458-1.603-0.539-2.439-0.311c-0.849,0.214-1.615,0.753-1.967,1.568c-0.178,0.392-0.229,0.841-0.06,1.192
							c0.181,0.355,0.55,0.573,0.969,0.543c0.412-0.023,0.833-0.246,1.06-0.586c0.225-0.337,0.262-0.811,0.118-1.227
							c-0.268-0.878-1.19-1.414-2.145-1.353c-0.962,0.024-1.862,0.54-2.607,1.226c-0.37,0.348-0.754,0.717-1.015,1.124
							c-0.262,0.402-0.446,0.913-0.283,1.263c0.155,0.374,0.638,0.465,1.04,0.263c0.399-0.184,0.598-0.64,0.594-1.123
							c-0.014-0.979-0.659-1.955-1.527-2.493c-0.87-0.562-2.011-0.648-2.984-0.242c-0.483,0.196-0.931,0.51-1.257,0.905
							c-0.319,0.397-0.527,0.912-0.449,1.373c0.101,0.984,1.711,1.179,2.234,0.356c0.582-0.823,0.226-2.12-0.67-2.628
							c-0.89-0.569-2.055-0.544-3.052-0.165c-0.506,0.186-0.991,0.443-1.455,0.732c-0.459,0.287-0.888,0.613-1.152,1.028
							c-0.278,0.41-0.305,0.9-0.09,1.313c0.203,0.412,0.654,0.564,1.029,0.334c0.386-0.219,0.578-0.677,0.522-1.147
							c-0.046-0.472-0.278-0.938-0.59-1.316c-0.63-0.763-1.642-1.196-2.602-1.077c-0.958,0.104-1.878,0.703-2.287,1.531
							c-0.196,0.412-0.263,0.903-0.084,1.267c0.173,0.373,0.585,0.549,1.01,0.475c0.42-0.062,0.816-0.331,0.967-0.705
							c0.169-0.385,0.141-0.848-0.026-1.253c-0.323-0.842-1.185-1.324-2.066-1.501c-0.891-0.179-1.833-0.179-2.667,0.077
							c-0.818,0.244-1.578,0.841-1.704,1.628c-0.143,0.774,0.24,1.706,0.94,1.919c0.714,0.232,1.467-0.396,1.647-1.105
							c0.198-0.72-0.12-1.506-0.606-2.064c-0.499-0.56-1.161-0.955-1.869-1.117c-1.414-0.346-2.926,0.065-3.875,0.961
							c-0.469,0.449-0.832,1.01-0.947,1.604c-0.132,0.589,0.064,1.197,0.498,1.542c0.42,0.369,1.034,0.311,1.41-0.043
							c0.395-0.339,0.54-0.866,0.475-1.347c-0.137-0.983-0.849-1.721-1.563-2.099c-0.731-0.39-1.505-0.456-2.126-0.323
							c-0.626,0.135-1.108,0.423-1.443,0.704c-0.673,0.579-0.826,1.059-0.857,1.036c0,0,0.029-0.117,0.142-0.319
							c0.114-0.2,0.306-0.494,0.645-0.798c0.335-0.303,0.825-0.619,1.479-0.777c0.65-0.157,1.473-0.107,2.256,0.293
							c0.765,0.391,1.546,1.153,1.719,2.251c0.084,0.536-0.077,1.176-0.543,1.585c-0.43,0.438-1.262,0.528-1.779,0.07
							c-0.532-0.406-0.772-1.159-0.625-1.834c0.127-0.682,0.518-1.291,1.027-1.79c1.034-0.99,2.65-1.444,4.197-1.081
							c0.774,0.171,1.518,0.602,2.078,1.225c0.542,0.619,0.943,1.514,0.704,2.432c-0.123,0.443-0.387,0.849-0.769,1.134
							c-0.377,0.287-0.909,0.42-1.396,0.27c-0.494-0.138-0.862-0.543-1.059-0.977c-0.206-0.44-0.273-0.937-0.195-1.426
							c0.175-1.03,1.092-1.706,2.003-1.987c0.935-0.289,1.93-0.29,2.9-0.101c0.953,0.181,2.009,0.741,2.415,1.779
							c0.206,0.494,0.257,1.092,0.027,1.625c-0.231,0.554-0.772,0.911-1.339,0.999c-0.561,0.12-1.272-0.163-1.531-0.743
							c-0.27-0.569-0.156-1.193,0.077-1.698c0.512-1.024,1.557-1.687,2.682-1.822c1.14-0.141,2.319,0.362,3.057,1.252
							c0.367,0.446,0.647,0.984,0.71,1.596c0.082,0.602-0.188,1.322-0.779,1.648c-0.284,0.168-0.663,0.236-1.001,0.121
							c-0.343-0.109-0.603-0.374-0.751-0.661c-0.319-0.566-0.248-1.33,0.108-1.841c0.34-0.53,0.833-0.888,1.317-1.194
							c0.486-0.304,1-0.578,1.554-0.782c1.091-0.415,2.445-0.472,3.52,0.215c1.097,0.638,1.611,2.25,0.816,3.387
							c-0.396,0.574-1.137,0.821-1.782,0.721c-0.327-0.049-0.655-0.171-0.917-0.404c-0.262-0.231-0.443-0.56-0.492-0.894
							c-0.107-0.686,0.179-1.314,0.559-1.795c0.4-0.482,0.911-0.834,1.472-1.063c1.115-0.468,2.457-0.366,3.463,0.287
							c0.999,0.634,1.743,1.713,1.769,2.94c0.017,0.593-0.271,1.305-0.887,1.588c-0.291,0.139-0.626,0.202-0.961,0.124
							c-0.34-0.074-0.638-0.327-0.777-0.639c-0.272-0.677,0.037-1.289,0.322-1.754c0.319-0.486,0.712-0.853,1.105-1.224
							c0.788-0.725,1.809-1.323,2.933-1.349c0.552-0.017,1.123,0.1,1.606,0.397c0.488,0.302,0.846,0.771,1.022,1.304
							c0.178,0.53,0.148,1.156-0.182,1.65c-0.333,0.483-0.876,0.762-1.439,0.795c-0.569,0.05-1.175-0.291-1.42-0.814
							c-0.251-0.536-0.153-1.127,0.058-1.59c0.414-0.962,1.342-1.593,2.278-1.819c0.936-0.25,1.989-0.165,2.803,0.385
							c0.806,0.558,1.266,1.515,1.196,2.463c-0.034,0.948-0.894,1.884-1.922,1.703c-0.532-0.098-0.86-0.671-0.791-1.143
							c0.052-0.472,0.273-0.859,0.533-1.192c0.521-0.639,1.16-1.165,1.898-1.477c1.45-0.674,3.391-0.1,3.907,1.372
							c0.228,0.709,0.096,1.489-0.341,2.045c-0.226,0.272-0.508,0.493-0.865,0.576c-0.329,0.071-0.759,0.036-0.991-0.314
							c-0.204-0.371-0.051-0.707,0.011-0.981c0.083-0.289,0.194-0.563,0.326-0.821c0.265-0.514,0.619-0.961,1.04-1.295
							c0.84-0.696,1.962-0.788,2.775-0.46c0.833,0.303,1.389,1.033,1.418,1.727c0.036,0.69-0.265,1.233-0.579,1.559
							C256.719,224.26,256.115,224.053,256.153,224.069z"/>
					</g>
				</g>
				<g>
					<polygon class="st45" points="215.386,221.262 202.01,271.823 244.546,273.16 257.922,223.227 					"/>
				</g>
				<g>
					<polygon class="st41" points="215.386,221.262 213.685,221.425 200.19,268.123 202.244,270.94 					"/>
				</g>
				<g>
					<path class="st48" d="M243.548,234.152h13.815c0,0,2.125-0.133,3.055,1.993c0.93,2.125,0.797,3.985,0.797,3.985
						s0.797,0.93,0.93,2.79c0.133,1.86,0.133,7.173,0,7.572c-0.133,0.399-1.594,0.797-1.594,0.797s0.93,2.125,0.133,3.719
						c-0.797,1.594-1.992,1.993-1.992,1.993s-1.86,4.251-3.719,4.782c-1.86,0.531-3.587,0-4.516,0c-0.93,0-15.94-7.704-15.94-7.704
						v-1.727c0,0-5.313,0.531-5.446-2.391c-0.133-2.922,3.454-2.748,3.454-2.748h8.103c0,0-8.9,0.357-9.697-0.971
						c-0.797-1.328-1.859-4.516,0.864-5.048c2.723-0.531,15.012-0.531,15.012-0.531l6.706,1.111h1.063l-0.828-2.953
						c0,0-7.046-0.018-8.09-0.15c-1.044-0.133-3.037-0.399-3.037-2.258C242.618,234.55,243.548,234.152,243.548,234.152z"/>
				</g>
				<g>
					<g>
						<path class="st49" d="M251.314,248.029c0,0.071-0.985,0.149-2.581,0.173c-1.596,0.025-3.802-0.014-6.233-0.171
							c-2.431-0.158-4.625-0.404-6.204-0.634c-1.579-0.23-2.547-0.434-2.537-0.505c0.01-0.075,0.994-0.003,2.58,0.13
							c1.586,0.134,3.774,0.319,6.195,0.477c2.42,0.156,4.614,0.254,6.204,0.326C250.328,247.898,251.313,247.953,251.314,248.029z"
							/>
					</g>
				</g>
				<g>
					<g>
						<path class="st49" d="M250.056,255.493c-0.007,0.071-0.886,0.051-2.299-0.072c-1.413-0.122-3.36-0.355-5.496-0.701
							c-2.137-0.347-4.057-0.743-5.436-1.074c-1.38-0.331-2.22-0.589-2.204-0.659c0.016-0.074,0.884,0.055,2.279,0.29
							c1.6,0.27,3.428,0.578,5.447,0.918c2.022,0.316,3.853,0.602,5.456,0.853C249.2,255.265,250.064,255.418,250.056,255.493z"/>
					</g>
				</g>
				<g>
					<g>
						<path class="st49" d="M261.625,245.039c0.013-0.02,0.202,0.055,0.487,0.296c0.279,0.241,0.657,0.663,0.901,1.318
							c0.24,0.641,0.339,1.552-0.056,2.451c-0.38,0.882-1.219,1.729-2.382,2.011l0.156-0.384c0.647,0.971,0.798,2.332,0.395,3.558
							c-0.39,1.226-1.302,2.24-2.391,2.651l0.153-0.174c-0.578,2.202-1.925,3.724-2.988,4.535c-0.537,0.414-1.008,0.676-1.341,0.83
							c-0.335,0.15-0.526,0.206-0.537,0.181c-0.036-0.068,0.693-0.389,1.678-1.253c0.972-0.849,2.19-2.341,2.698-4.415l0.031-0.126
							l0.122-0.048c0.924-0.366,1.72-1.252,2.068-2.344c0.358-1.093,0.228-2.281-0.312-3.12l-0.196-0.305l0.353-0.079
							c0.983-0.22,1.745-0.936,2.102-1.697c0.372-0.768,0.329-1.571,0.149-2.174C262.32,245.519,261.558,245.097,261.625,245.039z"
							/>
					</g>
				</g>
			</g>
		</g>
		<g>
			<g>
				<g>
					<g>
						<g>
							<g>
								<path class="st48" d="M229.066,179.316l8.529-17.205l-2.645-7.522c0,0,12.795-6.639,8.423-20.194
									c-2.112-6.545-7.556-19.668-12.621-31.489c-5.448-12.713-19.743-19.113-32.853-14.704l-1.302,0.438
									c-13.768,5.543-16.752,20.333-10.831,33.942l17.311,50.58L229.066,179.316z"/>
							</g>
						</g>
					</g>
					<g>
						<g>
							<g>
								<g>
									<g>
										<g>
											<g>
												<g>
													<path class="st49" d="M234.963,154.575c0,0-8.298,3.562-19.28,0.916c0,0,7.426,8.316,20.487,2.571L234.963,154.575z"/>
												</g>
											</g>
										</g>
									</g>
								</g>
							</g>
						</g>
					</g>
					<g>
						<g>
							<g>
								<g>
									<g>
										<g>
											<g>
												<g>
													<g>
														<g>
															<g>
																<path class="st44" d="M231.204,113.586c0.379,1.006-0.162,2.155-1.205,2.57c-1.042,0.413-2.193-0.064-2.571-1.07
																	c-0.378-1.006,0.161-2.157,1.202-2.571C229.673,112.101,230.825,112.58,231.204,113.586z"/>
															</g>
														</g>
													</g>
												</g>
											</g>
										</g>
									</g>
								</g>
							</g>
						</g>
					</g>
					<g>
						<g>
							<g>
								<g>
									<g>
										<g>
											<g>
												<g>
													<g>
														<g>
															<g>
																<g>
																	<path class="st44" d="M230.031,109.703c-0.154,0.332-1.978-0.258-4.051,0.445c-2.08,0.672-3.244,2.252-3.554,2.073
																		c-0.148-0.076-0.058-0.611,0.443-1.317c0.491-0.7,1.447-1.542,2.741-1.971c1.294-0.427,2.541-0.317,3.33-0.04
																		C229.742,109.169,230.111,109.551,230.031,109.703z"/>
																</g>
															</g>
														</g>
													</g>
												</g>
											</g>
										</g>
									</g>
								</g>
							</g>
						</g>
					</g>
					<g>
						<g>
							<g>
								<g>
									<g>
										<g>
											<g>
												<g>
													<g>
														<g>
															<g>
																<path class="st44" d="M212.118,119.923c0.378,1.006-0.162,2.156-1.205,2.57c-1.041,0.413-2.193-0.064-2.572-1.07
																	c-0.378-1.006,0.161-2.156,1.203-2.57C210.587,118.438,211.74,118.918,212.118,119.923z"/>
															</g>
														</g>
													</g>
												</g>
											</g>
										</g>
									</g>
								</g>
							</g>
						</g>
					</g>
					<g>
						<g>
							<g>
								<g>
									<g>
										<g>
											<g>
												<g>
													<g>
														<g>
															<g>
																<g>
																	<path class="st44" d="M209.881,115.849c-0.118,0.347-1.997-0.041-3.979,0.882c-1.995,0.894-2.981,2.59-3.309,2.446
																		c-0.155-0.059-0.125-0.6,0.298-1.356c0.412-0.75,1.271-1.689,2.511-2.256c1.241-0.565,2.492-0.591,3.306-0.401
																		C209.534,115.35,209.943,115.689,209.881,115.849z"/>
																</g>
															</g>
														</g>
													</g>
												</g>
											</g>
										</g>
									</g>
								</g>
							</g>
						</g>
					</g>
					<g>
						<g>
							<g>
								<g>
									<g>
										<g>
											<g>
												<g>
													<g>
														<g>
															<g>
																<path class="st44" d="M222.509,130.575c-0.049-0.115,1.165-0.771,3.164-1.741c0.511-0.233,0.977-0.507,0.945-0.898
																	c-0.004-0.425-0.417-0.921-0.882-1.451c-0.929-1.114-1.902-2.283-2.923-3.507c-4.107-5.011-7.269-9.204-7.066-9.367
																	c0.204-0.164,3.697,3.765,7.803,8.777c1,1.24,1.955,2.422,2.865,3.553c0.403,0.535,0.977,1.102,0.974,1.987
																	c-0.01,0.444-0.302,0.862-0.611,1.067c-0.305,0.217-0.601,0.324-0.858,0.427
																	C223.858,130.243,222.557,130.69,222.509,130.575z"/>
															</g>
														</g>
													</g>
												</g>
											</g>
										</g>
									</g>
								</g>
							</g>
						</g>
					</g>
					<g>
						<g>
							<g>
								<g>
									<g>
										<g>
											<g>
												<path class="st44" d="M207.063,108.617c-0.015,0.633-2.176,1.062-4.511,2.173c-2.358,1.065-4.08,2.437-4.574,2.04
													c-0.225-0.194-0.061-0.84,0.548-1.653c0.603-0.809,1.684-1.75,3.09-2.404c1.407-0.651,2.823-0.869,3.83-0.806
													C206.462,108.028,207.061,108.32,207.063,108.617z"/>
											</g>
										</g>
									</g>
								</g>
							</g>
						</g>
					</g>
					<g>
						<g>
							<g>
								<g>
									<g>
										<g>
											<g>
												<path class="st44" d="M227.56,104.124c-0.206,0.594-1.8,0.585-3.526,1.14c-1.745,0.494-3.067,1.384-3.567,1.003
													c-0.227-0.19-0.157-0.739,0.329-1.398c0.477-0.655,1.403-1.371,2.596-1.732c1.193-0.36,2.36-0.277,3.12,0.005
													C227.281,103.422,227.644,103.84,227.56,104.124z"/>
											</g>
										</g>
									</g>
								</g>
							</g>
						</g>
					</g>
					<g>
						<g>
							<g>
								<g>
									<g>
										<g>
											<g>
												<g>
													<g>
														<g>
															<g>
																<g>
																	<g>
																		<g>
																			<g>
																				<g>
																					<g>
																						<g>
																							<g>
																								<g>
																									<g>
																										<g>
																											<path class="st48" d="M190.229,132.206c-0.264-0.022-10.197,0.376-6.799,9.505
																												c3.398,9.129,11.863,3.835,11.781,3.567C195.129,145.01,190.229,132.206,190.229,132.206z"/>
																										</g>
																									</g>
																								</g>
																							</g>
																						</g>
																					</g>
																				</g>
																			</g>
																		</g>
																	</g>
																</g>
															</g>
														</g>
													</g>
												</g>
											</g>
										</g>
									</g>
								</g>
							</g>
						</g>
						<g>
							<g>
								<g>
									<g>
										<g>
											<g>
												<g>
													<g>
														<g>
															<g>
																<g>
																	<g>
																		<g>
																			<g>
																				<g>
																					<g>
																						<g>
																							<g>
																								<g>
																									<g>
																										<g>
																											<g>
																												<path class="st49" d="M191.135,142.857c-0.051-0.014-0.118,0.171-0.341,0.394
																													c-0.217,0.217-0.637,0.468-1.18,0.467c-1.096,0.005-2.478-1.224-3.135-2.853
																													c-0.333-0.822-0.453-1.678-0.402-2.443c0.03-0.772,0.289-1.399,0.742-1.666
																													c0.441-0.291,0.894-0.129,1.101,0.087c0.217,0.21,0.227,0.413,0.281,0.411
																													c0.034,0.013,0.139-0.226-0.075-0.576c-0.105-0.167-0.292-0.343-0.572-0.438
																													c-0.286-0.097-0.642-0.068-0.966,0.095c-0.686,0.311-1.079,1.194-1.135,2.034
																													c-0.093,0.857,0.022,1.826,0.396,2.75c0.743,1.818,2.325,3.189,3.787,3.079
																													c0.705-0.071,1.168-0.465,1.365-0.783C191.2,143.084,191.173,142.862,191.135,142.857z"/>
																											</g>
																										</g>
																									</g>
																								</g>
																							</g>
																						</g>
																					</g>
																				</g>
																			</g>
																		</g>
																	</g>
																</g>
															</g>
														</g>
													</g>
												</g>
											</g>
										</g>
									</g>
								</g>
							</g>
						</g>
					</g>
				</g>
				<g>
					<g>
						<g>
							<g>
								<g>
									<g>
										<g>
											<g>
												<g>
													<g>
														<g>
															<path class="st44" d="M216.887,134.063c0.331-0.133,1.092,2.117,3.557,3.067c2.463,0.956,4.778-0.103,4.902,0.205
																c0.078,0.131-0.388,0.617-1.391,0.985c-0.982,0.368-2.541,0.537-4.049-0.044c-1.505-0.585-2.451-1.723-2.838-2.62
																C216.665,134.744,216.728,134.102,216.887,134.063z"/>
														</g>
													</g>
												</g>
											</g>
										</g>
									</g>
								</g>
							</g>
						</g>
					</g>
				</g>
			</g>
			<g>
				<path class="st44" d="M234.053,82.942c-0.795-1.695-2.545-2.857-4.393-3.076c-0.191-0.528-0.413-1.026-0.677-1.472
					c-1.677-2.831-5.448-4.364-8.505-3.146c-1.292-2.183-3.844-3.557-6.378-3.432c-2.534,0.125-4.939,1.741-6.01,4.041
					c-2.955-1.244-6.628-0.537-8.91,1.715c-0.287,0.283-0.562,0.605-0.649,0.998c-0.057,0.258,0.004,0.544,0.153,0.755
					c-1.306-1.081-3.154-1.484-4.782-1c-0.555,0.165-1.07,0.439-1.535,0.781c-1.401,0.648-2.574,1.743-3.132,3.201
					c-4.125-0.079-7.992,3.454-8.285,7.569c-2.961,1.173-5.029,4.302-4.946,7.486c-1.881,0.811-3.269,2.67-3.509,4.705
					c-0.24,2.035,0.676,4.167,2.316,5.393c0,0-5.969,3.64-2.354,8.844c1.847,2.659,5.635,0.816,5.635,0.816L189.31,134.1
					c-0.049,0.119,1.931,1.882,2.885,1.039c0.954-0.843,1.202-2.204,1.5-3.442c0.342-1.418,0.826-2.843,0.709-4.297
					c-0.116-1.454-1.046-2.978-2.487-3.203c1.417-1.062,1.9-3.034,1.646-4.787c-0.253-1.753-1.118-3.35-1.968-4.904
					c-1.255-2.293-2.509-4.586-3.764-6.88c3.318-1.206,5.823-4.398,6.208-7.907c3.01,1.042,6.687-1.285,7.032-4.452
					c2.181,2.948,6.855,3.636,9.793,1.441c0.276,2.033,4.301,2.656,6.349,2.528c2.048-0.128,3.958-2.245,3.958-2.245
					s2.413,0.511,4.183,0.087c0,0,0,0,0,0c0,0,0,0,0,0c0.069-0.017,0.138-0.033,0.205-0.052c2.692-0.622,4.443-3.844,4.936-6.559
					c0.691-0.168,1.351-0.451,1.92-0.882C234.381,88.095,235.1,85.175,234.053,82.942z"/>
			</g>
		</g>
		<g>
			<g>
				<path class="st48" d="M158.229,221.547c0,0-5.918,21.43-7.226,26.662s-1.294,17.387,1.649,20.984
					c2.943,3.597,12.754,5.886,12.754,5.886s19.214-9.384,25.755-20.83c6.541-11.446,24.429-42.58,24.429-42.58l-5.669-15.547
					l-29.782,28.439l0.308-3.697L158.229,221.547z"/>
			</g>
			<g>
				<path class="st45" d="M220.44,147.093L220.44,147.093c1.034-0.525,2.297-0.11,2.817,0.926l17.141,34.137l-4.4,1.955
					l-16.495-34.246C219.01,148.84,219.426,147.608,220.44,147.093z"/>
			</g>
			<g>
				<path class="st48" d="M208.97,197.104l16.027-16.528h15.359l9.838,12.986c0,0-4.663,0.871-6.332-1.634l-2.17-3.089
					c0,0,2.17,4.758,1.002,7.095c0,0-2.302,5.429-2.671,6.01c-0.695,1.094-1.231,1.793-3.234,1.459
					c-2.003-0.334-5.113-1.96-4.779-3.129c0.334-1.169,1.503-1.336,1.503-1.336l-4.675-0.668c0,0-4.708,8.528-7.546,10.531
					c-2.838,2.003-5.701,2.866-5.701,2.866L208.97,197.104z"/>
			</g>
			<g>
				<g>
					<path class="st49" d="M180.738,224.065c0.036,0.079-1.296,0.696-3.334,1.887c-2.038,1.187-4.753,3.011-7.441,5.402
						c-2.683,2.399-4.804,4.889-6.215,6.779c-1.415,1.889-2.18,3.142-2.254,3.097c-0.03-0.018,0.134-0.346,0.458-0.927
						c0.318-0.584,0.829-1.401,1.506-2.38c1.348-1.959,3.453-4.519,6.168-6.947c2.72-2.42,5.503-4.22,7.603-5.336
						c1.05-0.561,1.919-0.976,2.536-1.225C180.379,224.159,180.724,224.033,180.738,224.065z"/>
				</g>
			</g>
			<g>
				<g>
					<path class="st49" d="M228.519,185.378c-0.006-0.07,0.855-0.21,2.251-0.38c1.397-0.17,3.328-0.371,5.466-0.561
						c0.535-0.048,1.083-0.085,1.62-0.003c0.54,0.08,1.036,0.299,1.44,0.579c0.817,0.565,1.306,1.323,1.624,1.961
						c0.609,1.303,0.765,2.165,0.72,2.182c-0.084,0.035-0.371-0.805-1.035-2.012c-0.343-0.589-0.83-1.263-1.568-1.743
						c-0.366-0.238-0.789-0.413-1.253-0.476c-0.467-0.065-0.973-0.031-1.504,0.017c-2.136,0.19-4.074,0.334-5.478,0.413
						C229.397,185.433,228.525,185.447,228.519,185.378z"/>
				</g>
			</g>
			<g>
				<g>
					<path class="st49" d="M240.754,201.111c-0.083-0.009,0.065-1.166-0.036-3.025c-0.052-0.928-0.179-2.029-0.445-3.226
						c-0.262-1.168-0.633-2.568-1.806-3.247c-0.575-0.341-1.24-0.513-1.889-0.668c-0.652-0.148-1.283-0.292-1.892-0.43
						c-1.206-0.262-2.3-0.43-3.225-0.497c-1.854-0.132-2.991,0.163-3.008,0.076c-0.007-0.026,0.265-0.143,0.786-0.25
						c0.519-0.109,1.288-0.204,2.239-0.184c0.95,0.021,2.076,0.157,3.301,0.397c0.613,0.118,1.25,0.257,1.911,0.404
						c0.66,0.152,1.373,0.325,2.037,0.717c0.673,0.386,1.156,1.029,1.438,1.671c0.29,0.648,0.441,1.302,0.566,1.914
						c0.247,1.232,0.34,2.363,0.347,3.31c0.007,0.948-0.062,1.712-0.137,2.235C240.862,200.832,240.786,201.115,240.754,201.111z"/>
				</g>
			</g>
			<g>
				<g>
					<path class="st49" d="M235.194,195.564c0.126,0,0.228,1.332,0.242,3.078l0.003,0.299l-0.307-0.055
						c-0.163-0.029-0.334-0.051-0.512-0.049c-0.927,0.003-1.702,0.498-2.123,0.937c-0.431,0.451-0.573,0.84-0.649,0.815
						c-0.056-0.009-0.04-0.465,0.375-1.045c0.402-0.56,1.272-1.206,2.396-1.213c0.215-0.002,0.425,0.026,0.622,0.068l-0.304,0.243
						C234.96,196.895,235.068,195.564,235.194,195.564z"/>
				</g>
			</g>
			<g>
				<g>
					<path class="st49" d="M235.209,196.077c-0.032,0.142-1.41-0.063-3.114-0.15c-1.704-0.095-3.096-0.037-3.112-0.182
						c-0.019-0.132,1.385-0.42,3.139-0.323C233.876,195.511,235.242,195.947,235.209,196.077z"/>
				</g>
			</g>
			<g>
				<g>
					<path class="st49" d="M229.234,195.274c0.131,0.014,0.023,1.52-0.693,3.216c-0.707,1.701-1.705,2.833-1.807,2.749
						c-0.12-0.087,0.661-1.309,1.34-2.945C228.764,196.664,229.087,195.249,229.234,195.274z"/>
				</g>
			</g>
		</g>
		<g>
			<g>
				<g>
					<g>
						<g>
							<g>
								<g>
									<g>
										<g>
											<path class="st50" d="M290.644,382.169l-1.387,44.015l54.752,2.005c-0.129-5.242-28.07-16.78-28.07-16.78l2.046-28.164
												L290.644,382.169z"/>
										</g>
									</g>
								</g>
							</g>
						</g>
					</g>
					<g class="st51">
						<g>
							<g>
								<g>
									<g>
										<g>
											<g>
												<path class="st35" d="M299.096,408.417c-1.07,0.251-1.846,1.415-1.639,2.495c0.206,1.08,1.384,1.879,2.459,1.647
													c1.074-0.232,2.049-1.602,1.722-2.651c-0.326-1.05-1.76-1.913-2.748-1.43"/>
											</g>
										</g>
									</g>
								</g>
							</g>
						</g>
					</g>
					<g class="st51">
						<g>
							<g>
								<g>
									<g>
										<g>
											<path class="st35" d="M289.257,426.184l0.313-4.431l52.378,3.579c0,0,2.399,1.15,2.06,2.857L289.257,426.184z"/>
										</g>
									</g>
								</g>
							</g>
						</g>
					</g>
					<g>
						<g>
							<g>
								<g>
									<g>
										<g>
											<g>
												<path class="st44" d="M316.837,411.163c-0.018,0.267-1.36,0.339-2.707,1.151c-1.368,0.776-2.089,1.91-2.331,1.794
													c-0.245-0.061,0.213-1.645,1.861-2.598C315.299,410.542,316.904,410.92,316.837,411.163z"/>
											</g>
										</g>
									</g>
								</g>
							</g>
						</g>
					</g>
					<g>
						<g>
							<g>
								<g>
									<g>
										<g>
											<g>
												<path class="st44" d="M322.492,413.749c0.052,0.261-1.123,0.674-2.072,1.771c-0.982,1.069-1.256,2.284-1.521,2.263
													c-0.253,0.033-0.381-1.54,0.826-2.882C320.919,413.548,322.496,413.493,322.492,413.749z"/>
											</g>
										</g>
									</g>
								</g>
							</g>
						</g>
					</g>
					<g>
						<g>
							<g>
								<g>
									<g>
										<g>
											<g>
												<path class="st44" d="M325.503,420.741c-0.245,0.048-0.568-1.302,0.172-2.74c0.73-1.445,2.012-1.976,2.117-1.749
													c0.143,0.226-0.698,0.981-1.287,2.172C325.887,419.6,325.769,420.725,325.503,420.741z"/>
											</g>
										</g>
									</g>
								</g>
							</g>
						</g>
					</g>
					<g>
						<g>
							<g>
								<g>
									<g>
										<g>
											<g>
												<path class="st44" d="M316.591,404.693c-0.121,0.239-1.334-0.174-2.849-0.127c-1.516,0.017-2.711,0.481-2.841,0.247
													c-0.147-0.199,1.037-1.146,2.822-1.177C315.506,403.591,316.73,404.488,316.591,404.693z"/>
											</g>
										</g>
									</g>
								</g>
							</g>
						</g>
					</g>
					<g>
						<g>
							<g>
								<g>
									<g>
										<g>
											<g>
												<path class="st44" d="M315.525,398.149c-0.001,0.11-1.064,0.237-2.742-0.115c-0.835-0.176-1.815-0.487-2.836-0.986
													c-0.51-0.25-1.03-0.546-1.544-0.893c-0.246-0.172-0.539-0.346-0.804-0.675c-0.286-0.29-0.428-1.005-0.07-1.427
													c0.296-0.411,0.798-0.574,1.194-0.568c0.404,0.001,0.728,0.095,1.023,0.18c0.604,0.17,1.168,0.393,1.683,0.647
													c1.029,0.514,1.857,1.147,2.468,1.752c1.227,1.223,1.624,2.237,1.531,2.286c-0.124,0.084-0.712-0.776-1.969-1.794
													c-0.627-0.507-1.432-1.036-2.395-1.468c-0.483-0.213-1.004-0.4-1.557-0.543c-0.574-0.173-1.068-0.196-1.226,0.057
													c-0.058,0.096-0.066,0.135,0.049,0.309c0.12,0.161,0.349,0.323,0.592,0.493c0.473,0.334,0.95,0.626,1.418,0.881
													c0.938,0.509,1.839,0.866,2.614,1.113C314.505,397.893,315.535,398.004,315.525,398.149z"/>
											</g>
										</g>
									</g>
								</g>
							</g>
						</g>
					</g>
					<g>
						<g>
							<g>
								<g>
									<g>
										<g>
											<g>
												<path class="st44" d="M315.163,398.519c-0.096,0.038-0.592-0.94-0.626-2.675c-0.014-0.86,0.113-1.898,0.484-2.988
													c0.188-0.543,0.438-1.098,0.759-1.639c0.341-0.529,0.759-1.239,1.8-1.32c0.543-0.001,0.977,0.439,1.117,0.806
													c0.167,0.377,0.192,0.696,0.245,1.016c0.077,0.643,0.042,1.27-0.066,1.847c-0.215,1.159-0.727,2.111-1.275,2.79
													c-1.122,1.38-2.249,1.658-2.268,1.567c-0.084-0.137,0.867-0.619,1.735-1.953c0.428-0.657,0.819-1.531,0.962-2.545
													c0.072-0.505,0.084-1.043,0.008-1.586c-0.064-0.585-0.265-1.063-0.486-1.011c-0.272-0.014-0.751,0.407-0.992,0.863
													c-0.299,0.48-0.541,0.975-0.734,1.461c-0.379,0.977-0.564,1.919-0.631,2.717
													C315.061,397.472,315.31,398.484,315.163,398.519z"/>
											</g>
										</g>
									</g>
								</g>
							</g>
						</g>
					</g>
				</g>
			</g>
			<g>
				<g>
					<g>
						<g>
							<g>
								<g>
									<g>
										<g>
											<path class="st50" d="M208.512,382.49l13.864,41.797l-51.914,17.514c-1.369-5.061,22.129-24.079,22.129-24.079
												l-9.982-26.416L208.512,382.49z"/>
										</g>
									</g>
								</g>
							</g>
						</g>
					</g>
					<g class="st51">
						<g>
							<g>
								<g>
									<g>
										<g>
											<g>
												<path class="st35" d="M207.885,410.058c1.097-0.064,2.173,0.831,2.282,1.925c0.109,1.094-0.792,2.195-1.888,2.279
													c-1.096,0.083-2.42-0.952-2.406-2.051c0.014-1.099,1.143-2.335,2.227-2.153"/>
											</g>
										</g>
									</g>
								</g>
							</g>
						</g>
					</g>
					<g class="st51">
						<g>
							<g>
								<g>
									<g>
										<g>
											<path class="st35" d="M222.376,424.287l-1.562-4.158l-49.19,18.348c0,0-1.972,1.786-1.162,3.325L222.376,424.287z"/>
										</g>
									</g>
								</g>
							</g>
						</g>
					</g>
					<g>
						<g>
							<g>
								<g>
									<g>
										<g>
											<g>
												<path class="st44" d="M191.661,417.743c0.094,0.251,1.4-0.062,2.922,0.332c1.533,0.354,2.546,1.236,2.745,1.056
													c0.217-0.128-0.672-1.516-2.524-1.961C192.957,416.709,191.527,417.529,191.661,417.743z"/>
											</g>
										</g>
									</g>
								</g>
							</g>
						</g>
					</g>
					<g>
						<g>
							<g>
								<g>
									<g>
										<g>
											<g>
												<path class="st44" d="M186.975,421.832c0.025,0.265,1.268,0.326,2.491,1.108c1.246,0.746,1.854,1.832,2.103,1.736
													c0.252-0.041-0.074-1.585-1.613-2.527C188.426,421.191,186.899,421.588,186.975,421.832z"/>
											</g>
										</g>
									</g>
								</g>
							</g>
						</g>
					</g>
					<g>
						<g>
							<g>
								<g>
									<g>
										<g>
											<g>
												<path class="st44" d="M186.081,429.392c0.249-0.024,0.174-1.409-0.945-2.578c-1.111-1.177-2.491-1.321-2.527-1.074
													c-0.073,0.257,0.948,0.742,1.853,1.716C185.388,428.408,185.821,429.452,186.081,429.392z"/>
											</g>
										</g>
									</g>
								</g>
							</g>
						</g>
					</g>
					<g>
						<g>
							<g>
								<g>
									<g>
										<g>
											<g>
												<path class="st44" d="M190.054,411.47c0.184,0.195,1.229-0.547,2.695-0.933c1.458-0.416,2.735-0.311,2.794-0.573
													c0.085-0.233-1.32-0.804-3.04-0.325C190.779,410.105,189.862,411.313,190.054,411.47z"/>
											</g>
										</g>
									</g>
								</g>
							</g>
						</g>
					</g>
					<g>
						<g>
							<g>
								<g>
									<g>
										<g>
											<g>
												<path class="st44" d="M189.212,404.894c0.032,0.106,1.087-0.076,2.596-0.891c0.75-0.407,1.601-0.984,2.438-1.753
													c0.418-0.385,0.832-0.817,1.226-1.296c0.187-0.235,0.418-0.485,0.579-0.876c0.192-0.359,0.125-1.085-0.339-1.388
													c-0.4-0.309-0.928-0.323-1.306-0.205c-0.387,0.117-0.671,0.298-0.93,0.464c-0.531,0.335-1.008,0.71-1.429,1.1
													c-0.84,0.786-1.453,1.628-1.866,2.382c-0.828,1.522-0.92,2.607-0.817,2.627c0.143,0.045,0.462-0.946,1.376-2.281
													c0.457-0.664,1.078-1.401,1.878-2.089c0.402-0.341,0.848-0.669,1.338-0.964c0.501-0.33,0.968-0.492,1.191-0.294
													c0.083,0.076,0.102,0.11,0.041,0.31c-0.069,0.189-0.242,0.409-0.427,0.641c-0.358,0.454-0.732,0.871-1.109,1.248
													c-0.754,0.755-1.516,1.354-2.188,1.811C190.116,404.358,189.161,404.758,189.212,404.894z"/>
											</g>
										</g>
									</g>
								</g>
							</g>
						</g>
					</g>
					<g>
						<g>
							<g>
								<g>
									<g>
										<g>
											<g>
												<path class="st44" d="M189.664,405.146c0.103,0.009,0.299-1.069-0.161-2.742c-0.231-0.829-0.649-1.787-1.315-2.727
													c-0.335-0.467-0.732-0.928-1.195-1.355c-0.477-0.41-1.08-0.972-2.101-0.753c-0.52,0.154-0.812,0.699-0.841,1.091
													c-0.053,0.409,0.014,0.722,0.055,1.043c0.109,0.639,0.321,1.229,0.589,1.752c0.536,1.05,1.299,1.817,2.016,2.311
													c1.468,1.003,2.628,0.949,2.621,0.856c0.042-0.156-1.007-0.347-2.219-1.378c-0.597-0.508-1.222-1.234-1.647-2.166
													c-0.213-0.464-0.378-0.976-0.459-1.518c-0.105-0.579-0.048-1.094,0.178-1.107c0.256-0.091,0.835,0.176,1.197,0.545
													c0.424,0.375,0.796,0.78,1.12,1.192c0.642,0.828,1.087,1.679,1.379,2.425
													C189.464,404.113,189.513,405.154,189.664,405.146z"/>
											</g>
										</g>
									</g>
								</g>
							</g>
						</g>
					</g>
				</g>
			</g>
			<g>
				<g>
					<g>
						<g>
							<path class="st44" d="M196.013,283.201c0,0-20.339-18.039-29.264-17.886c-8.925,0.152-38.204-1.791-25.926,38.771
								c12.382,40.902,34.542,103.443,35.146,101.198l38.143-16.766l-15.497-58.175c0,0,51.992,0.582,62.033-0.735
								c10.041-1.316,28.821-14.54,28.821-14.54l-2.987,73.51l39.859-2.22c0,0,5.597-88.301,7.209-106.449
								c1.404-15.802-16.353-33.534-34.459-29.534c-11.828,2.613-54.107,32.459-54.107,32.459L196.013,283.201z"/>
						</g>
					</g>
					<g>
						<g>
							<g>
								<path class="st45" d="M290.836,275.98c0.046,0.005,0.028,0.691-0.044,1.926c-0.07,1.359-0.16,3.118-0.269,5.233
									c-0.206,4.419-0.347,10.529-0.453,17.283c-0.107,6.756-0.235,12.876-0.47,17.303c-0.108,2.213-0.241,4.003-0.357,5.237
									c-0.12,1.234-0.207,1.914-0.253,1.911c-0.046-0.003-0.046-0.69-0.007-1.927c0.037-1.36,0.086-3.121,0.144-5.238
									c0.072-4.547,0.168-10.602,0.273-17.297c0.106-6.756,0.323-12.877,0.65-17.299c0.158-2.211,0.327-3.998,0.482-5.228
									C290.685,276.653,290.79,275.975,290.836,275.98z"/>
							</g>
						</g>
					</g>
					<g>
						<g>
							<g>
								<path class="st45" d="M289.223,310.401c-0.06,0.05-0.803-0.706-1.759-2.122c-0.956-1.411-2.072-3.519-2.854-6.015
									c-0.775-2.499-1.052-4.868-1.067-6.573c-0.018-1.708,0.164-2.752,0.242-2.745c0.22-0.005-0.089,4.231,1.464,9.119
									C286.746,306.969,289.407,310.281,289.223,310.401z"/>
							</g>
						</g>
					</g>
					<g>
						<g>
							<g>
								<path class="st45" d="M234.979,325.295c-0.065,0.005-0.151-1.005-0.455-2.801c-0.284-1.798-0.906-4.376-2.092-7.401
									c-1.176-3.027-3.076-6.445-5.762-9.789c-2.721-3.317-6.3-6.476-10.667-8.855c-8.648-5.009-16.257-9.918-21.567-13.757
									c-2.655-1.918-4.742-3.558-6.124-4.763c-0.704-0.586-1.215-1.084-1.566-1.414c-0.349-0.334-0.524-0.517-0.508-0.534
									c0.039-0.043,0.804,0.619,2.24,1.746c1.427,1.138,3.55,2.715,6.232,4.578c5.363,3.728,12.997,8.564,21.628,13.564
									c2.161,1.246,4.259,2.583,6.043,4.15c1.8,1.549,3.395,3.202,4.768,4.896c2.705,3.422,4.589,6.918,5.724,10.006
									c1.145,3.087,1.702,5.709,1.908,7.533c0.155,0.906,0.146,1.624,0.191,2.104C234.999,325.04,235.002,325.293,234.979,325.295
									z"/>
							</g>
						</g>
					</g>
					<g>
						<g>
							<g>
								<path class="st45" d="M249.046,282.228c0.041,0.021-0.197,0.627-0.662,1.703c-0.476,1.071-1.117,2.642-1.855,4.6
									c-1.481,3.912-3.182,9.459-4.228,15.757c-1.031,6.303-1.199,12.103-1.051,16.283c0.07,2.091,0.174,3.785,0.281,4.952
									c0.095,1.169,0.126,1.819,0.08,1.825c-0.046,0.006-0.164-0.633-0.339-1.797c-0.187-1.162-0.363-2.858-0.495-4.959
									c-0.27-4.2-0.177-10.056,0.863-16.414c1.055-6.353,2.844-11.93,4.448-15.821c0.798-1.948,1.51-3.498,2.06-4.538
									C248.688,282.775,249.005,282.207,249.046,282.228z"/>
							</g>
						</g>
					</g>
				</g>
				<g>
					<g>
						<path class="st45" d="M172.574,276.939c0.009-0.013,0.198,0.111,0.55,0.361c0.387,0.282,0.895,0.652,1.528,1.113
							c0.334,0.248,0.701,0.519,1.099,0.815c0.392,0.309,0.778,0.694,1.215,1.081c0.853,0.796,1.886,1.645,2.831,2.776
							c0.493,0.548,1.009,1.12,1.545,1.716c0.497,0.63,0.987,1.307,1.509,1.997c0.259,0.347,0.523,0.699,0.791,1.057
							c0.254,0.367,0.484,0.76,0.732,1.147c0.483,0.784,1.01,1.575,1.494,2.418c1.918,3.387,3.622,7.321,5.118,11.543
							c1.505,4.224,2.638,8.34,3.661,12.078c0.995,3.732,1.892,7.1,2.651,9.947c0.773,2.825,1.398,5.111,1.869,6.68
							c0.213,0.752,0.384,1.356,0.514,1.815c0.113,0.417,0.164,0.638,0.149,0.643c-0.015,0.005-0.098-0.206-0.239-0.614
							c-0.152-0.453-0.351-1.048-0.599-1.79c-0.526-1.554-1.199-3.829-2.015-6.645c-0.787-2.839-1.717-6.198-2.749-9.921
							c-1.045-3.728-2.189-7.832-3.687-12.036c-1.49-4.203-3.17-8.114-5.052-11.486c-0.475-0.839-0.992-1.625-1.465-2.407
							c-0.244-0.386-0.468-0.778-0.717-1.144c-0.262-0.357-0.52-0.709-0.774-1.055c-0.511-0.689-0.989-1.366-1.475-1.997
							c-0.524-0.598-1.028-1.172-1.51-1.722c-0.921-1.137-1.93-1.996-2.761-2.805c-0.425-0.394-0.8-0.786-1.182-1.104
							c-0.387-0.305-0.743-0.586-1.068-0.842c-0.609-0.489-1.098-0.881-1.47-1.18C172.736,277.103,172.565,276.952,172.574,276.939z
							"/>
					</g>
				</g>
			</g>
			<g>
				<g>
					<path class="st52" d="M195.593,282.834c7.257,4.791,15.248,5.918,23.789,7.551c4.928,0.942,10.084,1.797,14.896,0.376
						c10.312-3.046,20.283-14.783,26.908-18.972l-27.664,7.008L195.593,282.834z"/>
				</g>
			</g>
		</g>
	</g>
	<g>
		<g>
			
				<ellipse transform="matrix(0.9195 -0.393 0.393 0.9195 -32.9744 47.7463)" class="st43" cx="100.118" cy="104.403" rx="42.121" ry="42.121"/>
		</g>
		<g>
			
				<ellipse transform="matrix(0.2256 -0.9742 0.9742 0.2256 -24.1956 178.369)" class="st35" cx="100.093" cy="104.403" rx="42.253" ry="42.253"/>
		</g>
		<g>
			<g>
				<g>
					<g>
						<g>
							<g>
								<g>
									<g>
										<g>
											<path class="st44" d="M143.664,125.497c0.012,0.042-0.444,0.126-1.15,0.523c-0.697,0.389-1.639,1.177-2.256,2.481
												c-0.3,0.647-0.517,1.419-0.511,2.255c0.014,0.831,0.247,1.722,0.774,2.501c1.002,1.556,3.097,2.752,5.246,2.375
												c2.143-0.417,3.671-2.283,4.05-4.095c0.213-0.916,0.112-1.832-0.172-2.613c-0.293-0.783-0.772-1.426-1.284-1.923
												c-1.042-0.997-2.204-1.395-2.994-1.509c-0.801-0.118-1.258-0.033-1.261-0.077c-0.002-0.013,0.109-0.036,0.326-0.067
												c0.108-0.02,0.243-0.031,0.403-0.029c0.16-0.006,0.345-0.006,0.552,0.022c0.82,0.071,2.046,0.439,3.165,1.458
												c0.549,0.508,1.07,1.177,1.398,2.009c0.32,0.83,0.441,1.821,0.222,2.805c-0.197,0.983-0.69,1.959-1.434,2.756
												c-0.731,0.808-1.75,1.424-2.899,1.651c-1.154,0.199-2.326-0.012-3.297-0.505c-0.98-0.478-1.789-1.213-2.324-2.06
												c-0.556-0.84-0.797-1.809-0.796-2.698c0.008-0.894,0.255-1.705,0.586-2.376c0.68-1.352,1.693-2.134,2.434-2.495
												c0.183-0.1,0.356-0.166,0.508-0.218c0.149-0.06,0.278-0.097,0.386-0.117
												C143.549,125.502,143.661,125.484,143.664,125.497z"/>
										</g>
									</g>
								</g>
							</g>
						</g>
					</g>
					<g>
						<g>
							<g>
								<g>
									<g>
										<g>
											<g>
												<path class="st44" d="M142.398,102.418c0,0-0.036-0.231-0.086-0.683c-0.049-0.462-0.12-1.131-0.213-2.005
													c-0.045-0.441-0.096-0.934-0.152-1.476c-0.081-0.54-0.222-1.122-0.346-1.758c-0.13-0.634-0.269-1.317-0.419-2.047
													c-0.061-0.369-0.166-0.738-0.292-1.115c-0.118-0.379-0.239-0.769-0.364-1.17c-0.891-3.239-2.596-7.038-5.196-11.03
													c-2.619-3.973-6.326-8.081-11.276-11.485c-0.621-0.42-1.25-0.846-1.886-1.276c-0.66-0.391-1.353-0.745-2.039-1.126
													c-0.345-0.188-0.691-0.377-1.04-0.566c-0.347-0.193-0.696-0.387-1.072-0.53c-0.738-0.313-1.484-0.631-2.238-0.951
													c-0.378-0.158-0.753-0.327-1.138-0.477c-0.395-0.124-0.791-0.248-1.19-0.373c-0.797-0.25-1.601-0.502-2.413-0.757
													c-0.818-0.23-1.67-0.363-2.515-0.552c-0.424-0.088-0.85-0.177-1.278-0.266c-0.214-0.042-0.427-0.096-0.644-0.127
													l-0.656-0.069c-1.755-0.168-3.533-0.447-5.36-0.374c-0.911,0.01-1.831-0.037-2.753,0.02
													c-0.921,0.09-1.849,0.18-2.784,0.271c-0.466,0.054-0.939,0.072-1.404,0.156c-0.464,0.093-0.929,0.187-1.396,0.28
													c-0.931,0.199-1.881,0.352-2.815,0.59c-1.838,0.591-3.748,1.057-5.545,1.906c-0.457,0.192-0.915,0.384-1.375,0.577
													c-0.229,0.099-0.462,0.188-0.688,0.295l-0.661,0.357c-0.882,0.477-1.77,0.956-2.663,1.439
													c-0.868,0.523-1.696,1.124-2.553,1.688c-0.419,0.296-0.868,0.552-1.265,0.883l-1.198,0.986
													c-1.659,1.254-3.091,2.794-4.595,4.282c-0.675,0.815-1.353,1.635-2.034,2.458l-0.512,0.618
													c-0.157,0.216-0.303,0.442-0.455,0.663l-0.906,1.336l-0.91,1.341l-0.785,1.425l-0.783,1.435l-0.393,0.719
													c-0.116,0.247-0.217,0.502-0.326,0.754c-0.43,1.009-0.861,2.021-1.295,3.038c-0.332,1.054-0.666,2.112-1,3.173
													c-1.18,4.293-1.714,8.82-1.565,13.395c0.27,4.571,1.215,9.031,2.783,13.2c0.431,1.027,0.859,2.05,1.287,3.07
													c0.525,0.973,1.047,1.942,1.568,2.907l0.394,0.721l0.458,0.681l0.912,1.357l0.912,1.348l1.029,1.253l1.024,1.247
													l0.513,0.619l0.566,0.568c0.754,0.757,1.505,1.511,2.251,2.262c1.634,1.345,3.201,2.747,4.969,3.844l1.284,0.872
													c0.425,0.293,0.897,0.507,1.341,0.763c0.905,0.482,1.785,1.005,2.697,1.447c0.933,0.399,1.861,0.795,2.784,1.189
													l0.691,0.295c0.235,0.086,0.476,0.153,0.712,0.23c0.475,0.15,0.95,0.3,1.422,0.449c1.868,0.681,3.813,0.97,5.698,1.39
													c0.953,0.151,1.912,0.218,2.858,0.33c0.474,0.051,0.946,0.101,1.416,0.151c0.471,0.04,0.944,0.015,1.413,0.026
													c0.939,0.005,1.872,0.01,2.797,0.015c0.924-0.029,1.836-0.16,2.744-0.233c1.826-0.094,3.571-0.536,5.303-0.864
													l0.647-0.129c0.213-0.052,0.42-0.125,0.63-0.186c0.418-0.128,0.834-0.255,1.248-0.382
													c0.824-0.266,1.66-0.476,2.454-0.78c0.785-0.328,1.563-0.653,2.334-0.975c0.385-0.161,0.769-0.321,1.15-0.48
													c0.365-0.194,0.728-0.388,1.089-0.58c0.721-0.388,1.435-0.772,2.141-1.152c0.361-0.177,0.691-0.402,1.019-0.626
													c0.33-0.221,0.658-0.441,0.984-0.659c0.649-0.442,1.306-0.858,1.927-1.308c0.594-0.487,1.181-0.968,1.761-1.444
													c4.617-3.844,7.932-8.274,10.175-12.47c0.284-0.524,0.576-1.033,0.84-1.544c0.227-0.529,0.45-1.048,0.668-1.558
													c0.219-0.509,0.433-1.009,0.644-1.499c0.101-0.246,0.218-0.484,0.304-0.73c0.079-0.249,0.157-0.495,0.235-0.739
													c0.31-0.974,0.606-1.906,0.889-2.795c0.257-0.895,0.395-1.775,0.584-2.594c0.087-0.411,0.172-0.81,0.255-1.198
													c0.091-0.387,0.162-0.764,0.189-1.137c0.082-0.74,0.158-1.433,0.229-2.077c0.065-0.644,0.152-1.237,0.183-1.781
													c0.006-0.546,0.011-1.041,0.016-1.484c0.013-0.879,0.022-1.551,0.029-2.015
													C142.383,102.652,142.398,102.418,142.398,102.418s0.012,0.232,0.017,0.687c0.002,0.465,0.006,1.138,0.01,2.018
													c0.001,0.445,0.001,0.941,0.003,1.488c-0.025,0.546-0.106,1.141-0.165,1.787c-0.066,0.646-0.136,1.342-0.212,2.085
													c-0.024,0.374-0.092,0.754-0.181,1.142c-0.08,0.39-0.162,0.791-0.247,1.205c-0.184,0.822-0.317,1.707-0.57,2.608
													c-0.279,0.894-0.571,1.832-0.876,2.812c-0.077,0.245-0.154,0.493-0.232,0.743c-0.085,0.248-0.2,0.487-0.301,0.735
													c-0.209,0.493-0.422,0.996-0.639,1.509c-0.217,0.513-0.439,1.036-0.665,1.569c-0.262,0.515-0.554,1.028-0.837,1.556
													c-2.237,4.228-5.554,8.697-10.19,12.58c-0.583,0.48-1.172,0.967-1.769,1.458c-0.624,0.455-1.284,0.876-1.936,1.323
													c-0.328,0.221-0.657,0.443-0.989,0.666c-0.33,0.226-0.661,0.454-1.024,0.633c-0.711,0.385-1.428,0.773-2.154,1.166
													c-0.364,0.194-0.725,0.398-1.096,0.586c-0.384,0.161-0.77,0.324-1.157,0.487c-0.776,0.326-1.559,0.655-2.349,0.987
													c-0.799,0.308-1.641,0.522-2.471,0.792c-0.417,0.128-0.836,0.257-1.257,0.387c-0.211,0.062-0.42,0.136-0.634,0.188
													l-0.652,0.131c-1.745,0.334-3.503,0.781-5.343,0.881c-0.915,0.076-1.834,0.209-2.765,0.239
													c-0.933-0.003-1.873-0.007-2.82-0.01c-0.473-0.01-0.95,0.015-1.424-0.024c-0.474-0.05-0.95-0.1-1.428-0.15
													c-0.953-0.111-1.921-0.177-2.882-0.329c-1.901-0.42-3.863-0.71-5.748-1.394c-0.477-0.15-0.955-0.3-1.435-0.451
													c-0.239-0.078-0.482-0.146-0.719-0.232l-0.697-0.297c-0.931-0.396-1.868-0.795-2.81-1.196
													c-0.921-0.445-1.809-0.971-2.723-1.457c-0.448-0.258-0.924-0.474-1.353-0.769l-1.296-0.878
													c-1.784-1.106-3.366-2.518-5.016-3.875c-0.754-0.757-1.512-1.516-2.273-2.28l-0.572-0.573l-0.518-0.624l-1.035-1.258
													l-1.039-1.264l-0.922-1.36l-0.921-1.369l-0.462-0.687l-0.398-0.727c-0.526-0.974-1.054-1.952-1.584-2.933
													c-0.432-1.029-0.865-2.061-1.3-3.098c-1.585-4.207-2.539-8.71-2.811-13.322c-0.151-4.616,0.388-9.186,1.581-13.519
													c0.338-1.072,0.676-2.139,1.011-3.203c0.438-1.026,0.873-2.048,1.308-3.065c0.111-0.253,0.213-0.511,0.33-0.76
													l0.397-0.726l0.791-1.447l0.794-1.438l0.918-1.353l0.915-1.347c0.154-0.223,0.301-0.45,0.46-0.668l0.517-0.623
													c0.688-0.83,1.373-1.656,2.054-2.478c1.518-1.501,2.964-3.052,4.639-4.317l1.21-0.993c0.4-0.333,0.854-0.591,1.277-0.89
													c0.865-0.567,1.701-1.173,2.577-1.7c0.901-0.486,1.797-0.969,2.688-1.449l0.667-0.359
													c0.228-0.107,0.464-0.197,0.694-0.297c0.464-0.194,0.927-0.388,1.388-0.58c1.814-0.854,3.741-1.322,5.595-1.915
													c0.943-0.239,1.9-0.393,2.84-0.591c0.471-0.094,0.94-0.187,1.408-0.28c0.469-0.083,0.946-0.101,1.416-0.155
													c0.942-0.09,1.878-0.18,2.806-0.269c0.93-0.056,1.858-0.007,2.775-0.015c1.841-0.07,3.633,0.214,5.401,0.387
													l0.661,0.071c0.218,0.032,0.433,0.087,0.649,0.129c0.431,0.09,0.86,0.18,1.288,0.27
													c0.851,0.192,1.709,0.329,2.533,0.562c0.817,0.258,1.627,0.514,2.429,0.768c0.401,0.127,0.8,0.253,1.197,0.378
													c0.387,0.153,0.765,0.324,1.145,0.483c0.758,0.324,1.509,0.645,2.251,0.963c0.378,0.145,0.729,0.341,1.078,0.536
													c0.351,0.192,0.699,0.383,1.046,0.573c0.69,0.385,1.386,0.744,2.049,1.139c0.639,0.435,1.271,0.865,1.895,1.29
													c4.973,3.442,8.686,7.587,11.301,11.593c2.597,4.024,4.287,7.849,5.16,11.106c0.122,0.403,0.241,0.796,0.356,1.177
													c0.123,0.379,0.226,0.75,0.285,1.121c0.143,0.733,0.277,1.42,0.402,2.057c0.118,0.638,0.253,1.223,0.328,1.765
													c0.049,0.545,0.094,1.039,0.134,1.482c0.076,0.877,0.134,1.548,0.175,2.011
													C142.389,102.186,142.398,102.418,142.398,102.418z"/>
											</g>
										</g>
									</g>
								</g>
							</g>
						</g>
					</g>
				</g>
			</g>
		</g>
		<g>
			<g>
				<g>
					<g>
						<g>
							<g>
								<path class="st53" d="M115.594,100.547c0-8.538-6.922-15.46-15.46-15.46c-8.539,0-15.46,6.922-15.46,15.46
									c0,6.182,3.63,11.514,8.873,13.988c0,1.832,0,3.9,0,3.9h13.55c0,0,0.082-2.189,0.112-4.143
									C112.187,111.724,115.594,106.535,115.594,100.547z"/>
							</g>
						</g>
					</g>
				</g>
				<g>
					<g>
						<g>
							<g>
								<g>
									<path class="st44" d="M102.196,118.371c0,0,0.002-0.065,0.015-0.191c0.015-0.133,0.036-0.319,0.063-0.558
										c0.06-0.49,0.147-1.212,0.283-2.139c0.137-0.927,0.32-2.061,0.615-3.361c0.301-1.296,0.711-2.768,1.403-4.302
										c0.346-0.766,0.747-1.551,1.271-2.313c0.27-0.373,0.606-0.737,1.057-0.949c0.45-0.215,1.012-0.215,1.468,0.048
										c0.225,0.13,0.417,0.35,0.489,0.612c0.082,0.258,0.056,0.551-0.065,0.793c-0.239,0.489-0.695,0.83-1.194,1.029
										c-1.021,0.357-2.198,0.267-3.214-0.227c-1.02-0.494-1.835-1.446-2.183-2.58c-0.167-0.563-0.258-1.18-0.091-1.783
										c0.146-0.599,0.729-1.136,1.405-1.074c0.335,0.025,0.639,0.254,0.787,0.545c0.155,0.29,0.194,0.634,0.124,0.953
										c-0.149,0.645-0.614,1.128-1.087,1.536c-0.974,0.805-2.301,1.253-3.604,1.046c-1.294-0.207-2.455-1.062-2.99-2.229
										c-0.28-0.574-0.347-1.27-0.105-1.873c0.122-0.297,0.358-0.575,0.678-0.684c0.315-0.122,0.671-0.064,0.952,0.088
										c0.284,0.15,0.515,0.397,0.652,0.678c0.143,0.281,0.21,0.588,0.236,0.891c0.044,0.606-0.043,1.208-0.235,1.767
										c-0.377,1.121-1.177,2.067-2.179,2.593c-0.998,0.532-2.156,0.673-3.199,0.44c-0.515-0.114-1.042-0.32-1.392-0.738
										c-0.342-0.408-0.438-1.055-0.086-1.489c0.175-0.209,0.439-0.32,0.695-0.34c0.257-0.018,0.512,0.034,0.737,0.143
										c0.459,0.227,0.739,0.652,0.946,1.061c0.389,0.838,0.701,1.653,1.016,2.431c1.236,3.116,2.113,5.684,2.701,7.463
										c0.294,0.89,0.51,1.584,0.656,2.056c0.069,0.23,0.123,0.409,0.161,0.537c0.035,0.122,0.049,0.185,0.049,0.185
										s-0.026-0.06-0.067-0.179c-0.043-0.127-0.102-0.304-0.179-0.532c-0.16-0.475-0.392-1.162-0.69-2.044
										c-0.609-1.771-1.505-4.33-2.756-7.436c-0.318-0.772-0.639-1.596-1.022-2.415c-0.201-0.396-0.474-0.793-0.882-0.99
										c-0.395-0.195-0.949-0.193-1.245,0.16c-0.291,0.351-0.215,0.927,0.09,1.285c0.312,0.373,0.805,0.571,1.303,0.679
										c1.004,0.222,2.122,0.083,3.081-0.431c0.961-0.507,1.729-1.417,2.09-2.497c0.184-0.537,0.266-1.118,0.223-1.693
										c-0.041-0.565-0.278-1.156-0.792-1.42c-0.246-0.132-0.543-0.177-0.801-0.076c-0.263,0.09-0.459,0.316-0.569,0.581
										c-0.216,0.541-0.162,1.182,0.103,1.721c0.504,1.104,1.617,1.925,2.848,2.12c1.239,0.198,2.517-0.23,3.453-1.004
										c0.457-0.392,0.896-0.86,1.024-1.43c0.062-0.278,0.026-0.578-0.106-0.825c-0.128-0.248-0.368-0.427-0.641-0.448
										c-0.271-0.027-0.553,0.075-0.768,0.248c-0.219,0.171-0.363,0.422-0.441,0.692c-0.153,0.546-0.072,1.14,0.088,1.679
										c0.332,1.086,1.112,2.002,2.087,2.476c0.97,0.478,2.115,0.563,3.076,0.229c0.468-0.183,0.897-0.51,1.107-0.942
										c0.224-0.429,0.051-0.978-0.358-1.202c-0.399-0.234-0.918-0.24-1.323-0.045c-0.416,0.194-0.739,0.536-1.003,0.898
										c-0.516,0.742-0.922,1.526-1.268,2.283c-0.694,1.519-1.112,2.981-1.422,4.271c-0.304,1.293-0.497,2.424-0.645,3.348
										c-0.137,0.92-0.244,1.637-0.319,2.133c-0.035,0.238-0.062,0.423-0.082,0.555
										C102.211,118.308,102.196,118.371,102.196,118.371z"/>
								</g>
							</g>
						</g>
					</g>
				</g>
				<g>
					<g>
						<g>
							<g>
								<path class="st44" d="M106.053,120.944H94.419c-0.482,0-0.873-0.391-0.873-0.873l0,0c0-0.482,0.391-0.873,0.873-0.873
									l11.634,0c0.482,0,0.873,0.391,0.873,0.873l0,0C106.927,120.553,106.536,120.944,106.053,120.944z"/>
							</g>
						</g>
					</g>
				</g>
				<g>
					<g>
						<g>
							<g>
								<path class="st44" d="M106.053,121.707H94.419c-0.482,0-0.873,0.391-0.873,0.873c0,0.482,0.391,0.873,0.873,0.873h1.277
									l1.694,3.225c0.194,0.369,0.576,0.6,0.993,0.6h4.157c0.421,0,0.806-0.236,0.998-0.61l1.646-3.215h0.868
									c0.482,0,0.873-0.391,0.873-0.873C106.927,122.097,106.536,121.707,106.053,121.707z"/>
							</g>
						</g>
					</g>
				</g>
			</g>
			<g class="st54">
				<g>
					<g>
						<g>
							<g>
								<path class="st35" d="M90.201,90.696c1.04-0.96,2.129-1.634,3.096-2.058c0.968-0.427,1.798-0.634,2.383-0.692
									c0.585-0.061,0.918-0.004,0.946,0.119c0.067,0.281-1.105,0.697-2.684,1.751c-1.573,1.032-3.544,2.838-4.733,5.39
									c-1.182,2.556-1.289,5.228-1.062,7.095c0.214,1.887,0.652,3.05,0.395,3.18c-0.112,0.058-0.371-0.16-0.702-0.646
									c-0.332-0.485-0.711-1.252-1.009-2.267c-0.3-1.012-0.489-2.279-0.427-3.693c0.059-1.411,0.394-2.967,1.082-4.469"/>
							</g>
						</g>
					</g>
				</g>
			</g>
			<g class="st54">
				<g>
					<g>
						<g>
							<g>
								<path class="st35" d="M100.344,88.731c-0.98-0.009-1.845-0.277-1.945-0.796c-0.043-0.257,0.138-0.532,0.492-0.746
									c0.352-0.214,0.877-0.361,1.463-0.358c0.586,0.003,1.109,0.155,1.459,0.373c0.352,0.218,0.53,0.494,0.484,0.751"/>
							</g>
						</g>
					</g>
				</g>
			</g>
			<g>
				<g>
					<g>
						<g>
							<g>
								<path class="st45" d="M103.322,126.943c-0.014,0.029-0.306-0.105-0.799-0.246c-0.492-0.142-1.193-0.27-1.974-0.249
									c-0.78,0.024-1.474,0.192-1.956,0.362c-0.484,0.169-0.768,0.32-0.784,0.292c-0.011-0.017,0.252-0.211,0.736-0.417
									c0.481-0.207,1.193-0.402,1.999-0.427c0.805-0.022,1.528,0.132,2.02,0.31C103.058,126.747,103.332,126.925,103.322,126.943z
									"/>
							</g>
						</g>
					</g>
				</g>
			</g>
			<g>
				<g>
					<g>
						<g>
							<g>
								<path class="st45" d="M105.21,123.492c0,0.052-2.103,0.095-4.697,0.095c-2.595,0-4.698-0.042-4.698-0.095
									c0-0.052,2.103-0.095,4.698-0.095C103.107,123.397,105.21,123.44,105.21,123.492z"/>
							</g>
						</g>
					</g>
				</g>
			</g>
			<g>
				<g>
					<g>
						<g>
							<g>
								<path class="st45" d="M104.482,124.872c0.001,0.026-0.436,0.072-1.146,0.116c-0.709,0.045-1.69,0.085-2.774,0.101
									c-1.085,0.015-2.067,0.002-2.777-0.022c-0.71-0.024-1.149-0.058-1.148-0.084c0.001-0.027,0.44-0.04,1.15-0.05
									c0.767-0.009,1.719-0.021,2.773-0.033c1.053-0.017,2.005-0.032,2.772-0.045
									C104.041,124.845,104.481,124.846,104.482,124.872z"/>
							</g>
						</g>
					</g>
				</g>
			</g>
		</g>
	</g>
	<g>
		<g>
			<g>
				<path class="st43" d="M141.758,199.397l-35.63-8.445c-1.246-0.306-1.931-1.844-1.625-3.09l5.84-23.19
					c0.306-1.246,1.562-2.365,2.808-2.059l35.715,8.693c1.246,0.306,1.53,1.571,1.224,2.818l-6.168,23.963
					C143.687,199.045,142.718,199.632,141.758,199.397z"/>
			</g>
		</g>
		<g>
			<g>
				<g>
					<g>
						<g>
							<g>
								<g>
									<path class="st45" d="M141.402,199.305c-0.006-0.046,0.494,0.175,1.341-0.143c0.405-0.171,0.881-0.507,1.187-1.081
										c0.159-0.282,0.233-0.623,0.323-0.997c0.091-0.372,0.187-0.766,0.288-1.184c0.832-3.366,2.026-8.196,3.499-14.156
										c0.372-1.494,0.762-3.058,1.168-4.688c0.204-0.815,0.411-1.647,0.623-2.494c0.095-0.426,0.247-0.854,0.26-1.254
										c0.014-0.411-0.09-0.826-0.303-1.184c-0.215-0.356-0.536-0.65-0.921-0.82c-0.372-0.156-0.865-0.23-1.309-0.346
										c-0.91-0.214-1.835-0.432-2.773-0.652c-1.877-0.442-3.808-0.897-5.789-1.363c-7.923-1.874-16.63-3.933-25.77-6.095
										c-1.046-0.269-2.186,0.429-2.5,1.444c-0.286,1.118-0.569,2.229-0.851,3.332c-0.561,2.218-1.114,4.403-1.657,6.55
										c-1.088,4.294-2.138,8.435-3.139,12.381c-0.125,0.493-0.25,0.983-0.373,1.47c-0.137,0.463-0.132,0.925,0.008,1.359
										c0.144,0.428,0.421,0.811,0.791,1.059c0.355,0.267,0.819,0.327,1.298,0.45c1.875,0.449,3.695,0.884,5.456,1.306
										c3.518,0.845,6.796,1.632,9.791,2.351c5.966,1.446,10.801,2.618,14.17,3.435c1.652,0.411,2.944,0.732,3.847,0.956
										c0.422,0.11,0.752,0.196,0.998,0.26C141.29,199.263,141.404,199.298,141.402,199.305c-0.002,0.008-0.119-0.012-0.347-0.058
										c-0.248-0.053-0.582-0.125-1.008-0.216c-0.908-0.205-2.206-0.499-3.867-0.874c-3.377-0.784-8.224-1.908-14.204-3.296
										c-2.999-0.703-6.282-1.472-9.804-2.297c-1.762-0.414-3.584-0.843-5.461-1.284c-0.447-0.115-0.986-0.18-1.432-0.504
										c-0.445-0.297-0.778-0.752-0.95-1.262c-0.172-0.507-0.17-1.089-0.021-1.589c0.122-0.487,0.245-0.978,0.369-1.471
										c0.992-3.948,2.034-8.092,3.113-12.388c0.541-2.148,1.091-4.334,1.65-6.552c0.284-1.114,0.57-2.236,0.858-3.365
										c0.377-1.218,1.747-2.066,3.032-1.74c9.137,2.174,17.841,4.245,25.762,6.129c1.979,0.473,3.909,0.934,5.784,1.382
										c0.938,0.224,1.861,0.445,2.771,0.663c0.458,0.125,0.895,0.178,1.375,0.375c0.457,0.204,0.837,0.556,1.087,0.976
										c0.249,0.422,0.368,0.91,0.349,1.389c-0.024,0.493-0.183,0.905-0.277,1.329c-0.216,0.846-0.428,1.676-0.635,2.49
										c-0.416,1.627-0.815,3.19-1.197,4.681c-1.531,5.944-2.773,10.763-3.638,14.12c-0.109,0.416-0.211,0.809-0.308,1.179
										c-0.094,0.364-0.181,0.728-0.355,1.024c-0.337,0.599-0.844,0.937-1.271,1.101c-0.436,0.158-0.798,0.158-1.029,0.132
										C141.514,199.354,141.402,199.305,141.402,199.305z"/>
								</g>
							</g>
						</g>
					</g>
				</g>
			</g>
			<g>
				<g>
					<g>
						<g>
							<g>
								<polygon class="st45" points="129.404,178.907 133.492,182.938 127.934,184.643 122.376,186.348 123.846,180.611 
									125.316,174.875 								"/>
							</g>
						</g>
					</g>
				</g>
			</g>
		</g>
	</g>
	<g>
		<g>
			<g>
				<g>
					<g>
						<g>
							<g>
								<g>
									<g>
										<g>
											<g>
												<g>
													
														<rect x="200.254" y="-3.427" transform="matrix(0.0191 -0.9998 0.9998 0.0191 195.6697 231.4644)" class="st42" width="31.084" height="38.881"/>
												</g>
											</g>
										</g>
									</g>
								</g>
							</g>
							<g>
								<g>
									<g>
										<g>
											<g>
												<g>
													<g>
														<path class="st44" d="M235.529,0.845c0,0-0.066,0.003-0.189,0.002c-0.128-0.001-0.309-0.003-0.545-0.005
															c-0.485-0.007-1.193-0.016-2.112-0.028c-1.848-0.029-4.543-0.071-7.959-0.125c-6.828-0.118-16.533-0.286-28.07-0.485
															l0.103-0.099c-0.173,9.25-0.371,19.854-0.581,31.076v0.003l-0.111-0.115c14.392,0.282,27.766,0.543,38.873,0.761
															l-0.095,0.092c0.199-9.358,0.363-17.115,0.479-22.539c0.062-2.713,0.111-4.842,0.144-6.299
															c0.018-0.724,0.033-1.279,0.042-1.662C235.519,1.044,235.529,0.845,235.529,0.845s0.003,0.186,0,0.557
															c-0.005,0.378-0.012,0.928-0.021,1.644c-0.022,1.453-0.055,3.575-0.096,6.279c-0.092,5.44-0.224,13.217-0.383,22.6
															l-0.002,0.094l-0.094-0.002c-11.108-0.207-24.482-0.455-38.874-0.723l-0.113-0.002l0.002-0.113v-0.003
															c0.218-11.221,0.425-21.825,0.605-31.075L196.557,0l0.101,0.002c11.563,0.241,21.29,0.444,28.134,0.587
															c3.406,0.076,6.092,0.137,7.935,0.178c0.911,0.023,1.611,0.04,2.092,0.052c0.231,0.007,0.408,0.012,0.534,0.016
															C235.472,0.84,235.529,0.845,235.529,0.845z"/>
													</g>
												</g>
											</g>
										</g>
									</g>
								</g>
							</g>
						</g>
					</g>
				</g>
				<g>
					<g>
						<g>
							<g>
								<g>
									<g>
										
											<rect x="202.185" y="-2.062" transform="matrix(0.0191 -0.9998 0.9998 0.0191 195.6457 231.4386)" class="st47" width="27.171" height="36.149"/>
									</g>
								</g>
							</g>
						</g>
					</g>
				</g>
				<g class="st46">
					<g>
						<g>
							<g>
								<g>
									<g>
										<polygon points="197.44,29.251 210.386,12.606 218.004,23.32 223.416,17.773 233.583,29.94 										"/>
									</g>
								</g>
							</g>
						</g>
					</g>
				</g>
				<g class="st46">
					<g>
						<g>
							<g>
								<g>
									<g>
										<g>
											<g>
												<path d="M221.565,10.75c-0.03,1.572-1.328,2.822-2.9,2.792c-1.572-0.03-2.822-1.328-2.792-2.9
													c0.03-1.572,1.328-2.822,2.9-2.792C220.345,7.88,221.595,9.178,221.565,10.75z"/>
											</g>
										</g>
									</g>
								</g>
							</g>
						</g>
					</g>
				</g>
			</g>
			<g>
				<g>
					<g>
						<g>
							<g>
								<g>
									<g>
										<g>
											<g>
												<g>
													
														<rect x="150.071" y="18.685" transform="matrix(0.9922 -0.1244 0.1244 0.9922 -3.8527 22.6578)" class="st42" width="58.751" height="46.97"/>
												</g>
											</g>
										</g>
									</g>
								</g>
							</g>
							<g>
								<g>
									<g>
										<g>
											<g>
												<g>
													<g>
														<path class="st44" d="M205.671,15.212c0,0-0.097,0.018-0.281,0.044c-0.193,0.026-0.463,0.063-0.817,0.111
															c-0.727,0.095-1.787,0.234-3.165,0.415c-2.77,0.357-6.81,0.877-11.929,1.537c-10.237,1.303-24.787,3.154-42.083,5.355
															l0.132-0.17c1.745,13.871,3.745,29.772,5.862,46.597l0.001,0.005l-0.19-0.148c21.583-2.696,41.64-5.202,58.298-7.283
															l-0.123,0.158c-1.73-14.037-3.164-25.673-4.166-33.81c-0.495-4.071-0.883-7.264-1.149-9.451
															c-0.129-1.086-0.228-1.921-0.296-2.494C205.699,15.512,205.671,15.212,205.671,15.212s0.045,0.277,0.12,0.832
															c0.075,0.567,0.183,1.391,0.325,2.464c0.282,2.178,0.693,5.357,1.217,9.411c1.041,8.155,2.528,19.814,4.323,33.88
															l0.018,0.14l-0.141,0.018c-16.656,2.097-36.711,4.622-58.291,7.339l-0.169,0.021l-0.021-0.169l-0.001-0.005
															c-2.104-16.828-4.092-32.73-5.827-46.602l-0.019-0.152l0.151-0.019c17.344-2.144,31.934-3.947,42.2-5.216
															c5.11-0.623,9.141-1.115,11.905-1.453c1.367-0.163,2.418-0.289,3.14-0.375c0.347-0.04,0.613-0.07,0.802-0.092
															C205.584,15.217,205.671,15.212,205.671,15.212z"/>
													</g>
												</g>
											</g>
										</g>
									</g>
								</g>
							</g>
						</g>
					</g>
				</g>
				<g>
					<g>
						<g>
							<g>
								<g>
									<g>
										
											<rect x="152.097" y="21.646" transform="matrix(0.9922 -0.1244 0.1244 0.9922 -3.8536 22.6532)" class="st47" width="54.623" height="41.056"/>
									</g>
								</g>
							</g>
						</g>
					</g>
				</g>
				<g class="st55">
					<g>
						<g>
							<g>
								<g>
									<g>
										<polygon points="154.864,65.941 170.618,38.246 184.331,52.617 191.222,43.151 209.062,59.144 										"/>
									</g>
								</g>
							</g>
						</g>
					</g>
				</g>
				<g class="st55">
					<g>
						<g>
							<g>
								<g>
									<g>
										<g>
											<g>
												<path d="M186.933,33.049c0.296,2.357-1.375,4.507-3.732,4.803c-2.357,0.295-4.507-1.375-4.803-3.732
													c-0.295-2.357,1.375-4.507,3.732-4.803C184.487,29.021,186.637,30.692,186.933,33.049z"/>
											</g>
										</g>
									</g>
								</g>
							</g>
						</g>
					</g>
				</g>
			</g>
		</g>
		<g>
			<polygon class="st41" points="154.688,16.009 144.23,29.658 146.672,33.385 158.958,17.699 			"/>
		</g>
		<g>
			<polygon class="st41" points="212.814,51.247 202.356,64.896 204.798,68.623 217.084,52.937 			"/>
		</g>
	</g>
</g>
</svg>
