<svg xmlns="http://www.w3.org/2000/svg" width="691.136" height="407.142" viewBox="0 0 691.136 407.142">
  <g id="Group_696" data-name="Group 696" transform="translate(-238.684 -2671.858)">
    <g id="Group_686" data-name="Group 686">
      <path id="Path_203" data-name="Path 203" d="M797.03,2910.75c-.56-18.76,9.64-35.9,18.63-52.38,83.16-144.93-22.12-229.11-163.11-164.43-23.82,12.12-44.92,28.97-68.15,42.19-81.41,51.94-183.44,19.86-195.01,140.55-4.39,25.65-9.94,55.2-31,72.87-30.18,30.34-99.56,3.21-118.43,36.21-5.56,15.76,8.33,29.58,17.11,41.29,11.23,18.39,9.32,35.57,3.02,51.95H927.95c.75-3.13,1.37-6.3,1.87-9.53C927.33,2970.3,801.6,2988.47,797.03,2910.75Z" fill="#668f95"/>
    </g>
    <g id="Group_695" data-name="Group 695">
      <g id="Group_694" data-name="Group 694">
        <g id="Group_690" data-name="Group 690">
          <g id="Group_687" data-name="Group 687">
            <path id="Path_204" data-name="Path 204" d="M837.119,2959.442v35.889l-77.189-1.055L755.84,2989l1.583-28.5s11.875-2.243,12.271-2.243S837.119,2959.442,837.119,2959.442Z" fill="#efede3"/>
            <path id="Path_205" data-name="Path 205" d="M843.379,3000.741H763.024a14.573,14.573,0,0,1-14.573-14.573v-18.883a14.573,14.573,0,0,1,14.573-14.573h80.229a2.839,2.839,0,0,1,2.838,2.839v1.573a3.5,3.5,0,0,1-3.505,3.5h-74.08a8.445,8.445,0,0,0-8.444,8.445v14.778a8.445,8.445,0,0,0,8.444,8.445h74.258a3.327,3.327,0,0,1,3.327,3.327v2.405A2.712,2.712,0,0,1,843.379,3000.741Z" fill="#cf5d43"/>
          </g>
          <g id="Group_688" data-name="Group 688">
            <path id="Path_206" data-name="Path 206" d="M762.438,2929.754h67a4.753,4.753,0,0,1,4.4,2.959l.845,2.073a11.536,11.536,0,0,1,.852,4.352v4.992a11.534,11.534,0,0,1-2.015,6.514h0a4.753,4.753,0,0,1-3.922,2.068h-67.16Z" fill="#fcf9ee"/>
            <path id="Path_207" data-name="Path 207" d="M749.771,2955.389H829.6a7.425,7.425,0,0,0,6.133-3.233,14.156,14.156,0,0,0,2.482-8.026v-4.991a14.106,14.106,0,0,0-1.051-5.365l-.845-2.071a7.4,7.4,0,0,0-6.879-4.626H749.771a2.677,2.677,0,0,0,0,5.354h79.666a2.07,2.07,0,0,1,1.922,1.293l.844,2.073a8.8,8.8,0,0,1,.654,3.342v4.991a8.824,8.824,0,0,1-1.545,5,2.079,2.079,0,0,1-1.715.9H749.771a2.677,2.677,0,0,0,0,5.354Z" fill="#a8b0b6"/>
          </g>
          <rect id="Rectangle_27" data-name="Rectangle 27" width="75.473" height="11.347" transform="translate(849.785 2928.17) rotate(-180)" fill="#f3a48a"/>
          <g id="Group_689" data-name="Group 689">
            <rect id="Rectangle_28" data-name="Rectangle 28" width="65.181" height="13.986" transform="translate(762.438 2902.837)" fill="#ebe6d5"/>
            <path id="Path_208" data-name="Path 208" d="M758.48,2918.161h69.138a1.337,1.337,0,0,0,1.338-1.338v-13.987a1.337,1.337,0,0,0-1.338-1.338H758.48a1.339,1.339,0,1,0,0,2.677h67.8v11.309h-67.8a1.339,1.339,0,1,0,0,2.677Z" fill="#876441"/>
          </g>
        </g>
        <g id="Group_693" data-name="Group 693">
          <path id="Path_209" data-name="Path 209" d="M656.489,2983.578s-11.7,8.43-24.151,8.718-33.127-4.26-38.4-4.359-39.188-71.114-39.188-71.114v-6.993h63.862s29.165,18.148,37.873,31.4,11.079,22.167,10.683,25.334S656.489,2983.578,656.489,2983.578Z" fill="#005d68"/>
          <path id="Path_210" data-name="Path 210" d="M528.1,2908.642s-12.53-20.141-17.016-24.1-6.069-7.389-6.069-10.028-3.3-10.207-3.3-10.207l16.361,4.487,22.167,21.639-2.111,16.361Z" fill="#ffc099"/>
          <path id="Path_211" data-name="Path 211" d="M618.616,2968.282s-5.014,28.5-25.862,36.945c0,0-6.069,3.431-10.292,0l-3.694-6.861,12.139-26.126,19.792-7.388Z" fill="#003239"/>
          <path id="Path_212" data-name="Path 212" d="M602.518,2971.713s16.625,9.236,20.32,11.083a10.974,10.974,0,0,1,5.014,5.014l-5.542,14.25-35.889-15.173,6.069-12.008Z" fill="#ffc099"/>
          <path id="Path_213" data-name="Path 213" d="M627.852,2982.8s15.569,5.806,19,6.6,6.334,1.847,9.764,2.111,8.972-1.32,12.667,0,9.5-4.486,15.042,3.826,9.764,20.452,2.9,24.938-11.876-4.75-26.126-8.181-42.223-8.295-44.334-9.953-1.449-3.03-1.449-3.03,8.047-9.184,7.519-16.309A8.411,8.411,0,0,1,627.852,2982.8Z" fill="#df8e7a"/>
          <path id="Path_214" data-name="Path 214" d="M695.144,2954.824,684.853,2979.1l-4.487,7.785-21.111,3.3L651.6,2982.4s7.125-26.785,7.653-27.576S695.144,2954.824,695.144,2954.824Z" fill="#ffc099"/>
          <path id="Path_215" data-name="Path 215" d="M686.326,2975.625s3.277,6.849.638,10.177-11.612,14.693-10.292,16.135,5.542,1.707,1.583,2.762-4.221,2.375-1.715,4.486,13.063,11.348,18.6,13.723,11.145,5.2,12.139,8.708c1.343,4.744-7.653,16.626-25.861,10.82-13.656-4.354-23.157-14.2-29.614-19.52-2.152-1.773-3.967-3.043-5.484-3.439q-9.1-2.375-7.917-7.125c.792-3.167,5.542-8.708,6.6-17.021s.729-16.246,7.622-16.766c0,0,.031,7.339,15.6,7.237S686.326,2975.625,686.326,2975.625Z" fill="#f3a48a"/>
          <path id="Path_216" data-name="Path 216" d="M651.808,3022.916c-2.152-1.773-3.967-3.043-5.484-3.439q-9.1-2.375-7.917-7.125c.792-3.167,5.542-8.708,6.6-17.021,0,0,9.764,8.577,9.764,18.077S651.808,3022.916,651.808,3022.916Z" fill="#b77b67"/>
          <path id="Path_217" data-name="Path 217" d="M610.963,2775.179l-49.084.2-18.605-3.563s0-30.875,5.938-45.126l56.605,5.146Z" fill="#68472f"/>
          <path id="Path_218" data-name="Path 218" d="M550,2776.564a16.94,16.94,0,0,1,17.021-8.708c2.488.285,34.438,1.979,34.438,1.979s8.709,7.125,9.9,7.917-15.437,32.854-15.437,32.854l-12.667,14.646-9.105,1.584-17.812-15.042Z" fill="#fba983"/>
          <path id="Path_219" data-name="Path 219" d="M617.692,2914.712s-49.48,4.75-62.543,4.354-17.417-10.688-18.6-12.271,1.187-17.417,1.187-23.75-13.062-39.584-13.062-39.584l-16.23-20.584s7.125-28.9,23.751-43.146,32.063-11.875,32.063-11.875-7.818,1.484-7.818,5.838S560.2,2811,578.405,2820.5c0,0,25-8.568,22.377-50.735l-.223-.083A45.552,45.552,0,0,1,613.338,2773c6.333,2.77,20.979,15.041,33.25,34.438s14.25,28.9,14.25,28.9l-19.4,55.813Z" fill="#ebe6d5"/>
          <g id="Group_691" data-name="Group 691">
            <path id="Path_220" data-name="Path 220" d="M544.169,2785.831s2.375-2.639,3.959-2.375,3.694.792,1.847,3.431-.792,4.486-3.167,5.014S542.586,2788.734,544.169,2785.831Z" fill="#fff"/>
            <path id="Path_221" data-name="Path 221" d="M596.712,2896.767s2.375-2.639,3.959-2.375,3.694.792,1.847,3.431-.792,4.486-3.167,5.014S595.129,2899.67,596.712,2896.767Z" fill="#fff"/>
            <path id="Path_222" data-name="Path 222" d="M529.42,2813.113s3.167-4.486,5.014-2.9-.264,3.166-.528,4.749S527.045,2819.447,529.42,2813.113Z" fill="#fff"/>
            <path id="Path_223" data-name="Path 223" d="M634.3,2816.4s3.167-4.486,5.014-2.9-.264,3.167-.528,4.75S631.928,2822.73,634.3,2816.4Z" fill="#fff"/>
            <path id="Path_224" data-name="Path 224" d="M609.663,2861.673s3.166-4.486,5.014-2.9-.264,3.167-.528,4.75S607.288,2868.007,609.663,2861.673Z" fill="#fff"/>
            <path id="Path_225" data-name="Path 225" d="M550.6,2812.773s1.583-3.431,4.486-2.111,1.32,3.694,1.056,5.277S549.546,2819.37,550.6,2812.773Z" fill="#fff"/>
            <path id="Path_226" data-name="Path 226" d="M529.363,2796.766s1.584-3.43,4.486-2.111,1.32,3.7,1.056,5.278S528.308,2803.363,529.363,2796.766Z" fill="#fff"/>
            <path id="Path_227" data-name="Path 227" d="M594.865,2876.447s1.583-3.43,4.486-2.111,1.32,3.7,1.056,5.278S593.81,2883.045,594.865,2876.447Z" fill="#fff"/>
            <path id="Path_228" data-name="Path 228" d="M568.74,2898.615s1.583-3.431,4.486-2.112,1.319,3.7,1.055,5.278S567.684,2905.212,568.74,2898.615Z" fill="#fff"/>
            <path id="Path_229" data-name="Path 229" d="M635.241,2835.808s1.583-3.431,4.486-2.111,1.319,3.694,1.055,5.278S634.185,2842.405,635.241,2835.808Z" fill="#fff"/>
            <path id="Path_230" data-name="Path 230" d="M537.864,2835.28s2.375-6.6,5.014-5.542,0,3.431.792,5.806S536.809,2839.766,537.864,2835.28Z" fill="#fff"/>
            <path id="Path_231" data-name="Path 231" d="M626.314,2800.7s2.375-6.6,5.014-5.542,0,3.431.792,5.806S625.259,2805.183,626.314,2800.7Z" fill="#fff"/>
          </g>
          <path id="Path_232" data-name="Path 232" d="M545.253,2836.6l-35.626-30.875-5.014,14.25,29.028,19.792Z" fill="#fcf9ee"/>
          <path id="Path_233" data-name="Path 233" d="M545.781,2836.864l48.292-20.056v10.555l-46.445,14.778Z" fill="#fff"/>
          <path id="Path_234" data-name="Path 234" d="M545.253,2836.6l-3.167,56.209,53.306-19.792,4.222-53.57Z" fill="#dd6d4e"/>
          <path id="Path_235" data-name="Path 235" d="M585.365,2841.086l-.264,19.792-24.806,8.181,1.056-20.848Z" fill="#fff"/>
          <path id="Path_236" data-name="Path 236" d="M542.087,2892.809,499.6,2862.725l-.528-55.154,46.181,29.028Z" fill="#cf5d43"/>
          <path id="Path_237" data-name="Path 237" d="M501.711,2864.308a33.643,33.643,0,0,1,2.375-9.236c1.847-3.958,2.639-6.861,4.75-7.917s2.9-.264,4.222.264a8.005,8.005,0,0,1,4.223,6.334c.264,3.43-1.584,11.083.791,15.042s2.375,7.652,2.112,8.444-6.07,3.958-6.07,3.958l-9.5-6.069Z" fill="#ffc099"/>
          <path id="Path_238" data-name="Path 238" d="M633.657,2903.1s-14.25-23.751-19.264-39.848a326.431,326.431,0,0,1-8.181-33.515l14.515-11.611s.528,10.028,5.541,17.945,19.528,25.6,22.7,30.875,2.375,18.737-.528,23.751S633.657,2903.1,633.657,2903.1Z" fill="#ffc099"/>
          <path id="Path_239" data-name="Path 239" d="M595.393,2825.252s2.639-12.4,4.222-15.569,10.82-13.459,14.25-13.987,8.181,8.445,9.765,12.4,1.847,8.973-1.056,12.139-8.709,6.862-12.4,10.556-10.292,6.334-11.875,5.806S593.282,2833.7,595.393,2825.252Z" fill="#ffc099"/>
          <g id="Group_692" data-name="Group 692">
            <path id="Path_240" data-name="Path 240" d="M505.932,2861.019a.671.671,0,0,0,.662-.562c.008-.049.787-4.8,1.652-6.537.392-.784.873-2.036,1.336-3.248a22.814,22.814,0,0,1,1.532-3.535.658.658,0,0,0,.1-.935.674.674,0,0,0-.947-.1c-.481.384-.959,1.541-1.931,4.087-.453,1.182-.921,2.4-1.284,3.129-.957,1.916-1.744,6.716-1.778,6.92a.67.67,0,0,0,.554.768A.66.66,0,0,0,505.932,2861.019Z" fill="#f88d61"/>
            <path id="Path_241" data-name="Path 241" d="M509.1,2861.679a.667.667,0,0,0,.659-.557c.01-.061,1.053-6.147,2.063-8.417a48.4,48.4,0,0,0,1.877-5.093.669.669,0,1,0-1.281-.385,48.839,48.839,0,0,1-1.82,4.934c-1.077,2.424-2.115,8.48-2.157,8.736a.67.67,0,0,0,.547.773A.711.711,0,0,0,509.1,2861.679Z" fill="#f88d61"/>
            <path id="Path_242" data-name="Path 242" d="M512.795,2862.6a.671.671,0,0,0,.664-.584c.008-.063.793-6.212,1.182-8.414a40.2,40.2,0,0,1,1.035-4.271.668.668,0,1,0-1.275-.4,39.257,39.257,0,0,0-1.078,4.439c-.394,2.232-1.16,8.222-1.192,8.476a.669.669,0,0,0,.581.749A.574.574,0,0,0,512.795,2862.6Z" fill="#f88d61"/>
            <path id="Path_243" data-name="Path 243" d="M598.295,2837.269a.668.668,0,0,0,.577-.332c.019-.032,1.849-3.159,3.391-5.214,1.211-1.617,7.7-7.014,10.968-9.643a.67.67,0,0,0-.842-1.043c-.389.315-9.584,7.731-11.2,9.884-1.59,2.117-3.4,5.21-3.475,5.341a.67.67,0,0,0,.578,1.007Z" fill="#f88d61"/>
            <path id="Path_244" data-name="Path 244" d="M596.713,2835.95a.668.668,0,0,0,.638-.47,44.684,44.684,0,0,1,2.586-6.472c1.273-2.29,9.08-11.41,9.158-11.5a.668.668,0,1,0-1.014-.871c-.327.379-7.977,9.315-9.316,11.721a45.114,45.114,0,0,0-2.69,6.723.671.671,0,0,0,.439.84A.691.691,0,0,0,596.713,2835.95Z" fill="#f88d61"/>
            <path id="Path_245" data-name="Path 245" d="M594.864,2831.727a.67.67,0,0,0,.667-.6c.5-5.029,8.756-15.914,8.84-16.023a.67.67,0,0,0-1.067-.811c-.348.459-8.565,11.3-9.106,16.7a.668.668,0,0,0,.6.732A.447.447,0,0,0,594.864,2831.727Z" fill="#f88d61"/>
          </g>
          <path id="Path_246" data-name="Path 246" d="M579.559,2800.588a.665.665,0,0,0,.311-.077c20.2-10.633,19.238-32.213,19.227-32.43a.634.634,0,0,0-.706-.63.673.673,0,0,0-.632.705c.013.208.9,20.69-18.15,30.979-1.76-1.32-10.529-8.892-10.992-28.788a.667.667,0,0,0-.669-.654h-.015a.67.67,0,0,0-.654.685c.531,22.8,11.462,29.822,11.927,30.11A.677.677,0,0,0,579.559,2800.588Z" fill="#fff"/>
          <path id="Path_247" data-name="Path 247" d="M576.393,2804.273a2.771,2.771,0,1,0,5.541,0c0-1.53-.844-5.41-2.375-5.41S576.393,2802.743,576.393,2804.273Z" fill="#fff"/>
          <path id="Path_248" data-name="Path 248" d="M606.476,2758.883s-8.444,11.216-14.25,15.306-14.514,4.222-19.528,1.056-12.8-13.987-14.514-31.14c0,0-3.035,1.584-4.75-1.055s-4.09-10.952-5.146-12.8-1.056-7.125,1.583-8.049,5.818,1.748,6.346,2.275,2.231-3.33,2.231-3.33l30.875-10.028s16.494,19,16.758,19.4S606.476,2758.883,606.476,2758.883Z" fill="#ffc099"/>
          <path id="Path_249" data-name="Path 249" d="M557.779,2736.079s-3.124-8.924-5.355-7.586,2.677,13.833,3.57,12.494A22.764,22.764,0,0,0,557.779,2736.079Z" fill="#c79072"/>
          <path id="Path_250" data-name="Path 250" d="M572.3,2743.973a1.979,1.979,0,1,0,1.979-1.979A1.98,1.98,0,0,0,572.3,2743.973Z" fill="#68472f"/>
          <path id="Path_251" data-name="Path 251" d="M597.768,2750.307a1.979,1.979,0,1,0,1.979-1.979A1.979,1.979,0,0,0,597.768,2750.307Z" fill="#68472f"/>
          <path id="Path_252" data-name="Path 252" d="M576.525,2736.716a13.046,13.046,0,0,0-7.39-3.035c-4.617-.4-5.8.66-6.333-.659s-1.847-3.431-.132-4.486,7.389-3.563,11.611-1.452,5.938,6.466,5.806,7.785S578.24,2737.244,576.525,2736.716Z" fill="#573c28"/>
          <path id="Path_253" data-name="Path 253" d="M603.969,2742.126s-5.673,1.188-7.389-.132-1.715-1.847-.923-3.3,1.055-4.222,5.146-4.354S603.969,2742.126,603.969,2742.126Z" fill="#573c28"/>
          <path id="Path_254" data-name="Path 254" d="M585.272,2766.754s-4.043.349-8.834-4.357-4.641-6.449-4.941-5.926-1.048,7.32,4.043,10.632S585.422,2768.149,585.272,2766.754Z" fill="#fff"/>
          <path id="Path_255" data-name="Path 255" d="M586.421,2716.265s-8.181,5.805-15.174,10.423-9.1,6.6-10.028,5.938-3.167-4.75-5.278-7.257-4.222-3.563-4.618-3.563h.4a27.625,27.625,0,0,1,3.694-11.875c3.563-6.2,6.466-18.472,23.091-19l6.333,1.319Z" fill="#68472f"/>
          <path id="Path_256" data-name="Path 256" d="M637.352,2780.655s.264,5.013-1.32,6.069-16.1,12.4-32.458,12.931c0,0-2.112-.528-1.32-3.959s4.486-35.361,1.32-48.556-15.57-21.9-17.681-29.82a49.147,49.147,0,0,1-6.07-21.9s-.264-3.694,1.32-4.222c0,0,1.583-6.334,15.833-5.014s26.39,18.472,30.348,29.556S637.616,2778.807,637.352,2780.655Z" fill="#775336"/>
          <path id="Path_257" data-name="Path 257" d="M618.616,2909.83s26.785-71.515,31.139-78.64,14.25-18.6,37.6-15.438,32.458,21.771,33.25,33.25-7.917,104.106-10.688,106.086-28.1,18.6-69.667-.4C640.255,2954.692,616.372,2929.49,618.616,2909.83Z" fill="#005d68"/>
          <path id="Path_258" data-name="Path 258" d="M639.776,2955.574a1.008,1.008,0,0,1-.52-.784c-.023-.24-.575-6.118.79-23.531,1.574-20.068,14.949-63.512,15.083-63.948a1,1,0,0,1,1.919.593c-.134.434-13.444,43.665-15,63.511-1.124,14.336-.928,20.848-.831,22.642,4.458,2.233,38.582,18.22,68.183.173a1,1,0,1,1,1.046,1.715,61.564,61.564,0,0,1-32.49,8.776A89.586,89.586,0,0,1,639.776,2955.574Zm.453-.884h0Z" fill="#003239"/>
          <path id="Path_259" data-name="Path 259" d="M601.77,2759.532s-2.419-4.306-5.3-4.146-3.15,4.624-.864,4.784a10.38,10.38,0,0,1,4.253,1.027C601.238,2761.764,602.408,2760.51,601.77,2759.532Z" fill="#ffa16c"/>
          <path id="Path_260" data-name="Path 260" d="M564.777,2749.835s4.153-2.855,6.936-1.43,1.214,5.617-1.108,4.748a12.011,12.011,0,0,0-4.62-.951C564.387,2752.107,563.746,2750.444,564.777,2749.835Z" fill="#ffa16c"/>
          <path id="Path_261" data-name="Path 261" d="M591.021,2741.824s-1,9.956-1.924,15.478a2.067,2.067,0,0,1-1.924,1.589,11.842,11.842,0,0,1-4.184-.5s-1.506-1.171-1.338-2.51,4.016-15.394,4.016-15.394a1.637,1.637,0,0,1,1.673-.837C588.511,2739.816,591.189,2740.15,591.021,2741.824Z" fill="#f88d61"/>
          <path id="Path_262" data-name="Path 262" d="M618.616,2968.282s-32.22,4.291-33.989,38.1a86.112,86.112,0,0,0-12.061-4.323c-6.729-1.847-29.688-16.1-40.771-16.493s-54.626-11.084-62.543-24.938-8.708-38.792,4.354-51.459c11.456-11.108,39.98-9.1,55.814-4.354,13.065,3.919,30.172,15.924,44.873,26.007,3.115,2.137,6.123,4.187,8.961,6.056C599.483,2947.566,618.616,2968.282,618.616,2968.282Z" fill="#005d68"/>
          <path id="Path_263" data-name="Path 263" d="M617.877,2968.964l1.475-1.363c-.191-.207-19.4-20.929-35.547-31.56-2.831-1.866-5.835-3.913-8.944-6.045l-1.135,1.655c3.119,2.14,6.134,4.2,8.976,6.065C598.645,2948.216,617.687,2968.757,617.877,2968.964Z" fill="#003239"/>
        </g>
      </g>
      <path id="Path_264" data-name="Path 264" d="M681.422,3042.436c18.208,5.806,27.2-6.076,25.861-10.82-.994-3.512-6.6-6.333-12.139-8.708,0,0-11.347,7.917-13.722,16.889Z" fill="#b77b67"/>
    </g>
  </g>
</svg>
