<?xml version="1.0" encoding="utf-8"?>
<!-- Generator: Adobe Illustrator 25.4.1, SVG Export Plug-In . SVG Version: 6.00 Build 0)  -->
<svg version="1.1" id="Layer_1" xmlns="http://www.w3.org/2000/svg" xmlns:xlink="http://www.w3.org/1999/xlink" x="0px" y="0px"
	 viewBox="0 0 153.411 98.232" style="enable-background:new 0 0 153.411 98.232;" xml:space="preserve">
<style type="text/css">
	.st0{fill:#EBF0F1;}
	.st1{fill:#DFE9F2;}
	.st2{fill:#A8B0B6;}
	.st3{clip-path:url(#SVGID_00000049910818425964872340000002763465882555044016_);}
	.st4{fill:#CCCCCC;}
	.st5{fill:#876441;}
	.st6{fill:#F3A48A;}
	.st7{fill:#CF5D43;}
	.st8{fill:#DD6D4E;}
	.st9{fill:#ABA97B;}
	.st10{fill:#E3E0A2;}
	.st11{fill:#303030;}
	.st12{fill:#EFEDE3;}
	.st13{fill:#353535;}
	.st14{fill:#9F714A;}
	.st15{fill:#775336;}
	.st16{fill:#412C19;}
	.st17{fill:#B5B573;}
	.st18{clip-path:url(#SVGID_00000044168308522454876910000003561612757502262951_);}
	.st19{fill:#3B9A64;}
	.st20{fill:#AC614E;}
	.st21{fill:#C1C57C;}
	.st22{clip-path:url(#SVGID_00000020385503000326724230000015222987978654516153_);}
	.st23{fill:#4CA66F;}
	.st24{fill:#FCF9EE;}
	.st25{fill:#F47F64;}
	.st26{fill:#668F95;}
	.st27{fill:#EBE6D5;}
	.st28{fill:#005D68;}
	.st29{fill:#FFC099;}
	.st30{fill:#003239;}
	.st31{fill:#DF8E7A;}
	.st32{fill:#B77B67;}
	.st33{fill:#68472F;}
	.st34{fill:#FBA983;}
	.st35{fill:#FFFFFF;}
	.st36{fill:#F88D61;}
	.st37{fill:#C79072;}
	.st38{fill:#573C28;}
	.st39{fill:#FFA16C;}
	.st40{fill:#F5F5F5;}
	.st41{fill:#E1E1E1;}
	.st42{fill:#ECECEC;}
	.st43{fill:#FAFAFA;}
	.st44{fill:#1A2E35;}
	.st45{fill:#375A64;}
	.st46{opacity:0.3;}
	.st47{fill:#498269;}
	.st48{fill:#946962;}
	.st49{fill:#6F4540;}
	.st50{fill:#CE4F41;}
	.st51{opacity:0.6;}
	.st52{fill:#305A46;}
	.st53{fill:#F7D858;}
	.st54{opacity:0.2;}
	.st55{opacity:0.4;}
	.st56{fill:#101010;}
	.st57{fill:#6AB792;}
	.st58{fill:#D25F3B;}
	.st59{fill:#E57E5B;}
	.st60{fill:none;stroke:#D25F3B;stroke-width:1.3008;stroke-linecap:round;stroke-linejoin:round;stroke-miterlimit:10;}
	.st61{fill:none;stroke:#498269;stroke-width:1.8047;stroke-linecap:round;stroke-linejoin:round;stroke-miterlimit:10;}
	.st62{fill:#39ACB2;}
	.st63{clip-path:url(#SVGID_00000116206048127023822520000007715461303882847925_);}
	.st64{fill:none;stroke:#305A46;stroke-width:3.1006;stroke-linecap:round;stroke-linejoin:round;stroke-miterlimit:10;}
	.st65{fill:#EC8A63;}
	.st66{fill:#FFB890;}
	.st67{fill:none;stroke:#EC8A63;stroke-width:2.028;stroke-linecap:round;stroke-linejoin:round;stroke-miterlimit:10;}
	.st68{opacity:0.26;fill:#FFFFFF;}
	.st69{fill:none;stroke:#FFFFFF;stroke-width:1.9299;stroke-linecap:round;stroke-linejoin:round;stroke-miterlimit:10;}
	.st70{fill:#DAF0FA;}
	.st71{fill:#FFBF9D;}
	.st72{fill:#FF9A6C;}
	.st73{fill:none;stroke:#44555B;stroke-miterlimit:10;}
	.st74{fill:#C78976;}
	.st75{fill:#BF654E;}
	.st76{fill:none;stroke:#44555B;stroke-width:0.05;stroke-miterlimit:10;}
	.st77{fill:none;stroke:#44555B;stroke-width:0.0469;stroke-miterlimit:10;}
	.st78{fill:#FF735D;}
	.st79{clip-path:url(#SVGID_00000036210599375044144900000005589463913796712065_);}
	.st80{fill:#FFDAD9;}
	.st81{fill:#DCDFE0;}
	.st82{fill:none;stroke:#B6E1F4;stroke-width:5.3697;stroke-linecap:round;stroke-linejoin:round;stroke-miterlimit:10;}
	.st83{fill:none;stroke:#B6E1F4;stroke-width:5.0288;stroke-miterlimit:10;}
	.st84{opacity:0.44;fill:#B6E1F4;}
	.st85{fill:#E07280;}
	.st86{fill:#7E5780;}
	.st87{opacity:0.22;fill:#7E5780;}
	.st88{fill:none;stroke:#FFD0C5;stroke-width:0.3194;stroke-miterlimit:10;}
	.st89{fill:none;stroke:#FFD0C5;stroke-width:0.3836;stroke-miterlimit:10;}
	.st90{fill:none;stroke:#401A49;stroke-width:1.5344;stroke-linecap:round;stroke-linejoin:round;stroke-miterlimit:10;}
	.st91{fill:#401A49;}
	.st92{fill:none;stroke:#161C3E;stroke-width:1.1265;stroke-linecap:round;stroke-linejoin:round;stroke-miterlimit:10;}
	.st93{opacity:0.09;fill:#E07280;}
	.st94{fill:none;stroke:#401A49;stroke-width:0.9884;stroke-linecap:round;stroke-linejoin:round;stroke-miterlimit:10;}
	.st95{fill:none;stroke:#401A49;stroke-width:0.7672;stroke-linecap:round;stroke-linejoin:round;stroke-miterlimit:10;}
	.st96{fill:#994975;}
	.st97{fill:#FF8A9A;}
	.st98{fill:none;stroke:#161C3E;stroke-width:1.0685;stroke-linecap:round;stroke-linejoin:round;stroke-miterlimit:10;}
	.st99{opacity:0.35;fill:#EF5D6B;}
	.st100{fill:none;stroke:#401A49;stroke-width:0.9376;stroke-linecap:round;stroke-linejoin:round;stroke-miterlimit:10;}
	.st101{fill:#FFF5EB;}
	.st102{fill:#F2B2D6;}
	.st103{fill:none;stroke:#FFF5EB;stroke-width:0.8381;stroke-linecap:round;stroke-linejoin:round;stroke-miterlimit:10;}
	.st104{opacity:0.22;fill:#401A49;}
	.st105{fill:none;stroke:#FFDAD9;stroke-width:0.8381;stroke-miterlimit:10;}
	.st106{fill:none;stroke:#FFDAD9;stroke-width:0.8381;stroke-linecap:round;stroke-linejoin:round;stroke-miterlimit:10;}
	.st107{fill:none;stroke:#401A49;stroke-width:1.6763;stroke-linecap:round;stroke-linejoin:round;stroke-miterlimit:10;}
	.st108{fill:#FFD0C5;}
	.st109{fill:#FDB22C;}
	.st110{fill:#1A8B91;}
	.st111{fill:none;stroke:#000000;stroke-width:0.8147;stroke-linecap:round;stroke-linejoin:round;stroke-miterlimit:10;}
	.st112{fill:#ECA079;}
	.st113{fill:#FDF1F5;}
	.st114{fill:#E6C6CE;}
	.st115{fill:#862904;}
	.st116{fill:#DC845E;}
	.st117{fill:none;stroke:#000000;stroke-width:0.848;stroke-linecap:round;stroke-linejoin:round;stroke-miterlimit:10;}
	.st118{clip-path:url(#XMLID_00000067220752505837282360000015021102030032795837_);}
	.st119{clip-path:url(#XMLID_00000021119294889995616060000018413834089106325681_);}
	.st120{fill:none;stroke:#000000;stroke-width:0.8027;stroke-linecap:round;stroke-linejoin:round;stroke-miterlimit:10;}
	.st121{fill:none;stroke:#FFFFFF;stroke-width:2.99;stroke-linecap:round;stroke-linejoin:round;}
	.st122{fill:none;stroke:#FFFFFF;stroke-width:2.99;stroke-linecap:round;stroke-linejoin:round;stroke-dasharray:18.4657,18.4657;}
	.st123{fill:none;stroke:#000000;stroke-width:0.9784;stroke-linecap:round;stroke-linejoin:round;stroke-miterlimit:10;}
	.st124{clip-path:url(#XMLID_00000009590012501404415200000015514064766788680609_);}
	.st125{fill:none;stroke:#000000;stroke-width:0.682;stroke-linecap:round;stroke-linejoin:round;stroke-miterlimit:10;}
	.st126{fill:#AE3700;}
	.st127{fill:none;stroke:#FFFFFF;stroke-width:1.7082;stroke-linecap:round;stroke-linejoin:round;stroke-miterlimit:10;}
	.st128{fill:none;stroke:#000000;stroke-width:0.9976;stroke-linecap:round;stroke-linejoin:round;stroke-miterlimit:10;}
	.st129{fill:#528E72;}
	.st130{fill:#F0DBE0;}
	.st131{fill:#89331A;}
	.st132{fill:none;stroke:#CCDADC;stroke-linecap:round;stroke-linejoin:round;}
	.st133{opacity:0.45;fill:#F7E3C7;enable-background:new    ;}
	.st134{fill:#222222;}
	.st135{fill:#F47365;}
	.st136{fill:none;stroke:#222222;stroke-width:0.211;stroke-linecap:round;stroke-linejoin:round;}
	.st137{opacity:0.5;fill:#F43D4F;enable-background:new    ;}
	.st138{fill:#F43D4F;}
	.st139{fill:none;stroke:#FFF7EE;stroke-width:0.422;stroke-miterlimit:10;}
	.st140{fill:#FBB244;}
	.st141{fill:#FFF7EE;}
	.st142{opacity:0.22;}
	.st143{clip-path:url(#SVGID_00000036948661284231158340000005533060749052837034_);}
	.st144{fill:none;stroke:#FFFFFF;stroke-width:0.422;stroke-linecap:round;stroke-linejoin:round;}
	.st145{fill:none;stroke:#222222;stroke-width:2.166;stroke-linecap:round;stroke-linejoin:round;}
	.st146{fill:none;stroke:#222222;stroke-width:2.1655;stroke-linecap:round;stroke-linejoin:round;stroke-miterlimit:3.9991;}
	.st147{clip-path:url(#SVGID_00000171693165289088722620000003248839897187591581_);}
	.st148{fill:none;stroke:#222222;stroke-width:0.422;stroke-linecap:round;stroke-linejoin:round;}
	.st149{fill:#00454F;}
	.st150{fill:#B0B4B5;}
	.st151{fill-rule:evenodd;clip-rule:evenodd;fill:#00454F;}
	.st152{fill:#D2DADB;}
	.st153{fill:none;stroke:#FFFFFF;stroke-width:3.3017;stroke-miterlimit:10;}
	.st154{fill:#05454F;}
	.st155{fill:none;stroke:#707070;}
	.st156{fill:#F5F7F6;}
</style>
<g>
	<path class="st149" d="M27.027,98.232c14.903,0,27.029-12.124,27.029-27.028c0-0.842-0.044-1.674-0.121-2.497l4.993-1.01
		c1.669,3.07,4.924,5.157,8.656,5.157c5.432,0,9.851-4.419,9.851-9.851c0-0.845-0.119-1.661-0.32-2.445l31.417-19.21l3.437,7.009
		c-7.571,4.795-12.612,13.24-12.612,22.846c0,14.903,12.126,27.028,27.027,27.028c14.903,0,27.029-12.124,27.029-27.028
		c0-14.903-12.126-27.026-27.029-27.026c-3.245,0-6.354,0.575-9.241,1.627l-10.751-21.934l18.946-18.947
		c0.826-0.826,1.068-2.065,0.625-3.144C125.514,0.702,124.462,0,123.294,0h-18.152c-1.594,0-2.887,1.292-2.887,2.884
		c0,1.594,1.293,2.886,2.887,2.886h11.188l-14.636,14.636H86.152c-1.591,0-2.885,1.292-2.885,2.885c0,1.593,1.293,2.885,2.885,2.885
		h14.938l4.891,9.972L74.101,55.64c-1.739-1.541-4.019-2.484-6.518-2.484c-0.139,0-0.271,0.016-0.411,0.021l-9.338-27.001h10.795
		c1.591,0,2.883-1.292,2.883-2.885c0-1.592-1.291-2.885-2.883-2.885H55.839l-1.825-5.281h3.75c1.591,0,2.885-1.291,2.885-2.885
		c0-1.592-1.293-2.884-2.885-2.884h-15.6c-1.594,0-2.887,1.292-2.887,2.884c0,1.594,1.293,2.885,2.887,2.885h5.743l2.441,7.054
		L37.305,46.213c-3.169-1.311-6.639-2.035-10.279-2.035C12.124,44.178,0,56.302,0,71.204C0,86.108,12.124,98.232,27.027,98.232z
		 M123.793,72.474c0.499,1.022,1.525,1.617,2.589,1.615c0.428,0,0.861-0.095,1.271-0.295c1.43-0.701,2.02-2.429,1.32-3.859
		l-9.27-18.907c2.101-0.698,4.346-1.081,6.679-1.081c11.722,0,21.259,9.535,21.259,21.258c0,11.722-9.537,21.259-21.259,21.259
		c-11.722,0-21.257-9.538-21.257-21.259c0-7.334,3.732-13.811,9.398-17.634L123.793,72.474z M67.583,58.925
		c2.249,0,4.081,1.831,4.081,4.079c0,2.25-1.832,4.082-4.081,4.082c-2.249,0-4.081-1.831-4.081-4.082
		C63.502,60.756,65.334,58.925,67.583,58.925z M52.903,29.568L61.732,55.1c-2.176,1.616-3.673,4.1-3.949,6.943l-4.988,1.008
		c-1.828-5.768-5.549-10.701-10.422-14.077L52.903,29.568z M39.603,54.079c3.421,2.519,6.063,6.039,7.491,10.126l-14.587,2.949
		L39.603,54.079z M27.027,49.947c2.642,0,5.171,0.488,7.509,1.373L24.491,69.829c-0.532,0.985-0.448,2.189,0.216,3.091
		c0.55,0.744,1.417,1.169,2.32,1.169c0.19,0,0.382-0.019,0.572-0.057l20.641-4.173c0.027,0.445,0.044,0.893,0.044,1.345
		c0,11.722-9.533,21.259-21.257,21.259c-11.72,0-21.257-9.538-21.257-21.259C5.77,59.482,15.307,49.947,27.027,49.947z"/>
	<path class="st149" d="M27.027,84.92c2.258,0,4.496-0.562,6.474-1.623c1.404-0.752,1.933-2.501,1.181-3.906
		c-0.755-1.404-2.503-1.933-3.907-1.179c-1.159,0.622-2.421,0.936-3.748,0.936c-3.874,0-7.167-2.763-7.829-6.573
		c-0.271-1.57-1.766-2.623-3.333-2.349c-1.569,0.273-2.622,1.766-2.351,3.335C14.658,80.143,20.339,84.92,27.027,84.92z"/>
	<path class="st149" d="M16.267,68.055c0.468,0.285,0.984,0.42,1.494,0.42c0.976,0,1.925-0.493,2.47-1.387
		c0.082-0.135,0.168-0.269,0.256-0.398c0.903-1.313,0.567-3.109-0.746-4.012c-1.313-0.901-3.108-0.566-4.01,0.747
		c-0.15,0.218-0.296,0.441-0.43,0.666C14.47,65.455,14.903,67.229,16.267,68.055z"/>
	<path class="st149" d="M130.633,84.055c0.377,0,0.757-0.074,1.128-0.231c6.147-2.612,9.5-9.233,7.977-15.746
		c-0.514-2.197-1.571-4.25-3.057-5.933c-1.055-1.195-2.878-1.31-4.072-0.255c-1.194,1.052-1.309,2.876-0.256,4.072
		c0.872,0.986,1.466,2.14,1.766,3.434c0.883,3.771-1.055,7.607-4.615,9.118c-1.463,0.623-2.15,2.316-1.525,3.784
		C128.443,83.394,129.512,84.055,130.633,84.055z"/>
	<path class="st149" d="M121.376,83.973c0.245,0.097,0.492,0.186,0.744,0.269c0.3,0.1,0.607,0.147,0.909,0.147
		c1.207,0,2.335-0.767,2.737-1.978c0.503-1.511-0.318-3.145-1.832-3.646c-0.15-0.05-0.298-0.103-0.446-0.161
		c-1.485-0.584-3.156,0.146-3.741,1.628C119.162,81.714,119.893,83.39,121.376,83.973z"/>
	<path class="st149" d="M76.708,26.175h1.728c1.594,0,2.885-1.292,2.885-2.885c0-1.592-1.291-2.885-2.885-2.885h-1.728
		c-1.594,0-2.885,1.292-2.885,2.885C73.823,24.883,75.114,26.175,76.708,26.175z"/>
	<path class="st149" d="M96.323,5.77h0.96c1.594,0,2.885-1.292,2.885-2.886c0-1.592-1.291-2.884-2.885-2.884h-0.96
		c-1.594,0-2.885,1.292-2.885,2.884C93.438,4.478,94.729,5.77,96.323,5.77z"/>
</g>
</svg>
