<?xml version="1.0" encoding="utf-8"?>
<!-- Generator: Adobe Illustrator 25.4.1, SVG Export Plug-In . SVG Version: 6.00 Build 0)  -->
<svg version="1.1" id="Layer_1" xmlns="http://www.w3.org/2000/svg" xmlns:xlink="http://www.w3.org/1999/xlink" x="0px" y="0px"
	 viewBox="0 0 130.379 102.812" style="enable-background:new 0 0 130.379 102.812;" xml:space="preserve">
<style type="text/css">
	.st0{fill:#EBF0F1;}
	.st1{fill:#DFE9F2;}
	.st2{fill:#A8B0B6;}
	.st3{clip-path:url(#SVGID_00000088095865831496723660000017584125859124678063_);}
	.st4{fill:#CCCCCC;}
	.st5{fill:#876441;}
	.st6{fill:#F3A48A;}
	.st7{fill:#CF5D43;}
	.st8{fill:#DD6D4E;}
	.st9{fill:#ABA97B;}
	.st10{fill:#E3E0A2;}
	.st11{fill:#303030;}
	.st12{fill:#EFEDE3;}
	.st13{fill:#353535;}
	.st14{fill:#9F714A;}
	.st15{fill:#775336;}
	.st16{fill:#412C19;}
	.st17{fill:#B5B573;}
	.st18{clip-path:url(#SVGID_00000052809880945897161040000010408529886132335746_);}
	.st19{fill:#3B9A64;}
	.st20{fill:#AC614E;}
	.st21{fill:#C1C57C;}
	.st22{clip-path:url(#SVGID_00000074415299985408158190000001241027094435300274_);}
	.st23{fill:#4CA66F;}
	.st24{fill:#FCF9EE;}
	.st25{fill:#F47F64;}
	.st26{fill:#668F95;}
	.st27{fill:#EBE6D5;}
	.st28{fill:#005D68;}
	.st29{fill:#FFC099;}
	.st30{fill:#003239;}
	.st31{fill:#DF8E7A;}
	.st32{fill:#B77B67;}
	.st33{fill:#68472F;}
	.st34{fill:#FBA983;}
	.st35{fill:#FFFFFF;}
	.st36{fill:#F88D61;}
	.st37{fill:#C79072;}
	.st38{fill:#573C28;}
	.st39{fill:#FFA16C;}
	.st40{fill:#F5F5F5;}
	.st41{fill:#E1E1E1;}
	.st42{fill:#ECECEC;}
	.st43{fill:#FAFAFA;}
	.st44{fill:#1A2E35;}
	.st45{fill:#375A64;}
	.st46{opacity:0.3;}
	.st47{fill:#498269;}
	.st48{fill:#946962;}
	.st49{fill:#6F4540;}
	.st50{fill:#CE4F41;}
	.st51{opacity:0.6;}
	.st52{fill:#305A46;}
	.st53{fill:#F7D858;}
	.st54{opacity:0.2;}
	.st55{opacity:0.4;}
	.st56{fill:#101010;}
	.st57{fill:#6AB792;}
	.st58{fill:#D25F3B;}
	.st59{fill:#E57E5B;}
	.st60{fill:none;stroke:#D25F3B;stroke-width:1.3008;stroke-linecap:round;stroke-linejoin:round;stroke-miterlimit:10;}
	.st61{fill:none;stroke:#498269;stroke-width:1.8047;stroke-linecap:round;stroke-linejoin:round;stroke-miterlimit:10;}
	.st62{fill:#39ACB2;}
	.st63{clip-path:url(#SVGID_00000032630856014086253950000014962770790185189548_);}
	.st64{fill:none;stroke:#305A46;stroke-width:3.1006;stroke-linecap:round;stroke-linejoin:round;stroke-miterlimit:10;}
	.st65{fill:#EC8A63;}
	.st66{fill:#FFB890;}
	.st67{fill:none;stroke:#EC8A63;stroke-width:2.028;stroke-linecap:round;stroke-linejoin:round;stroke-miterlimit:10;}
	.st68{opacity:0.26;fill:#FFFFFF;}
	.st69{fill:none;stroke:#FFFFFF;stroke-width:1.9299;stroke-linecap:round;stroke-linejoin:round;stroke-miterlimit:10;}
	.st70{fill:#DAF0FA;}
	.st71{fill:#FFBF9D;}
	.st72{fill:#FF9A6C;}
	.st73{fill:none;stroke:#44555B;stroke-miterlimit:10;}
	.st74{fill:#C78976;}
	.st75{fill:#BF654E;}
	.st76{fill:none;stroke:#44555B;stroke-width:0.05;stroke-miterlimit:10;}
	.st77{fill:none;stroke:#44555B;stroke-width:0.0469;stroke-miterlimit:10;}
	.st78{fill:#FF735D;}
	.st79{clip-path:url(#SVGID_00000036933294249779638300000006826488795542831521_);}
	.st80{fill:#FFDAD9;}
	.st81{fill:#DCDFE0;}
	.st82{fill:none;stroke:#B6E1F4;stroke-width:5.3697;stroke-linecap:round;stroke-linejoin:round;stroke-miterlimit:10;}
	.st83{fill:none;stroke:#B6E1F4;stroke-width:5.0288;stroke-miterlimit:10;}
	.st84{opacity:0.44;fill:#B6E1F4;}
	.st85{fill:#E07280;}
	.st86{fill:#7E5780;}
	.st87{opacity:0.22;fill:#7E5780;}
	.st88{fill:none;stroke:#FFD0C5;stroke-width:0.3194;stroke-miterlimit:10;}
	.st89{fill:none;stroke:#FFD0C5;stroke-width:0.3836;stroke-miterlimit:10;}
	.st90{fill:none;stroke:#401A49;stroke-width:1.5344;stroke-linecap:round;stroke-linejoin:round;stroke-miterlimit:10;}
	.st91{fill:#401A49;}
	.st92{fill:none;stroke:#161C3E;stroke-width:1.1265;stroke-linecap:round;stroke-linejoin:round;stroke-miterlimit:10;}
	.st93{opacity:0.09;fill:#E07280;}
	.st94{fill:none;stroke:#401A49;stroke-width:0.9884;stroke-linecap:round;stroke-linejoin:round;stroke-miterlimit:10;}
	.st95{fill:none;stroke:#401A49;stroke-width:0.7672;stroke-linecap:round;stroke-linejoin:round;stroke-miterlimit:10;}
	.st96{fill:#994975;}
	.st97{fill:#FF8A9A;}
	.st98{fill:none;stroke:#161C3E;stroke-width:1.0685;stroke-linecap:round;stroke-linejoin:round;stroke-miterlimit:10;}
	.st99{opacity:0.35;fill:#EF5D6B;}
	.st100{fill:none;stroke:#401A49;stroke-width:0.9376;stroke-linecap:round;stroke-linejoin:round;stroke-miterlimit:10;}
	.st101{fill:#FFF5EB;}
	.st102{fill:#F2B2D6;}
	.st103{fill:none;stroke:#FFF5EB;stroke-width:0.8381;stroke-linecap:round;stroke-linejoin:round;stroke-miterlimit:10;}
	.st104{opacity:0.22;fill:#401A49;}
	.st105{fill:none;stroke:#FFDAD9;stroke-width:0.8381;stroke-miterlimit:10;}
	.st106{fill:none;stroke:#FFDAD9;stroke-width:0.8381;stroke-linecap:round;stroke-linejoin:round;stroke-miterlimit:10;}
	.st107{fill:none;stroke:#401A49;stroke-width:1.6763;stroke-linecap:round;stroke-linejoin:round;stroke-miterlimit:10;}
	.st108{fill:#FFD0C5;}
	.st109{fill:#FDB22C;}
	.st110{fill:#1A8B91;}
	.st111{fill:none;stroke:#000000;stroke-width:0.8147;stroke-linecap:round;stroke-linejoin:round;stroke-miterlimit:10;}
	.st112{fill:#ECA079;}
	.st113{fill:#FDF1F5;}
	.st114{fill:#E6C6CE;}
	.st115{fill:#862904;}
	.st116{fill:#DC845E;}
	.st117{fill:none;stroke:#000000;stroke-width:0.848;stroke-linecap:round;stroke-linejoin:round;stroke-miterlimit:10;}
	.st118{clip-path:url(#XMLID_00000044865426583225981530000006619066160104244615_);}
	.st119{clip-path:url(#XMLID_00000135680740562313569230000010120387142401163413_);}
	.st120{fill:none;stroke:#000000;stroke-width:0.8027;stroke-linecap:round;stroke-linejoin:round;stroke-miterlimit:10;}
	.st121{fill:none;stroke:#FFFFFF;stroke-width:2.99;stroke-linecap:round;stroke-linejoin:round;}
	.st122{fill:none;stroke:#FFFFFF;stroke-width:2.99;stroke-linecap:round;stroke-linejoin:round;stroke-dasharray:18.4657,18.4657;}
	.st123{fill:none;stroke:#000000;stroke-width:0.9784;stroke-linecap:round;stroke-linejoin:round;stroke-miterlimit:10;}
	.st124{clip-path:url(#XMLID_00000041259738638295650760000000177191382468172201_);}
	.st125{fill:none;stroke:#000000;stroke-width:0.682;stroke-linecap:round;stroke-linejoin:round;stroke-miterlimit:10;}
	.st126{fill:#AE3700;}
	.st127{fill:none;stroke:#FFFFFF;stroke-width:1.7082;stroke-linecap:round;stroke-linejoin:round;stroke-miterlimit:10;}
	.st128{fill:none;stroke:#000000;stroke-width:0.9976;stroke-linecap:round;stroke-linejoin:round;stroke-miterlimit:10;}
	.st129{fill:#528E72;}
	.st130{fill:#F0DBE0;}
	.st131{fill:#89331A;}
	.st132{fill:none;stroke:#CCDADC;stroke-linecap:round;stroke-linejoin:round;}
	.st133{opacity:0.45;fill:#F7E3C7;enable-background:new    ;}
	.st134{fill:#222222;}
	.st135{fill:#F47365;}
	.st136{fill:none;stroke:#222222;stroke-width:0.211;stroke-linecap:round;stroke-linejoin:round;}
	.st137{opacity:0.5;fill:#F43D4F;enable-background:new    ;}
	.st138{fill:#F43D4F;}
	.st139{fill:none;stroke:#FFF7EE;stroke-width:0.422;stroke-miterlimit:10;}
	.st140{fill:#FBB244;}
	.st141{fill:#FFF7EE;}
	.st142{opacity:0.22;}
	.st143{clip-path:url(#SVGID_00000057861656205478983690000015802079230115015309_);}
	.st144{fill:none;stroke:#FFFFFF;stroke-width:0.422;stroke-linecap:round;stroke-linejoin:round;}
	.st145{fill:none;stroke:#222222;stroke-width:2.166;stroke-linecap:round;stroke-linejoin:round;}
	.st146{fill:none;stroke:#222222;stroke-width:2.1655;stroke-linecap:round;stroke-linejoin:round;stroke-miterlimit:3.9991;}
	.st147{clip-path:url(#SVGID_00000013886422967615870660000010686312467571812777_);}
	.st148{fill:none;stroke:#222222;stroke-width:0.422;stroke-linecap:round;stroke-linejoin:round;}
	.st149{fill:#00454F;}
	.st150{fill:#B0B4B5;}
	.st151{fill-rule:evenodd;clip-rule:evenodd;fill:#00454F;}
	.st152{fill:#D2DADB;}
	.st153{fill:none;stroke:#FFFFFF;stroke-width:3.3017;stroke-miterlimit:10;}
	.st154{fill:#05454F;}
	.st155{fill:none;stroke:#707070;}
	.st156{fill:#F5F7F6;}
</style>
<g>
	<path class="st149" d="M58.037,48.192H15.833c-1.384,0-2.506-1.122-2.506-2.506s1.122-2.506,2.506-2.506h42.204
		c1.384,0,2.506,1.122,2.506,2.506S59.421,48.192,58.037,48.192z"/>
	<path class="st149" d="M80.192,63.741H15.833c-1.384,0-2.506-1.122-2.506-2.506s1.122-2.506,2.506-2.506h64.359
		c1.384,0,2.506,1.122,2.506,2.506S81.576,63.741,80.192,63.741z"/>
	<path class="st149" d="M65.156,79.29H15.833c-1.384,0-2.506-1.122-2.506-2.506s1.122-2.506,2.506-2.506h49.323
		c1.384,0,2.506,1.122,2.506,2.506S66.54,79.29,65.156,79.29z"/>
	<path class="st149" d="M79.683,79.29c-0.67,0-1.3-0.26-1.779-0.729c-0.11-0.12-0.221-0.25-0.311-0.391
		c-0.09-0.13-0.17-0.279-0.229-0.43c-0.061-0.15-0.11-0.3-0.141-0.46s-0.05-0.33-0.05-0.5c0-0.66,0.27-1.311,0.73-1.771
		c0.119-0.109,0.25-0.22,0.38-0.31c0.14-0.09,0.29-0.17,0.439-0.23c0.15-0.06,0.311-0.109,0.47-0.14c0.32-0.07,0.65-0.07,0.98,0
		c0.16,0.03,0.31,0.08,0.47,0.14c0.15,0.061,0.29,0.141,0.431,0.23c0.14,0.09,0.26,0.2,0.38,0.31c0.109,0.12,0.22,0.24,0.31,0.381
		c0.09,0.14,0.17,0.279,0.23,0.43c0.06,0.16,0.109,0.31,0.14,0.47c0.04,0.17,0.05,0.33,0.05,0.49c0,0.17-0.01,0.34-0.05,0.5
		c-0.03,0.16-0.08,0.31-0.14,0.46c-0.061,0.15-0.141,0.3-0.23,0.43c-0.09,0.141-0.2,0.271-0.31,0.391
		c-0.12,0.109-0.25,0.22-0.391,0.31c-0.13,0.09-0.279,0.17-0.42,0.23c-0.16,0.06-0.31,0.109-0.47,0.14S79.843,79.29,79.683,79.29z"
		/>
	<g>
		<path class="st149" d="M95.223,30.141c-0.67,0-1.3-0.261-1.77-0.74c-0.471-0.47-0.73-1.101-0.73-1.771c0-0.66,0.271-1.3,0.73-1.77
			c0.58-0.58,1.439-0.86,2.27-0.69c0.15,0.04,0.311,0.08,0.46,0.15c0.15,0.06,0.3,0.14,0.44,0.229c0.13,0.091,0.26,0.19,0.38,0.311
			c0.11,0.109,0.22,0.24,0.31,0.38c0.091,0.14,0.17,0.28,0.23,0.43c0.06,0.15,0.11,0.311,0.14,0.471
			c0.03,0.159,0.05,0.329,0.05,0.489c0,0.17-0.02,0.33-0.05,0.49c-0.029,0.16-0.08,0.32-0.14,0.47c-0.061,0.15-0.14,0.29-0.23,0.431
			c-0.09,0.14-0.199,0.26-0.319,0.38C96.533,29.88,95.903,30.141,95.223,30.141z"/>
		<path class="st149" d="M82.694,30.141c-0.67,0-1.3-0.261-1.77-0.74c-0.471-0.47-0.73-1.101-0.73-1.771c0-0.66,0.271-1.3,0.73-1.77
			c0.58-0.58,1.439-0.86,2.27-0.69c0.15,0.04,0.311,0.08,0.46,0.15c0.15,0.06,0.3,0.14,0.44,0.229c0.13,0.091,0.26,0.19,0.38,0.311
			c0.11,0.109,0.22,0.24,0.31,0.38c0.091,0.14,0.17,0.28,0.23,0.43c0.06,0.15,0.11,0.311,0.14,0.471
			c0.03,0.159,0.05,0.329,0.05,0.489c0,0.17-0.02,0.33-0.05,0.49c-0.029,0.16-0.08,0.32-0.14,0.47c-0.061,0.15-0.14,0.29-0.23,0.431
			c-0.09,0.14-0.199,0.26-0.319,0.38C84.004,29.88,83.375,30.141,82.694,30.141z"/>
		<path class="st149" d="M107.763,30.141c-0.67,0-1.3-0.261-1.78-0.74c-0.109-0.11-0.22-0.24-0.31-0.38
			c-0.09-0.141-0.17-0.28-0.23-0.431c-0.06-0.149-0.109-0.31-0.14-0.47s-0.05-0.32-0.05-0.49c0-0.66,0.27-1.31,0.729-1.77
			c0.931-0.93,2.61-0.94,3.551,0c0.109,0.109,0.22,0.24,0.31,0.38s0.17,0.28,0.23,0.43c0.06,0.15,0.109,0.311,0.14,0.471
			c0.04,0.159,0.05,0.329,0.05,0.489c0,0.17-0.01,0.33-0.05,0.49c-0.03,0.16-0.08,0.32-0.14,0.47c-0.061,0.15-0.141,0.29-0.23,0.431
			c-0.09,0.14-0.2,0.27-0.31,0.38C109.053,29.88,108.423,30.141,107.763,30.141z"/>
	</g>
	<path class="st149" d="M49.408,102.812c-0.396,0-0.793-0.094-1.155-0.282l-14.798-7.691H11.602C5.204,94.839,0,89.635,0,83.237
		V39.233c0-6.397,5.204-11.602,11.602-11.602h41.15c1.384,0,2.506,1.122,2.506,2.506s-1.122,2.506-2.506,2.506h-41.15
		c-3.634,0-6.59,2.956-6.59,6.59v44.004c0,3.634,2.956,6.59,6.59,6.59h22.466c0.402,0,0.799,0.097,1.155,0.282l11.68,6.07v-3.847
		c0-1.384,1.122-2.506,2.506-2.506h36.725c3.634,0,6.59-2.956,6.59-6.59V62.716c0-1.384,1.122-2.506,2.506-2.506
		s2.506,1.122,2.506,2.506v20.521c0,6.397-5.204,11.602-11.602,11.602H51.914v5.468c0,0.876-0.457,1.688-1.205,2.142
		C50.311,102.69,49.859,102.812,49.408,102.812z"/>
	<path class="st149" d="M125.429,59.179l-12.89-5.717c-3.137,1.196-6.425,1.802-9.792,1.802H87.711
		c-15.236,0-27.632-12.396-27.632-27.632S72.475,0,87.711,0h15.036c15.236,0,27.632,12.396,27.632,27.632
		c0,5.814-1.793,11.36-5.192,16.079L125.429,59.179z M112.603,47.865l7.559,3.353l-0.145-9.193l0.693-0.907
		c2.965-3.937,4.526-8.595,4.526-13.485c0-12.4-10.089-22.489-22.489-22.489H87.711c-12.4,0-22.489,10.089-22.489,22.489
		s10.089,22.489,22.489,22.489h15.036c2.914,0,5.756-0.557,8.444-1.655L112.603,47.865z"/>
</g>
</svg>
