<svg xmlns="http://www.w3.org/2000/svg" xmlns:xlink="http://www.w3.org/1999/xlink" width="1041.627" height="805.363" viewBox="0 0 1041.627 805.363">
  <defs>
    <clipPath id="clip-path">
      <path id="Path_25" data-name="Path 25" d="M1376.618,423.862s9.563,3.279,27.6,2.733,33.882-3.006,40.439-5.738,20.22-12.842,22.406-15.575l1.366-4.371s-7.924-20.493-21.039-27.051-27.324-12.569-42.625-13.662-48.363,7.924-61.2,16.394,9.836,26.5,9.836,26.5Z" fill="none"/>
    </clipPath>
    <clipPath id="clip-path-2">
      <path id="Path_44" data-name="Path 44" d="M1115.312,317.391s-5.829,14.573-5.465,22.223,17.123,65.577,21.495,72.864S1143,433.972,1143,433.972s26.959,22.224,33.881,25.867,9.017,2,9.017,2,14.3-16.94,16.85-28.963,2.55-15.3,3.643-19.308,2.55-12.023,2.915-14.209.728-14.572.728-14.572-26.6-16.03-28.416-18.945S1115.312,317.391,1115.312,317.391Z" fill="none"/>
    </clipPath>
    <clipPath id="clip-path-3">
      <path id="Path_53" data-name="Path 53" d="M1137.171,300.633s-13.48,3.643-18.58,9.472-6.558,21.13-6.193,25.5,11.293,17.487,18.58,24.045,33.152,33.517,35.338,33.153,23.317-20.4,25.867-28.417c0,0,1.093-1.093-.364-2.915s-8.744-12.022-12.023-20.037-10.216-24.056-18.58-30.6S1142.636,300.268,1137.171,300.633Z" fill="none"/>
    </clipPath>
  </defs>
  <g id="Group_24" data-name="Group 24" transform="translate(-991.873 171.677)">
    <g id="Group_8" data-name="Group 8">
      <path id="Path_15" data-name="Path 15" d="M1945.981,342.4C1912.906,212.314,2211.626,219.128,1862,9.2c-7.848-4.11-16.055-8.1-24.893-8.776-31.257-1.565-31.83,31.167-9.926,47.065,11.029,8.934,24.789,15.9,30.731,28.788,7.4,16.056-1.277,36.393-16.326,45.672-32.612,19.261-70.241-2.453-97.343-22.326L1606.938,4.142c-30.764-20.968-53.145-49.293-76.345-78.109-3.994-4.917-18.428-28.516-24.368-29.118-61.206-76.6-140.192-84.134-227.053-46.775-84,31.215-191.12,64.674-233.086,151.061-38.377,136.335,140.794,164.5,114.307,272.449-7.146,25.836-28.281,44.923-47.483,63.62C938.424,499.959,1046.6,659.127,1266.182,630.278c37.6-6.5,73.471-20.606,110.731-28.854,132.935-36.571,258.613,50.155,325.227-109.612,16.8-33.146,36.808-71.114,72.975-86.354,53.956-28.679,137.178,37.548,176.821.471C1966.158,386.781,1953.028,362.075,1945.981,342.4Z" fill="#ebf0f1"/>
    </g>
    <g id="Group_23" data-name="Group 23">
      <g id="Group_12" data-name="Group 12">
        <path id="Path_16" data-name="Path 16" d="M1461.321,379.325c.82,0,7.924-.547,10.383-1.366s3.279-.82,2.732-2.459-2.459-3.552-2.732-4.919-4.372,1.64-4.372,1.64,3.006-3.826,1.64-4.645-1.913-1.913-3.006-1.64-2.732,2.459-2.732,2.459.546-3.552-1.093-3.278-5.192,5.464-5.465,7.65S1461.321,379.325,1461.321,379.325Z" fill="#dfe9f2"/>
        <path id="Path_17" data-name="Path 17" d="M1452.031,380.145s1.093-6.012,5.465-9.017c0,0,6.011,3.279,7.1,7.924,0,0-4.1,4.1-9.017,4.371S1452.031,380.145,1452.031,380.145Z" fill="#a8b0b6"/>
        <path id="Path_18" data-name="Path 18" d="M1376.618,423.862s9.563,3.279,27.6,2.733,33.882-3.006,40.439-5.738,20.22-12.842,22.406-15.575l1.366-4.371s-7.924-20.493-21.039-27.051-27.324-12.569-42.625-13.662-48.363,7.924-61.2,16.394,9.836,26.5,9.836,26.5Z" fill="#dfe9f2"/>
        <path id="Path_19" data-name="Path 19" d="M1473.617,407.468s3.279,2.186,9.016,1.64,4.919-1.64,6.012-2.733-3.279-2.186-3.279-2.186,4.1-.546,4.1-1.366a19.378,19.378,0,0,0-.273-3.825c-.273-1.093-1.366-1.64-1.912-3.279s-.274-3.005-2.46-2.732a44.852,44.852,0,0,0-10.656,3.825C1472.524,397.9,1473.617,407.468,1473.617,407.468Z" fill="#dfe9f2"/>
        <path id="Path_20" data-name="Path 20" d="M1467.059,398.178s-.273,3.552-1.366,5.192a7.915,7.915,0,0,0-.82,4.371s6.285,2.733,12.023,1.367l1.912-5.738c.547-1.64-1.093-7.378-2.459-7.651A14.779,14.779,0,0,0,1467.059,398.178Z" fill="#a8b0b6"/>
        <g id="Group_11" data-name="Group 11">
          <g id="Group_10" data-name="Group 10" clip-path="url(#clip-path)">
            <g id="Group_9" data-name="Group 9">
              <path id="Path_21" data-name="Path 21" d="M1381.19,431.516c-8.752-38.375-37.828-63.75-38.121-64l2.711-3.149c1.237,1.064,30.409,26.532,39.463,66.228Z" fill="#ccc"/>
              <path id="Path_22" data-name="Path 22" d="M1402.157,426.882c-6.471-46.376-42.906-61.64-43.274-61.789l1.561-3.852c.39.158,39.03,16.34,45.828,65.067Z" fill="#ccc"/>
              <path id="Path_23" data-name="Path 23" d="M1432.457,427.381c-7.4-30.947-42.062-66.559-42.411-66.915l2.967-2.91c1.459,1.487,35.821,36.8,43.487,68.859Z" fill="#ccc"/>
              <path id="Path_24" data-name="Path 24" d="M1453.186,421.476c-2-34.664-38.3-62.61-38.668-62.888l2.513-3.31c1.558,1.183,38.195,29.4,40.3,65.958Z" fill="#ccc"/>
            </g>
          </g>
        </g>
      </g>
      <path id="Path_26" data-name="Path 26" d="M1207.848,487.709s3.644,6.922,9.837,10.747,12.2,4.736,12.933,3.825-2.915-4.553-1.275-4.736,9.472,3.461,13.48,2.551-6.194-15.12-9.29-16.577-18.034.729-21.677,1.093S1207.848,487.709,1207.848,487.709Z" fill="#876441"/>
      <path id="Path_27" data-name="Path 27" d="M1117.863,330.689s-10.93-27.324-36.068-33.335-44.264,4.372-57.38,21.312-40.985,69.4-30.056,116.946,47,69.4,85.8,72.134,105.469-3.279,119.677-11.476,15.848-13.115,11.476-18.033-24.045-14.755-32.241-26.778S1117.863,330.689,1117.863,330.689Z" fill="#f3a48a"/>
      <g id="Group_13" data-name="Group 13">
        <path id="Path_28" data-name="Path 28" d="M1334.084,490.806a46.344,46.344,0,0,1-8.2-5.647c-3.1-2.915-9.473-1.275-8.926.546s4.19,8.015,8.561,8.926S1334.084,490.806,1334.084,490.806Z" fill="#cf5d43"/>
        <path id="Path_29" data-name="Path 29" d="M1316.6,504.1s10.2-21.13,47.178-22.77,63.574,6.194,77.417,13.844a7.127,7.127,0,0,0,3.461.911c2,0,9.291-2,13.116-.364s.182,6.011-2.186,6.739-8.561,1.822-11.112.729c0,0-4.918,10.93-14.208,12.751a9.077,9.077,0,0,1,3.825,4.372c1.093,2.915,2.186,3.825,2,4.918s-2.55,1.64-5.1.729-8.379-2.186-9.837-4.918c0,0-68.309,16.394-102.008-9.108a21.332,21.332,0,0,1-9.655.728c-4.918-.91-10.383-4.918-9.654-6.375s2.368.729,6.922-.547S1313.5,503.01,1316.6,504.1Z" fill="#dd6d4e"/>
      </g>
      <g id="Group_20" data-name="Group 20">
        <path id="Path_30" data-name="Path 30" d="M1455.036,460.476s-1.644,1.8,2.187,1c8.709-1.808,23.97,2.273,27.323,1.457,6.74-1.639,6.831-11.749,6.558-19.126a93.694,93.694,0,0,0-1.733-13.643c-.542-2.79-1.809-.245-2.246-1.883-1.093-4.1-1.716-4.156-5.541-4.156-3.27,0-5.038-2.053-6.312,3.837-.216,1-.4,2.01-.562,3-1.093,6.83-1.64,15.028-7.378,15.847,0,0-10.109-.273-12.3-.273S1455.036,460.476,1455.036,460.476Z" fill="#aba97b"/>
        <path id="Path_31" data-name="Path 31" d="M1489.371,430.166c-.542-2.79-1.109-5.212-1.546-6.85-1.093-4.1-1.913-6.831-5.738-6.831-3.27,0-5.541,5.589-6.815,11.479,0,0,6.815,3.458,13.282,2.456Z" fill="#e3e0a2"/>
        <path id="Path_32" data-name="Path 32" d="M1274.427,406.922s7.1-6.011,12.022-8.471,6.012-2.732,8.2-3,7.1,2.459,11.475,4.1,17.488,15.848,25.958,21.586,31.149,15.3,31.149,15.3l11.476-2.459s6.284-5.738,6.558-8.2-22.952-29.236-24.865-31.969-26.777-38.526-31.695-44.537-12.023-13.389-18.854-13.389-31.149,2.186-46.45,15.575-54.921,39.619-54.921,39.619l-2.459,22.952Z" fill="#303030"/>
        <path id="Path_33" data-name="Path 33" d="M1256.667,324.4s-3.279-3.552-3.279-4.372,41.259-33.881,42.625-34.154,2.732,16.667,14.208,24.865c0,0-.82,17.76,7.651,26.23l-36.614,36.614-1.913-3.552-15.028-36.887Z" fill="#dd6d4e"/>
        <path id="Path_34" data-name="Path 34" d="M1307.753,313.421s-14.746-10.329-16.932-18.8L1252.3,324.678a32.48,32.48,0,0,0,12.842,16.394l4.1,3.279Z" fill="#efede3"/>
        <path id="Path_35" data-name="Path 35" d="M1185.9,461.842s9.564,3.826,16.4,4.919a165.152,165.152,0,0,0,25.957,1.639c10.93,0,30.056,1.913,48.09,1.64s42.625-4.919,57.926-1.913,73.227,7.1,93.174,4.372,30.329-7.1,30.329-7.1-2.733-11.475-.546-22.132c0,0-11.75-1.639-21.586-3.552s-60.932-10.383-66.4-11.749-22.679-4.645-29.783-6.284-17.487-5.465-28.416-9.017-33.608-7.924-36.614-8.471-5.465-.546-6.284-1.912-28.144-4.919-34.975-4.919-30.6,6.558-30.6,6.558l-18.58,45.357Z" fill="#353535"/>
        <path id="Path_36" data-name="Path 36" d="M1136.442,303.638s7.1-15.574,7.924-21.859l4.1-12.022.82-14.482,18.306,2.186,17.488,13.662s1.912,16.121,1.912,16.941-1.093,2.732-2.459,2.732a21.777,21.777,0,0,0-3.005.273s-1.64,5.192-1.913,6.831-2.186,3.826-6.558,4.1-6.558-.82-6.558-.82-4.918,10.656-5.464,14.208-11.749-1.639-11.749-1.639Z" fill="#9f714a"/>
        <path id="Path_37" data-name="Path 37" d="M1185.617,276.75s1.374,10.494,1.374,11.314-1.093,2.732-2.459,2.732a21.777,21.777,0,0,0-3.005.273s-.24.055-.24-1.5,2.771-12.469,2.771-12.469S1184.274,276.447,1185.617,276.75Z" fill="#775336"/>
        <path id="Path_38" data-name="Path 38" d="M1174.7,274.948a9.262,9.262,0,0,1,3.825.182c2,.547,2.915,1.822,3.461.547s.911-2.914-.911-3.643-4.554-1.457-5.829-1.275-2.55,1.275-2.55,2.186S1174.331,275.495,1174.7,274.948Z" fill="#412c19"/>
        <path id="Path_39" data-name="Path 39" d="M1165.224,271.487s-1.822-6.739-5.283-7.832-5.829-2.915-7.1-.729.728,10.2,6.193,11.84c0,0,2.186.911.182,3.279s-7.1,6.74-9.29,6.922a18.544,18.544,0,0,1-6.011-1.093c-.547-.182-4.19-5.1-6.011-9.472s-2.742-6.95-1.467-13.325,8.573-21.3,17.132-21.1c2.92.068,4.19.182,4.19.182s-1.249-5.35.137-7.757c1.218-2.114,2.468-1.836,2.976.55.583,2.734,3.262,6.843,3.262,6.843s-.546-5.283.365-6.011,2.186,2.914,4.007,4.554a4.37,4.37,0,0,1,1.093,4.189,19.96,19.96,0,0,1,6.558.183c2.732.728,7.65,6.011,8.015,8.925s2.732,7.469,5.647,10.383,2.55,4.554,2.55,5.647-3.643,6.376-7.1,4.736-9.338-4.679-10.075-5.06a3.092,3.092,0,0,0-3.955,1,34.81,34.81,0,0,0-2.546,4.06C1167.956,274.038,1165.77,272.216,1165.224,271.487Z" fill="#412c19"/>
        <path id="Path_40" data-name="Path 40" d="M1115.312,317.391s-5.829,14.573-5.465,22.223,17.123,65.577,21.495,72.864S1143,433.972,1143,433.972s26.959,22.224,33.881,25.867,9.017,2,9.017,2,14.3-16.94,16.85-28.963,2.55-15.3,3.643-19.308,2.55-12.023,2.915-14.209.728-14.572.728-14.572-26.6-16.03-28.416-18.945S1115.312,317.391,1115.312,317.391Z" fill="#b5b573"/>
        <g id="Group_16" data-name="Group 16">
          <g id="Group_15" data-name="Group 15" clip-path="url(#clip-path-2)">
            <g id="Group_14" data-name="Group 14">
              <path id="Path_41" data-name="Path 41" d="M1162.673,455.467s30.6-18.216,40.439-53.919,3.643-35.7,3.643-35.7l-5.464-1.093s-11.838,34.578-20.4,45.54c-9.108,11.658-12.022,17.851-26.231,22.952a80.8,80.8,0,0,1-14.208,3.643s9.108,9.472,10.2,10.2S1162.673,455.467,1162.673,455.467Z" fill="#3b9a64"/>
              <path id="Path_42" data-name="Path 42" d="M1127.7,416.121s29.509,2.186,49.182-25.138,21.131-32.424,21.131-32.424l-6.193-7.286s-32.06,36.067-44.811,39.71-27.324,2.55-27.324,2.55Z" fill="#3b9a64"/>
              <path id="Path_43" data-name="Path 43" d="M1112.762,370.946s16.758,4.736,37.524-5.465a156.115,156.115,0,0,0,34.975-23.681l-3.643-9.108s-49,21.768-77.691,6.194Z" fill="#3b9a64"/>
            </g>
          </g>
        </g>
        <path id="Path_45" data-name="Path 45" d="M1166.681,389.162s24.409,20.037,41.532,20.765,35.7-21.859,40.8-31.7,7.651-14.937,10.2-16.03,12.387-5.465,12.387-5.465l6.922-8.743-10.2-13.844a30.94,30.94,0,0,0-11.658,11.294c-4.372,7.65-21.859,21.13-28.417,24.409s-14.937,8.743-17.851,8.379-21.131-12.387-22.224-13.115S1166.681,389.162,1166.681,389.162Z" fill="#9f714a"/>
        <path id="Path_46" data-name="Path 46" d="M1267.05,334.514s6.011-1.366,8.743-2.186,4.1-3.279,5.465-3.279,2.459,3.006.546,4.919-10.109,7.377-10.656,9.016,2.272,11.871,2.272,11.871l-5.715,3.809-5.027-14.313S1265.683,335.607,1267.05,334.514Z" fill="#9f714a"/>
        <path id="Path_47" data-name="Path 47" d="M1160.351,271.123s-.137-3.552-2.459-4.508-2.46.41-2.05,1.776,1.093,3.142,2.05,2.869S1160.078,271.806,1160.351,271.123Z" fill="#775336"/>
        <path id="Path_48" data-name="Path 48" d="M1178.519,285.084s-3.218-2.3-5.977-2.483-2.758,3.494-1.747,3.77,3.954.459,5.7,1.287S1179.254,286,1178.519,285.084Z" fill="#ac614e"/>
        <circle id="Ellipse_1" data-name="Ellipse 1" cx="1.351" cy="1.351" r="1.351" transform="translate(1176.146 278.311)" fill="#412c19"/>
        <path id="Path_49" data-name="Path 49" d="M1137.171,300.633s-13.48,3.643-18.58,9.472-6.558,21.13-6.193,25.5,11.293,17.487,18.58,24.045,33.152,33.517,35.338,33.153,23.317-20.4,25.867-28.417c0,0,1.093-1.093-.364-2.915s-8.744-12.022-12.023-20.037-10.216-24.056-18.58-30.6S1142.636,300.268,1137.171,300.633Z" fill="#c1c57c"/>
        <g id="Group_19" data-name="Group 19">
          <g id="Group_18" data-name="Group 18" clip-path="url(#clip-path-3)">
            <g id="Group_17" data-name="Group 17">
              <path id="Path_50" data-name="Path 50" d="M1112.762,370.946s16.758,4.736,37.524-5.465a156.115,156.115,0,0,0,34.975-23.681l-3.643-9.108s-49,21.768-77.691,6.194Z" fill="#4ca66f"/>
              <path id="Path_51" data-name="Path 51" d="M1105.84,324.4s17.76,3.552,33.881.82a142.018,142.018,0,0,0,29.783-8.744l-4.1-6.011-8.2-5.191s-25.137,7.1-42.9,2.732Z" fill="#4ca66f"/>
              <path id="Path_52" data-name="Path 52" d="M1146.279,377.685s28.417-7.1,40.166-28.689l5.738,7.377s-25.411,32.242-33.062,33.335Z" fill="#4ca66f"/>
            </g>
          </g>
        </g>
        <path id="Path_54" data-name="Path 54" d="M1267.869,345.444a15.029,15.029,0,0,0-1.092,10.109c1.366,5.738,9.016,20.22,9.016,20.22l35.248-34.155s-4.372-21.039-3.552-28.143Z" fill="#fcf9ee"/>
      </g>
      <g id="Group_22" data-name="Group 22">
        <path id="Path_55" data-name="Path 55" d="M1152.29,475.5s-7.65-36.067-8.743-51.368-8.2-49.183-24.592-66.67-31.695-21.859-37.16-21.859-15.848,21.312-15.848,21.312l51.916,92.9Z" fill="#f3a48a"/>
        <g id="Group_21" data-name="Group 21">
          <path id="Path_56" data-name="Path 56" d="M1185.1,467.509a.782.782,0,0,1-.427-.127c-11.114-7.294-38.792-29.419-39.955-30.582-1.085-1.085-1.685-8.37-1.946-12.617-1.2-16.809-8.882-49.651-24.381-66.185-16.027-17.095-30.944-21.612-36.592-21.612a.779.779,0,1,1,0-1.558c5.882,0,21.337,4.62,37.729,22.105,17.763,18.948,23.925,54.895,24.8,67.147.308,5.02.974,10.893,1.514,11.642,1.131,1.129,28.626,23.1,39.686,30.357a.779.779,0,0,1-.428,1.43Z" fill="#f47f64"/>
          <path id="Path_57" data-name="Path 57" d="M1141.36,446.227a.778.778,0,0,1-.758-.6c-16.133-69.9-59.851-95.971-60.291-96.227a.779.779,0,1,1,.782-1.347c.446.258,44.745,26.669,61.027,97.223a.779.779,0,0,1-.584.935A.766.766,0,0,1,1141.36,446.227Z" fill="#f47f64"/>
        </g>
      </g>
    </g>
  </g>
</svg>
