<svg xmlns="http://www.w3.org/2000/svg" width="196.771" height="29.481" viewBox="0 0 196.771 29.481">
  <g id="Group_1" data-name="Group 1" transform="translate(-142 -33)">
    <g id="Group_4" data-name="Group 4" transform="translate(142 33)">
      <g id="Group_1-2" data-name="Group 1" transform="translate(37.809 2.912)">
        <path id="Path_1" data-name="Path 1" d="M529.755,76.757l1.506-.416-1.013-2.83H525.5l-.986,2.7,2,.52V78h-5.843V76.757l1.48-.441,5.688-13.685h2.933l5.012,13.659,1.3.442V78h-7.323Zm-3.713-4.674h3.687l-1.74-4.856h-.154Z" transform="translate(-520.666 -59.748)" fill="#00454f"/>
        <path id="Path_2" data-name="Path 2" d="M559.444,65.176a4.874,4.874,0,0,0-2.545-.7c-1.324,0-2.39.648-2.39,1.869,0,1.3,1.585,1.713,3.376,2.285,2.233.7,4.726,1.661,4.726,4.882,0,3.376-2.8,4.7-6.622,4.7a14.3,14.3,0,0,1-5.142-1.039V72.836h1.9l.675,2.649a5.67,5.67,0,0,0,2.83.935c1.48,0,2.649-.546,2.649-1.922,0-1.325-2.207-1.766-4.233-2.571-1.843-.7-3.557-1.792-3.557-4.44,0-3.194,2.623-4.856,6.024-4.856a11.077,11.077,0,0,1,4.856.987v4.024h-1.9Z" transform="translate(-530.153 -59.748)" fill="#00454f"/>
        <path id="Path_3" data-name="Path 3" d="M568.805,75.626l1.713-.675V67.212h-1.947V65.888l4.154-1.168h1.636V74.847l1.791.754v1.272h-7.348ZM572.6,59.033c1.48,0,2.26.675,2.26,1.974,0,1.323-.8,2.025-2.26,2.025-1.375,0-2.285-.7-2.285-2.025C570.311,59.708,571.221,59.033,572.6,59.033Z" transform="translate(-535.724 -58.617)" fill="#00454f"/>
        <path id="Path_4" data-name="Path 4" d="M596.174,78.233l1.636-.675v-4.6c0-2.207-1.013-3.012-2.545-3.012a6.371,6.371,0,0,0-1.506.207,7.4,7.4,0,0,1,.182,1.609v5.767l1.455.675v1.272H588.54V78.233l1.532-.649V72.962c0-2.207-1.039-3.012-2.544-3.012a6.414,6.414,0,0,0-1.35.182v7.374l1.532.7v1.272h-7.115V78.233l1.74-.675V69.819h-1.947V68.5l4.129-1.168h1.039l.493,1.584a6.9,6.9,0,0,1,4.311-1.584,3.224,3.224,0,0,1,3.09,1.869,6.949,6.949,0,0,1,4.648-1.869c2,0,3.584,1.273,3.584,4.439v5.767l1.61.675v1.272h-7.115Z" transform="translate(-539.438 -61.224)" fill="#00454f"/>
        <path id="Path_5" data-name="Path 5" d="M612.716,83.634l1.869-.752V69.819h-1.973V68.5l4.155-1.168h1.013l.416,1.246a6.574,6.574,0,0,1,3.713-1.246c3.012,0,5.037,1.79,5.037,5.764,0,4.258-3.634,6.6-7.167,6.6-.468,0-.909-.026-1.35-.052v3.247l1.662.727V84.88h-7.374Zm5.712-13.97v8.05c.286.025.572.051.831.051,2.363,0,3.505-1.636,3.505-4.519,0-2.545-1.583-3.687-3.4-3.687A5.637,5.637,0,0,0,618.428,69.664Z" transform="translate(-549.567 -61.224)" fill="#00454f"/>
        <path id="Path_6" data-name="Path 6" d="M633.03,75.435l1.715-.675V60.919H632.8V59.6l4.129-1.169h1.662v16.23l1.792.754v1.272h-7.35Z" transform="translate(-555.912 -58.426)" fill="#00454f"/>
        <path id="Path_7" data-name="Path 7" d="M647.831,73.663a3.716,3.716,0,0,0,3.895,3.661,9.035,9.035,0,0,0,3.557-.754l.467.6a8.311,8.311,0,0,1-5.893,2.519c-3.636,0-6.155-1.948-6.155-5.843a6.333,6.333,0,0,1,6.621-6.517c3.48,0,5.714,2.18,5.739,6.336Zm.026-1.454,4.05-.234c-.051-1.87-.7-2.909-1.9-2.909C648.921,69.066,648.064,69.95,647.857,72.208Z" transform="translate(-559.339 -61.224)" fill="#00454f"/>
        <path id="Path_8" data-name="Path 8" d="M672.564,78.11l-3.973-13.347-1.22-.52V62.971h7.582v1.247l-1.922.623,2.052,7.92h.156l3.349-9.79h2.6l3.687,9.79h.156l2.025-7.686-2.025-.832V62.971h6v1.247l-1.428.675L685.028,78.11h-2.805l-3.245-9.452h-.156l-3.661,9.452Z" transform="translate(-566.779 -59.855)" fill="#00454f"/>
        <path id="Path_9" data-name="Path 9" d="M704.782,79.687c-3.194,0-6.284-1.143-6.284-5.92a6.324,6.324,0,0,1,6.492-6.44c3.454,0,6.284,1.609,6.284,6.31C711.274,77.9,707.82,79.687,704.782,79.687Zm-.051-10.776c-1.766,0-2.077,1.947-2.077,4.311,0,2.908.727,4.777,2.311,4.777,1.661,0,2.155-1.818,2.155-4.05C707.12,71.507,706.678,68.911,704.73,68.911Z" transform="translate(-576.563 -61.224)" fill="#00454f"/>
        <path id="Path_10" data-name="Path 10" d="M717.584,78.233l1.532-.6V69.819h-1.947V68.5l4.129-1.168h1.038l.415,1.3a7.12,7.12,0,0,1,3.48-1.3,4.686,4.686,0,0,1,1.194.129l-.415,3.792h-.571L723.4,69.586h-.441v7.763l2,.858v1.272h-7.375Z" transform="translate(-582.432 -61.224)" fill="#00454f"/>
        <path id="Path_11" data-name="Path 11" d="M746.132,75.357v1.324h-4.726l-.442-1.48a4.687,4.687,0,0,1-3.792,1.688c-2.986,0-4.933-2.26-4.933-5.843a6.384,6.384,0,0,1,6.517-6.492,5.175,5.175,0,0,1,2,.39V60.919h-1.948V59.6l4.129-1.169H744.6V74.6Zm-5.375-9.141a6.741,6.741,0,0,0-1.273-.13c-1.558,0-3.116,1.168-3.116,4.207,0,2.492,1.4,4.076,3.142,4.076a5.431,5.431,0,0,0,1.247-.156Z" transform="translate(-587.169 -58.426)" fill="#00454f"/>
      </g>
      <g id="Group_3" data-name="Group 3">
        <g id="Group_2" data-name="Group 2">
          <path id="Path_12" data-name="Path 12" d="M488.755,56.66l-.079-.241-.229-.109a25.746,25.746,0,0,0-20.513,0l-.229.109-.078.241a46.859,46.859,0,0,0-2.1,12.259,46.859,46.859,0,0,0,2.1,12.259l.078.241.229.109a25.753,25.753,0,0,0,20.513,0l.229-.109.079-.241a46.859,46.859,0,0,0,2.1-12.259A46.859,46.859,0,0,0,488.755,56.66Zm-1.038,23.911a24.629,24.629,0,0,1-19.05,0A45.791,45.791,0,0,1,466.7,68.92a45.791,45.791,0,0,1,1.97-11.652,24.629,24.629,0,0,1,19.05,0,45.885,45.885,0,0,1,1.97,11.652A45.885,45.885,0,0,1,487.717,80.571Z" transform="translate(-465.525 -54.179)" fill="#00454f"/>
        </g>
        <path id="Path_13" data-name="Path 13" d="M487.306,69.171a13.023,13.023,0,0,1-3.007-7.895V60.8l-.468-.1a16.143,16.143,0,0,0-2.943-.268,17.54,17.54,0,0,0-3.014.267l-.476.092v.485a13.081,13.081,0,0,1-3.007,7.895,1.692,1.692,0,0,0-.208,1.908l5.779,10.134a.976.976,0,0,0,1.773,0l5.78-10.134A1.7,1.7,0,0,0,487.306,69.171Zm-5.741-7.549h0c.2.009.392.023.572.038l.044,0,.149.014.128.012c.265.027.5.058.677.084a12.154,12.154,0,0,0,.289,2.133,16.094,16.094,0,0,0-5.155.01,12.1,12.1,0,0,0,.29-2.139,16.817,16.817,0,0,1,2.327-.171C481.121,61.606,481.349,61.611,481.565,61.622Zm4.93,8.877-5.06,8.866V71.028h2.111V69.854h-2.111V67.712h-1.174v2.142h-2.112v1.174h2.112V79.37L475.2,70.5a.546.546,0,0,1,.06-.54,14.516,14.516,0,0,0,2.665-4.781,14.069,14.069,0,0,1,2.962-.3,14.453,14.453,0,0,1,2.881.287,14.447,14.447,0,0,0,2.669,4.795A.543.543,0,0,1,486.495,70.5Z" transform="translate(-468.182 -56.144)" fill="#00454f"/>
      </g>
    </g>
  </g>
</svg>
