<svg xmlns="http://www.w3.org/2000/svg" width="415" height="25.186" viewBox="0 0 415 25.186">
  <g id="Group_1002" data-name="Group 1002" transform="translate(-112.725 -8914)">
    <path id="Path_530" data-name="Path 530" d="M233.672,8939.186H141.405L140.392,8914h87.764Z" transform="translate(-15.298)" fill="#00454f"/>
    <circle id="Ellipse_13" data-name="Ellipse 13" cx="12.488" cy="12.488" r="12.488" transform="translate(112.725 8914)" fill="#00454f"/>
    <path id="Path_531" data-name="Path 531" d="M211.787,8940.032H134.1L133.377,8922h74.461Z" transform="translate(-11.419 -4.423)" fill="#00454f"/>
    <path id="Path_1897" data-name="Path 1897" d="M211.787,8940.032H134.1L133.377,8922h74.461Z" transform="translate(-8.164 -4.574)" fill="#00454f"/>
    <path id="Path_532" data-name="Path 532" d="M408.034,8940.032H348.326L344.377,8922h59.708Z" transform="translate(-128.089 -4.423)" fill="#f2f2f2"/>
    <path id="Path_533" data-name="Path 533" d="M567.787,8940.032H493.326L489.377,8922h74.461Z" transform="translate(-208.264 -4.423)" fill="#f2f2f2"/>
    <path id="Path_534" data-name="Path 534" d="M745.787,8940.032H671.326L667.377,8922h74.461Z" transform="translate(-306.686 -4.423)" fill="#f2f2f2"/>
    <path id="Path_535" data-name="Path 535" d="M923.787,8940.032H849.326L845.377,8922h78.515Z" transform="translate(-405.109 -4.423)" fill="#f2f2f2"/>
    <circle id="Ellipse_14" data-name="Ellipse 14" cx="8.941" cy="8.941" r="8.941" transform="translate(509.842 8917.576)" fill="#f2f2f2"/>
    <circle id="Ellipse_15" data-name="Ellipse 15" cx="8.941" cy="8.941" r="8.941" transform="translate(113.016 8917.651)" fill="#00454f"/>
  </g>
</svg>
