<?xml version="1.0" encoding="utf-8"?>
<!-- Generator: Adobe Illustrator 25.4.1, SVG Export Plug-In . SVG Version: 6.00 Build 0)  -->
<svg version="1.1" id="Layer_1" xmlns="http://www.w3.org/2000/svg" xmlns:xlink="http://www.w3.org/1999/xlink" x="0px" y="0px"
	 viewBox="0 0 118 105" style="enable-background:new 0 0 118 105;" xml:space="preserve">
<style type="text/css">
	.st0{fill:#EBF0F1;}
	.st1{fill:#DFE9F2;}
	.st2{fill:#A8B0B6;}
	.st3{clip-path:url(#SVGID_00000098219545969564379990000001533349579677384632_);}
	.st4{fill:#CCCCCC;}
	.st5{fill:#876441;}
	.st6{fill:#F3A48A;}
	.st7{fill:#CF5D43;}
	.st8{fill:#DD6D4E;}
	.st9{fill:#ABA97B;}
	.st10{fill:#E3E0A2;}
	.st11{fill:#303030;}
	.st12{fill:#EFEDE3;}
	.st13{fill:#353535;}
	.st14{fill:#9F714A;}
	.st15{fill:#775336;}
	.st16{fill:#412C19;}
	.st17{fill:#B5B573;}
	.st18{clip-path:url(#SVGID_00000038399167985341620010000003131138214442649783_);}
	.st19{fill:#3B9A64;}
	.st20{fill:#AC614E;}
	.st21{fill:#C1C57C;}
	.st22{clip-path:url(#SVGID_00000038399467246253454560000014384234035657192073_);}
	.st23{fill:#4CA66F;}
	.st24{fill:#FCF9EE;}
	.st25{fill:#F47F64;}
	.st26{fill:#668F95;}
	.st27{fill:#EBE6D5;}
	.st28{fill:#005D68;}
	.st29{fill:#FFC099;}
	.st30{fill:#003239;}
	.st31{fill:#DF8E7A;}
	.st32{fill:#B77B67;}
	.st33{fill:#68472F;}
	.st34{fill:#FBA983;}
	.st35{fill:#FFFFFF;}
	.st36{fill:#F88D61;}
	.st37{fill:#C79072;}
	.st38{fill:#573C28;}
	.st39{fill:#FFA16C;}
	.st40{fill:#F5F5F5;}
	.st41{fill:#E1E1E1;}
	.st42{fill:#ECECEC;}
	.st43{fill:#FAFAFA;}
	.st44{fill:#1A2E35;}
	.st45{fill:#375A64;}
	.st46{opacity:0.3;}
	.st47{fill:#498269;}
	.st48{fill:#946962;}
	.st49{fill:#6F4540;}
	.st50{fill:#CE4F41;}
	.st51{opacity:0.6;}
	.st52{fill:#305A46;}
	.st53{fill:#F7D858;}
	.st54{opacity:0.2;}
	.st55{opacity:0.4;}
	.st56{fill:#101010;}
	.st57{fill:#6AB792;}
	.st58{fill:#D25F3B;}
	.st59{fill:#E57E5B;}
	.st60{fill:none;stroke:#D25F3B;stroke-width:1.3008;stroke-linecap:round;stroke-linejoin:round;stroke-miterlimit:10;}
	.st61{fill:none;stroke:#498269;stroke-width:1.8047;stroke-linecap:round;stroke-linejoin:round;stroke-miterlimit:10;}
	.st62{fill:#39ACB2;}
	.st63{clip-path:url(#SVGID_00000012469945000348205240000017918182620055313046_);}
	.st64{fill:none;stroke:#305A46;stroke-width:3.1006;stroke-linecap:round;stroke-linejoin:round;stroke-miterlimit:10;}
	.st65{fill:#EC8A63;}
	.st66{fill:#FFB890;}
	.st67{fill:none;stroke:#EC8A63;stroke-width:2.028;stroke-linecap:round;stroke-linejoin:round;stroke-miterlimit:10;}
	.st68{opacity:0.26;fill:#FFFFFF;}
	.st69{fill:none;stroke:#FFFFFF;stroke-width:1.9299;stroke-linecap:round;stroke-linejoin:round;stroke-miterlimit:10;}
	.st70{fill:#DAF0FA;}
	.st71{fill:#FFBF9D;}
	.st72{fill:#FF9A6C;}
	.st73{fill:none;stroke:#44555B;stroke-miterlimit:10;}
	.st74{fill:#C78976;}
	.st75{fill:#BF654E;}
	.st76{fill:none;stroke:#44555B;stroke-width:0.05;stroke-miterlimit:10;}
	.st77{fill:none;stroke:#44555B;stroke-width:0.0469;stroke-miterlimit:10;}
	.st78{fill:#FF735D;}
	.st79{clip-path:url(#SVGID_00000042707103304754707180000010322543258723058346_);}
	.st80{fill:#FFDAD9;}
	.st81{fill:#DCDFE0;}
	.st82{fill:none;stroke:#B6E1F4;stroke-width:5.3697;stroke-linecap:round;stroke-linejoin:round;stroke-miterlimit:10;}
	.st83{fill:none;stroke:#B6E1F4;stroke-width:5.0288;stroke-miterlimit:10;}
	.st84{opacity:0.44;fill:#B6E1F4;}
	.st85{fill:#E07280;}
	.st86{fill:#7E5780;}
	.st87{opacity:0.22;fill:#7E5780;}
	.st88{fill:none;stroke:#FFD0C5;stroke-width:0.3194;stroke-miterlimit:10;}
	.st89{fill:none;stroke:#FFD0C5;stroke-width:0.3836;stroke-miterlimit:10;}
	.st90{fill:none;stroke:#401A49;stroke-width:1.5344;stroke-linecap:round;stroke-linejoin:round;stroke-miterlimit:10;}
	.st91{fill:#401A49;}
	.st92{fill:none;stroke:#161C3E;stroke-width:1.1265;stroke-linecap:round;stroke-linejoin:round;stroke-miterlimit:10;}
	.st93{opacity:0.09;fill:#E07280;}
	.st94{fill:none;stroke:#401A49;stroke-width:0.9884;stroke-linecap:round;stroke-linejoin:round;stroke-miterlimit:10;}
	.st95{fill:none;stroke:#401A49;stroke-width:0.7672;stroke-linecap:round;stroke-linejoin:round;stroke-miterlimit:10;}
	.st96{fill:#994975;}
	.st97{fill:#FF8A9A;}
	.st98{fill:none;stroke:#161C3E;stroke-width:1.0685;stroke-linecap:round;stroke-linejoin:round;stroke-miterlimit:10;}
	.st99{opacity:0.35;fill:#EF5D6B;}
	.st100{fill:none;stroke:#401A49;stroke-width:0.9376;stroke-linecap:round;stroke-linejoin:round;stroke-miterlimit:10;}
	.st101{fill:#FFF5EB;}
	.st102{fill:#F2B2D6;}
	.st103{fill:none;stroke:#FFF5EB;stroke-width:0.8381;stroke-linecap:round;stroke-linejoin:round;stroke-miterlimit:10;}
	.st104{opacity:0.22;fill:#401A49;}
	.st105{fill:none;stroke:#FFDAD9;stroke-width:0.8381;stroke-miterlimit:10;}
	.st106{fill:none;stroke:#FFDAD9;stroke-width:0.8381;stroke-linecap:round;stroke-linejoin:round;stroke-miterlimit:10;}
	.st107{fill:none;stroke:#401A49;stroke-width:1.6763;stroke-linecap:round;stroke-linejoin:round;stroke-miterlimit:10;}
	.st108{fill:#FFD0C5;}
	.st109{fill:#FDB22C;}
	.st110{fill:#1A8B91;}
	.st111{fill:none;stroke:#000000;stroke-width:0.8147;stroke-linecap:round;stroke-linejoin:round;stroke-miterlimit:10;}
	.st112{fill:#ECA079;}
	.st113{fill:#FDF1F5;}
	.st114{fill:#E6C6CE;}
	.st115{fill:#862904;}
	.st116{fill:#DC845E;}
	.st117{fill:none;stroke:#000000;stroke-width:0.848;stroke-linecap:round;stroke-linejoin:round;stroke-miterlimit:10;}
	.st118{clip-path:url(#XMLID_00000123418762372395406770000004532461820575616138_);}
	.st119{clip-path:url(#XMLID_00000086656678295898888150000018139579589531913611_);}
	.st120{fill:none;stroke:#000000;stroke-width:0.8027;stroke-linecap:round;stroke-linejoin:round;stroke-miterlimit:10;}
	.st121{fill:none;stroke:#FFFFFF;stroke-width:2.99;stroke-linecap:round;stroke-linejoin:round;}
	.st122{fill:none;stroke:#FFFFFF;stroke-width:2.99;stroke-linecap:round;stroke-linejoin:round;stroke-dasharray:18.4657,18.4657;}
	.st123{fill:none;stroke:#000000;stroke-width:0.9784;stroke-linecap:round;stroke-linejoin:round;stroke-miterlimit:10;}
	.st124{clip-path:url(#XMLID_00000022542082995010545770000001464260283789929396_);}
	.st125{fill:none;stroke:#000000;stroke-width:0.682;stroke-linecap:round;stroke-linejoin:round;stroke-miterlimit:10;}
	.st126{fill:#AE3700;}
	.st127{fill:none;stroke:#FFFFFF;stroke-width:1.7082;stroke-linecap:round;stroke-linejoin:round;stroke-miterlimit:10;}
	.st128{fill:none;stroke:#000000;stroke-width:0.9976;stroke-linecap:round;stroke-linejoin:round;stroke-miterlimit:10;}
	.st129{fill:#528E72;}
	.st130{fill:#F0DBE0;}
	.st131{fill:#89331A;}
	.st132{fill:none;stroke:#CCDADC;stroke-linecap:round;stroke-linejoin:round;}
	.st133{opacity:0.45;fill:#F7E3C7;enable-background:new    ;}
	.st134{fill:#222222;}
	.st135{fill:#F47365;}
	.st136{fill:none;stroke:#222222;stroke-width:0.211;stroke-linecap:round;stroke-linejoin:round;}
	.st137{opacity:0.5;fill:#F43D4F;enable-background:new    ;}
	.st138{fill:#F43D4F;}
	.st139{fill:none;stroke:#FFF7EE;stroke-width:0.422;stroke-miterlimit:10;}
	.st140{fill:#FBB244;}
	.st141{fill:#FFF7EE;}
	.st142{opacity:0.22;}
	.st143{clip-path:url(#SVGID_00000173143113202261069690000014910026356783231917_);}
	.st144{fill:none;stroke:#FFFFFF;stroke-width:0.422;stroke-linecap:round;stroke-linejoin:round;}
	.st145{fill:none;stroke:#222222;stroke-width:2.166;stroke-linecap:round;stroke-linejoin:round;}
	.st146{fill:none;stroke:#222222;stroke-width:2.1655;stroke-linecap:round;stroke-linejoin:round;stroke-miterlimit:3.9991;}
	.st147{clip-path:url(#SVGID_00000097478540148391637070000003003126183739970217_);}
	.st148{fill:none;stroke:#222222;stroke-width:0.422;stroke-linecap:round;stroke-linejoin:round;}
	.st149{fill:#00454F;}
	.st150{fill:#B0B4B5;}
	.st151{fill-rule:evenodd;clip-rule:evenodd;fill:#00454F;}
	.st152{fill:#D2DADB;}
	.st153{fill:none;stroke:#FFFFFF;stroke-width:3.3017;stroke-miterlimit:10;}
	.st154{fill:#05454F;}
	.st155{fill:none;stroke:#707070;}
	.st156{fill:#F5F7F6;}
</style>
<g>
	<path class="st149" d="M117.584,31.223l-6.077-12.258l6.008-11.055c0.551-1.014,0.637-2.216,0.236-3.299
		c-0.4-1.082-1.249-1.938-2.327-2.349C104.497-1.9,95.549,1.116,88.359,3.538c-8.183,2.757-13.587,4.579-20.531-2.366
		c-0.002-0.002-0.004-0.003-0.005-0.004c-0.184-0.184-0.387-0.348-0.604-0.493c-0.101-0.068-0.21-0.114-0.316-0.171
		C66.78,0.435,66.661,0.36,66.53,0.306c-0.131-0.054-0.267-0.085-0.401-0.125c-0.115-0.034-0.226-0.079-0.346-0.102
		c-0.242-0.048-0.488-0.071-0.735-0.074C65.032,0.005,65.016,0,65,0s-0.032,0.005-0.048,0.005c-0.247,0.003-0.492,0.026-0.735,0.074
		c-0.12,0.024-0.23,0.068-0.345,0.102c-0.135,0.04-0.271,0.071-0.402,0.125c-0.13,0.054-0.249,0.129-0.372,0.196
		c-0.106,0.057-0.216,0.104-0.317,0.172c-0.217,0.145-0.419,0.31-0.604,0.493c-0.002,0.002-0.004,0.003-0.005,0.004c0,0,0,0,0,0
		c-0.186,0.186-0.352,0.391-0.499,0.61c-0.066,0.099-0.111,0.206-0.167,0.308c-0.069,0.126-0.145,0.246-0.2,0.38
		c-0.055,0.133-0.087,0.271-0.127,0.408c-0.033,0.113-0.077,0.221-0.1,0.338C61.028,3.475,61,3.737,61,4v74.7
		c-4.653,1.653-8,6.087-8,11.3c0,6.617,5.383,12,12,12s12-5.383,12-12c0-5.213-3.347-9.647-8-11.3V39.092
		c3.846,2.137,7.616,2.92,11.281,2.92c5.236,0,10.26-1.591,14.982-3.088c6.116-1.938,11.894-3.768,17.607-2.086
		c1.523,0.449,3.171-0.047,4.192-1.266C118.086,34.354,118.29,32.647,117.584,31.223z M65,94c-2.206,0-4-1.794-4-4s1.794-4,4-4
		s4,1.794,4,4S67.206,94,65,94z M103.416,20.658l3.738,7.539c-5.085,0.18-9.892,1.702-14.307,3.101
		C83.994,34.103,76.913,36.339,69,29.273V11.903c7.869,3.945,15.238,1.465,21.913-0.783c5.603-1.887,10.954-3.691,17.178-2.622
		l-4.605,8.474C102.863,18.115,102.838,19.491,103.416,20.658z"/>
	<path class="st149" d="M48.472,86.854l-14-11c-1.74-1.366-4.253-1.062-5.617,0.674s-1.062,4.251,0.674,5.617L34.434,86H4
		c-2.209,0-4,1.791-4,4s1.791,4,4,4h30.434l-4.906,3.854c-1.736,1.365-2.038,3.88-0.674,5.617c0.789,1.004,1.963,1.529,3.148,1.529
		c0.864,0,1.735-0.279,2.469-0.854l14-11C49.437,92.387,50,91.228,50,90S49.437,87.613,48.472,86.854z"/>
</g>
</svg>
