<?xml version="1.0" encoding="utf-8"?>
<!-- Generator: Adobe Illustrator 25.4.1, SVG Export Plug-In . SVG Version: 6.00 Build 0)  -->
<svg version="1.1" id="Layer_1" xmlns="http://www.w3.org/2000/svg" xmlns:xlink="http://www.w3.org/1999/xlink" x="0px" y="0px"
	 viewBox="0 0 119.074 109.074" style="enable-background:new 0 0 119.074 109.074;" xml:space="preserve">
<style type="text/css">
	.st0{fill:#EBF0F1;}
	.st1{fill:#DFE9F2;}
	.st2{fill:#A8B0B6;}
	.st3{clip-path:url(#SVGID_00000035527278985085268610000001327313723159797662_);}
	.st4{fill:#CCCCCC;}
	.st5{fill:#876441;}
	.st6{fill:#F3A48A;}
	.st7{fill:#CF5D43;}
	.st8{fill:#DD6D4E;}
	.st9{fill:#ABA97B;}
	.st10{fill:#E3E0A2;}
	.st11{fill:#303030;}
	.st12{fill:#EFEDE3;}
	.st13{fill:#353535;}
	.st14{fill:#9F714A;}
	.st15{fill:#775336;}
	.st16{fill:#412C19;}
	.st17{fill:#B5B573;}
	.st18{clip-path:url(#SVGID_00000026850699180280296200000002953263335193218235_);}
	.st19{fill:#3B9A64;}
	.st20{fill:#AC614E;}
	.st21{fill:#C1C57C;}
	.st22{clip-path:url(#SVGID_00000021804405789005888650000013967531017937231016_);}
	.st23{fill:#4CA66F;}
	.st24{fill:#FCF9EE;}
	.st25{fill:#F47F64;}
	.st26{fill:#668F95;}
	.st27{fill:#EBE6D5;}
	.st28{fill:#005D68;}
	.st29{fill:#FFC099;}
	.st30{fill:#003239;}
	.st31{fill:#DF8E7A;}
	.st32{fill:#B77B67;}
	.st33{fill:#68472F;}
	.st34{fill:#FBA983;}
	.st35{fill:#FFFFFF;}
	.st36{fill:#F88D61;}
	.st37{fill:#C79072;}
	.st38{fill:#573C28;}
	.st39{fill:#FFA16C;}
	.st40{fill:#F5F5F5;}
	.st41{fill:#E1E1E1;}
	.st42{fill:#ECECEC;}
	.st43{fill:#FAFAFA;}
	.st44{fill:#1A2E35;}
	.st45{fill:#375A64;}
	.st46{opacity:0.3;}
	.st47{fill:#498269;}
	.st48{fill:#946962;}
	.st49{fill:#6F4540;}
	.st50{fill:#CE4F41;}
	.st51{opacity:0.6;}
	.st52{fill:#305A46;}
	.st53{fill:#F7D858;}
	.st54{opacity:0.2;}
	.st55{opacity:0.4;}
	.st56{fill:#101010;}
	.st57{fill:#6AB792;}
	.st58{fill:#D25F3B;}
	.st59{fill:#E57E5B;}
	.st60{fill:none;stroke:#D25F3B;stroke-width:1.3008;stroke-linecap:round;stroke-linejoin:round;stroke-miterlimit:10;}
	.st61{fill:none;stroke:#498269;stroke-width:1.8047;stroke-linecap:round;stroke-linejoin:round;stroke-miterlimit:10;}
	.st62{fill:#39ACB2;}
	.st63{clip-path:url(#SVGID_00000024692715476292185360000001737403768918943899_);}
	.st64{fill:none;stroke:#305A46;stroke-width:3.1006;stroke-linecap:round;stroke-linejoin:round;stroke-miterlimit:10;}
	.st65{fill:#EC8A63;}
	.st66{fill:#FFB890;}
	.st67{fill:none;stroke:#EC8A63;stroke-width:2.028;stroke-linecap:round;stroke-linejoin:round;stroke-miterlimit:10;}
	.st68{opacity:0.26;fill:#FFFFFF;}
	.st69{fill:none;stroke:#FFFFFF;stroke-width:1.9299;stroke-linecap:round;stroke-linejoin:round;stroke-miterlimit:10;}
	.st70{fill:#DAF0FA;}
	.st71{fill:#FFBF9D;}
	.st72{fill:#FF9A6C;}
	.st73{fill:none;stroke:#44555B;stroke-miterlimit:10;}
	.st74{fill:#C78976;}
	.st75{fill:#BF654E;}
	.st76{fill:none;stroke:#44555B;stroke-width:0.05;stroke-miterlimit:10;}
	.st77{fill:none;stroke:#44555B;stroke-width:0.0469;stroke-miterlimit:10;}
	.st78{fill:#FF735D;}
	.st79{clip-path:url(#SVGID_00000130647252729207968130000004139506281040532395_);}
	.st80{fill:#FFDAD9;}
	.st81{fill:#DCDFE0;}
	.st82{fill:none;stroke:#B6E1F4;stroke-width:5.3697;stroke-linecap:round;stroke-linejoin:round;stroke-miterlimit:10;}
	.st83{fill:none;stroke:#B6E1F4;stroke-width:5.0288;stroke-miterlimit:10;}
	.st84{opacity:0.44;fill:#B6E1F4;}
	.st85{fill:#E07280;}
	.st86{fill:#7E5780;}
	.st87{opacity:0.22;fill:#7E5780;}
	.st88{fill:none;stroke:#FFD0C5;stroke-width:0.3194;stroke-miterlimit:10;}
	.st89{fill:none;stroke:#FFD0C5;stroke-width:0.3836;stroke-miterlimit:10;}
	.st90{fill:none;stroke:#401A49;stroke-width:1.5344;stroke-linecap:round;stroke-linejoin:round;stroke-miterlimit:10;}
	.st91{fill:#401A49;}
	.st92{fill:none;stroke:#161C3E;stroke-width:1.1265;stroke-linecap:round;stroke-linejoin:round;stroke-miterlimit:10;}
	.st93{opacity:0.09;fill:#E07280;}
	.st94{fill:none;stroke:#401A49;stroke-width:0.9884;stroke-linecap:round;stroke-linejoin:round;stroke-miterlimit:10;}
	.st95{fill:none;stroke:#401A49;stroke-width:0.7672;stroke-linecap:round;stroke-linejoin:round;stroke-miterlimit:10;}
	.st96{fill:#994975;}
	.st97{fill:#FF8A9A;}
	.st98{fill:none;stroke:#161C3E;stroke-width:1.0685;stroke-linecap:round;stroke-linejoin:round;stroke-miterlimit:10;}
	.st99{opacity:0.35;fill:#EF5D6B;}
	.st100{fill:none;stroke:#401A49;stroke-width:0.9376;stroke-linecap:round;stroke-linejoin:round;stroke-miterlimit:10;}
	.st101{fill:#FFF5EB;}
	.st102{fill:#F2B2D6;}
	.st103{fill:none;stroke:#FFF5EB;stroke-width:0.8381;stroke-linecap:round;stroke-linejoin:round;stroke-miterlimit:10;}
	.st104{opacity:0.22;fill:#401A49;}
	.st105{fill:none;stroke:#FFDAD9;stroke-width:0.8381;stroke-miterlimit:10;}
	.st106{fill:none;stroke:#FFDAD9;stroke-width:0.8381;stroke-linecap:round;stroke-linejoin:round;stroke-miterlimit:10;}
	.st107{fill:none;stroke:#401A49;stroke-width:1.6763;stroke-linecap:round;stroke-linejoin:round;stroke-miterlimit:10;}
	.st108{fill:#FFD0C5;}
	.st109{fill:#FDB22C;}
	.st110{fill:#1A8B91;}
	.st111{fill:none;stroke:#000000;stroke-width:0.8147;stroke-linecap:round;stroke-linejoin:round;stroke-miterlimit:10;}
	.st112{fill:#ECA079;}
	.st113{fill:#FDF1F5;}
	.st114{fill:#E6C6CE;}
	.st115{fill:#862904;}
	.st116{fill:#DC845E;}
	.st117{fill:none;stroke:#000000;stroke-width:0.848;stroke-linecap:round;stroke-linejoin:round;stroke-miterlimit:10;}
	.st118{clip-path:url(#XMLID_00000171720849893859540530000008262941904418899611_);}
	.st119{clip-path:url(#XMLID_00000108267920563209068610000002592991905785124008_);}
	.st120{fill:none;stroke:#000000;stroke-width:0.8027;stroke-linecap:round;stroke-linejoin:round;stroke-miterlimit:10;}
	.st121{fill:none;stroke:#FFFFFF;stroke-width:2.99;stroke-linecap:round;stroke-linejoin:round;}
	.st122{fill:none;stroke:#FFFFFF;stroke-width:2.99;stroke-linecap:round;stroke-linejoin:round;stroke-dasharray:18.4657,18.4657;}
	.st123{fill:none;stroke:#000000;stroke-width:0.9784;stroke-linecap:round;stroke-linejoin:round;stroke-miterlimit:10;}
	.st124{clip-path:url(#XMLID_00000148654901349684439260000007628763368365648060_);}
	.st125{fill:none;stroke:#000000;stroke-width:0.682;stroke-linecap:round;stroke-linejoin:round;stroke-miterlimit:10;}
	.st126{fill:#AE3700;}
	.st127{fill:none;stroke:#FFFFFF;stroke-width:1.7082;stroke-linecap:round;stroke-linejoin:round;stroke-miterlimit:10;}
	.st128{fill:none;stroke:#000000;stroke-width:0.9976;stroke-linecap:round;stroke-linejoin:round;stroke-miterlimit:10;}
	.st129{fill:#528E72;}
	.st130{fill:#F0DBE0;}
	.st131{fill:#89331A;}
	.st132{fill:none;stroke:#CCDADC;stroke-linecap:round;stroke-linejoin:round;}
	.st133{opacity:0.45;fill:#F7E3C7;enable-background:new    ;}
	.st134{fill:#222222;}
	.st135{fill:#F47365;}
	.st136{fill:none;stroke:#222222;stroke-width:0.211;stroke-linecap:round;stroke-linejoin:round;}
	.st137{opacity:0.5;fill:#F43D4F;enable-background:new    ;}
	.st138{fill:#F43D4F;}
	.st139{fill:none;stroke:#FFF7EE;stroke-width:0.422;stroke-miterlimit:10;}
	.st140{fill:#FBB244;}
	.st141{fill:#FFF7EE;}
	.st142{opacity:0.22;}
	.st143{clip-path:url(#SVGID_00000004536056256736023070000016184330532443319949_);}
	.st144{fill:none;stroke:#FFFFFF;stroke-width:0.422;stroke-linecap:round;stroke-linejoin:round;}
	.st145{fill:none;stroke:#222222;stroke-width:2.166;stroke-linecap:round;stroke-linejoin:round;}
	.st146{fill:none;stroke:#222222;stroke-width:2.1655;stroke-linecap:round;stroke-linejoin:round;stroke-miterlimit:3.9991;}
	.st147{clip-path:url(#SVGID_00000126301007278461011240000008335105765905585576_);}
	.st148{fill:none;stroke:#222222;stroke-width:0.422;stroke-linecap:round;stroke-linejoin:round;}
	.st149{fill:#00454F;}
	.st150{fill:#B0B4B5;}
	.st151{fill-rule:evenodd;clip-rule:evenodd;fill:#00454F;}
	.st152{fill:#D2DADB;}
	.st153{fill:none;stroke:#FFFFFF;stroke-width:3.3017;stroke-miterlimit:10;}
	.st154{fill:#05454F;}
	.st155{fill:none;stroke:#707070;}
	.st156{fill:#F5F7F6;}
</style>
<path class="st149" d="M119.074,26.537C119.074,11.904,107.17,0,92.537,0S66,11.904,66,26.537c0,3.382,0.643,6.615,1.801,9.592
	l-7.896,5.922l-8.418-6.475c1.026-2.822,1.587-5.866,1.587-9.038C53.074,11.904,41.17,0,26.537,0S0,11.904,0,26.537
	c0,8.457,3.981,15.997,10.163,20.86c0.084,0.075,0.175,0.141,0.266,0.209c4.47,3.426,10.054,5.468,16.109,5.468
	c6.051,0,11.631-2.04,16.1-5.462c0.096-0.071,0.191-0.142,0.28-0.22c1.746-1.374,3.316-2.961,4.67-4.723l8.287,6.375v7.215
	C42.97,58.049,33,69.147,33,82.537c0,8.457,3.981,15.997,10.163,20.86c0.084,0.075,0.175,0.141,0.266,0.209
	c4.47,3.426,10.054,5.468,16.109,5.468c6.051,0,11.631-2.04,16.1-5.462c0.096-0.071,0.191-0.142,0.28-0.22
	c6.178-4.863,10.156-12.401,10.156-20.855c0-13.155-9.624-24.099-22.199-26.177v-7.286l7.956-5.967
	c1.275,1.59,2.729,3.029,4.331,4.289c0.084,0.075,0.175,0.141,0.266,0.209c4.47,3.426,10.054,5.468,16.109,5.468
	c6.051,0,11.631-2.04,16.1-5.462c0.096-0.071,0.191-0.142,0.28-0.22C115.096,42.529,119.074,34.991,119.074,26.537z M26.537,8
	c10.222,0,18.537,8.315,18.537,18.537c0,4.193-1.416,8.053-3.772,11.162c-1.295-1.749-2.889-3.251-4.695-4.443
	c2.03-2.341,3.268-5.385,3.268-8.719c0-7.354-5.983-13.338-13.338-13.338s-13.338,5.983-13.338,13.338
	c0,3.334,1.238,6.378,3.268,8.719c-1.806,1.192-3.399,2.693-4.695,4.443C9.416,34.59,8,30.73,8,26.537C8,16.315,16.315,8,26.537,8z
	 M26.537,29.875c-2.943,0-5.338-2.395-5.338-5.338s2.395-5.338,5.338-5.338s5.338,2.395,5.338,5.338S29.48,29.875,26.537,29.875z
	 M17.875,42.914c1.878-2.867,5.127-4.715,8.662-4.715c3.534,0,6.784,1.847,8.662,4.715c-2.587,1.374-5.533,2.16-8.662,2.16
	C23.409,45.074,20.463,44.288,17.875,42.914z M59.537,85.875c-2.943,0-5.338-2.395-5.338-5.338s2.395-5.338,5.338-5.338
	s5.338,2.395,5.338,5.338S62.48,85.875,59.537,85.875z M50.875,98.914c1.878-2.867,5.127-4.715,8.662-4.715
	c3.534,0,6.784,1.847,8.662,4.715c-2.587,1.374-5.533,2.16-8.662,2.16C56.409,101.074,53.463,100.288,50.875,98.914z M78.074,82.537
	c0,4.193-1.416,8.053-3.772,11.162c-1.295-1.749-2.889-3.251-4.695-4.443c2.03-2.341,3.268-5.385,3.268-8.719
	c0-7.354-5.983-13.338-13.338-13.338s-13.338,5.983-13.338,13.338c0,3.334,1.238,6.378,3.268,8.719
	c-1.806,1.192-3.399,2.693-4.695,4.443C42.416,90.59,41,86.73,41,82.537c0-10.132,8.174-18.38,18.272-18.524
	c0.198,0.03,0.396,0.061,0.603,0.061c0.129,0,0.251-0.026,0.377-0.038C70.141,64.416,78.074,72.557,78.074,82.537z M92.537,29.875
	c-2.943,0-5.338-2.395-5.338-5.338s2.395-5.338,5.338-5.338s5.338,2.395,5.338,5.338S95.48,29.875,92.537,29.875z M83.875,42.914
	c1.878-2.867,5.127-4.715,8.662-4.715c3.534,0,6.784,1.847,8.662,4.715c-2.587,1.374-5.533,2.16-8.662,2.16
	C89.409,45.074,86.463,44.288,83.875,42.914z M107.302,37.699c-1.295-1.749-2.889-3.251-4.695-4.443
	c2.03-2.341,3.268-5.385,3.268-8.719c0-7.354-5.983-13.338-13.338-13.338s-13.338,5.983-13.338,13.338
	c0,3.334,1.238,6.378,3.268,8.719c-1.806,1.192-3.399,2.693-4.695,4.443C75.416,34.59,74,30.73,74,26.537
	C74,16.315,82.315,8,92.537,8s18.537,8.315,18.537,18.537C111.074,30.73,109.658,34.59,107.302,37.699z"/>
</svg>
