<svg xmlns="http://www.w3.org/2000/svg" xmlns:xlink="http://www.w3.org/1999/xlink" width="682.225" height="404.599" viewBox="0 0 682.225 404.599">
  <defs>
    <clipPath id="clip-path">
      <rect id="Rectangle_97" data-name="Rectangle 97" width="682.225" height="404.599" fill="none"/>
    </clipPath>
  </defs>
  <g id="Group_2289" data-name="Group 2289" transform="translate(-976.738 -4417.405)">
    <g id="Group_2288" data-name="Group 2288" transform="translate(976.738 4417.405)" clip-path="url(#clip-path)">
      <g id="Group_2287" data-name="Group 2287" transform="translate(0.942 13.537)">
        <path id="Path_851" data-name="Path 851" d="M990.571,5127.256c-8.959-81.442-17.924-163.6-9.3-245.077,4.211-39.782,13.256-80.585,37.878-112.626,45.054-58.63,129.887-73.865,183.978-124.769,32.352-30.444,52.034-72.191,86.01-100.916,52.156-44.1,129.98-49.347,196.272-30.3,34.11,9.8,67.013,25.746,91.951,50.4,44.025,43.52,57.758,107.8,62.435,168.662,10.4,135.378-10.47,263.818-34.757,397.506-.183,1.007,7.622-9.666.206.206Z" transform="translate(-977.777 -4438.959)" fill="#ebf0f1"/>
        <g id="Group_2206" data-name="Group 2206" transform="translate(3.128 665.059)">
          <ellipse id="Ellipse_23" data-name="Ellipse 23" cx="322.041" cy="24.678" rx="322.041" ry="24.678" fill="#ffdad9"/>
          <ellipse id="Ellipse_24" data-name="Ellipse 24" cx="322.041" cy="24.678" rx="322.041" ry="24.678" fill="#dcdfe0"/>
        </g>
        <g id="Group_2211" data-name="Group 2211" transform="translate(11.894 268.339)">
          <g id="Group_2207" data-name="Group 2207" transform="translate(59.745 236.651)">
            <line id="Line_35" data-name="Line 35" x1="26.639" y2="170.743" fill="none" stroke="#b6e1f4" stroke-linecap="round" stroke-linejoin="round" stroke-width="5.37"/>
            <line id="Line_36" data-name="Line 36" x1="5.431" y2="189.321" transform="translate(49.658)" fill="none" stroke="#b6e1f4" stroke-linecap="round" stroke-linejoin="round" stroke-width="5.37"/>
            <line id="Line_37" data-name="Line 37" x2="29.226" y2="188.545" transform="translate(218.547)" fill="none" stroke="#b6e1f4" stroke-linecap="round" stroke-linejoin="round" stroke-width="5.37"/>
          </g>
          <g id="Group_2209" data-name="Group 2209" transform="translate(70.866 161.13)">
            <line id="Line_38" data-name="Line 38" x1="24.312" y1="66.211" fill="none" stroke="#b6e1f4" stroke-miterlimit="10" stroke-width="5.029"/>
            <g id="Group_2208" data-name="Group 2208" transform="translate(5.688 55.865)">
              <path id="Path_852" data-name="Path 852" d="M1075.352,4980.692a19.156,19.156,0,0,0,2.112,9.144c1.322,2.333,3.13,3.771,5.136,3.771h180.012v-25.859H1082.6C1078.588,4967.749,1075.352,4973.556,1075.352,4980.692Z" transform="translate(-1075.352 -4967.749)" fill="#daf0fa"/>
              <path id="Path_853" data-name="Path 853" d="M1075.352,4980.692a19.156,19.156,0,0,0,2.112,9.144c1.322,2.333,3.13,3.771,5.136,3.771h14.481v-25.859H1082.6C1078.588,4967.749,1075.352,4973.556,1075.352,4980.692Z" transform="translate(-1075.352 -4967.749)" fill="#b6e1f4" opacity="0.44" style="mix-blend-mode: multiply;isolation: isolate"/>
            </g>
          </g>
          <g id="Group_2210" data-name="Group 2210">
            <path id="Path_854" data-name="Path 854" d="M991.414,4739.641l67.417,182.035,3.116,8.421h132.245l-72.48-201.731H999.68A8.5,8.5,0,0,0,991.414,4739.641Z" transform="translate(-990.899 -4728.366)" fill="#daf0fa"/>
            <path id="Path_855" data-name="Path 855" d="M991.414,4739.641l67.417,182.035,18.069-3.3-72.83-190.006H999.68A8.5,8.5,0,0,0,991.414,4739.641Z" transform="translate(-990.899 -4728.366)" fill="#b6e1f4" opacity="0.44" style="mix-blend-mode: multiply;isolation: isolate"/>
          </g>
        </g>
        <g id="Group_2238" data-name="Group 2238" transform="translate(76.615 113.098)">
          <g id="Group_2237" data-name="Group 2237">
            <g id="Group_2215" data-name="Group 2215" transform="translate(30.165 288.965)">
              <g id="Group_2212" data-name="Group 2212" transform="translate(33.456 210.637)">
                <path id="Path_856" data-name="Path 856" d="M1178.066,5195.258c-4.848-.41-36.134-41.461-44.646-52.748a4.6,4.6,0,0,1,.052-5.634l14.065-17.969,8.326-10.65,28.6,19.1-7.612,12.374,0,.017C1176.959,5140.551,1183.647,5195.731,1178.066,5195.258Z" transform="translate(-1132.483 -5108.258)" fill="#e07280"/>
                <path id="Path_857" data-name="Path 857" d="M1178.066,5196.357c-4.848-.41-36.134-41.461-44.646-52.748a4.6,4.6,0,0,1,.052-5.634l14.065-17.969a18.507,18.507,0,0,0,4.424,7.018,46.329,46.329,0,0,0,24.9,13.827C1176.959,5141.65,1183.647,5196.831,1178.066,5196.357Z" transform="translate(-1132.483 -5109.357)" fill="#7e5780"/>
                <path id="Path_858" data-name="Path 858" d="M1178.066,5196.357c-4.848-.41-36.134-41.461-44.646-52.748a4.6,4.6,0,0,1,.052-5.634l14.065-17.969a18.507,18.507,0,0,0,4.424,7.018,46.329,46.329,0,0,0,24.9,13.827C1176.959,5141.65,1183.647,5196.831,1178.066,5196.357Z" transform="translate(-1132.483 -5109.357)" fill="#7e5780" opacity="0.22" style="mix-blend-mode: multiply;isolation: isolate"/>
                <path id="Path_859" data-name="Path 859" d="M1133.93,5138.979c1.768,6.142,5.724,11.384,9.662,16.417,11.582,14.8,22.833,28.407,35.483,42.31" transform="translate(-1132.618 -5111.131)" fill="none" stroke="#ffd0c5" stroke-miterlimit="10" stroke-width="0.319"/>
              </g>
              <g id="Group_2213" data-name="Group 2213" transform="translate(63.881 224.374)">
                <path id="Path_860" data-name="Path 860" d="M1249.4,5196.376c-5.146,2.768-63.548-18.011-79.516-23.784a5.529,5.529,0,0,1-3.644-5.7l2.364-27.3,1.391-16.175,41.309.458.459,17.442.014.013C1212.407,5142.063,1255.329,5193.191,1249.4,5196.376Z" transform="translate(-1166.063 -5123.412)" fill="#e07280"/>
                <path id="Path_861" data-name="Path 861" d="M1249.4,5198.045c-5.146,2.768-63.548-18.011-79.516-23.784a5.529,5.529,0,0,1-3.644-5.7l2.364-27.3a22.217,22.217,0,0,0,9.055,4.159,55.64,55.64,0,0,0,34.118-2.42C1212.407,5143.732,1255.329,5194.86,1249.4,5198.045Z" transform="translate(-1166.063 -5125.081)" fill="#7e5780"/>
                <path id="Path_862" data-name="Path 862" d="M1166.047,5170.287c5.808,5.02,13.226,7.7,20.49,10.179,21.363,7.3,41.6,13.6,63.449,19.293" transform="translate(-1166.047 -5127.796)" fill="none" stroke="#ffd0c5" stroke-miterlimit="10" stroke-width="0.384"/>
              </g>
              <g id="Group_2214" data-name="Group 2214">
                <path id="Path_863" data-name="Path 863" d="M1234.993,4875.887l-138.738,4.256-.473,13.728s-3.31,45.926,16.579,61.087c19.889,15.146,34.563,18.456,34.563,18.456l1.892,131.631,64.4-2.837s108.821-88.053,99.906-129.268C1305.54,4937.908,1234.993,4875.887,1234.993,4875.887ZM1222.444,5012.6l2.132-38.713,15.624,11.843Z" transform="translate(-1095.575 -4875.887)" fill="#005d68"/>
                <path id="Path_864" data-name="Path 864" d="M1223.052,5102.94s17.045-133.049,7.576-154.356-29.83-52.084-29.83-52.084l3.315-12.784" transform="translate(-1105.417 -4876.62)" fill="none" stroke="#401a49" stroke-linecap="round" stroke-linejoin="round" stroke-width="1.534"/>
                <line id="Line_39" data-name="Line 39" x2="1.656" y2="140.385" transform="translate(51.584 88.773)" fill="none" stroke="#401a49" stroke-linecap="round" stroke-linejoin="round" stroke-width="1.534"/>
              </g>
            </g>
            <g id="Group_2236" data-name="Group 2236">
              <g id="Group_2230" data-name="Group 2230" transform="translate(56.691)">
                <path id="Path_865" data-name="Path 865" d="M1135.95,4578.606a22.337,22.337,0,0,0-6.367,4.687,20.57,20.57,0,0,0-3.465,6.546c-.9,2.467-1.665,5.11-1.073,7.656.585,2.519,2.438,4.644,3.025,7.163.646,2.773-.315,5.623-.82,8.423a19.725,19.725,0,0,0,.593,10.05,13.955,13.955,0,0,0,6.531,7.752,14.966,14.966,0,0,1,3.37,1.908c2,1.834,1.866,4.87,2.915,7.315a11.263,11.263,0,0,0,5.861,5.446,35.627,35.627,0,0,0,8.032,2.225,1.919,1.919,0,0,0,1.215-.031,1.716,1.716,0,0,0,.722-1.03,76.13,76.13,0,0,0,3.42-37.6,98.117,98.117,0,0,0-7.122-24.292q-1.269-2.927-2.7-5.784c-.513-1.025-1.856-5.017-2.967-5.446C1145.062,4572.8,1137.832,4577.574,1135.95,4578.606Z" transform="translate(-1124.838 -4558.641)" fill="#401a49"/>
                <g id="Group_2229" data-name="Group 2229" transform="translate(9.198)">
                  <g id="Group_2216" data-name="Group 2216" transform="translate(16.439 76.117)">
                    <path id="Path_866" data-name="Path 866" d="M1153.12,4679.469l41.237,9.092-2.193-13.585-1.788-11.176-.036-.185-.534-3.32-35.765-19.216c0,.051-.01.541-.032,1.386-1.138.016-.549.2-.549.2C1153.3,4649.6,1153.12,4679.469,1153.12,4679.469Z" transform="translate(-1153.12 -4641.078)" fill="#e07280"/>
                    <path id="Path_867" data-name="Path 867" d="M1160.153,4653.025c6.991,18.006,21.455,22.487,33.034,23.16l-1.7-11.242a38.865,38.865,0,0,1-5.953.094.423.423,0,0,1-.136-.015c-.354-.013-.71-.058-1.048-.088l-1.523-.182c-.355-.062-.728-.125-1.083-.171l-.678-.142C1175.669,4663.412,1164.656,4656.191,1160.153,4653.025Z" transform="translate(-1153.778 -4642.195)" fill="#401a49"/>
                  </g>
                  <g id="Group_2228" data-name="Group 2228">
                    <path id="Path_868" data-name="Path 868" d="M1165.91,4564.372c3.63-1.488,6.993-3.56,10.589-5.125s7.576-2.622,11.435-1.918c1.878.343,3.683,1.1,5.588,1.226,3.1.212,6.165-1.239,9.241-.822a7.958,7.958,0,0,1,6.658,7.111c.189,2.742-1.042,5.729.315,8.121.423.745,1.068,1.349,1.477,2.1a5.867,5.867,0,0,1,.532,3.284c-.257,3.068-2.085,6.184-5.02,7.116a12.154,12.154,0,0,1-4.409.277l-31.66-1.885a39.006,39.006,0,0,1-7.673-.971,30.829,30.829,0,0,1-5.857-2.346c-2.776-1.389-13.986-5.986-8.844-9.955C1152.951,4566.984,1160.527,4566.579,1165.91,4564.372Z" transform="translate(-1136.104 -4557.107)" fill="#401a49"/>
                    <path id="Path_869" data-name="Path 869" d="M1216.22,4615.7c.326,9.441-.319,19.586-4.651,27.621-.269.479-.553.972-.853,1.436a1,1,0,0,1-.135.247c-9.219,14.668-31.413,18.533-48.331,3.664l-.015-.015c0-.031-.016-.031-.016-.031a49.011,49.011,0,0,1-8.383-9.747l-.015-.015c-.452-.652-.875-1.336-1.3-2.035-.3-.471-.595-.987-.892-1.487-.174-.381-.392-.729-.582-1.11-1.052-1.961-3.111-3.647-4.347-5.591a35.789,35.789,0,0,1-1.929-3.42c-.488-.973-.93-1.978-1.326-2.983a36.192,36.192,0,0,1-1.846-6.42c-.149-.778-.281-1.543-.353-2.322a22.536,22.536,0,0,1-.2-2.309c-.054-.628-.078-1.24-.086-1.868l0-.3c-.065-17.437,12.031-33.339,29.172-37.244a36.313,36.313,0,0,1,21.212,1.705,36.735,36.735,0,0,1,10.9,6.606c6.228,5.443,10.737,10.588,13.039,18.963a45.466,45.466,0,0,1,1.131,5.573c.016.091.018.184.035.274.594,4.417-.337,6.818-.248,10.048C1216.2,4615.2,1216.218,4615.457,1216.22,4615.7Z" transform="translate(-1135.543 -4558.397)" fill="#e07280"/>
                    <path id="Path_870" data-name="Path 870" d="M1190.939,4569.813a50.374,50.374,0,0,0-27.264.642,4.113,4.113,0,0,0-2.357,1.407,2.335,2.335,0,0,0-.306.675l-.441.077c-5.759,1.059-11.734,2.519-16.115,6.4-4,3.547-6.211,8.787-6.959,14.081s-.154,10.683.706,15.958a5.921,5.921,0,0,0,.806,2.486,5.827,5.827,0,0,0,2.154,1.646c4.008,2.14,9.721,5.97,14.619,5.253q.473.672.966,1.346a3.131,3.131,0,0,0,1.654,1.373,2.556,2.556,0,0,0,2.226-.859,10.446,10.446,0,0,0,2.5-5.467,48.77,48.77,0,0,0,1.064-8.646,15.308,15.308,0,0,0-.04-1.934c.56-.271,1.185-.468,1.76-.7a8.33,8.33,0,0,0,5.375-7.136c.086-2.972-1.682-6.19-.158-8.743.643-1.077,1.769-1.782,2.493-2.806a6.764,6.764,0,0,0,1.029-3.943c4.6-.5,9.227-2.769,13.205-5.387,2.157-1.418,4.745-2.483,7.17-1.8,1.978.555,3.774,2.232,5.8,1.822C1198.5,4572.328,1194.67,4570.777,1190.939,4569.813Z" transform="translate(-1135.188 -4558.148)" fill="#401a49"/>
                    <g id="Group_2227" data-name="Group 2227" transform="translate(0 38.803)">
                      <g id="Group_2226" data-name="Group 2226" transform="translate(0 11.453)">
                        <g id="Group_2225" data-name="Group 2225">
                          <g id="Group_2218" data-name="Group 2218" transform="translate(0 1.911)">
                            <path id="Path_871" data-name="Path 871" d="M1157.356,4621.515c-2.634-2.277-5.333-4.593-8.562-5.9s-7.142-1.431-10.007.546c-3.959,2.732-4.6,8.552-2.96,13.073a17.788,17.788,0,0,0,25.588,9.344C1162.051,4630.9,1162.254,4625.748,1157.356,4621.515Z" transform="translate(-1134.984 -4614.657)" fill="#e07280"/>
                            <g id="Group_2217" data-name="Group 2217" transform="translate(9.206 7.227)">
                              <path id="Path_872" data-name="Path 872" d="M1147.886,4622.629a12.036,12.036,0,0,0-2.516,9.96" transform="translate(-1145.141 -4622.629)" fill="none" stroke="#161c3e" stroke-linecap="round" stroke-linejoin="round" stroke-width="1.126"/>
                              <path id="Path_873" data-name="Path 873" d="M1152.629,4631.244l.127.235a8.172,8.172,0,0,0-6.5-5.272" transform="translate(-1145.245 -4622.963)" fill="none" stroke="#161c3e" stroke-linecap="round" stroke-linejoin="round" stroke-width="1.126"/>
                            </g>
                          </g>
                          <g id="Group_2224" data-name="Group 2224" transform="translate(17.381)">
                            <path id="Path_874" data-name="Path 874" d="M1154.161,4638.231a16.764,16.764,0,0,0,.364,3.263,17.371,17.371,0,0,0,.539,2.043,49.592,49.592,0,0,0,8.381,9.756.016.016,0,0,1,.016.016,17.236,17.236,0,0,0,25.152-15.542c0-.192-.005-.384-.024-.56a17.225,17.225,0,0,0-34.429,1.022Z" transform="translate(-1154.159 -4613.317)" fill="#e07280" opacity="0.09" style="mix-blend-mode: multiply;isolation: isolate"/>
                            <path id="Path_875" data-name="Path 875" d="M1210.668,4636.429a16.475,16.475,0,0,0,6.571,12.959c.3-.47.579-.958.841-1.446,4.355-8.032,4.989-18.185,4.666-27.606A16.46,16.46,0,0,0,1210.668,4636.429Z" transform="translate(-1159.444 -4613.277)" fill="#e07280" opacity="0.09" style="mix-blend-mode: multiply;isolation: isolate"/>
                            <g id="Group_2223" data-name="Group 2223" transform="translate(24.012)">
                              <g id="Group_2220" data-name="Group 2220">
                                <g id="Group_2219" data-name="Group 2219">
                                  <path id="Path_876" data-name="Path 876" d="M1210.925,4616.334a3.736,3.736,0,1,0,3.686-3.786A3.736,3.736,0,0,0,1210.925,4616.334Z" transform="translate(-1183.48 -4612.548)" fill="#401a49"/>
                                  <path id="Path_877" data-name="Path 877" d="M1180.649,4617.119a3.736,3.736,0,1,0,3.687-3.786A3.737,3.737,0,0,0,1180.649,4617.119Z" transform="translate(-1180.649 -4612.622)" fill="#401a49"/>
                                </g>
                              </g>
                              <g id="Group_2222" data-name="Group 2222" transform="translate(10.368 6.089)">
                                <g id="Group_2221" data-name="Group 2221" transform="translate(6.493)">
                                  <path id="Path_878" data-name="Path 878" d="M1206.391,4619.266c1.041,1.794,3.178,7.752,2.94,9.813a4.958,4.958,0,0,1-3.04,3.954" transform="translate(-1199.908 -4619.266)" fill="none" stroke="#401a49" stroke-linecap="round" stroke-linejoin="round" stroke-width="0.988"/>
                                  <path id="Path_879" data-name="Path 879" d="M1201.846,4634.148a1.635,1.635,0,0,0-1.333-1.018,1.2,1.2,0,0,0-1.264.981" transform="translate(-1199.249 -4620.563)" fill="none" stroke="#401a49" stroke-linecap="round" stroke-linejoin="round" stroke-width="0.988"/>
                                </g>
                                <path id="Path_880" data-name="Path 880" d="M1203.095,4641.433a13.18,13.18,0,0,1-11.009-2.585" transform="translate(-1192.086 -4621.098)" fill="none" stroke="#401a49" stroke-linecap="round" stroke-linejoin="round" stroke-width="0.988"/>
                              </g>
                            </g>
                          </g>
                        </g>
                      </g>
                      <path id="Path_881" data-name="Path 881" d="M1174.544,4605.837a3.112,3.112,0,0,0-.179,2.932c.82,1.628,3.119,2.271,5.141,2.362a16.834,16.834,0,0,0,8.148-1.66c4.525-2.236,2.622-7.249-2.181-8.4C1181.856,4600.206,1176.09,4603.118,1174.544,4605.837Z" transform="translate(-1138.641 -4600.007)" fill="#401a49"/>
                      <path id="Path_882" data-name="Path 882" d="M1222.861,4607.327a7.583,7.583,0,0,1-3.124,1.114,14.737,14.737,0,0,1-7.236-.745c-4.125-1.553-2.914-6.07,1.17-7.488,2.286-.8,5.773.122,8.058,1.545A45.466,45.466,0,0,1,1222.861,4607.327Z" transform="translate(-1141.995 -4599.914)" fill="#401a49"/>
                    </g>
                  </g>
                </g>
              </g>
              <path id="Path_883" data-name="Path 883" d="M1152.53,4668.889s24.683,15.85,38.376.919l.976,2.506s19.182,57.076,21.313,100.755,8.877,84.872,8.877,84.872l-65.7.355-7.813-187.146Z" transform="translate(-1070.366 -4567.562)" fill="#fff"/>
              <path id="Path_884" data-name="Path 884" d="M1162.123,4789.256c-.71,44.743,1.07,83.452-4.966,92.687s-34.09,34.8-52.2,34.091-25.926-2.49-25.926-2.49,1.725-40.794,4.424-86.72q.313-5.509.654-11.085c3.269-53.284,6.423-111.292,10.839-117.09,15.507-20.36,41.248-28.352,51.193-29.409C1146.142,4669.238,1162.832,4744.511,1162.123,4789.256Z" transform="translate(-1063.863 -4567.594)" fill="#305a46"/>
              <path id="Path_885" data-name="Path 885" d="M1150.642,4669.238l-23.494,29.882,19.176,13.731-9.943,20.6,29.356,29.356" transform="translate(-1068.363 -4567.594)" fill="none" stroke="#401a49" stroke-linecap="round" stroke-linejoin="round" stroke-width="0.767"/>
              <g id="Group_2232" data-name="Group 2232" transform="translate(67.253 95.939)">
                <path id="Path_886" data-name="Path 886" d="M1194.5,4707.315l.836,4.674-4.724-1.48-35.959-43.767a2.288,2.288,0,0,1,.7-3.109h0a2.289,2.289,0,0,1,3.187-.084Z" transform="translate(-1138.154 -4662.945)" fill="#401a49"/>
                <g id="Group_2231" data-name="Group 2231" transform="translate(0 14.493)">
                  <path id="Path_887" data-name="Path 887" d="M1136.489,4720.92s11.673-29.637,14.076-32.418c2.669-3.088,8.715-9.392,11.932-9.534s15.144,0,19.713,3.651,14.487,13.307,12.781,17.686-6.2,7.992-14.7,6-11.689-.354-11.689-.354a25.763,25.763,0,0,1-5.086,14.632,47.645,47.645,0,0,1-12.506,10.744Z" transform="translate(-1136.489 -4678.934)" fill="#e07280"/>
                  <path id="Path_888" data-name="Path 888" d="M1169.731,4697.174s13.205,2.14,16.334,4.04c2.388,1.45,7.383,3.965,8.9,5.056" transform="translate(-1139.598 -4680.64)" fill="none" stroke="#401a49" stroke-linecap="round" stroke-linejoin="round" stroke-width="0.767"/>
                  <path id="Path_889" data-name="Path 889" d="M1174.019,4689.371s10.551,2.363,15.327,5.184a44.327,44.327,0,0,1,8.8,7.229" transform="translate(-1139.999 -4679.91)" fill="none" stroke="#401a49" stroke-linecap="round" stroke-linejoin="round" stroke-width="0.767"/>
                  <path id="Path_890" data-name="Path 890" d="M1179,4683.226s9.7,3.14,13.9,6.73,5.947,6.9,6.2,8.126" transform="translate(-1140.465 -4679.335)" fill="none" stroke="#401a49" stroke-linecap="round" stroke-linejoin="round" stroke-width="0.767"/>
                </g>
              </g>
              <path id="Path_891" data-name="Path 891" d="M1252.785,4736.408a117.948,117.948,0,0,0-20.484-46.195,7.2,7.2,0,0,0-.822-1.035c-7.458-7.458-21.307-12.784-35.511-17.4,0,0,18.466,176.847,21.662,185.724s11.364,27.7,17.4,28.41,36.932-1.065,36.932-1.065-2.3-9.263-5.5-22.85l5.5,22.85,6.392-.711S1258.822,4765.527,1252.785,4736.408Z" transform="translate(-1074.799 -4567.832)" fill="#305a46"/>
              <g id="Group_2234" data-name="Group 2234" transform="translate(0 130.578)">
                <path id="Path_892" data-name="Path 892" d="M1093.621,4701.158s-29.475,35.867-31.251,72.8,29.119,60.015,54.333,47.941,35.866-93.395,35.866-93.395Z" transform="translate(-1062.297 -4701.158)" fill="#305a46"/>
                <g id="Group_2233" data-name="Group 2233" transform="translate(19.959 16.336)">
                  <path id="Path_893" data-name="Path 893" d="M1130.244,4719.179l24.385,11.009s-7.576,64.986-29.12,81.794-41.194,8.048-41.194,8.048" transform="translate(-1084.316 -4719.179)" fill="none" stroke="#401a49" stroke-linecap="round" stroke-linejoin="round" stroke-width="0.767"/>
                  <line id="Line_40" data-name="Line 40" x1="33.144" y2="50.426" transform="translate(12.785)" fill="none" stroke="#401a49" stroke-linecap="round" stroke-linejoin="round" stroke-width="0.767"/>
                  <line id="Line_41" data-name="Line 41" y1="6.629" x2="10.653" transform="translate(10.181 38.116)" fill="none" stroke="#401a49" stroke-linecap="round" stroke-linejoin="round" stroke-width="0.767"/>
                </g>
                <path id="Path_894" data-name="Path 894" d="M1088.311,4830.407c2.018-2.6,4.137-5.294,7.085-6.765a15.366,15.366,0,0,1,8.268-1.242c4.405.408,8.869,2.146,11.651,5.587" transform="translate(-1064.73 -4712.489)" fill="none" stroke="#401a49" stroke-linecap="round" stroke-linejoin="round" stroke-width="0.767"/>
                <path id="Path_895" data-name="Path 895" d="M1122.132,4824.715c-11.642,15.245-31.1,16.663-38.22,16.649q.313-5.509.654-11.085,3.838.688,8.943,1.516C1107.793,4834.09,1121.382,4825.2,1122.132,4824.715Z" transform="translate(-1064.319 -4712.714)" fill="#401a49"/>
              </g>
              <g id="Group_2235" data-name="Group 2235" transform="translate(121.167 103.945)">
                <path id="Path_896" data-name="Path 896" d="M1195.967,4671.777l17.637,14.8-9,22.017,12.784,12.311-10.89,45.455" transform="translate(-1195.967 -4671.777)" fill="none" stroke="#401a49" stroke-linecap="round" stroke-linejoin="round" stroke-width="0.767"/>
                <path id="Path_897" data-name="Path 897" d="M1245.719,4737.2s12.785,48.295,17.046,74.219,13.849,79.545,13.849,79.545" transform="translate(-1200.62 -4677.896)" fill="none" stroke="#401a49" stroke-linecap="round" stroke-linejoin="round" stroke-width="0.767"/>
                <line id="Line_42" data-name="Line 42" x1="1.421" y2="15.862" transform="translate(51.018 66.88)" fill="none" stroke="#401a49" stroke-linecap="round" stroke-linejoin="round" stroke-width="0.767"/>
                <line id="Line_43" data-name="Line 43" y1="1.42" x2="20.241" transform="translate(19.886 74.574)" fill="none" stroke="#401a49" stroke-linecap="round" stroke-linejoin="round" stroke-width="0.767"/>
              </g>
            </g>
          </g>
        </g>
        <g id="Group_2278" data-name="Group 2278" transform="translate(320.173 126.017)">
          <g id="Group_2243" data-name="Group 2243" transform="translate(21.481 142.581)">
            <g id="Group_2239" data-name="Group 2239" transform="translate(0 236.651)">
              <line id="Line_44" data-name="Line 44" x2="26.639" y2="170.742" transform="translate(221.909)" fill="none" stroke="#b6e1f4" stroke-linecap="round" stroke-linejoin="round" stroke-width="5.37"/>
              <line id="Line_45" data-name="Line 45" x2="5.431" y2="189.321" transform="translate(193.459)" fill="none" stroke="#b6e1f4" stroke-linecap="round" stroke-linejoin="round" stroke-width="5.37"/>
              <line id="Line_46" data-name="Line 46" x1="30.002" y2="189.321" fill="none" stroke="#b6e1f4" stroke-linecap="round" stroke-linejoin="round" stroke-width="5.37"/>
            </g>
            <g id="Group_2241" data-name="Group 2241" transform="translate(44.478 161.129)">
              <line id="Line_47" data-name="Line 47" y1="66.21" x2="24.312" transform="translate(168.637)" fill="none" stroke="#b6e1f4" stroke-linecap="round" stroke-linejoin="round" stroke-width="5.37"/>
              <g id="Group_2240" data-name="Group 2240" transform="translate(0 55.866)">
                <path id="Path_898" data-name="Path 898" d="M1591.011,4980.978a19.163,19.163,0,0,1-2.112,9.144c-1.322,2.334-3.13,3.772-5.136,3.772H1403.75v-25.858h180.012C1587.774,4968.035,1591.011,4973.841,1591.011,4980.978Z" transform="translate(-1403.75 -4968.035)" fill="#daf0fa"/>
                <path id="Path_899" data-name="Path 899" d="M1608.09,4980.978a19.163,19.163,0,0,1-2.112,9.144c-1.322,2.334-3.13,3.772-5.136,3.772h-14.481v-25.858h14.481C1604.853,4968.035,1608.09,4973.841,1608.09,4980.978Z" transform="translate(-1420.829 -4968.035)" fill="#b6e1f4" opacity="0.44" style="mix-blend-mode: multiply;isolation: isolate"/>
              </g>
            </g>
            <g id="Group_2242" data-name="Group 2242" transform="translate(104.999)">
              <path id="Path_900" data-name="Path 900" d="M1673.294,4739.925l-67.417,182.035-3.116,8.421H1470.516l72.48-201.73h122.033A8.5,8.5,0,0,1,1673.294,4739.925Z" transform="translate(-1470.516 -4728.651)" fill="#daf0fa"/>
              <path id="Path_901" data-name="Path 901" d="M1685.4,4739.925,1617.98,4921.96l-18.069-3.3,72.83-190.005h4.389A8.5,8.5,0,0,1,1685.4,4739.925Z" transform="translate(-1482.618 -4728.651)" fill="#b6e1f4" opacity="0.44" style="mix-blend-mode: multiply;isolation: isolate"/>
            </g>
          </g>
          <g id="Group_2277" data-name="Group 2277">
            <g id="Group_2276" data-name="Group 2276">
              <g id="Group_2256" data-name="Group 2256" transform="translate(120.385)">
                <path id="Path_902" data-name="Path 902" d="M1519.635,4620.458a35.261,35.261,0,0,0-4.756-10.12,27.156,27.156,0,0,0-9.618-8.114,30.677,30.677,0,0,0-5.2-2.09,44.545,44.545,0,0,0,.913-14.812c-.166-1.574.015-6.024-2.32-5.011-7.228,3.138-12.7,9.688-15.357,17.105a35.236,35.236,0,0,0-1.279,4.635,33.639,33.639,0,0,0,.343,23.208c1.306,3.344,3.191,6.731,2.659,10.272-.456,3.084-2.689,5.606-5.181,7.476s-5.318,3.252-7.765,5.166a22.55,22.55,0,0,0-6.914,25.117l5.637.03a25.228,25.228,0,0,1,1.642-11.852,66.19,66.19,0,0,0,3.009,11.867l43.608.182C1522.325,4655.816,1524.969,4637.644,1519.635,4620.458Z" transform="translate(-1463.791 -4572.182)" fill="#994975"/>
                <path id="Path_903" data-name="Path 903" d="M1590.99,4671.325l-6.64.076a40.852,40.852,0,0,0-2.447-12.46,52.326,52.326,0,0,1-2.689,12.506l-19.435.2-2.872.03-1.443.015-1.748.015-2.234.031-2.917.03-15.058.152c-.213-1.262-.44-2.507-.669-3.754-.441-2.294-.912-4.559-1.322-6.837-.061-.3-.106-.592-.167-.9-.243-1.353-.455-2.72-.637-4.087-.182-1.322-.334-2.66-.441-4.011v-.016c-.623-8.342-.319-16.714-.683-25.071q-.068-1.321-.137-2.644c-.2-3.237-.486-6.458-.82-9.679-.152-1.413-.319-2.827-.486-4.24-.061-.592-.137-1.185-.2-1.778-.258-2.1-.517-4.178-.775-6.275q-1.345-10.712-2.675-21.394c-.212-1.7-.425-3.419-.637-5.121-.183-1.368-.4-3.328-.578-4.68,1.7.167,3.389.4,5.075.684,1.732.288,3.464.638,5.167,1.063a65.032,65.032,0,0,1,12.186,4.255,57.3,57.3,0,0,1,11.214,6.822c9.679,7.567,16.927,18.8,18.826,31.256.714,4.649.912,9.907,4.27,13.037,1.687,1.581,3.95,2.325,5.805,3.678,3.6,2.6,5.409,7.157,6.427,11.608A51.97,51.97,0,0,1,1590.99,4671.325Z" transform="translate(-1469.355 -4571.366)" fill="#994975"/>
                <g id="Group_2244" data-name="Group 2244" transform="translate(43.345 69.838)">
                  <path id="Path_904" data-name="Path 904" d="M1550.6,4684.8l-39,9.148,1.907-12.913,1.554-10.622.032-.177.465-3.156,33.677-18.681c0,.048.016.514.048,1.314v.016C1549.531,4656.3,1550.6,4684.8,1550.6,4684.8Z" transform="translate(-1511.608 -4648.403)" fill="#ff8a9a"/>
                  <path id="Path_905" data-name="Path 905" d="M1544.75,4659.71c-6.4,17.167-20.063,21.6-31.038,22.386l1.466-10.683a37.023,37.023,0,0,0,5.647.013.4.4,0,0,0,.129-.016c.336-.016.673-.064.993-.1l1.442-.192c.336-.064.689-.128,1.025-.176.208-.048.432-.1.641-.145C1530.165,4669.76,1540.52,4662.771,1544.75,4659.71Z" transform="translate(-1511.805 -4649.46)" fill="#401a49"/>
                </g>
                <path id="Path_906" data-name="Path 906" d="M1557.867,4617.867v.289c0,.593-.015,1.186-.062,1.778a20.6,20.6,0,0,1-.167,2.188,21.275,21.275,0,0,1-.3,2.2,34.124,34.124,0,0,1-1.672,6.123c-.364.958-.76,1.915-1.215,2.842a32.5,32.5,0,0,1-1.793,3.267c-1.139,1.854-3.069,3.479-4.042,5.364-.182.364-.38.7-.547,1.047-.274.487-.548.973-.821,1.429-.394.669-.79,1.322-1.2,1.945l-.015.015a47.006,47.006,0,0,1-7.825,9.36.015.015,0,0,0-.015.015l-.015.016c-15.863,14.329-36.969,10.94-45.888-2.857a.909.909,0,0,1-.137-.227c-.288-.44-.562-.9-.82-1.353-4.224-7.567-4.954-17.185-4.772-26.135,0-.243.015-.485.015-.729.046-3.069-.866-5.334-.364-9.527,1.383-11.427,6.078-17.353,13.159-23.72a34.919,34.919,0,0,1,10.256-6.4,34.367,34.367,0,0,1,20.088-1.883C1546.029,4586.4,1557.7,4601.335,1557.867,4617.867Z" transform="translate(-1465.874 -4572.373)" fill="#ff8a9a"/>
                <g id="Group_2255" data-name="Group 2255" transform="translate(20.655)">
                  <g id="Group_2253" data-name="Group 2253" transform="translate(0 37.688)">
                    <g id="Group_2246" data-name="Group 2246" transform="translate(51.329 9.328)">
                      <path id="Path_907" data-name="Path 907" d="M1547.228,4629.9c2.469-2.193,5-4.425,8.045-5.7s6.756-1.448,9.5.391c3.79,2.541,4.474,8.052,2.973,12.361a16.871,16.871,0,0,1-24.15,9.187C1542.894,4638.859,1542.635,4633.978,1547.228,4629.9Z" transform="translate(-1543.202 -4623.225)" fill="#ff8a9a"/>
                      <g id="Group_2245" data-name="Group 2245" transform="translate(9.501 6.893)">
                        <path id="Path_908" data-name="Path 908" d="M1558.55,4630.83a11.413,11.413,0,0,1,2.514,9.414" transform="translate(-1554.138 -4630.83)" fill="none" stroke="#161c3e" stroke-linecap="round" stroke-linejoin="round" stroke-width="1.069"/>
                        <path id="Path_909" data-name="Path 909" d="M1553.8,4639.056l-.117.226a7.754,7.754,0,0,1,6.1-5.083" transform="translate(-1553.683 -4631.144)" fill="none" stroke="#161c3e" stroke-linecap="round" stroke-linejoin="round" stroke-width="1.069"/>
                      </g>
                    </g>
                    <g id="Group_2252" data-name="Group 2252">
                      <path id="Path_910" data-name="Path 910" d="M1549.717,4645.725a15.993,15.993,0,0,1-.3,3.1,16.5,16.5,0,0,1-.487,1.944,47.006,47.006,0,0,1-7.825,9.36.015.015,0,0,0-.015.015,16.347,16.347,0,0,1-24.053-14.42c0-.182,0-.365.015-.531a16.339,16.339,0,0,1,32.669.531Z" transform="translate(-1489.426 -4614.473)" fill="#ef5d6b" opacity="0.35"/>
                      <path id="Path_911" data-name="Path 911" d="M1498.263,4644.729a15.624,15.624,0,0,1-6.068,12.374c-.289-.441-.561-.9-.816-1.36-4.232-7.563-4.963-17.184-4.776-26.125A15.611,15.611,0,0,1,1498.263,4644.729Z" transform="translate(-1486.577 -4614.496)" fill="#ef5d6b" opacity="0.35"/>
                      <g id="Group_2251" data-name="Group 2251" transform="translate(1.853)">
                        <g id="Group_2248" data-name="Group 2248">
                          <g id="Group_2247" data-name="Group 2247" transform="translate(2.278 8.324)">
                            <path id="Path_912" data-name="Path 912" d="M1498.222,4625.662a3.544,3.544,0,1,1-3.543-3.544A3.543,3.543,0,0,1,1498.222,4625.662Z" transform="translate(-1491.134 -4622.118)" fill="#401a49"/>
                            <path id="Path_913" data-name="Path 913" d="M1526.948,4626.021a3.544,3.544,0,1,1-3.544-3.544A3.544,3.544,0,0,1,1526.948,4626.021Z" transform="translate(-1493.821 -4622.152)" fill="#401a49"/>
                          </g>
                          <path id="Path_914" data-name="Path 914" d="M1522.592,4617.913c.406.091.8.163,1.136.241,1.163.269,7.317,1.715,6.975-.705a1.548,1.548,0,0,0-.356-.7,10.192,10.192,0,0,0-6.614-3.549c-1.694-.224-4.474.543-3.946,2.8C1520.071,4617.212,1521.389,4617.644,1522.592,4617.913Z" transform="translate(-1491.53 -4612.956)" fill="#401a49"/>
                          <path id="Path_915" data-name="Path 915" d="M1495.819,4617.326a19.726,19.726,0,0,1-2.907.423c-1.09.106-3.621.305-4.2-.929a1.221,1.221,0,0,1,.023-.968c.49-1.2,2.128-2,3.271-2.423a7.779,7.779,0,0,1,4.287-.331c1.067.229,2.511,1.2,2.094,2.467A3.307,3.307,0,0,1,1495.819,4617.326Z" transform="translate(-1488.622 -4612.935)" fill="#401a49"/>
                        </g>
                        <g id="Group_2250" data-name="Group 2250" transform="translate(10.582 17.807)">
                          <g id="Group_2249" data-name="Group 2249">
                            <path id="Path_916" data-name="Path 916" d="M1502.044,4632.579c-.964,1.715-1.962,3.586-1.709,5.538a4.7,4.7,0,0,0,2.933,3.712" transform="translate(-1500.295 -4632.579)" fill="none" stroke="#401a49" stroke-linecap="round" stroke-linejoin="round" stroke-width="0.938"/>
                            <path id="Path_917" data-name="Path 917" d="M1507.533,4642.439a1.552,1.552,0,0,1,1.252-.982,1.142,1.142,0,0,1,1.211.915" transform="translate(-1500.972 -4633.409)" fill="none" stroke="#401a49" stroke-linecap="round" stroke-linejoin="round" stroke-width="0.938"/>
                          </g>
                          <path id="Path_918" data-name="Path 918" d="M1514.846,4646.159a11.86,11.86,0,0,1-7.377,2.594.567.567,0,0,0-.427.958c1.12,1.139,3.212,2.688,5.694,1.734a5.022,5.022,0,0,0,3.036-4.843A.564.564,0,0,0,1514.846,4646.159Z" transform="translate(-1500.911 -4633.837)" fill="#fff5eb"/>
                        </g>
                      </g>
                    </g>
                  </g>
                  <g id="Group_2254" data-name="Group 2254" transform="translate(13.198)">
                    <path id="Path_919" data-name="Path 919" d="M1561.842,4618.5c-.775.031-1.656.076-2.613.122-.258.031-.517.046-.791.061-2.021.137-4.285.319-6.595.471-1.124.061-2.249.122-3.358.167a42.261,42.261,0,0,1-8.494-.319,2.09,2.09,0,0,1-.334-.061,48.753,48.753,0,0,1-13.781-10.044,31.56,31.56,0,0,1-4.361-5.911,36.822,36.822,0,0,0,.638,6.337,38.194,38.194,0,0,0,1.049,4.193c-1.14-.532-2.264-1.109-3.374-1.7-.577-.319-1.139-.638-1.7-.973a39.523,39.523,0,0,1-11.625-10.1c-.137-.168-.257-.35-.38-.532a26.544,26.544,0,0,1-2.081-3.373,26.811,26.811,0,0,1-2.552-7.263l-.046-.228a13.893,13.893,0,0,1,10.151-16.685,31.69,31.69,0,0,1,13.888-.926h.03a38.137,38.137,0,0,1,5.942,1.443,38.658,38.658,0,0,1,26.833,32.4C1559.061,4610.478,1562.085,4613.517,1561.842,4618.5Z" transform="translate(-1501.137 -4571.359)" fill="#994975"/>
                    <path id="Path_920" data-name="Path 920" d="M1545.36,4628.034c.3,1.157.868,2.559,2.062,2.621,1.106.058,1.834-1.1,2.312-2.1q.763-1.6,1.526-3.19a25.322,25.322,0,0,0,2.1-5.442,8.5,8.5,0,0,0-.538-5.707,5.907,5.907,0,0,0-5.954-3.133,5.471,5.471,0,0,0-4.385,6.042C1543.133,4620.77,1544.444,4624.439,1545.36,4628.034Z" transform="translate(-1504.998 -4575.068)" fill="#994975"/>
                  </g>
                </g>
              </g>
              <g id="Group_2275" data-name="Group 2275" transform="translate(0 97.917)">
                <path id="Path_921" data-name="Path 921" d="M1512.105,4681.5s18.444,14.953,36.29-2.117l8.971,3.929-2.328,166.82h-64.4l9.311-164.234Z" transform="translate(-1345.917 -4679.379)" fill="#f2b2d6"/>
                <g id="Group_2257" data-name="Group 2257" transform="translate(74.408 3.541)">
                  <path id="Path_922" data-name="Path 922" d="M1461.834,4705.356s-7.778,2.692-16.454,43.378-32.309,149.28-32.309,149.28l43.378,2.992,21.839-169.625Z" transform="translate(-1413.071 -4685.35)" fill="#498269"/>
                  <path id="Path_923" data-name="Path 923" d="M1503.52,4683.286l-20.174,234.322-45.778-11.25s15.524-188.753,24.828-201.347C1473,4690.656,1503.52,4683.286,1503.52,4683.286Z" transform="translate(-1415.362 -4683.286)" fill="#498269"/>
                </g>
                <g id="Group_2258" data-name="Group 2258" transform="translate(116.271 3.54)">
                  <path id="Path_924" data-name="Path 924" d="M1507.683,4683.285l-23.794,29.355,12.415,15.777-14.225,27.932,16.811,34.14" transform="translate(-1461.388 -4683.285)" fill="none" stroke="#fff5eb" stroke-linecap="round" stroke-linejoin="round" stroke-width="0.838"/>
                  <path id="Path_925" data-name="Path 925" d="M1467.141,4750.05s-6.6,24.053-6.6,32.2,3.492,29.485,3.492,29.485l-4.784,42.157" transform="translate(-1459.253 -4689.529)" fill="none" stroke="#fff5eb" stroke-linecap="round" stroke-linejoin="round" stroke-width="0.838"/>
                </g>
                <g id="Group_2268" data-name="Group 2268" transform="translate(0 167.127)">
                  <g id="Group_2262" data-name="Group 2262" transform="translate(0 216.221)">
                    <g id="Group_2259" data-name="Group 2259">
                      <path id="Path_926" data-name="Path 926" d="M1416.961,5159.732c-19.252,7.46-85.015,22.017-85.957,17.261-.806-4.057,24.312-27.426,37.744-40.357,4.649-4.5,7.9-7.734,8.174-8.479,1.094-2.917-1.094-20.771-1.094-20.771l38.99-5.105,2.8,20.938,3.859,28.916A7.126,7.126,0,0,1,1416.961,5159.732Z" transform="translate(-1330.985 -5102.281)" fill="#ff8a9a"/>
                      <path id="Path_927" data-name="Path 927" d="M1416.961,5161.893c-19.252,7.46-85.015,22.017-85.957,17.261-.806-4.057,24.312-27.426,37.744-40.357a7.1,7.1,0,0,0,1.215,1.124,14.191,14.191,0,0,0,7.324,2.219c8.737.683,17.5-1.764,25.223-5.882a76.224,76.224,0,0,0,15.1-10.878l3.859,28.916A7.126,7.126,0,0,1,1416.961,5161.893Z" transform="translate(-1330.985 -5104.441)" fill="#401a49"/>
                      <path id="Path_928" data-name="Path 928" d="M1416.961,5161.893c-19.252,7.46-85.015,22.017-85.957,17.261-.806-4.057,24.312-27.426,37.744-40.357a7.1,7.1,0,0,0,1.215,1.124,14.191,14.191,0,0,0,7.324,2.219c8.737.683,17.5-1.764,25.223-5.882a76.224,76.224,0,0,0,15.1-10.878l3.859,28.916A7.126,7.126,0,0,1,1416.961,5161.893Z" transform="translate(-1330.985 -5104.441)" fill="#401a49" opacity="0.22" style="mix-blend-mode: multiply;isolation: isolate"/>
                    </g>
                    <g id="Group_2261" data-name="Group 2261" transform="translate(0.019 37.565)">
                      <path id="Path_929" data-name="Path 929" d="M1331.006,5183.038s7.367,1.065,27.281-3.59,51.21-12.544,51.21-12.544" transform="translate(-1331.006 -5145.89)" fill="none" stroke="#ffdad9" stroke-miterlimit="10" stroke-width="0.838"/>
                      <g id="Group_2260" data-name="Group 2260" transform="translate(27.411)">
                        <path id="Path_930" data-name="Path 930" d="M1361.245,5151.068s7.5,1.293,11.51,7.5" transform="translate(-1361.245 -5144.408)" fill="none" stroke="#ffdad9" stroke-linecap="round" stroke-linejoin="round" stroke-width="0.838"/>
                        <path id="Path_931" data-name="Path 931" d="M1368.7,5143.721s7.5,1.293,11.51,7.5" transform="translate(-1361.942 -5143.721)" fill="none" stroke="#ffdad9" stroke-linecap="round" stroke-linejoin="round" stroke-width="0.838"/>
                      </g>
                    </g>
                  </g>
                  <g id="Group_2264" data-name="Group 2264" transform="translate(24.694)">
                    <path id="Path_932" data-name="Path 932" d="M1387.99,4921.955s-23.794,11.9-28.967,45,16.553,135.524,16.553,135.524l52.244-6.206,15.518-121.042Z" transform="translate(-1358.227 -4869.194)" fill="#1a2e35"/>
                    <path id="Path_933" data-name="Path 933" d="M1477.139,4863.75l94.143,3.1c1.161.038,4.461,8.513,4.888,9.432a127.142,127.142,0,0,1,8.433,23.782c3.82,15.859,3.233,34.1-5.181,48.465-10.7,18.266-31.623,21.7-50.943,24.56a206.739,206.739,0,0,1-63.237-.715l-4.655,79.142-52.762,6.724s-36.1-145.609-11.38-174.32C1412.48,4865.3,1477.139,4863.75,1477.139,4863.75Z" transform="translate(-1360.992 -4863.75)" fill="#1a2e35"/>
                    <g id="Group_2263" data-name="Group 2263" transform="translate(26.919 26.64)">
                      <path id="Path_934" data-name="Path 934" d="M1506.815,4893.139l.905,4.913-30.778,16.488" transform="translate(-1396.249 -4893.139)" fill="none" stroke="#401a49" stroke-linecap="round" stroke-linejoin="round" stroke-width="1.676"/>
                      <path id="Path_935" data-name="Path 935" d="M1387.923,4922.289s10.6,99.445,21.724,139.792l50.952-6.466,8.018-148.068" transform="translate(-1387.923 -4894.486)" fill="none" stroke="#401a49" stroke-linecap="round" stroke-linejoin="round" stroke-width="1.676"/>
                    </g>
                  </g>
                  <g id="Group_2267" data-name="Group 2267" transform="translate(76.44 189.836)">
                    <path id="Path_936" data-name="Path 936" d="M1466.521,5095.676c0,3.1-40.343,78.755-47.712,67.115-4.771-7.537-3.692-41.269-2.34-64.107.744-12.429,1.565-21.637,1.565-21.637l34.918-3.875.668,2.978,1.262,5.561S1466.521,5092.576,1466.521,5095.676Z" transform="translate(-1415.312 -5073.173)" fill="#ff8a9a"/>
                    <g id="Group_2266" data-name="Group 2266" transform="translate(0 2.978)">
                      <path id="Path_937" data-name="Path 937" d="M1466.52,5095.983c0,3.024-38.352,75-47.089,67.83a2.882,2.882,0,0,1-.623-.714c-3.418-5.394-3.829-24.19-3.312-42.8v-.091c.121-3.723.258-7.43.441-11.032,0-.243.015-.5.031-.759.151-3.267.319-6.443.5-9.421,5.971,2.082,13.189.775,18.7-2.628,7.081-4.361,12-11.441,16.548-18.4a2.975,2.975,0,0,1,1.611-1.474.907.907,0,0,1,.288-.031l1.262,5.561a114.177,114.177,0,0,1,9.481,10.014c.168.228.35.456.517.684A7.269,7.269,0,0,1,1466.52,5095.983Z" transform="translate(-1415.312 -5076.458)" fill="#401a49"/>
                      <g id="Group_2265" data-name="Group 2265" transform="translate(0.185 15.575)">
                        <path id="Path_938" data-name="Path 938" d="M1465.24,5094.324c-10.621,22.123-21.744,44.825-36.939,64.654-2.978,3.875-5.773,6-8.509,6.442a2.882,2.882,0,0,1-.623-.714c2.689-.183,5.486-2.233,8.524-6.2,15.225-19.859,26.363-42.667,37.029-64.866C1464.891,5093.868,1465.073,5094.1,1465.24,5094.324Z" transform="translate(-1415.857 -5093.64)" fill="#ffd0c5"/>
                        <path id="Path_939" data-name="Path 939" d="M1428.865,5126.751a.385.385,0,0,1-.151-.031,23.714,23.714,0,0,0-12.762-1.666.374.374,0,0,1-.432-.319.38.38,0,0,1,.319-.433,24.493,24.493,0,0,1,13.176,1.721.379.379,0,0,1-.15.728Z" transform="translate(-1415.515 -5096.484)" fill="#ffd0c5"/>
                        <path id="Path_940" data-name="Path 940" d="M1429.808,5114.938a.376.376,0,0,1-.15-.032,30.823,30.823,0,0,0-13.68-2.437.391.391,0,0,1-.4-.36.381.381,0,0,1,.361-.4,31.545,31.545,0,0,1,14.018,2.5.38.38,0,0,1-.15.729Z" transform="translate(-1415.521 -5095.326)" fill="#ffd0c5"/>
                      </g>
                    </g>
                  </g>
                </g>
                <g id="Group_2274" data-name="Group 2274" transform="translate(180.8 0.922)">
                  <g id="Group_2272" data-name="Group 2272">
                    <path id="Path_941" data-name="Path 941" d="M1554.542,4680.4l-24.1,240.434s43.732,19.063,86.9,5.431c2.458-.776-13.19-98.54-15.13-114.445s-7.759-110.179-7.759-110.179S1574.328,4683.888,1554.542,4680.4Z" transform="translate(-1530.44 -4680.396)" fill="#498269"/>
                    <g id="Group_2271" data-name="Group 2271" transform="translate(12.027)">
                      <path id="Path_942" data-name="Path 942" d="M1555.783,4680.4l25.168,23.568-19.4,25.6,13.19,14.354-31.036,57.417" transform="translate(-1543.708 -4680.396)" fill="none" stroke="#fff5eb" stroke-linecap="round" stroke-linejoin="round" stroke-width="0.838"/>
                      <g id="Group_2270" data-name="Group 2270" transform="translate(19.909 21.241)">
                        <g id="Group_2269" data-name="Group 2269" transform="translate(5.955)">
                          <path id="Path_943" data-name="Path 943" d="M1598.413,4703.828s20.174,17.846,28.321,52.373,22.5,96.213,2.716,106.687-37.632,1.164-48.882-33.363-6.983-57.028-6.983-57.028Z" transform="translate(-1572.292 -4703.828)" fill="#498269"/>
                          <path id="Path_944" data-name="Path 944" d="M1614.139,4872.256s-17.846-2.845-29.485-21.984-12.414-71.642-12.414-71.642l30-14.742s18.622,18.1,23.277,30" transform="translate(-1572.24 -4709.445)" fill="none" stroke="#fff5eb" stroke-linecap="round" stroke-linejoin="round" stroke-width="0.838"/>
                          <path id="Path_945" data-name="Path 945" d="M1606.779,4878.146c2.522-5.885,7.83-10.673,14.115-11.892s13.333,1.511,16.609,7.012" transform="translate(-1575.47 -4718.993)" fill="none" stroke="#fff5eb" stroke-linecap="round" stroke-linejoin="round" stroke-width="0.838"/>
                        </g>
                        <path id="Path_946" data-name="Path 946" d="M1565.671,4880.479q11.387,14.786,22.774,29.572" transform="translate(-1565.671 -4720.351)" fill="none" stroke="#fff5eb" stroke-linecap="round" stroke-linejoin="round" stroke-width="0.838"/>
                      </g>
                    </g>
                  </g>
                  <g id="Group_2273" data-name="Group 2273" transform="translate(11.338 28.215)">
                    <path id="Path_947" data-name="Path 947" d="M1572.927,4771.857s-3.88-6.6-5.237-7.565-21.725-21.143-19.011-24.635a1.954,1.954,0,0,1,2.328-.388s-9.892-12.22-7.758-14.742,17.78,14.871,17.78,14.871l.453-.517s-14.936-17.458-12.608-20.95,19.2,16.875,19.2,16.875-14.355-19.591-11.833-22.889c3.084-4.032,26.09,24.053,26.09,24.053s-5.211-13.667-2.165-18.555a1.477,1.477,0,0,1,1.827-.558c1.158.506,2.568,1.655,4.6,5.826,2.94,6.02,8.243,20.755,9.116,25.9.715,4.211,1.455,11.25,1.455,11.25Z" transform="translate(-1542.948 -4711.522)" fill="#ff8a9a"/>
                    <path id="Path_948" data-name="Path 948" d="M1551.839,4742.132l7.953,9.6S1552.712,4747.37,1551.839,4742.132Z" transform="translate(-1543.779 -4714.385)" fill="#401a49"/>
                  </g>
                </g>
              </g>
            </g>
          </g>
        </g>
        <g id="Group_2286" data-name="Group 2286" transform="translate(221.084)">
          <g id="Group_2281" data-name="Group 2281" transform="translate(111.104 102.772)">
            <path id="Path_949" data-name="Path 949" d="M1441.18,4622.6l15.389,29.795L1420.88,4640.6Z" transform="translate(-1351.408 -4552.906)" fill="#498269"/>
            <g id="Group_2280" data-name="Group 2280">
              <circle id="Ellipse_25" data-name="Ellipse 25" cx="42.346" cy="42.346" r="42.346" transform="translate(0 78.46) rotate(-67.882)" fill="#498269"/>
              <g id="Group_2279" data-name="Group 2279" transform="translate(30.226 51.727)">
                <path id="Path_950" data-name="Path 950" d="M1422.474,4606.664a3.884,3.884,0,1,0,3.884-3.884A3.884,3.884,0,0,0,1422.474,4606.664Z" transform="translate(-1381.783 -4602.78)" fill="#fff"/>
                <path id="Path_951" data-name="Path 951" d="M1400.03,4606.664a3.884,3.884,0,1,0,3.883-3.884A3.883,3.883,0,0,0,1400.03,4606.664Z" transform="translate(-1379.684 -4602.78)" fill="#fff"/>
                <path id="Path_952" data-name="Path 952" d="M1377.585,4606.664a3.884,3.884,0,1,0,3.884-3.884A3.884,3.884,0,0,0,1377.585,4606.664Z" transform="translate(-1377.585 -4602.78)" fill="#fff"/>
              </g>
            </g>
          </g>
          <g id="Group_2283" data-name="Group 2283" transform="translate(0 53.395)">
            <circle id="Ellipse_26" data-name="Ellipse 26" cx="42.933" cy="42.933" r="42.933" transform="translate(0 60.717) rotate(-45)" fill="#daf0fa"/>
            <g id="Group_2282" data-name="Group 2282" transform="translate(36.369 33.561)">
              <path id="Path_953" data-name="Path 953" d="M1263.148,4568.228a1.354,1.354,0,0,1-1.354-1.354v-18.1a1.354,1.354,0,0,1,2.709,0v18.1A1.354,1.354,0,0,1,1263.148,4568.228Z" transform="translate(-1261.794 -4530.059)" fill="#498269"/>
              <path id="Path_954" data-name="Path 954" d="M1275.832,4574.21a1.354,1.354,0,0,1-1.355-1.354v-31.213a1.355,1.355,0,0,1,2.709,0v31.213A1.354,1.354,0,0,1,1275.832,4574.21Z" transform="translate(-1262.98 -4529.392)" fill="#498269"/>
              <path id="Path_955" data-name="Path 955" d="M1313.882,4568.228a1.354,1.354,0,0,1-1.354-1.354v-18.1a1.354,1.354,0,0,1,2.709,0v18.1A1.354,1.354,0,0,1,1313.882,4568.228Z" transform="translate(-1266.539 -4530.059)" fill="#498269"/>
              <path id="Path_956" data-name="Path 956" d="M1301.2,4574.21a1.354,1.354,0,0,1-1.354-1.354v-31.213a1.354,1.354,0,1,1,2.709,0v31.213A1.354,1.354,0,0,1,1301.2,4574.21Z" transform="translate(-1265.353 -4529.392)" fill="#498269"/>
              <path id="Path_957" data-name="Path 957" d="M1288.515,4577.148a1.354,1.354,0,0,1-1.354-1.354v-46.173a1.354,1.354,0,1,1,2.709,0v46.173A1.354,1.354,0,0,1,1288.515,4577.148Z" transform="translate(-1264.167 -4528.267)" fill="#498269"/>
            </g>
          </g>
          <g id="Group_2285" data-name="Group 2285" transform="translate(113.932)">
            <g id="Group_2284" data-name="Group 2284">
              <ellipse id="Ellipse_27" data-name="Ellipse 27" cx="39.573" cy="41.139" rx="39.573" ry="41.139" fill="#daf0fa"/>
            </g>
            <path id="Path_958" data-name="Path 958" d="M1383.669,4458.25v33.508l23.75-18.224Z" transform="translate(-1350.756 -4434.763)" fill="#498269"/>
          </g>
        </g>
      </g>
    </g>
  </g>
</svg>
