<svg id="Group_4" data-name="Group 4" xmlns="http://www.w3.org/2000/svg" width="237.235" height="35.543" viewBox="0 0 237.235 35.543">
  <g id="Group_1" data-name="Group 1" transform="translate(45.584 3.511)">
    <path id="Path_1" data-name="Path 1" d="M531.624,79.661l1.816-.5-1.221-3.413h-5.73L525.3,79l2.411.627v1.533h-7.045v-1.5l1.785-.532,6.857-16.5h3.536L538.887,79.1l1.566.532v1.533h-8.829Zm-4.477-5.635h4.445l-2.1-5.855h-.186Z" transform="translate(-520.666 -59.155)" fill="#fff"/>
    <path id="Path_2" data-name="Path 2" d="M561.211,65.7a5.876,5.876,0,0,0-3.068-.845c-1.6,0-2.881.781-2.881,2.254,0,1.564,1.911,2.066,4.071,2.754,2.693.846,5.7,2,5.7,5.886,0,4.07-3.381,5.667-7.983,5.667a17.242,17.242,0,0,1-6.2-1.252V74.934h2.287l.813,3.193a6.836,6.836,0,0,0,3.412,1.128c1.785,0,3.193-.659,3.193-2.317,0-1.6-2.661-2.129-5.1-3.1-2.222-.847-4.288-2.16-4.288-5.354,0-3.851,3.162-5.855,7.262-5.855a13.354,13.354,0,0,1,5.854,1.19v4.851h-2.285Z" transform="translate(-525.897 -59.155)" fill="#fff"/>
    <path id="Path_3" data-name="Path 3" d="M568.853,79.038l2.066-.814V68.894h-2.347V67.3l5.009-1.409h1.973V78.1l2.159.909v1.533h-8.859Zm4.571-20c1.785,0,2.725.814,2.725,2.38,0,1.595-.971,2.441-2.725,2.441-1.658,0-2.755-.847-2.755-2.441C570.668,59.847,571.765,59.033,573.424,59.033Z" transform="translate(-528.969 -58.531)" fill="#fff"/>
    <path id="Path_4" data-name="Path 4" d="M599.421,80.475l1.972-.814v-5.54c0-2.661-1.222-3.632-3.069-3.632a7.681,7.681,0,0,0-1.816.25,8.923,8.923,0,0,1,.219,1.94v6.952l1.754.813v1.533h-8.265v-1.5l1.847-.782V74.121c0-2.661-1.252-3.632-3.068-3.632a7.733,7.733,0,0,0-1.628.219V79.6l1.847.846v1.533h-8.578v-1.5l2.1-.814V70.332h-2.348v-1.6l4.978-1.409h1.252l.594,1.91a8.322,8.322,0,0,1,5.2-1.91,3.887,3.887,0,0,1,3.725,2.254,8.378,8.378,0,0,1,5.6-2.254c2.411,0,4.321,1.534,4.321,5.352v6.952l1.941.813v1.533h-8.578Z" transform="translate(-531.017 -59.969)" fill="#fff"/>
    <path id="Path_5" data-name="Path 5" d="M612.738,86.987l2.254-.907V70.332h-2.379v-1.6l5.009-1.409h1.221l.5,1.5a7.926,7.926,0,0,1,4.476-1.5c3.632,0,6.073,2.158,6.073,6.95,0,5.134-4.381,7.952-8.64,7.952-.564,0-1.1-.031-1.628-.063V86.08l2,.876v1.533h-8.891Zm6.887-16.843V79.85c.345.03.689.062,1,.062,2.849,0,4.226-1.972,4.226-5.449,0-3.068-1.909-4.445-4.1-4.445A6.8,6.8,0,0,0,619.625,70.144Z" transform="translate(-536.603 -59.969)" fill="#fff"/>
    <path id="Path_6" data-name="Path 6" d="M633.078,78.932l2.068-.814V61.432H632.8v-1.6l4.977-1.409h2V77.993l2.161.909v1.533h-8.861Z" transform="translate(-540.101 -58.426)" fill="#fff"/>
    <path id="Path_7" data-name="Path 7" d="M648.68,74.965a4.48,4.48,0,0,0,4.7,4.414,10.893,10.893,0,0,0,4.289-.909l.563.72a10.02,10.02,0,0,1-7.105,3.037c-4.384,0-7.42-2.349-7.42-7.044,0-5.072,3.851-7.858,7.982-7.858,4.2,0,6.889,2.629,6.919,7.638Zm.031-1.753,4.883-.282c-.062-2.254-.845-3.507-2.285-3.507C649.995,69.423,648.961,70.489,648.712,73.212Z" transform="translate(-541.991 -59.969)" fill="#fff"/>
    <path id="Path_8" data-name="Path 8" d="M673.631,81.223l-4.79-16.091-1.471-.627V62.971h9.141v1.5l-2.317.751,2.473,9.549h.188l4.038-11.8h3.131l4.445,11.8h.188l2.441-9.267-2.441-1V62.971h7.232v1.5l-1.721.813L688.66,81.223h-3.382l-3.913-11.4h-.188l-4.414,11.4Z" transform="translate(-546.094 -59.214)" fill="#fff"/>
    <path id="Path_9" data-name="Path 9" d="M706.074,82.229c-3.851,0-7.576-1.378-7.576-7.138a7.625,7.625,0,0,1,7.827-7.764c4.164,0,7.576,1.939,7.576,7.607C713.9,80.069,709.738,82.229,706.074,82.229Zm-.062-12.992c-2.129,0-2.5,2.348-2.5,5.2,0,3.506.876,5.759,2.787,5.759,2,0,2.6-2.192,2.6-4.883C708.893,72.366,708.36,69.237,706.012,69.237Z" transform="translate(-551.489 -59.969)" fill="#fff"/>
    <path id="Path_10" data-name="Path 10" d="M717.669,80.475l1.847-.72V70.332h-2.347v-1.6l4.978-1.409H723.4l.5,1.564a8.584,8.584,0,0,1,4.2-1.564,5.65,5.65,0,0,1,1.44.155l-.5,4.572h-.689l-3.664-2h-.532v9.36l2.411,1.034v1.533h-8.892Z" transform="translate(-554.725 -59.969)" fill="#fff"/>
    <path id="Path_11" data-name="Path 11" d="M748.988,78.839v1.6h-5.7l-.532-1.785a5.651,5.651,0,0,1-4.571,2.035c-3.6,0-5.947-2.725-5.947-7.044a7.7,7.7,0,0,1,7.858-7.827,6.24,6.24,0,0,1,2.411.47V61.432H740.16v-1.6l4.978-1.409h2V77.931Zm-6.48-11.02a8.127,8.127,0,0,0-1.534-.157c-1.878,0-3.756,1.409-3.756,5.072,0,3,1.691,4.915,3.788,4.915a6.549,6.549,0,0,0,1.5-.188Z" transform="translate(-557.337 -58.426)" fill="#fff"/>
  </g>
  <g id="Group_3" data-name="Group 3">
    <g id="Group_2" data-name="Group 2">
      <path id="Path_12" data-name="Path 12" d="M493.532,57.171l-.1-.291-.276-.131a31.04,31.04,0,0,0-24.731,0l-.276.131-.094.291a56.494,56.494,0,0,0-2.535,14.78,56.494,56.494,0,0,0,2.535,14.78l.094.291.276.131a31.049,31.049,0,0,0,24.731,0l.276-.131.1-.291a56.494,56.494,0,0,0,2.535-14.78A56.494,56.494,0,0,0,493.532,57.171ZM492.28,86a29.693,29.693,0,0,1-22.967,0,55.209,55.209,0,0,1-2.375-14.048A55.209,55.209,0,0,1,469.313,57.9a29.693,29.693,0,0,1,22.967,0,55.321,55.321,0,0,1,2.375,14.048A55.32,55.32,0,0,1,492.28,86Z" transform="translate(-465.525 -54.179)" fill="#fff"/>
    </g>
    <path id="Path_13" data-name="Path 13" d="M490.046,70.968a15.7,15.7,0,0,1-3.626-9.518v-.577l-.565-.117a19.463,19.463,0,0,0-3.548-.323,21.147,21.147,0,0,0-3.633.322l-.574.111v.584a15.771,15.771,0,0,1-3.626,9.518,2.04,2.04,0,0,0-.25,2.3l6.967,12.217a1.176,1.176,0,0,0,2.138,0L490.3,73.269A2.043,2.043,0,0,0,490.046,70.968Zm-6.922-9.1h0c.242.011.473.027.689.046l.053,0,.179.017c.052,0,.1.009.154.015.32.032.6.069.817.1a14.652,14.652,0,0,0,.348,2.572,19.4,19.4,0,0,0-6.215.012,14.581,14.581,0,0,0,.35-2.578,20.275,20.275,0,0,1,2.806-.207C482.59,61.847,482.864,61.854,483.125,61.866Zm5.944,10.7-6.1,10.689V73.207h2.545V71.791h-2.545V69.209h-1.415v2.583h-2.546v1.415h2.546V83.264l-6.1-10.7a.659.659,0,0,1,.072-.651,17.5,17.5,0,0,0,3.212-5.764,16.961,16.961,0,0,1,3.571-.364,17.424,17.424,0,0,1,3.474.346A17.418,17.418,0,0,0,489,71.918.654.654,0,0,1,489.068,72.568Z" transform="translate(-466.99 -55.263)" fill="#fff"/>
  </g>
</svg>
