<?xml version="1.0" encoding="utf-8"?>
<!-- Generator: Adobe Illustrator 25.4.1, SVG Export Plug-In . SVG Version: 6.00 Build 0)  -->
<svg version="1.1" id="Layer_1" xmlns="http://www.w3.org/2000/svg" xmlns:xlink="http://www.w3.org/1999/xlink" x="0px" y="0px"
	 viewBox="0 0 307.267 327.021" style="enable-background:new 0 0 307.267 327.021;" xml:space="preserve">
<style type="text/css">
	.st0{fill:#EBF0F1;}
	.st1{fill:#DFE9F2;}
	.st2{fill:#A8B0B6;}
	.st3{clip-path:url(#SVGID_00000159427656703312965950000009087933706911142538_);}
	.st4{fill:#CCCCCC;}
	.st5{fill:#876441;}
	.st6{fill:#F3A48A;}
	.st7{fill:#CF5D43;}
	.st8{fill:#DD6D4E;}
	.st9{fill:#ABA97B;}
	.st10{fill:#E3E0A2;}
	.st11{fill:#303030;}
	.st12{fill:#EFEDE3;}
	.st13{fill:#353535;}
	.st14{fill:#9F714A;}
	.st15{fill:#775336;}
	.st16{fill:#412C19;}
	.st17{fill:#B5B573;}
	.st18{clip-path:url(#SVGID_00000105388728125923603050000016168999146789587085_);}
	.st19{fill:#3B9A64;}
	.st20{fill:#AC614E;}
	.st21{fill:#C1C57C;}
	.st22{clip-path:url(#SVGID_00000150788474009320756680000015607424256013524621_);}
	.st23{fill:#4CA66F;}
	.st24{fill:#FCF9EE;}
	.st25{fill:#F47F64;}
	.st26{fill:#668F95;}
	.st27{fill:#EBE6D5;}
	.st28{fill:#005D68;}
	.st29{fill:#FFC099;}
	.st30{fill:#003239;}
	.st31{fill:#DF8E7A;}
	.st32{fill:#B77B67;}
	.st33{fill:#68472F;}
	.st34{fill:#FBA983;}
	.st35{fill:#FFFFFF;}
	.st36{fill:#F88D61;}
	.st37{fill:#C79072;}
	.st38{fill:#573C28;}
	.st39{fill:#FFA16C;}
	.st40{fill:#F5F5F5;}
	.st41{fill:#E1E1E1;}
	.st42{fill:#ECECEC;}
	.st43{fill:#FAFAFA;}
	.st44{fill:#1A2E35;}
	.st45{fill:#375A64;}
	.st46{opacity:0.3;}
	.st47{fill:#498269;}
	.st48{fill:#946962;}
	.st49{fill:#6F4540;}
	.st50{fill:#CE4F41;}
	.st51{opacity:0.6;}
	.st52{fill:#305A46;}
	.st53{fill:#F7D858;}
	.st54{opacity:0.2;}
	.st55{opacity:0.4;}
	.st56{fill:#101010;}
	.st57{fill:#6AB792;}
	.st58{fill:#D25F3B;}
	.st59{fill:#E57E5B;}
	.st60{fill:none;stroke:#D25F3B;stroke-width:1.3008;stroke-linecap:round;stroke-linejoin:round;stroke-miterlimit:10;}
	.st61{fill:none;stroke:#498269;stroke-width:1.8047;stroke-linecap:round;stroke-linejoin:round;stroke-miterlimit:10;}
	.st62{fill:#39ACB2;}
	.st63{clip-path:url(#SVGID_00000134952538567907680910000000716768559221813407_);}
	.st64{fill:none;stroke:#305A46;stroke-width:3.1006;stroke-linecap:round;stroke-linejoin:round;stroke-miterlimit:10;}
	.st65{fill:#EC8A63;}
	.st66{fill:#FFB890;}
	.st67{fill:none;stroke:#EC8A63;stroke-width:2.028;stroke-linecap:round;stroke-linejoin:round;stroke-miterlimit:10;}
	.st68{opacity:0.26;fill:#FFFFFF;}
	.st69{fill:none;stroke:#FFFFFF;stroke-width:1.9299;stroke-linecap:round;stroke-linejoin:round;stroke-miterlimit:10;}
	.st70{fill:#DAF0FA;}
	.st71{fill:#FFBF9D;}
	.st72{fill:#FF9A6C;}
	.st73{fill:none;stroke:#44555B;stroke-miterlimit:10;}
	.st74{fill:#C78976;}
	.st75{fill:#BF654E;}
	.st76{fill:none;stroke:#44555B;stroke-width:0.05;stroke-miterlimit:10;}
	.st77{fill:none;stroke:#44555B;stroke-width:0.0469;stroke-miterlimit:10;}
	.st78{fill:#FF735D;}
	.st79{clip-path:url(#SVGID_00000133526918562756159370000013899194050109421956_);}
	.st80{fill:#FFDAD9;}
	.st81{fill:#DCDFE0;}
	.st82{fill:none;stroke:#B6E1F4;stroke-width:5.3697;stroke-linecap:round;stroke-linejoin:round;stroke-miterlimit:10;}
	.st83{fill:none;stroke:#B6E1F4;stroke-width:5.0288;stroke-miterlimit:10;}
	.st84{opacity:0.44;fill:#B6E1F4;}
	.st85{fill:#E07280;}
	.st86{fill:#7E5780;}
	.st87{opacity:0.22;fill:#7E5780;}
	.st88{fill:none;stroke:#FFD0C5;stroke-width:0.3194;stroke-miterlimit:10;}
	.st89{fill:none;stroke:#FFD0C5;stroke-width:0.3836;stroke-miterlimit:10;}
	.st90{fill:none;stroke:#401A49;stroke-width:1.5344;stroke-linecap:round;stroke-linejoin:round;stroke-miterlimit:10;}
	.st91{fill:#401A49;}
	.st92{fill:none;stroke:#161C3E;stroke-width:1.1265;stroke-linecap:round;stroke-linejoin:round;stroke-miterlimit:10;}
	.st93{opacity:0.09;fill:#E07280;}
	.st94{fill:none;stroke:#401A49;stroke-width:0.9884;stroke-linecap:round;stroke-linejoin:round;stroke-miterlimit:10;}
	.st95{fill:none;stroke:#401A49;stroke-width:0.7672;stroke-linecap:round;stroke-linejoin:round;stroke-miterlimit:10;}
	.st96{fill:#994975;}
	.st97{fill:#FF8A9A;}
	.st98{fill:none;stroke:#161C3E;stroke-width:1.0685;stroke-linecap:round;stroke-linejoin:round;stroke-miterlimit:10;}
	.st99{opacity:0.35;fill:#EF5D6B;}
	.st100{fill:none;stroke:#401A49;stroke-width:0.9376;stroke-linecap:round;stroke-linejoin:round;stroke-miterlimit:10;}
	.st101{fill:#FFF5EB;}
	.st102{fill:#F2B2D6;}
	.st103{fill:none;stroke:#FFF5EB;stroke-width:0.8381;stroke-linecap:round;stroke-linejoin:round;stroke-miterlimit:10;}
	.st104{opacity:0.22;fill:#401A49;}
	.st105{fill:none;stroke:#FFDAD9;stroke-width:0.8381;stroke-miterlimit:10;}
	.st106{fill:none;stroke:#FFDAD9;stroke-width:0.8381;stroke-linecap:round;stroke-linejoin:round;stroke-miterlimit:10;}
	.st107{fill:none;stroke:#401A49;stroke-width:1.6763;stroke-linecap:round;stroke-linejoin:round;stroke-miterlimit:10;}
	.st108{fill:#FFD0C5;}
	.st109{fill:#FDB22C;}
	.st110{fill:#1A8B91;}
	.st111{fill:none;stroke:#000000;stroke-width:0.8147;stroke-linecap:round;stroke-linejoin:round;stroke-miterlimit:10;}
	.st112{fill:#ECA079;}
	.st113{fill:#FDF1F5;}
	.st114{fill:#E6C6CE;}
	.st115{fill:#862904;}
	.st116{fill:#DC845E;}
	.st117{fill:none;stroke:#000000;stroke-width:0.848;stroke-linecap:round;stroke-linejoin:round;stroke-miterlimit:10;}
	.st118{clip-path:url(#XMLID_00000003092103841159654100000015003843801825386624_);}
	.st119{clip-path:url(#XMLID_00000013159691029665062070000001763031679192292002_);}
	.st120{fill:none;stroke:#000000;stroke-width:0.8027;stroke-linecap:round;stroke-linejoin:round;stroke-miterlimit:10;}
	.st121{fill:none;stroke:#FFFFFF;stroke-width:2.99;stroke-linecap:round;stroke-linejoin:round;}
	.st122{fill:none;stroke:#FFFFFF;stroke-width:2.99;stroke-linecap:round;stroke-linejoin:round;stroke-dasharray:18.4657,18.4657;}
	.st123{fill:none;stroke:#000000;stroke-width:0.9784;stroke-linecap:round;stroke-linejoin:round;stroke-miterlimit:10;}
	.st124{clip-path:url(#XMLID_00000114072993675592828440000006069823046186616250_);}
	.st125{fill:none;stroke:#000000;stroke-width:0.682;stroke-linecap:round;stroke-linejoin:round;stroke-miterlimit:10;}
	.st126{fill:#AE3700;}
	.st127{fill:none;stroke:#FFFFFF;stroke-width:1.7082;stroke-linecap:round;stroke-linejoin:round;stroke-miterlimit:10;}
	.st128{fill:none;stroke:#000000;stroke-width:0.9976;stroke-linecap:round;stroke-linejoin:round;stroke-miterlimit:10;}
	.st129{fill:#528E72;}
	.st130{fill:#F0DBE0;}
	.st131{fill:#89331A;}
	.st132{fill:none;stroke:#CCDADC;stroke-linecap:round;stroke-linejoin:round;}
	.st133{opacity:0.45;fill:#F7E3C7;enable-background:new    ;}
	.st134{fill:#222222;}
	.st135{fill:#F47365;}
	.st136{fill:none;stroke:#222222;stroke-width:0.211;stroke-linecap:round;stroke-linejoin:round;}
	.st137{opacity:0.5;fill:#F43D4F;enable-background:new    ;}
	.st138{fill:#F43D4F;}
	.st139{fill:none;stroke:#FFF7EE;stroke-width:0.422;stroke-miterlimit:10;}
	.st140{fill:#FBB244;}
	.st141{fill:#FFF7EE;}
	.st142{opacity:0.22;}
	.st143{clip-path:url(#SVGID_00000117669556684992487240000007136145490145128069_);}
	.st144{fill:none;stroke:#FFFFFF;stroke-width:0.422;stroke-linecap:round;stroke-linejoin:round;}
	.st145{fill:none;stroke:#222222;stroke-width:2.166;stroke-linecap:round;stroke-linejoin:round;}
	.st146{fill:none;stroke:#222222;stroke-width:2.1655;stroke-linecap:round;stroke-linejoin:round;stroke-miterlimit:3.9991;}
	.st147{clip-path:url(#SVGID_00000052073012980719221110000009285349197675766961_);}
	.st148{fill:none;stroke:#222222;stroke-width:0.422;stroke-linecap:round;stroke-linejoin:round;}
	.st149{fill:#00454F;}
	.st150{fill:#B0B4B5;}
	.st151{fill-rule:evenodd;clip-rule:evenodd;fill:#00454F;}
	.st152{fill:#D2DADB;}
	.st153{fill:none;stroke:#FFFFFF;stroke-width:3.3017;stroke-miterlimit:10;}
	.st154{fill:#05454F;}
	.st155{fill:none;stroke:#707070;}
	.st156{fill:#F5F7F6;}
</style>
<g>
	<g>
		<g>
			<g>
				<path class="st0" d="M286.534,0H168.857H137.35l24.302,17.537v34.502c0,3.979,3.225,7.204,7.204,7.204h117.677
					c3.979,0,7.204-3.226,7.204-7.204V7.204C293.738,3.225,290.513,0,286.534,0z"/>
			</g>
		</g>
		<g>
			<g>
				<g>
					<path class="st41" d="M280.311,24.383c0,0.144-22.5,0.26-50.249,0.26c-27.758,0-50.254-0.117-50.254-0.26
						c0-0.144,22.495-0.26,50.254-0.26C257.811,24.122,280.311,24.239,280.311,24.383z"/>
				</g>
			</g>
		</g>
		<g>
			<g>
				<g>
					<path class="st41" d="M280.311,37.629c0,0.144-22.5,0.26-50.249,0.26c-27.758,0-50.254-0.117-50.254-0.26
						c0-0.144,22.495-0.26,50.254-0.26C257.811,37.369,280.311,37.485,280.311,37.629z"/>
				</g>
			</g>
		</g>
	</g>
	<g>
		<g>
			<g>
				<path class="st70" d="M256.623,80.543H77.932c-21.747,0-39.377,17.63-39.377,39.377v63.68H0l38.556,38.556v43.285
					c0,21.747,17.63,39.377,39.377,39.377h178.691c21.747,0,39.377-17.63,39.377-39.377V119.92
					C296,98.173,278.371,80.543,256.623,80.543z"/>
			</g>
		</g>
		<g>
			<g>
				<g>
					<g>
						<g>
							<path class="st44" d="M183.625,87.275c-1.131,2.923,0.81,6.116,2.986,8.372c2.176,2.256,4.813,4.404,5.496,7.463
								c0.574,2.567-0.377,5.241-0.146,7.861c0.236,2.682,1.68,5.087,2.501,7.652c1.485,4.64,0.889,9.711-0.437,14.399
								c-1.088,3.846-2.7,7.627-5.36,10.61c-2.66,2.983-6.486,5.092-10.482,5.018c-1.132-0.021-2.357-0.265-3.098-1.121
								c-0.641-0.74-0.785-1.776-0.895-2.75c-2.292-20.111-2.294-40.482-0.008-60.594"/>
						</g>
					</g>
					<g>
						<g>
							<path class="st44" d="M181.517,152.165c8.698-0.38,16.735,7.949,16.046,16.628c8.808,2.144,15.029,11.84,13.308,20.74
								c-0.568,2.938-1.874,5.735-2.055,8.722c-0.197,3.259,0.959,6.425,1.588,9.628c1.137,5.788,0.524,11.909-1.738,17.357
								c-1.374,3.31-3.93,6.728-7.512,6.829c-2.432,0.068-4.684-1.505-6.036-3.528c-1.352-2.023-1.952-4.446-2.426-6.832
								c-1.551-7.812-2.018-15.844-4.161-23.515c-2.143-7.671-6.307-15.231-13.247-19.14c-3.833-2.159-8.434-3.179-11.478-6.355
								c-3.188-3.327-3.921-8.604-2.255-12.9c1.667-4.297,5.473-7.576,9.804-9.15"/>
						</g>
					</g>
					<g>
						<g>
							<g>
								<g>
									<path class="st44" d="M121.295,94.439c-0.107-3.717,3.331-6.589,6.792-7.951c3.46-1.362,7.307-1.875,10.391-3.951
										c2.731-1.838,4.567-4.706,6.879-7.049c5.672-5.75,14.528-8.134,22.32-6.008c7.792,2.126,14.21,8.676,16.177,16.51
										c1.329,5.294,0.422,11.552-3.751,15.07c-4.843,4.083-12.023,3.176-18.229,1.906c-6.206-1.27-13.229-2.523-18.41,1.121
										c-3.124,2.198-4.916,5.773-6.826,9.081c-1.91,3.308-4.307,6.687-7.919,7.93c-3.612,1.244-8.517-0.904-8.657-4.722"/>
								</g>
							</g>
						</g>
						<g>
							<g>
								<g>
									<g>
										<g>
											<g>
												<g>
													<g>
														<g>
															<g>
																<g>
																	<g>
																		<g>
																			<g>
																				<g>
																					<g>
																						<path class="st71" d="M135.953,95.203c-3.211,0.347-5.622,3.092-5.551,6.321l0,0l3.711,84.003
																							c0.155,9.921,14.658,15.495,25.279,15.248l0,0c10.727-0.25,11.073-5.51,11.206-14.949
																							c0.224-15.769,0.205-21.689,0.211-21.599c0,0,13.549-2.28,16.318-19.971
																							c1.377-8.798,0.903-23.217,0.135-35.002c-0.692-10.608-7.75-23.609-18.319-22.468L135.953,95.203z"/>
																					</g>
																				</g>
																			</g>
																		</g>
																	</g>
																</g>
															</g>
														</g>
													</g>
													<g>
														<g>
															<g>
																<g>
																	<g>
																		<g>
																			<g>
																				<g>
																					<g>
																						<g>
																							<path class="st44" d="M184.214,120.358c0.045,1.198-0.932,2.223-2.182,2.293
																								c-1.247,0.07-2.297-0.842-2.342-2.04c-0.045-1.197,0.932-2.224,2.179-2.294
																								C183.118,118.247,184.169,119.16,184.214,120.358z"/>
																						</g>
																					</g>
																				</g>
																			</g>
																		</g>
																	</g>
																</g>
															</g>
														</g>
														<g>
															<g>
																<g>
																	<g>
																		<g>
																			<g>
																				<g>
																					<g>
																						<g>
																							<g>
																								<path class="st44" d="M184.152,116.762c-0.281,0.296-2.002-0.971-4.442-0.96
																									c-2.438-0.023-4.226,1.237-4.492,0.938c-0.13-0.132,0.155-0.666,0.934-1.236
																									c0.766-0.567,2.075-1.12,3.595-1.117c1.52,0.005,2.8,0.562,3.536,1.133
																									C184.035,116.095,184.29,116.63,184.152,116.762z"/>
																							</g>
																						</g>
																					</g>
																				</g>
																			</g>
																		</g>
																	</g>
																</g>
															</g>
														</g>
													</g>
													<g>
														<g>
															<g>
																<g>
																	<g>
																		<g>
																			<g>
																				<g>
																					<g>
																						<g>
																							<path class="st44" d="M160.763,120.358c0.045,1.198-0.932,2.223-2.182,2.293
																								c-1.247,0.07-2.297-0.842-2.342-2.04c-0.045-1.197,0.932-2.224,2.18-2.294
																								C159.668,118.247,160.718,119.16,160.763,120.358z"/>
																						</g>
																					</g>
																				</g>
																			</g>
																		</g>
																	</g>
																</g>
															</g>
														</g>
														<g>
															<g>
																<g>
																	<g>
																		<g>
																			<g>
																				<g>
																					<g>
																						<g>
																							<g>
																								<path class="st44" d="M160.163,117.271c-0.281,0.296-2.004-0.971-4.443-0.959
																									c-2.438-0.023-4.227,1.236-4.492,0.938c-0.13-0.132,0.152-0.666,0.934-1.236
																									c0.766-0.567,2.074-1.12,3.595-1.117c1.52,0.005,2.8,0.562,3.537,1.133
																									C160.044,116.604,160.3,117.138,160.163,117.271z"/>
																							</g>
																						</g>
																					</g>
																				</g>
																			</g>
																		</g>
																	</g>
																</g>
															</g>
														</g>
													</g>
													<g>
														<g>
															<g>
																<g>
																	<g>
																		<g>
																			<g>
																				<g>
																					<g>
																						<g>
																							<path class="st44" d="M169.06,135.351c-0.012-0.139,1.505-0.404,3.962-0.724
																								c0.623-0.066,1.213-0.191,1.317-0.616c0.146-0.451-0.117-1.122-0.42-1.846
																								c-0.589-1.507-1.206-3.086-1.854-4.741c-2.574-6.751-4.439-12.303-4.167-12.404
																								c0.273-0.101,2.581,5.288,5.155,12.039c0.62,1.665,1.213,3.252,1.776,4.77
																								c0.238,0.708,0.645,1.51,0.329,2.445c-0.167,0.466-0.623,0.805-1.023,0.914
																								c-0.399,0.123-0.75,0.13-1.058,0.149C170.605,135.475,169.07,135.49,169.06,135.351z"/>
																						</g>
																					</g>
																				</g>
																			</g>
																		</g>
																	</g>
																</g>
															</g>
														</g>
													</g>
													<g>
														<g>
															<g>
																<g>
																	<g>
																		<g>
																			<g>
																				<g>
																					<g>
																						<path class="st72" d="M170.81,164.228c0,0-11.895,0.794-23.698-6.265c0,0,5.773,12.135,23.469,10.441
																							L170.81,164.228z"/>
																					</g>
																				</g>
																			</g>
																		</g>
																	</g>
																</g>
															</g>
														</g>
													</g>
													<g>
														<g>
															<g>
																<g>
																	<g>
																		<g>
																			<g>
																				<g>
																					<g>
																						<path class="st72" d="M168.041,141.235c-0.88-1.158-2.419-1.792-3.946-1.624
																							c-1.059,0.116-2.128,0.629-2.769,1.493c-0.641,0.864-0.774,2.088-0.187,2.909
																							c0.661,0.925,2.037,1.136,3.201,0.802c1.164-0.334,2.165-1.103,3.115-1.869
																							c0.263-0.212,0.531-0.433,0.695-0.723c0.164-0.29,0.198-0.669-0.005-0.908"/>
																					</g>
																				</g>
																			</g>
																		</g>
																	</g>
																</g>
															</g>
														</g>
													</g>
													<g>
														<g>
															<g>
																<g>
																	<g>
																		<g>
																			<g>
																				<g>
																					<g>
																						<g>
																							<path class="st44" d="M161.882,137.055c0.397-0.024,0.408,2.625,2.68,4.5
																								c2.267,1.882,5.091,1.578,5.112,1.948c0.037,0.166-0.628,0.516-1.819,0.551
																								c-1.169,0.043-2.877-0.329-4.267-1.476c-1.386-1.15-1.984-2.687-2.077-3.774
																								C161.406,137.697,161.701,137.04,161.882,137.055z"/>
																						</g>
																					</g>
																				</g>
																			</g>
																		</g>
																	</g>
																</g>
															</g>
														</g>
													</g>
												</g>
											</g>
										</g>
										<g>
											<g>
												<g>
													<g>
														<g>
															<g>
																<g>
																	<g>
																		<g>
																			<path class="st44" d="M161.252,112.996c-0.239,0.664-2.677,0.355-5.539,0.706
																				c-2.87,0.294-5.177,1.137-5.558,0.543c-0.17-0.284,0.231-0.909,1.163-1.554c0.924-0.644,2.399-1.256,4.118-1.451
																				c1.719-0.192,3.293,0.078,4.337,0.5C160.824,112.16,161.354,112.68,161.252,112.996z"/>
																		</g>
																	</g>
																</g>
															</g>
														</g>
													</g>
												</g>
											</g>
										</g>
										<g>
											<g>
												<g>
													<g>
														<g>
															<g>
																<g>
																	<g>
																		<g>
																			<path class="st44" d="M183.239,109.701c-0.428,0.555-2.111-0.016-4.132-0.039
																				c-2.021-0.093-3.733,0.381-4.128-0.198c-0.173-0.281,0.095-0.837,0.842-1.363
																				c0.736-0.524,1.968-0.955,3.358-0.916c1.389,0.041,2.594,0.541,3.298,1.107
																				C183.192,108.86,183.428,109.43,183.239,109.701z"/>
																		</g>
																	</g>
																</g>
															</g>
														</g>
													</g>
												</g>
											</g>
										</g>
									</g>
								</g>
							</g>
						</g>
						<g>
							<g>
								<g>
									<path class="st44" d="M123.605,153.385c4.863,0.98,10.16-0.514,13.794-3.892c3.634-3.378,5.511-8.552,4.888-13.474
										c-0.55-4.343-2.892-8.763-1.386-12.873c1.991-5.435,9.61-7.107,11.632-12.531c1.175-3.152,0.12-6.84,1.452-9.929
										c1.252-2.905,4.309-4.578,7.284-5.653c2.975-1.076,6.165-1.818,8.662-3.76s4.055-5.605,2.444-8.328
										c-13.193,1.581-26.196,4.741-38.644,9.389c-2.886,1.078-5.918,2.373-7.624,4.939c-1.806,2.714-1.719,6.222-1.567,9.478
										C125.281,122.63,122.864,137.506,123.605,153.385"/>
								</g>
							</g>
						</g>
					</g>
					<g>
						<g>
							<g>
								<path class="st45" d="M119.389,148.402c-0.003,0.008-0.1-0.023-0.289-0.094c-0.194-0.06-0.464-0.19-0.805-0.392
									c-0.673-0.402-1.573-1.233-2.206-2.608c-0.631-1.357-1.003-3.258-0.576-5.371c0.424-2.113,1.643-4.279,3.213-6.423
									c1.551-2.161,3.513-4.348,4.853-7.14c0.66-1.386,1.15-2.932,1.171-4.558c0.033-1.628-0.487-3.26-1.041-4.92
									c-0.563-1.651-1.105-3.447-1.044-5.346c0.077-1.881,0.622-3.776,1.614-5.458c0.981-1.681,2.387-3.177,4.134-4.2
									c1.737-1.075,3.82-1.451,5.826-1.662c2.016-0.227,4.025-0.343,5.834-1.019c1.824-0.645,3.231-2.038,4.099-3.692
									c0.893-1.649,1.399-3.461,1.943-5.215c0.528-1.763,1.164-3.483,1.994-5.05c1.628-3.147,3.929-5.782,6.63-7.452
									c2.699-1.673,5.709-2.355,8.396-2.177c2.696,0.174,5.042,1.248,6.605,2.709c1.578,1.45,2.51,3.109,2.956,4.536
									c0.461,1.433,0.485,2.623,0.41,3.402c-0.069,0.784-0.208,1.178-0.208,1.178c-0.034-0.006,0.069-0.408,0.103-1.184
									c0.04-0.771-0.017-1.938-0.498-3.331c-0.465-1.387-1.404-2.993-2.958-4.383c-1.539-1.4-3.813-2.411-6.434-2.559
									c-2.609-0.15-5.534,0.536-8.144,2.175c-2.614,1.638-4.849,4.216-6.433,7.307c-0.809,1.543-1.423,3.217-1.945,4.975
									c-0.54,1.75-1.043,3.59-1.971,5.313c-0.465,0.857-1.048,1.676-1.787,2.361c-0.734,0.69-1.629,1.214-2.577,1.572
									c-1.913,0.714-3.961,0.824-5.959,1.052c-2,0.212-3.972,0.572-5.621,1.59c-1.663,0.972-3.014,2.402-3.956,4.011
									c-0.955,1.611-1.478,3.424-1.558,5.217c-0.063,1.801,0.443,3.52,1.003,5.181c0.546,1.659,1.085,3.352,1.043,5.076
									c-0.03,1.714-0.553,3.319-1.239,4.738c-1.395,2.857-3.391,5.041-4.945,7.171c-1.577,2.113-2.788,4.221-3.226,6.266
									c-0.44,2.036-0.11,3.896,0.476,5.227c0.588,1.349,1.437,2.18,2.078,2.603C118.997,148.26,119.406,148.362,119.389,148.402z"
									/>
							</g>
						</g>
					</g>
					<g>
						<g>
							<g>
								<path class="st45" d="M170.788,71.293c0.012-0.029,0.261,0.029,0.686,0.207c0.426,0.176,1.018,0.5,1.673,1.012
									c1.301,0.997,2.827,2.94,3.218,5.504c0.375,2.567-0.518,4.871-1.471,6.204c-0.476,0.681-0.948,1.163-1.304,1.456
									c-0.355,0.295-0.577,0.423-0.596,0.398c-0.066-0.072,0.753-0.693,1.592-2.055c0.838-1.331,1.616-3.524,1.265-5.926
									c-0.365-2.399-1.749-4.27-2.939-5.299C171.71,71.736,170.745,71.381,170.788,71.293z"/>
							</g>
						</g>
					</g>
					<g>
						<g>
							<g>
								<path class="st45" d="M209.964,192.657c-0.058-0.023,0.311-0.639,0.505-1.871c0.207-1.215,0.109-3.093-0.865-5.092
									c-0.947-2.006-2.936-3.923-5.583-5.201c-1.32-0.646-2.786-1.156-4.345-1.549c-1.561-0.402-3.213-0.736-4.868-1.269
									c-1.646-0.527-3.258-1.253-4.465-2.44c-1.254-1.153-1.85-2.775-2.106-4.247c-0.273-1.485-0.364-2.897-0.693-4.155
									c-0.318-1.257-0.912-2.33-1.61-3.184c-1.409-1.722-3.11-2.531-4.278-2.911c-1.195-0.357-1.903-0.359-1.898-0.413
									c0.001-0.018,0.175-0.021,0.509-0.011c0.334,0.015,0.825,0.079,1.445,0.229c1.214,0.328,2.998,1.107,4.505,2.87
									c0.745,0.873,1.393,1.995,1.744,3.309c0.36,1.305,0.468,2.734,0.747,4.175c0.268,1.434,0.823,2.904,1.99,3.972
									c1.123,1.098,2.658,1.795,4.27,2.311c1.618,0.521,3.261,0.858,4.836,1.271c1.581,0.405,3.081,0.937,4.431,1.613
									c2.708,1.333,4.762,3.363,5.702,5.471c0.969,2.096,1.008,4.047,0.733,5.287c-0.129,0.626-0.31,1.091-0.451,1.393
									C210.067,192.514,209.98,192.665,209.964,192.657z"/>
							</g>
						</g>
					</g>
				</g>
				<g>
					<g>
						<path class="st44" d="M133.045,161.341c-8.957-2.397-16.697-11.173-19.837-19.898c-3.14-8.725-3.142-18.26-2.337-27.497
							c0.584-6.696,1.757-13.775,6.203-18.815c6.703-7.598,13.955-11.477,24.082-11.161"/>
					</g>
				</g>
			</g>
			<g>
				<g>
					<g>
						<path class="st40" d="M185.344,180.842l-8.35-2.098c1.961-1.555,2.509-3.552,1.657-5.824c-0.997-2.659-3.559-4.412-6.38-4.73
							l-38.085-4.299c-1.363-0.154-2.691,0.602-3.194,1.879c-1.691,4.29-1.749,7.824-0.173,10.601l-0.181-0.002l-7.335,1.46
							l-12.407,109.741l81.477-3.809L185.344,180.842z"/>
					</g>
				</g>
				<g>
					<g>
						<g>
							<g>
								<path class="st44" d="M173.362,179.163c0.005,0.036-0.539,0.138-1.529,0.293c-0.989,0.161-2.428,0.34-4.212,0.511
									c-3.566,0.347-8.526,0.57-13.993,0.302c-5.468-0.276-10.382-0.99-13.896-1.689c-1.758-0.347-3.172-0.668-4.14-0.926
									c-0.969-0.253-1.501-0.408-1.492-0.443c0.008-0.035,0.556,0.054,1.537,0.246c0.98,0.197,2.402,0.462,4.162,0.762
									c3.519,0.604,8.414,1.256,13.856,1.531c5.44,0.266,10.375,0.103,13.937-0.149c1.781-0.124,3.222-0.246,4.217-0.345
									C172.804,179.162,173.357,179.128,173.362,179.163z"/>
							</g>
						</g>
					</g>
					<g>
						<g>
							<g>
								<path class="st41" d="M136.532,196.6c-0.12-0.08,1.158-2.202,2.852-4.74c1.695-2.539,3.166-4.531,3.285-4.452
									c0.12,0.08-1.157,2.202-2.852,4.741C138.122,194.687,136.651,196.68,136.532,196.6z"/>
							</g>
						</g>
					</g>
					<g>
						<g>
							<g>
								<path class="st41" d="M162.796,198.461c-0.112,0.09-1.732-1.739-3.618-4.085c-1.887-2.347-3.325-4.322-3.213-4.412
									c0.112-0.09,1.732,1.739,3.618,4.086C161.47,196.395,162.908,198.371,162.796,198.461z"/>
							</g>
						</g>
					</g>
					<g>
						<g>
							<g>
								<path class="st41" d="M150.596,212.407c-0.142,0.025-0.693-2.419-1.23-5.458c-0.538-3.04-0.859-5.525-0.718-5.55
									c0.142-0.025,0.692,2.419,1.23,5.459C150.417,209.897,150.738,212.382,150.596,212.407z"/>
							</g>
						</g>
					</g>
					<g>
						<g>
							<g>
								<path class="st41" d="M170.645,213.273c0.101,0.102-1.97,2.306-4.625,4.921c-2.656,2.616-4.89,4.653-4.991,4.55
									c-0.101-0.102,1.97-2.305,4.626-4.921C168.309,215.208,170.544,213.171,170.645,213.273z"/>
							</g>
						</g>
					</g>
					<g>
						<g>
							<g>
								<path class="st41" d="M143.757,231.971c-0.065,0.111-2.546-1.397-4.978-3.989c-2.447-2.579-3.808-5.144-3.693-5.202
									c0.134-0.085,1.67,2.314,4.072,4.844C141.544,230.169,143.85,231.842,143.757,231.971z"/>
							</g>
						</g>
					</g>
					<g>
						<g>
							<g>
								<path class="st41" d="M152.394,246.409c0.045,0.15-2.283,0.887-4.921,2.288c-2.648,1.386-4.569,2.89-4.668,2.768
									c-0.09-0.094,1.719-1.811,4.425-3.229C149.928,246.805,152.367,246.28,152.394,246.409z"/>
							</g>
						</g>
					</g>
					<g>
						<g>
							<g>
								<path class="st41" d="M166.448,247.346c-0.054,0.044-0.669-0.604-1.592-1.711c-0.924-1.106-2.15-2.676-3.429-4.465
									c-1.278-1.791-2.365-3.46-3.112-4.693c-0.747-1.233-1.161-2.024-1.102-2.061c0.062-0.039,0.586,0.682,1.41,1.86
									c0.94,1.338,2.027,2.884,3.227,4.592c1.226,1.689,2.335,3.218,3.296,4.541C165.993,246.57,166.505,247.299,166.448,247.346z
									"/>
							</g>
						</g>
					</g>
					<g>
						<g>
							<g>
								<path class="st41" d="M167.851,259.661c0.031,0.137-2.648,0.848-6.016,1.402c-3.369,0.559-6.134,0.745-6.148,0.606
									c-0.016-0.147,2.71-0.564,6.064-1.12C165.103,259.998,167.819,259.517,167.851,259.661z"/>
							</g>
						</g>
					</g>
					<g>
						<g>
							<g>
								<path class="st41" d="M145.105,177.613c-0.07-0.056,0.412-0.604,0.821-1.663c0.418-1.047,0.68-2.63,0.434-4.343
									c-0.249-1.716-0.849-3.202-1.29-4.265c-0.449-1.064-0.742-1.724-0.674-1.759c0.06-0.031,0.467,0.565,1.008,1.603
									c0.531,1.035,1.21,2.543,1.472,4.348c0.261,1.808-0.079,3.494-0.612,4.562C145.738,177.18,145.139,177.654,145.105,177.613z
									"/>
							</g>
						</g>
					</g>
					<g>
						<g>
							<g>
								<path class="st41" d="M160.323,169.396c0.111-0.074,1.046,1.303,1.501,3.276c0.468,1.97,0.242,3.619,0.109,3.602
									c-0.154-0.005-0.166-1.598-0.616-3.484C160.884,170.902,160.187,169.469,160.323,169.396z"/>
							</g>
						</g>
					</g>
				</g>
			</g>
			<g>
				<g>
					<g>
						<g>
							<g>
								<g>
									<g>
										<g>
											<path class="st71" d="M228.969,247.583l37.908-66.57l4.567-11.547c0,0,11.814-25.405,12.638-27.991
												c0.953-2.988,2.621-3.246,3.698-2.82c1.679,0.664,2.217,3.166,1.479,5.754c-0.255,0.895-4.849,14.849-4.849,14.849
												s1.01-0.953,3.919-2.908c2.909-1.956,8.246-1.895,13.18-0.138c4.934,1.757,6.161,2.686,5.568,4.634
												c-0.238,0.782-0.876,1.268-1.581,1.569c-1.152,0.492-2.466,0.484-3.651,0.08c-7.941-2.706-11.459,0.873-11.459,0.873
												l-0.598,1.511c0,0,5.966-1.911,9.363,0.791c0.554,0.441,0.947,0.934,1.237,1.446c2.115,0.701,3.827,2.528,4.349,4.697
												c0.543,2.257-0.219,4.781-1.921,6.36c-0.813,0.754-2.045,1.304-3.012,0.763c-0.511-0.286-0.83-0.813-1.138-1.311
												c-0.162-0.261-0.337-0.525-0.543-0.754l-2.266,3.998c0,0-5.571,8.708-7.566,12.772l-26.088,69.521
												c-3.617,9.639-14.435,14.439-24.008,10.652h0C227.784,269.695,223.428,257.313,228.969,247.583z"/>
										</g>
									</g>
								</g>
							</g>
						</g>
					</g>
					<g>
						<g>
							<g>
								<g>
									<g>
										<g>
											<g>
												<path class="st71" d="M269.484,180.786c1.337,0.871,3.185,0.279,4.392-0.765c1.207-1.044,2.025-2.467,3.154-3.595
													c3.376-3.374,9.027-3.691,12.237-7.223c0.448-0.492,0.845-1.24,0.459-1.782c-0.358-0.502-1.11-0.436-1.715-0.316
													c-5.17,1.024-10.339,2.047-15.509,3.071"/>
											</g>
										</g>
									</g>
								</g>
							</g>
						</g>
						<g>
							<g>
								<g>
									<g>
										<g>
											<g>
												<g>
													<path class="st72" d="M272.503,170.175c-0.012-0.061,0.574-0.237,1.643-0.504c1.069-0.267,2.623-0.624,4.546-1.046
														c2.004-0.426,4.28-0.91,6.764-1.438c0.64-0.132,1.292-0.266,1.958-0.403c0.63-0.08,1.418-0.465,2.369,0.079
														c0.461,0.294,0.636,0.95,0.506,1.408c-0.108,0.466-0.342,0.822-0.607,1.142c-0.534,0.578-1.1,1.1-1.747,1.543
														c-2.583,1.785-5.413,2.52-7.669,3.704c-1.137,0.574-2.147,1.233-2.944,2.008c-0.798,0.772-1.426,1.652-2.089,2.404
														c-1.264,1.579-2.949,2.356-4.109,2.306c-1.19-0.023-1.675-0.582-1.637-0.592c0.036-0.084,0.565,0.329,1.622,0.241
														c1.058-0.076,2.479-0.808,3.637-2.366c0.61-0.748,1.207-1.658,2.05-2.524c0.843-0.866,1.914-1.596,3.088-2.214
														c2.332-1.265,5.149-2.042,7.531-3.703c0.595-0.404,1.123-0.897,1.584-1.388c0.434-0.493,0.587-1.085,0.274-1.249
														c-0.313-0.232-1.026-0.092-1.69,0.046c-0.667,0.127-1.322,0.251-1.964,0.373c-2.498,0.458-4.787,0.879-6.802,1.248
														c-1.939,0.342-3.511,0.604-4.601,0.765C273.123,170.177,272.515,170.237,272.503,170.175z"/>
												</g>
											</g>
										</g>
									</g>
								</g>
							</g>
						</g>
					</g>
					<g>
						<g>
							<g>
								<g>
									<g>
										<g>
											<g>
												<path class="st72" d="M289.578,164.892c0.103,0.06,0.311-1.237,1.78-2.398c0.721-0.565,1.776-0.963,2.997-0.985
													c1.223-0.039,2.564,0.253,3.953,0.666c1.393,0.407,2.755,0.822,4.059,0.92c1.296,0.095,2.498-0.068,3.407-0.526
													c0.93-0.45,1.37-1.274,1.451-1.815c0.09-0.554,0.004-0.854-0.018-0.852c-0.057-0.002-0.053,0.302-0.202,0.796
													c-0.148,0.487-0.567,1.143-1.409,1.5c-0.826,0.364-1.963,0.482-3.181,0.363c-1.226-0.12-2.54-0.533-3.946-0.945
													c-1.404-0.416-2.822-0.715-4.136-0.642c-1.315,0.051-2.485,0.54-3.234,1.2c-0.763,0.652-1.156,1.38-1.35,1.889
													C289.559,164.578,289.546,164.885,289.578,164.892z"/>
											</g>
										</g>
									</g>
								</g>
							</g>
						</g>
					</g>
					<g>
						<g>
							<g>
								<g>
									<g>
										<g>
											<g>
												<path class="st72" d="M289.53,143.406c-0.081-0.02-0.409,1.046-0.932,2.768c-0.59,1.914-1.294,4.195-2.072,6.717
													c-0.816,2.51-1.554,4.781-2.173,6.686c-0.564,1.709-0.909,2.769-0.832,2.799c0.072,0.029,0.554-0.981,1.219-2.659
													c0.667-1.677,1.508-4.025,2.341-6.651c0.83-2.625,1.494-5.029,1.914-6.785
													C289.418,144.527,289.605,143.424,289.53,143.406z"/>
											</g>
										</g>
									</g>
								</g>
							</g>
						</g>
					</g>
					<g>
						<g>
							<g>
								<g>
									<g>
										<g>
											<g>
												<path class="st72" d="M291.725,169.055c0.008,0.044,0.336-0.003,0.913-0.055c0.551-0.039,1.482-0.089,2.182,0.585
													c0.341,0.324,0.472,0.832,0.352,1.394c-0.102,0.56-0.409,1.128-0.711,1.766c-0.295,0.623-0.611,1.433-0.369,2.296
													c0.247,0.835,0.938,1.499,1.776,1.789c0.859,0.299,1.778,0.132,2.492-0.247c0.72-0.388,1.298-0.935,1.657-1.614
													c0.637-1.305,0.913-2.542,1.091-3.597c0.16-1.056,0.151-1.937,0.027-2.53c-0.127-0.595-0.329-0.878-0.351-0.863
													c-0.048,0.022,0.075,0.323,0.127,0.894c0.05,0.572-0.002,1.411-0.208,2.426c-0.218,1.002-0.545,2.23-1.158,3.415
													c-0.6,1.081-2.102,2.033-3.487,1.565c-0.676-0.231-1.232-0.776-1.419-1.398c-0.188-0.628,0.031-1.3,0.311-1.915
													c0.275-0.62,0.597-1.24,0.698-1.908c0.132-0.651-0.08-1.39-0.543-1.771c-0.923-0.783-1.948-0.611-2.498-0.513
													C292.022,168.9,291.719,169.02,291.725,169.055z"/>
											</g>
										</g>
									</g>
								</g>
							</g>
						</g>
					</g>
					<g>
						<g>
							<g>
								<g>
									<g>
										<g>
											<g>
												<path class="st72" d="M298.267,176.086c-0.025-0.013-0.197,0.259-0.176,0.815c0.023,0.534,0.302,1.385,1.163,1.956
													c0.843,0.557,2.188,0.661,3.365,0.035c1.178-0.616,2.091-1.833,2.546-3.243c0.455-1.418,0.407-2.898,0.001-4.117
													c-0.399-1.23-1.138-2.169-1.854-2.801c-0.723-0.638-1.431-0.982-1.929-1.162c-0.502-0.177-0.797-0.206-0.805-0.173
													c-0.048,0.104,1.143,0.363,2.454,1.636c0.639,0.632,1.286,1.528,1.624,2.661c0.346,1.125,0.373,2.482-0.043,3.777
													c-0.414,1.289-1.237,2.394-2.246,2.949c-1.001,0.565-2.161,0.516-2.898,0.085c-0.749-0.434-1.068-1.156-1.151-1.63
													C298.229,176.384,298.316,176.098,298.267,176.086z"/>
											</g>
										</g>
									</g>
								</g>
							</g>
						</g>
					</g>
					<g>
						<g>
							<g>
								<g>
									<g>
										<g>
											<g>
												<path class="st72" d="M285.641,182.35c0.02-0.049-0.451-0.312-1.342-0.41c-0.875-0.098-2.209,0.029-3.476,0.829
													l0.426,0.287c0.127-0.606,0.23-1.271,0.288-1.963c0.343-3.861-0.888-6.839-1.013-6.761
													c-0.174,0.039,0.768,2.996,0.433,6.711c-0.057,0.67-0.147,1.314-0.255,1.904l-0.119,0.652l0.545-0.365
													c1.118-0.748,2.326-0.944,3.154-0.946C285.122,182.286,285.62,182.424,285.641,182.35z"/>
											</g>
										</g>
									</g>
								</g>
							</g>
						</g>
					</g>
					<g>
						<g>
							<g>
								<g>
									<g>
										<g>
											<g>
												<path class="st72" d="M293.53,158.63c-0.152,0.023,0.066,1.199,1.127,2.118c1.052,0.93,2.247,0.99,2.249,0.836
													c0.035-0.166-0.955-0.459-1.866-1.273C294.112,159.516,293.69,158.573,293.53,158.63z"/>
											</g>
										</g>
									</g>
								</g>
							</g>
						</g>
					</g>
				</g>
			</g>
			<g>
				<g>
					<g>
						<g>
							<g>
								<g>
									<g>
										<path class="st47" d="M175.187,302.822l39.643,0.389l-6.669-28.769l2.228,5.427c4.209,10.253,14.195,16.949,25.278,16.949
											h0c12.537,0,21.202-9.328,26.507-20.688c12.402-26.559,24.354-69.329,24.354-69.329l-24.179-21.239
											c-17.493,33.094-33.937,61.839-33.937,61.839s-4.748-14.433-8.415-27.306c-3.666-12.87-3.644-19.645-9.279-26.067
											c-8.663-9.874-21.014-12.331-32.48-15.284l-0.428,53.439L175.187,302.822"/>
									</g>
								</g>
							</g>
						</g>
						<g>
							<g>
								<g>
									<g>
										<path class="st47" d="M129.843,263.018l72.196,14.063l3.52,27.737l-110.701-0.002
											c-12.839,0.172-23.045-10.724-22.036-23.524c1.594-20.215,3.324-45.123,4.638-55.648
											c1.025-8.209,4.299-16.698,8.179-24.005c5.586-10.522,24.212-24.036,40.543-24.702l3.092,68.773"/>
									</g>
								</g>
							</g>
						</g>
					</g>
				</g>
				<g>
					<g>
						<g>
							<path class="st44" d="M116.096,261.01c-0.018-0.001-0.029-0.228-0.033-0.661c0.002-0.487,0.004-1.114,0.007-1.892
								c0.01-1.706,0.023-4.066,0.04-6.956c0.008-5.872-0.103-13.985-0.559-22.932c-0.225-4.475-0.518-8.733-0.828-12.603
								c-0.292-3.872-0.629-7.351-1.451-10.157c-0.786-2.813-2.056-4.865-3.183-6.035c-1.123-1.181-1.945-1.614-1.905-1.67
								c0,0,0.858,0.369,2.05,1.529c1.194,1.147,2.548,3.225,3.391,6.071c0.88,2.836,1.258,6.357,1.576,10.221
								c0.337,3.872,0.645,8.136,0.87,12.617c0.457,8.959,0.509,17.085,0.407,22.961c-0.05,2.939-0.131,5.316-0.206,6.958
								c-0.043,0.777-0.078,1.404-0.105,1.89C116.138,260.784,116.114,261.01,116.096,261.01z"/>
						</g>
					</g>
				</g>
				<g>
					<g>
						<g>
							<path class="st44" d="M200.642,279.04c-0.056,0.063-0.722-1.034-2.629-2.128c-0.948-0.542-2.19-1.054-3.688-1.474
								c-1.496-0.425-3.244-0.756-5.173-1.151c-7.714-1.572-18.367-3.762-30.173-5.967c-11.809-2.21-22.538-3.986-30.311-5.234
								c-3.851-0.618-6.983-1.121-9.205-1.477c-1.05-0.176-1.884-0.315-2.5-0.418c-0.571-0.101-0.869-0.163-0.867-0.181
								c0.003-0.018,0.306,0.009,0.882,0.077c0.62,0.079,1.458,0.187,2.515,0.322c2.183,0.29,5.338,0.734,9.232,1.314
								c7.789,1.155,18.535,2.875,30.35,5.086c11.812,2.206,22.457,4.454,30.153,6.118c1.921,0.418,3.672,0.775,5.179,1.232
								c1.507,0.451,2.761,0.999,3.71,1.579c0.952,0.575,1.594,1.168,1.98,1.603c0.207,0.206,0.327,0.397,0.421,0.511
								C200.607,278.971,200.649,279.035,200.642,279.04z"/>
						</g>
					</g>
				</g>
				<g>
					<g>
						<g>
							<path class="st44" d="M116.31,261.01c0.023,0.094-1.331,0.406-3.39,1.243c-1.032,0.412-2.221,0.994-3.493,1.723
								c-1.259,0.75-2.594,1.659-3.895,2.74c-1.29,1.096-2.415,2.254-3.371,3.365c-0.937,1.128-1.715,2.199-2.299,3.145
								c-1.18,1.884-1.72,3.163-1.809,3.125c-0.033-0.014,0.079-0.342,0.313-0.926c0.223-0.588,0.623-1.41,1.181-2.388
								c0.551-0.984,1.311-2.096,2.245-3.261c0.952-1.149,2.09-2.341,3.405-3.457c1.326-1.103,2.696-2.017,3.991-2.758
								c1.308-0.719,2.535-1.276,3.599-1.649c1.06-0.381,1.938-0.633,2.556-0.752C115.96,261.029,116.302,260.975,116.31,261.01z"/>
						</g>
					</g>
				</g>
				<g>
					<g>
						<g>
							<path class="st44" d="M209.547,278.292c-0.018,0.003-0.069-0.234-0.149-0.687c-0.083-0.506-0.192-1.165-0.328-1.986
								c-0.277-1.726-0.641-4.229-1.062-7.326c-0.844-6.193-1.865-14.77-2.721-24.27c-0.852-9.503-1.377-18.126-1.652-24.37
								c-0.138-3.122-0.226-5.65-0.261-7.397c-0.013-0.832-0.023-1.5-0.031-2.012c-0.002-0.46,0.006-0.702,0.024-0.703
								c0.018-0.001,0.045,0.24,0.08,0.699c0.033,0.511,0.076,1.178,0.129,2.008c0.104,1.804,0.249,4.313,0.426,7.386
								c0.368,6.236,0.951,14.847,1.803,24.343c0.855,9.492,1.818,18.068,2.568,24.27c0.374,3.056,0.678,5.55,0.898,7.344
								c0.096,0.826,0.172,1.49,0.231,1.999C209.548,278.048,209.564,278.289,209.547,278.292z"/>
						</g>
					</g>
				</g>
				<g>
					<g>
						<g>
							<path class="st44" d="M233.486,267.537c-0.029,0.021-0.234-0.213-0.581-0.658c-0.353-0.44-0.813-1.117-1.33-1.984
								c-1.039-1.73-2.214-4.3-2.923-7.313c-0.701-3.016-0.789-5.841-0.625-7.852c0.079-1.007,0.19-1.817,0.312-2.368
								c0.113-0.553,0.193-0.854,0.228-0.848c0.089,0.015-0.109,1.242-0.172,3.235c-0.068,1.99,0.077,4.755,0.764,7.714
								c0.697,2.957,1.794,5.498,2.738,7.251C232.838,266.471,233.56,267.484,233.486,267.537z"/>
						</g>
					</g>
				</g>
				<g>
					<g>
						<g>
							<path class="st43" d="M115.803,223.855c0.002,0.018-0.126,0.045-0.374,0.08c-0.248,0.025-0.613,0.099-1.088,0.105
								c-0.948,0.062-2.334,0-4.008-0.313c-1.676-0.306-3.615-0.924-5.687-1.782c-2.073-0.858-4.272-1.964-6.575-3.108
								c-2.301-1.138-4.545-2.112-6.655-2.787c-2.11-0.667-4.078-1.055-5.747-1.123c-3.361-0.171-5.339,0.738-5.364,0.605
								c-0.006-0.017,0.112-0.073,0.345-0.163c0.236-0.079,0.572-0.244,1.036-0.349c0.911-0.272,2.29-0.492,3.996-0.462
								c1.708,0.022,3.725,0.38,5.877,1.033c2.151,0.661,4.427,1.633,6.743,2.778c2.308,1.147,4.489,2.259,6.531,3.133
								c2.04,0.873,3.937,1.517,5.575,1.863C113.692,224.092,115.803,223.733,115.803,223.855z"/>
						</g>
					</g>
				</g>
				<g>
					<g>
						<g>
							<path class="st43" d="M128.165,221.417c0.024,0.142-2.61,0.709-5.883,1.266c-3.274,0.558-5.947,0.895-5.971,0.753
								c-0.024-0.142,2.61-0.709,5.884-1.267C125.467,221.613,128.141,221.275,128.165,221.417z"/>
						</g>
					</g>
				</g>
				<g>
					<g>
						<g>
							<path class="st43" d="M115.356,242.885c0.012,0.034-0.506,0.256-1.454,0.628c-0.951,0.366-2.337,0.868-4.071,1.429
								c-3.464,1.127-8.336,2.452-13.817,3.417c-2.741,0.48-5.37,0.829-7.769,1.069c-2.393,0.254-4.586,0.376-6.417,0.175
								c-1.835-0.177-3.27-0.691-4.168-1.189c-0.451-0.247-0.783-0.471-0.99-0.645c-0.211-0.169-0.315-0.264-0.304-0.279
								c0.03-0.042,0.476,0.311,1.385,0.742c0.907,0.431,2.312,0.876,4.11,1.003c1.796,0.15,3.949-0.006,6.334-0.285
								c2.386-0.264,5.001-0.626,7.729-1.104c5.456-0.961,10.317-2.222,13.799-3.256c1.742-0.514,3.143-0.962,4.112-1.269
								C114.802,243.009,115.344,242.851,115.356,242.885z"/>
						</g>
					</g>
				</g>
				<g>
					<g>
						<g>
							<path class="st43" d="M127.883,248.151c0.002,0.144-2.436,0.301-5.446,0.351c-3.011,0.05-5.452-0.026-5.455-0.17
								c-0.002-0.144,2.435-0.301,5.446-0.351C125.439,247.931,127.881,248.007,127.883,248.151z"/>
						</g>
					</g>
				</g>
				<g>
					<g>
						<g>
							<path class="st43" d="M76.425,293.707c-0.017-0.004,0.019-0.187,0.106-0.531c0.107-0.4,0.24-0.896,0.402-1.5
								c0.093-0.332,0.194-0.693,0.303-1.083c0.125-0.391,0.294-0.804,0.459-1.255c0.349-0.893,0.685-1.938,1.238-3.014
								c0.26-0.548,0.532-1.12,0.815-1.714c0.289-0.593,0.659-1.173,1.005-1.794c0.67-1.258,1.559-2.493,2.458-3.815
								c1.904-2.569,4.239-5.221,7.012-7.665c2.806-2.408,5.756-4.354,8.565-5.883c1.435-0.708,2.781-1.417,4.12-1.906
								c0.663-0.257,1.289-0.543,1.916-0.747c0.628-0.197,1.232-0.387,1.81-0.569c1.143-0.399,2.224-0.587,3.157-0.809
								c0.469-0.101,0.902-0.211,1.306-0.281c0.401-0.054,0.772-0.104,1.114-0.15c0.621-0.077,1.131-0.139,1.542-0.19
								c0.353-0.038,0.539-0.049,0.541-0.031c0.002,0.018-0.18,0.064-0.527,0.135c-0.405,0.076-0.908,0.171-1.521,0.286
								c-0.337,0.06-0.704,0.124-1.1,0.194c-0.399,0.084-0.826,0.207-1.289,0.321c-0.92,0.247-1.987,0.458-3.112,0.876
								c-0.57,0.19-1.165,0.389-1.784,0.596c-0.618,0.212-1.234,0.505-1.887,0.768c-1.319,0.501-2.644,1.218-4.058,1.929
								c-2.766,1.537-5.675,3.472-8.45,5.854c-2.742,2.417-5.061,5.029-6.966,7.555c-0.9,1.301-1.794,2.514-2.473,3.751
								c-0.351,0.61-0.726,1.18-1.022,1.763c-0.29,0.584-0.57,1.146-0.837,1.684c-0.571,1.057-0.927,2.084-1.299,2.961
								c-0.176,0.442-0.358,0.848-0.497,1.232c-0.124,0.382-0.239,0.737-0.344,1.062c-0.199,0.591-0.362,1.076-0.494,1.467
								C76.513,293.538,76.442,293.711,76.425,293.707z"/>
						</g>
					</g>
				</g>
				<g>
					<g>
						<g>
							<path class="st43" d="M126.578,262.991c0.106,0.087-2.191,1.498-4.108,5.161c-0.952,1.81-1.776,4.129-2.298,6.788
								c-0.531,2.659-0.741,5.65-0.947,8.792c-0.206,3.143-0.441,6.159-1.024,8.853c-0.574,2.692-1.472,5.035-2.506,6.846
								c-1.038,1.812-2.176,3.089-3.049,3.855c-0.441,0.381-0.793,0.662-1.052,0.827c-0.252,0.173-0.388,0.256-0.399,0.242
								c-0.106-0.089,2.218-1.462,4.177-5.102c0.973-1.799,1.819-4.11,2.358-6.766c0.549-2.656,0.769-5.647,0.974-8.789
								c0.206-3.142,0.431-6.156,0.996-8.853c0.556-2.694,1.431-5.045,2.444-6.868c1.018-1.824,2.137-3.115,2.998-3.895
								c0.435-0.387,0.783-0.674,1.039-0.843C126.432,263.062,126.567,262.977,126.578,262.991z"/>
						</g>
					</g>
				</g>
				<g>
					<g>
						<g>
							<path class="st43" d="M143.643,304.985c-0.144-0.005,0.022-8.622,0.37-19.244c0.348-10.626,0.747-19.234,0.891-19.229
								c0.144,0.005-0.022,8.62-0.37,19.246C144.186,296.38,143.787,304.989,143.643,304.985z"/>
						</g>
					</g>
				</g>
				<g>
					<g>
						<g>
							<path class="st43" d="M170.785,303.503c-0.034,0.01-0.191-0.434-0.444-1.248c-0.133-0.406-0.28-0.907-0.407-1.5
								c-0.132-0.591-0.313-1.26-0.421-2.017c-0.281-1.503-0.467-3.318-0.531-5.34c-0.032-2.022,0.077-4.25,0.42-6.561
								c0.366-2.309,0.929-4.467,1.566-6.387c0.667-1.91,1.389-3.586,2.107-4.935c0.33-0.689,0.702-1.274,1.006-1.798
								c0.299-0.528,0.59-0.962,0.838-1.309c0.486-0.702,0.768-1.078,0.798-1.058c0.086,0.056-0.991,1.607-2.312,4.33
								c-0.669,1.357-1.347,3.028-1.981,4.922c-0.604,1.904-1.146,4.036-1.506,6.314c-0.338,2.281-0.46,4.477-0.455,6.474
								c0.037,1.997,0.184,3.794,0.415,5.289C170.321,301.673,170.884,303.475,170.785,303.503z"/>
						</g>
					</g>
				</g>
				<g>
					<g>
						<g>
							<path class="st43" d="M124.694,192.978c-0.038,0.085-1.584-0.61-4.177-1.448c-2.589-0.841-6.26-1.742-10.399-2.113
								c-4.141-0.36-7.913-0.117-10.61,0.257c-2.7,0.37-4.343,0.783-4.366,0.693c-0.009-0.035,0.394-0.165,1.134-0.37
								c0.737-0.214,1.823-0.454,3.177-0.687c2.704-0.471,6.521-0.776,10.711-0.412c4.187,0.376,7.891,1.345,10.471,2.283
								c1.292,0.466,2.319,0.893,3.007,1.234C124.335,192.747,124.709,192.945,124.694,192.978z"/>
						</g>
					</g>
				</g>
				<g>
					<g>
						<g>
							<path class="st43" d="M203.688,235.023c-0.005,0.074-1.422,0.03-3.71-0.058c-2.287-0.089-5.446-0.21-8.936-0.298
								c-3.491-0.086-6.652-0.121-8.941-0.146c-2.289-0.026-3.706-0.052-3.708-0.126c-0.001-0.036,0.352-0.077,0.992-0.121
								c0.64-0.045,1.566-0.087,2.712-0.121c2.291-0.069,5.459-0.092,8.957-0.006c3.497,0.088,6.66,0.268,8.944,0.451
								c1.143,0.091,2.066,0.179,2.703,0.256C203.34,234.928,203.691,234.987,203.688,235.023z"/>
						</g>
					</g>
				</g>
				<g>
					<g>
						<g>
							<path class="st43" d="M223.434,231.286c0.03,0.088-1.255,0.519-3.203,1.48c-1.948,0.955-4.528,2.521-7.003,4.72
								c-2.469,2.208-4.32,4.592-5.492,6.418c-1.177,1.826-1.753,3.052-1.836,3.013c-0.033-0.015,0.085-0.333,0.328-0.897
								c0.234-0.568,0.64-1.361,1.195-2.31c1.105-1.898,2.946-4.366,5.458-6.613c2.519-2.238,5.181-3.784,7.193-4.665
								c1.006-0.444,1.841-0.755,2.432-0.923C223.093,231.333,223.423,231.252,223.434,231.286z"/>
						</g>
					</g>
				</g>
				<g>
					<g>
						<g>
							<path class="st43" d="M213.696,199.227c0.007,0.13-2.036-0.317-5.083,0.712c-1.519,0.484-3.239,1.306-5.126,2.28
								c-1.888,0.963-3.969,2.093-6.34,2.848c-4.742,1.548-9.367,1.422-12.531,0.817c-1.594-0.298-2.846-0.694-3.696-1
								c-0.844-0.324-1.296-0.537-1.284-0.567c0.033-0.1,1.88,0.696,5.041,1.204c3.137,0.503,7.666,0.566,12.309-0.95
								c2.316-0.737,4.377-1.838,6.284-2.781c1.903-0.953,3.668-1.755,5.234-2.203c1.559-0.469,2.892-0.585,3.798-0.544
								c0.455-0.003,0.803,0.066,1.039,0.099C213.577,199.181,213.698,199.209,213.696,199.227z"/>
						</g>
					</g>
				</g>
				<g>
					<g>
						<g>
							<path class="st43" d="M208.707,266.255c0.013,0.033-0.401,0.225-1.164,0.543c-0.38,0.164-0.85,0.352-1.41,0.531
								c-0.558,0.184-1.186,0.419-1.905,0.599c-1.421,0.416-3.151,0.782-5.091,1.06c-1.943,0.249-4.099,0.393-6.362,0.335
								c-2.263-0.078-4.407-0.351-6.333-0.716c-1.92-0.393-3.625-0.862-5.019-1.363c-0.706-0.223-1.32-0.495-1.865-0.712
								c-0.548-0.213-1.006-0.428-1.375-0.615c-0.743-0.364-1.145-0.58-1.129-0.612c0.041-0.091,1.688,0.703,4.485,1.59
								c1.395,0.452,3.091,0.878,4.993,1.241c1.907,0.335,4.024,0.59,6.258,0.667c2.234,0.057,4.362-0.071,6.286-0.291
								c1.92-0.248,3.638-0.572,5.058-0.94C206.979,266.855,208.671,266.161,208.707,266.255z"/>
						</g>
					</g>
				</g>
				<g>
					<g>
						<g>
							<path class="st43" d="M231.682,295.847c-0.012,0.013-0.145-0.097-0.388-0.318c-0.234-0.229-0.614-0.538-1.028-1.007
								c-0.869-0.899-2.013-2.32-3.164-4.244c-2.337-3.82-4.328-9.892-4.456-16.746c-0.124-6.855,1.216-12.949,2.268-17.265
								c0.537-2.164,1.023-3.901,1.372-5.097c0.167-0.548,0.305-1.001,0.418-1.373c0.101-0.312,0.163-0.474,0.18-0.469
								c0.017,0.005-0.01,0.175-0.079,0.496c-0.087,0.378-0.194,0.839-0.323,1.397c-0.304,1.289-0.713,3.022-1.21,5.129
								c-0.958,4.328-2.229,10.394-2.105,17.169c0.128,6.769,2.03,12.757,4.254,16.574c1.095,1.922,2.181,3.36,2.996,4.293
								C231.228,295.324,231.715,295.813,231.682,295.847z"/>
						</g>
					</g>
				</g>
				<g>
					<g>
						<g>
							<path class="st43" d="M268.076,261.893c-0.077,0.117-1.723-1.687-5.289-2.974c-1.766-0.648-3.948-1.19-6.404-1.664
								c-2.449-0.496-5.184-0.947-7.966-1.836c-5.583-1.78-9.964-4.968-12.672-7.62c-1.366-1.33-2.354-2.517-2.993-3.366
								c-0.326-0.42-0.548-0.77-0.707-1c-0.155-0.233-0.229-0.36-0.214-0.371c0.033-0.024,0.401,0.434,1.079,1.244
								c0.684,0.805,1.706,1.944,3.089,3.226c2.744,2.556,7.088,5.642,12.579,7.392c2.733,0.874,5.449,1.338,7.903,1.861
								c2.457,0.501,4.661,1.087,6.439,1.79c1.78,0.7,3.111,1.527,3.941,2.197c0.437,0.307,0.718,0.619,0.926,0.805
								C267.989,261.772,268.088,261.88,268.076,261.893z"/>
						</g>
					</g>
				</g>
				<g>
					<g>
						<g>
							<path class="st43" d="M279.512,228.52c-0.026,0.025-0.407-0.308-1.071-0.929c-0.328-0.315-0.733-0.694-1.229-1.107
								c-0.492-0.417-1.029-0.918-1.678-1.406c-1.256-1.025-2.831-2.146-4.644-3.286c-1.829-1.113-3.906-2.229-6.174-3.212
								c-2.278-0.962-4.519-1.694-6.588-2.249c-2.076-0.525-3.975-0.89-5.584-1.091c-0.801-0.132-1.534-0.175-2.175-0.243
								c-0.641-0.074-1.196-0.105-1.65-0.125c-0.907-0.051-1.411-0.097-1.411-0.133c0-0.036,0.503-0.059,1.417-0.07
								c0.457-0.011,1.016-0.009,1.664,0.037c0.648,0.041,1.389,0.058,2.199,0.168c1.628,0.156,3.553,0.487,5.658,0.991
								c2.097,0.535,4.371,1.262,6.674,2.235c2.294,0.994,4.389,2.137,6.224,3.284c1.818,1.174,3.387,2.338,4.624,3.408
								c0.639,0.511,1.163,1.035,1.64,1.475c0.481,0.437,0.868,0.84,1.175,1.178C279.207,228.116,279.538,228.496,279.512,228.52z"
								/>
						</g>
					</g>
				</g>
				<g>
					<g>
						<g>
							<path class="st43" d="M192.016,182.618c0.026,0.062-0.689,0.436-1.898,0.915c-1.208,0.48-2.919,1.047-4.854,1.5
								c-1.936,0.45-3.722,0.698-5.018,0.802c-1.297,0.105-2.103,0.086-2.107,0.019c-0.012-0.157,3.179-0.425,7.007-1.327
								C188.976,183.643,191.957,182.472,192.016,182.618z"/>
						</g>
					</g>
				</g>
			</g>
			<g>
				<g>
					<g>
						<path class="st71" d="M227.482,323.465c0.557,1.935-1.06,3.804-3.055,3.53v0c-1.08-0.148-1.975-0.914-2.288-1.959
							l-0.843-3.148l0.123,0.042c0.528,1.888-1.29,3.621-3.241,3.432l0,0c-1.317-0.032-2.449-1.915-2.82-2.92l0,0
							c-2.176,0.257-4.24-1.021-5.081-2.441l-5.87-9.158l-10.869-7.951l6.573-23.49l23.397,15.143
							c0.918,0.713,1.058,1.015,2.519,2.368l15.1,13.885c-1.715,1.029-3.165,0.949-5.539,0c-2.374-0.949-12.808-7.985-12.808-7.985
							L227.482,323.465"/>
					</g>
				</g>
				<g>
					<g>
						<g>
							<path class="st72" d="M207.47,304.139c0.022-0.029,0.269,0.119,0.697,0.409c0.242,0.169,0.497,0.347,0.772,0.539
								c0.296,0.203,0.658,0.475,0.965,0.842c0.314,0.364,0.599,0.821,0.794,1.356c0.183,0.522,0.373,1.068,0.572,1.636
								c0.399,1.174,0.828,2.436,1.278,3.761c0.893,2.674,1.674,5.103,2.215,6.868c0.54,1.766,0.84,2.868,0.771,2.889
								c-0.069,0.021-0.493-1.042-1.122-2.778c-0.63-1.736-1.465-4.144-2.357-6.814c-0.436-1.328-0.851-2.593-1.238-3.77
								c-0.183-0.573-0.358-1.123-0.526-1.65c-0.161-0.492-0.401-0.917-0.672-1.265c-0.271-0.356-0.568-0.61-0.858-0.845
								c-0.255-0.217-0.493-0.418-0.718-0.609C207.654,304.369,207.449,304.168,207.47,304.139z"/>
						</g>
					</g>
				</g>
				<g>
					<g>
						<g>
							<path class="st72" d="M221.546,322.388c-0.035,0.008-0.15-0.338-0.335-0.969c-0.209-0.745-0.46-1.637-0.752-2.678
								c-0.631-2.261-1.489-5.389-2.577-8.795c-1.096-3.396-2.233-6.456-3.596-8.334c-0.671-0.941-1.37-1.574-1.918-1.912
								c-0.546-0.343-0.9-0.443-0.883-0.494c0.005-0.017,0.095-0.003,0.266,0.042c0.175,0.034,0.415,0.131,0.719,0.277
								c0.603,0.298,1.379,0.921,2.113,1.868c1.491,1.896,2.694,4.984,3.796,8.394c1.093,3.424,1.897,6.575,2.438,8.864
								c0.268,1.145,0.468,2.076,0.593,2.722C221.532,322.018,221.581,322.38,221.546,322.388z"/>
						</g>
					</g>
				</g>
				<g>
					<g>
						<g>
							<path class="st72" d="M227.581,323.808c-0.035,0.01-0.178-0.364-0.408-1.049c-0.253-0.796-0.562-1.769-0.926-2.915
								c-0.76-2.468-1.776-5.888-2.866-9.673c-1.055-3.727-2.009-7.097-2.745-9.697c-0.386-1.212-1.025-2.041-1.601-2.444
								c-0.569-0.415-0.983-0.469-0.969-0.517c0.002-0.014,0.106-0.021,0.296,0.021c0.189,0.042,0.469,0.13,0.786,0.328
								c0.648,0.37,1.391,1.244,1.834,2.488c0.824,2.473,1.793,5.89,2.899,9.678c1.091,3.786,2.05,7.221,2.72,9.716
								c0.302,1.165,0.558,2.153,0.767,2.961C227.538,323.405,227.615,323.798,227.581,323.808z"/>
						</g>
					</g>
				</g>
			</g>
		</g>
	</g>
</g>
</svg>
