<?xml version="1.0" encoding="utf-8"?>
<!-- Generator: Adobe Illustrator 25.4.1, SVG Export Plug-In . SVG Version: 6.00 Build 0)  -->
<svg version="1.1" id="Layer_1" xmlns="http://www.w3.org/2000/svg" xmlns:xlink="http://www.w3.org/1999/xlink" x="0px" y="0px"
	 viewBox="0 0 356.038 282.597" style="enable-background:new 0 0 356.038 282.597;" xml:space="preserve">
<style type="text/css">
	.st0{fill:#EBF0F1;}
	.st1{fill:#DFE9F2;}
	.st2{fill:#A8B0B6;}
	.st3{clip-path:url(#SVGID_00000100383791478767958190000009250956892265815720_);}
	.st4{fill:#CCCCCC;}
	.st5{fill:#876441;}
	.st6{fill:#F3A48A;}
	.st7{fill:#CF5D43;}
	.st8{fill:#DD6D4E;}
	.st9{fill:#ABA97B;}
	.st10{fill:#E3E0A2;}
	.st11{fill:#303030;}
	.st12{fill:#EFEDE3;}
	.st13{fill:#353535;}
	.st14{fill:#9F714A;}
	.st15{fill:#775336;}
	.st16{fill:#412C19;}
	.st17{fill:#B5B573;}
	.st18{clip-path:url(#SVGID_00000013181620837502819970000008558475462098166927_);}
	.st19{fill:#3B9A64;}
	.st20{fill:#AC614E;}
	.st21{fill:#C1C57C;}
	.st22{clip-path:url(#SVGID_00000055677501479366334590000014100219938210129290_);}
	.st23{fill:#4CA66F;}
	.st24{fill:#FCF9EE;}
	.st25{fill:#F47F64;}
	.st26{fill:#668F95;}
	.st27{fill:#EBE6D5;}
	.st28{fill:#005D68;}
	.st29{fill:#FFC099;}
	.st30{fill:#003239;}
	.st31{fill:#DF8E7A;}
	.st32{fill:#B77B67;}
	.st33{fill:#68472F;}
	.st34{fill:#FBA983;}
	.st35{fill:#FFFFFF;}
	.st36{fill:#F88D61;}
	.st37{fill:#C79072;}
	.st38{fill:#573C28;}
	.st39{fill:#FFA16C;}
	.st40{fill:#F5F5F5;}
	.st41{fill:#E1E1E1;}
	.st42{fill:#ECECEC;}
	.st43{fill:#FAFAFA;}
	.st44{fill:#1A2E35;}
	.st45{fill:#375A64;}
	.st46{opacity:0.3;}
	.st47{fill:#498269;}
	.st48{fill:#946962;}
	.st49{fill:#6F4540;}
	.st50{fill:#CE4F41;}
	.st51{opacity:0.6;}
	.st52{fill:#305A46;}
	.st53{fill:#F7D858;}
	.st54{opacity:0.2;}
	.st55{opacity:0.4;}
	.st56{fill:#101010;}
	.st57{fill:#6AB792;}
	.st58{fill:#D25F3B;}
	.st59{fill:#E57E5B;}
	.st60{fill:none;stroke:#D25F3B;stroke-width:1.3008;stroke-linecap:round;stroke-linejoin:round;stroke-miterlimit:10;}
	.st61{fill:none;stroke:#498269;stroke-width:1.8047;stroke-linecap:round;stroke-linejoin:round;stroke-miterlimit:10;}
	.st62{fill:#39ACB2;}
	.st63{clip-path:url(#SVGID_00000030488308307859172350000005985703367757991068_);}
	.st64{fill:none;stroke:#305A46;stroke-width:3.1006;stroke-linecap:round;stroke-linejoin:round;stroke-miterlimit:10;}
	.st65{fill:#EC8A63;}
	.st66{fill:#FFB890;}
	.st67{fill:none;stroke:#EC8A63;stroke-width:2.028;stroke-linecap:round;stroke-linejoin:round;stroke-miterlimit:10;}
	.st68{opacity:0.26;fill:#FFFFFF;}
	.st69{fill:none;stroke:#FFFFFF;stroke-width:1.9299;stroke-linecap:round;stroke-linejoin:round;stroke-miterlimit:10;}
	.st70{fill:#DAF0FA;}
	.st71{fill:#FFBF9D;}
	.st72{fill:#FF9A6C;}
	.st73{fill:none;stroke:#44555B;stroke-miterlimit:10;}
	.st74{fill:#C78976;}
	.st75{fill:#BF654E;}
	.st76{fill:none;stroke:#44555B;stroke-width:0.05;stroke-miterlimit:10;}
	.st77{fill:none;stroke:#44555B;stroke-width:0.0469;stroke-miterlimit:10;}
	.st78{fill:#FF735D;}
	.st79{clip-path:url(#SVGID_00000122716968144209928810000007637074626296332969_);}
	.st80{fill:#FFDAD9;}
	.st81{fill:#DCDFE0;}
	.st82{fill:none;stroke:#B6E1F4;stroke-width:5.3697;stroke-linecap:round;stroke-linejoin:round;stroke-miterlimit:10;}
	.st83{fill:none;stroke:#B6E1F4;stroke-width:5.0288;stroke-miterlimit:10;}
	.st84{opacity:0.44;fill:#B6E1F4;}
	.st85{fill:#E07280;}
	.st86{fill:#7E5780;}
	.st87{opacity:0.22;fill:#7E5780;}
	.st88{fill:none;stroke:#FFD0C5;stroke-width:0.3194;stroke-miterlimit:10;}
	.st89{fill:none;stroke:#FFD0C5;stroke-width:0.3836;stroke-miterlimit:10;}
	.st90{fill:none;stroke:#401A49;stroke-width:1.5344;stroke-linecap:round;stroke-linejoin:round;stroke-miterlimit:10;}
	.st91{fill:#401A49;}
	.st92{fill:none;stroke:#161C3E;stroke-width:1.1265;stroke-linecap:round;stroke-linejoin:round;stroke-miterlimit:10;}
	.st93{opacity:0.09;fill:#E07280;}
	.st94{fill:none;stroke:#401A49;stroke-width:0.9884;stroke-linecap:round;stroke-linejoin:round;stroke-miterlimit:10;}
	.st95{fill:none;stroke:#401A49;stroke-width:0.7672;stroke-linecap:round;stroke-linejoin:round;stroke-miterlimit:10;}
	.st96{fill:#994975;}
	.st97{fill:#FF8A9A;}
	.st98{fill:none;stroke:#161C3E;stroke-width:1.0685;stroke-linecap:round;stroke-linejoin:round;stroke-miterlimit:10;}
	.st99{opacity:0.35;fill:#EF5D6B;}
	.st100{fill:none;stroke:#401A49;stroke-width:0.9376;stroke-linecap:round;stroke-linejoin:round;stroke-miterlimit:10;}
	.st101{fill:#FFF5EB;}
	.st102{fill:#F2B2D6;}
	.st103{fill:none;stroke:#FFF5EB;stroke-width:0.8381;stroke-linecap:round;stroke-linejoin:round;stroke-miterlimit:10;}
	.st104{opacity:0.22;fill:#401A49;}
	.st105{fill:none;stroke:#FFDAD9;stroke-width:0.8381;stroke-miterlimit:10;}
	.st106{fill:none;stroke:#FFDAD9;stroke-width:0.8381;stroke-linecap:round;stroke-linejoin:round;stroke-miterlimit:10;}
	.st107{fill:none;stroke:#401A49;stroke-width:1.6763;stroke-linecap:round;stroke-linejoin:round;stroke-miterlimit:10;}
	.st108{fill:#FFD0C5;}
	.st109{fill:#FDB22C;}
	.st110{fill:#1A8B91;}
	.st111{fill:none;stroke:#000000;stroke-width:0.8147;stroke-linecap:round;stroke-linejoin:round;stroke-miterlimit:10;}
	.st112{fill:#ECA079;}
	.st113{fill:#FDF1F5;}
	.st114{fill:#E6C6CE;}
	.st115{fill:#862904;}
	.st116{fill:#DC845E;}
	.st117{fill:none;stroke:#000000;stroke-width:0.848;stroke-linecap:round;stroke-linejoin:round;stroke-miterlimit:10;}
	.st118{clip-path:url(#XMLID_00000018218008568396472210000004713903218107363456_);}
	.st119{clip-path:url(#XMLID_00000044145101647020561700000012303951862413164731_);}
	.st120{fill:none;stroke:#000000;stroke-width:0.8027;stroke-linecap:round;stroke-linejoin:round;stroke-miterlimit:10;}
	.st121{fill:none;stroke:#FFFFFF;stroke-width:2.99;stroke-linecap:round;stroke-linejoin:round;}
	.st122{fill:none;stroke:#FFFFFF;stroke-width:2.99;stroke-linecap:round;stroke-linejoin:round;stroke-dasharray:18.4657,18.4657;}
	.st123{fill:none;stroke:#000000;stroke-width:0.9784;stroke-linecap:round;stroke-linejoin:round;stroke-miterlimit:10;}
	.st124{clip-path:url(#XMLID_00000003091048510308856050000004327464263554760326_);}
	.st125{fill:none;stroke:#000000;stroke-width:0.682;stroke-linecap:round;stroke-linejoin:round;stroke-miterlimit:10;}
	.st126{fill:#AE3700;}
	.st127{fill:none;stroke:#FFFFFF;stroke-width:1.7082;stroke-linecap:round;stroke-linejoin:round;stroke-miterlimit:10;}
	.st128{fill:none;stroke:#000000;stroke-width:0.9976;stroke-linecap:round;stroke-linejoin:round;stroke-miterlimit:10;}
	.st129{fill:#528E72;}
	.st130{fill:#F0DBE0;}
	.st131{fill:#89331A;}
	.st132{fill:none;stroke:#CCDADC;stroke-linecap:round;stroke-linejoin:round;}
	.st133{opacity:0.45;fill:#F7E3C7;enable-background:new    ;}
	.st134{fill:#222222;}
	.st135{fill:#F47365;}
	.st136{fill:none;stroke:#222222;stroke-width:0.211;stroke-linecap:round;stroke-linejoin:round;}
	.st137{opacity:0.5;fill:#F43D4F;enable-background:new    ;}
	.st138{fill:#F43D4F;}
	.st139{fill:none;stroke:#FFF7EE;stroke-width:0.422;stroke-miterlimit:10;}
	.st140{fill:#FBB244;}
	.st141{fill:#FFF7EE;}
	.st142{opacity:0.22;}
	.st143{clip-path:url(#SVGID_00000145759703249525156070000011447686116532106642_);}
	.st144{fill:none;stroke:#FFFFFF;stroke-width:0.422;stroke-linecap:round;stroke-linejoin:round;}
	.st145{fill:none;stroke:#222222;stroke-width:2.166;stroke-linecap:round;stroke-linejoin:round;}
	.st146{fill:none;stroke:#222222;stroke-width:2.1655;stroke-linecap:round;stroke-linejoin:round;stroke-miterlimit:3.9991;}
	.st147{clip-path:url(#SVGID_00000023980368467155158400000000108934251426785210_);}
	.st148{fill:none;stroke:#222222;stroke-width:0.422;stroke-linecap:round;stroke-linejoin:round;}
	.st149{fill:#00454F;}
	.st150{fill:#B0B4B5;}
	.st151{fill-rule:evenodd;clip-rule:evenodd;fill:#00454F;}
	.st152{fill:#D2DADB;}
	.st153{fill:none;stroke:#FFFFFF;stroke-width:3.3017;stroke-miterlimit:10;}
	.st154{fill:#05454F;}
	.st155{fill:none;stroke:#707070;}
	.st156{fill:#F5F7F6;}
</style>
<g>
	<path class="st70" d="M52.497,258.205c-3.404-30.941-6.809-62.153-3.533-93.107c1.6-15.113,5.036-30.615,14.39-42.787
		c17.117-22.274,49.345-28.062,69.895-47.401c12.291-11.566,19.768-27.426,32.676-38.339c19.815-16.753,49.381-18.747,74.566-11.511
		c12.959,3.723,25.459,9.781,34.933,19.147c16.726,16.534,21.943,40.953,23.719,64.076c3.952,51.432-3.977,100.227-13.204,151.017
		c-0.069,0.382,2.896-3.672,0.078,0.078L52.497,258.205z"/>
	<g>
		<g>
			<rect y="230.917" class="st28" width="326.716" height="27.975"/>
		</g>
		<g>
			<rect x="302.205" y="230.917" class="st35" width="5.561" height="27.975"/>
		</g>
		<g>
			<rect x="290.486" y="230.917" class="st35" width="5.561" height="27.975"/>
		</g>
		<g>
			<rect x="30.272" y="230.917" class="st35" width="5.561" height="27.975"/>
		</g>
		<g>
			<rect x="18.552" y="230.917" class="st35" width="5.561" height="27.975"/>
		</g>
		<g>
			<g>
				<path class="st35" d="M260.372,252.565c-0.002-0.024,0.373,0.005,1.077-0.136c0.687-0.159,1.75-0.528,2.718-1.547
					c0.476-0.506,0.908-1.175,1.176-1.991c0.264-0.812,0.311-1.783,0.183-2.784c-0.139-1.002-0.622-2.04-1.436-2.875
					c-0.816-0.827-1.983-1.433-3.296-1.533c-10.688,0.013-26.135,0.032-45.221,0.056c-38.199,0.018-90.954,0.044-149.22,0.072
					c-1.744-0.007-3.449,0.944-4.326,2.444c-0.456,0.735-0.693,1.592-0.72,2.452c-0.042,0.895,0.057,1.743,0.4,2.542
					c0.677,1.577,2.192,2.772,3.89,2.996c0.827,0.11,1.756,0.042,2.636,0.062c0.89,0,1.779,0,2.666,0
					c7.096,0.001,14.088,0.003,20.958,0.004c13.74,0.005,26.994,0.01,39.62,0.014c25.249,0.02,47.987,0.037,67.086,0.052
					c19.089,0.033,34.538,0.059,45.227,0.078c5.332,0.02,9.475,0.035,12.296,0.046c1.398,0.011,2.467,0.019,3.198,0.024
					C260.003,252.549,260.372,252.565,260.372,252.565s-0.369,0.017-1.09,0.025c-0.73,0.006-1.799,0.014-3.198,0.024
					c-2.821,0.011-6.964,0.026-12.296,0.046c-10.688,0.018-26.137,0.045-45.227,0.078c-19.099,0.015-41.836,0.033-67.086,0.052
					c-12.626,0.005-25.879,0.009-39.62,0.014c-6.87,0.001-13.862,0.002-20.958,0.004c-0.887,0-1.776,0-2.666,0
					c-0.898-0.022-1.761,0.054-2.708-0.067c-1.864-0.247-3.525-1.555-4.267-3.286c-0.377-0.859-0.485-1.845-0.44-2.748
					c0.03-0.942,0.291-1.884,0.79-2.69c0.961-1.643,2.834-2.69,4.745-2.68c58.266,0.028,111.021,0.053,149.22,0.072
					c19.092,0.042,34.545,0.076,45.236,0.1c1.36,0.112,2.564,0.747,3.4,1.605c0.835,0.867,1.325,1.94,1.46,2.972
					c0.123,1.032,0.067,2.005-0.211,2.843c-0.281,0.833-0.73,1.511-1.22,2.021c-0.998,1.026-2.083,1.384-2.779,1.528
					c-0.358,0.057-0.629,0.09-0.813,0.086C260.464,252.569,260.372,252.565,260.372,252.565z"/>
			</g>
		</g>
	</g>
	<g>
		<g>
			<g>
				<g>
					<g>
						<g>
							<g>
								<g>
									<g>
										<g>
											<g>
												<g>
													<g>
														<g>
															<polygon class="st71" points="178.552,243.995 194.18,238.807 185.437,213.863 168.698,220.687 															"/>
														</g>
													</g>
												</g>
											</g>
										</g>
									</g>
								</g>
							</g>
						</g>
						<g>
							<g>
								<g>
									<g>
										<g>
											<g>
												<g>
													<g>
														<g>
															<g>
																<g>
																	<g>
																		<g>
																			<g>
																				<g>
																					<g>
																						<path class="st41" d="M170.812,220.715l-24.185,10.639l-9.403,0.368c-3.569,0.139-2.78,3.006-2.641,6.575
																							l1.702,43.542c0,0,4.452,1.883,5.693-1.383c1.241-3.267,13.72-28.139,13.72-28.139l22.91-8.361
																							L170.812,220.715z"/>
																					</g>
																				</g>
																			</g>
																		</g>
																	</g>
																</g>
															</g>
														</g>
														<g>
															<g>
																<g>
																	<g>
																		<g>
																			<g>
																				<g>
																					<g>
																						<g>
																							<path class="st44" d="M170.812,220.715c0,0,0.052,0.123,0.145,0.385c0.098,0.28,0.235,0.67,0.411,1.173
																								c0.365,1.06,0.893,2.595,1.573,4.569c1.371,4.024,3.352,9.836,5.815,17.064l0.048,0.143l-0.142,0.052
																								c-6.463,2.372-14.246,5.229-22.894,8.404l0.11-0.098c-2.513,5.07-5.203,10.497-8.022,16.185
																								c-1.397,2.85-2.825,5.767-4.235,8.756c-0.355,0.747-0.7,1.5-1.041,2.258c-0.173,0.385-0.302,0.749-0.5,1.153
																								c-0.096,0.202-0.187,0.406-0.338,0.58l-0.206,0.27l-0.255,0.228c-0.697,0.618-1.652,0.78-2.519,0.758
																								c-0.884-0.031-1.733-0.232-2.563-0.551l-0.13-0.05l-0.006-0.147c-0.005-0.142-0.011-0.296-0.018-0.45
																								c-0.456-11.835-0.892-23.118-1.288-33.4c-0.097-2.57-0.192-5.077-0.285-7.515
																								c-0.05-1.22-0.078-2.42-0.161-3.597c-0.055-1.177-0.215-2.365,0.109-3.543
																								c0.161-0.581,0.559-1.139,1.112-1.413c0.545-0.282,1.135-0.347,1.7-0.388
																								c1.106-0.041,2.192-0.081,3.257-0.121c2.13-0.078,4.176-0.154,6.132-0.226l-0.058,0.013
																								c7.494-3.256,13.564-5.893,17.779-7.725c2.075-0.894,3.693-1.591,4.81-2.073
																								c0.534-0.227,0.947-0.403,1.244-0.529C170.674,220.764,170.812,220.715,170.812,220.715
																								s-0.151,0.078-0.435,0.209c-0.3,0.136-0.718,0.326-1.258,0.572c-1.118,0.502-2.736,1.228-4.812,2.16
																								c-4.176,1.86-10.189,4.538-17.614,7.845l-0.027,0.012l-0.031,0.001c-1.955,0.081-4.001,0.166-6.131,0.254
																								c-1.065,0.044-2.151,0.088-3.257,0.134c-0.533,0.04-1.078,0.108-1.541,0.351
																								c-0.466,0.238-0.781,0.68-0.928,1.198c-0.291,1.051-0.146,2.239-0.083,3.41
																								c0.087,1.185,0.118,2.39,0.172,3.607c0.098,2.438,0.199,4.945,0.303,7.515
																								c0.407,10.282,0.854,21.564,1.322,33.399c0.006,0.154,0.012,0.308,0.017,0.449l-0.136-0.197
																								c0.761,0.292,1.592,0.49,2.402,0.516c0.805,0.02,1.638-0.132,2.218-0.652c0.603-0.491,0.826-1.29,1.18-2.072
																								c0.344-0.763,0.691-1.52,1.047-2.267c1.414-2.994,2.846-5.909,4.246-8.759
																								c2.83-5.684,5.531-11.107,8.054-16.173l0.036-0.071l0.075-0.027c8.66-3.142,16.453-5.969,22.926-8.318
																								l-0.094,0.194c-2.381-7.211-4.295-13.01-5.621-17.025c-0.654-2-1.162-3.554-1.513-4.628
																								c-0.167-0.519-0.296-0.921-0.389-1.211C170.852,220.866,170.812,220.715,170.812,220.715z"/>
																						</g>
																					</g>
																				</g>
																			</g>
																		</g>
																	</g>
																</g>
															</g>
														</g>
													</g>
												</g>
											</g>
										</g>
									</g>
								</g>
							</g>
							<g>
								<g>
									<g>
										<g>
											<g>
												<g>
													<g>
														<g>
															<g>
																<g>
																	<g>
																		<g>
																			<path class="st41" d="M172.144,218.067l-5.861,3.002c-0.897,0.459-1.301,1.523-0.935,2.462l8.29,21.3
																				c0.365,0.939,1.382,1.449,2.353,1.182l6.175-1.701c1.117-0.308,1.727-1.511,1.315-2.594l-8.604-22.601
																				C174.46,218.023,173.186,217.533,172.144,218.067z"/>
																		</g>
																	</g>
																</g>
															</g>
														</g>
													</g>
												</g>
											</g>
										</g>
									</g>
								</g>
							</g>
							<g>
								<g>
									<g>
										<g>
											<g>
												<g>
													<g>
														<g>
															<g>
																<g>
																	<g>
																		<g>
																			<g>
																				<path class="st44" d="M173.912,245.669c-0.064,0.031-0.715-1.157-1.671-3.125
																					c-0.955-1.968-2.209-4.721-3.431-7.832c-1.22-3.112-2.159-5.992-2.756-8.098
																					c-0.298-1.053-0.521-1.911-0.654-2.509c-0.135-0.597-0.192-0.932-0.157-0.942
																					c0.077-0.021,0.485,1.268,1.173,3.338c0.687,2.071,1.679,4.916,2.893,8.015
																					c1.216,3.097,2.411,5.865,3.276,7.869C173.453,244.391,173.982,245.636,173.912,245.669z"/>
																			</g>
																		</g>
																	</g>
																</g>
															</g>
														</g>
													</g>
												</g>
											</g>
										</g>
									</g>
								</g>
							</g>
							<g>
								<g>
									<g>
										<g>
											<g>
												<g>
													<g>
														<g>
															<g>
																<g>
																	<g>
																		<g>
																			<g>
																				<path class="st44" d="M166.839,226.175c-0.114-0.068,1.52-1.938,4.344-2.84
																					c2.815-0.933,5.237-0.384,5.185-0.262c-0.008,0.169-2.345-0.119-5.018,0.773
																					C168.664,224.699,166.944,226.307,166.839,226.175z"/>
																			</g>
																		</g>
																	</g>
																</g>
															</g>
														</g>
													</g>
												</g>
											</g>
										</g>
									</g>
								</g>
							</g>
							<g>
								<g>
									<g>
										<g>
											<g>
												<g>
													<g>
														<g>
															<g>
																<g>
																	<g>
																		<g>
																			<g>
																				<path class="st44" d="M168.895,234.382c-0.064-0.13,2.113-1.318,4.942-2.465
																					c2.828-1.152,5.216-1.82,5.261-1.682c0.048,0.144-2.248,1.035-5.058,2.18
																					C171.228,233.555,168.961,234.519,168.895,234.382z"/>
																			</g>
																		</g>
																	</g>
																</g>
															</g>
														</g>
													</g>
												</g>
											</g>
										</g>
									</g>
								</g>
							</g>
							<g>
								<g>
									<g>
										<g>
											<g>
												<g>
													<g>
														<g>
															<g>
																<g>
																	<g>
																		<g>
																			<g>
																				<path class="st44" d="M173.087,242.564c-0.026-0.168,2.427-0.266,4.894-1.815
																					c2.495-1.507,3.686-3.653,3.824-3.554c0.055,0.029-0.158,0.604-0.727,1.41
																					c-0.564,0.804-1.527,1.806-2.815,2.602c-1.29,0.791-2.618,1.2-3.59,1.342
																					C173.697,242.695,173.088,242.627,173.087,242.564z"/>
																			</g>
																		</g>
																	</g>
																</g>
															</g>
														</g>
													</g>
												</g>
											</g>
										</g>
									</g>
								</g>
							</g>
							<g>
								<g>
									<g>
										<g>
											<g>
												<g>
													<g>
														<g>
															<g>
																<g>
																	<g>
																		<g>
																			<g>
																				<path class="st44" d="M134.962,241.437c-0.013-0.087,0.82-0.209,2.068-0.678
																					c1.242-0.46,2.896-1.339,4.316-2.778c1.42-1.44,2.277-3.105,2.72-4.354c0.452-1.254,0.563-2.088,0.65-2.077
																					c0.059,0.003,0.084,0.864-0.289,2.194c-0.363,1.32-1.205,3.101-2.699,4.614c-1.493,1.513-3.262,2.38-4.577,2.76
																					C135.828,241.51,134.966,241.496,134.962,241.437z"/>
																			</g>
																		</g>
																	</g>
																</g>
															</g>
														</g>
													</g>
												</g>
											</g>
										</g>
									</g>
								</g>
							</g>
							<g>
								<g>
									<g>
										<g>
											<g>
												<g>
													<g>
														<g>
															<g>
																<g>
																	<g>
																		<g>
																			<g>
																				<path class="st44" d="M135.783,268.984c-0.017-0.055,0.559-0.325,1.576-0.469
																					c1.007-0.143,2.497-0.053,3.927,0.644c1.43,0.689,2.453,1.71,3.108,2.474c0.649,0.78,0.956,1.327,0.904,1.366
																					c-0.065,0.051-0.479-0.413-1.182-1.107c-0.709-0.681-1.727-1.607-3.061-2.248
																					c-1.333-0.648-2.691-0.79-3.665-0.75C136.413,268.935,135.805,269.071,135.783,268.984z"/>
																			</g>
																		</g>
																	</g>
																</g>
															</g>
														</g>
													</g>
												</g>
											</g>
										</g>
									</g>
								</g>
							</g>
						</g>
					</g>
					<g>
						<g>
							<g>
								<g>
									<g>
										<g>
											<g>
												<g>
													<path class="st44" d="M131.126,185.752c0,0-32.521-5.511-39.821-4.758c-7.299,0.753-21.676,6.787-21.651,19.761
														c0.025,12.974,7.598,23.027,17.843,25.686c10.244,2.659,67.761,14.317,90.302,16.248
														c19.077,1.635,29.903-2.163,28.027-5.342c0,0,19.05-7.389,21.091-8.418c1.59-0.802,24.352-11.079,35.092-19.507
														c4.894-3.841,19.635-18.748,7.695-29.128c-11.941-10.38-25.625-9.011-38.849-3.367
														c-2.212,0.944-15.416,5.238-22.789,9.571l-11-14.053c-0.378,0.229-22.799,0.493-42.744,0.25
														c-6.436-0.078-17.656-0.25-17.656-0.25L131.126,185.752z"/>
												</g>
											</g>
										</g>
									</g>
								</g>
							</g>
						</g>
					</g>
					<g>
						<g>
							<g>
								<g>
									<g>
										<g>
											<g>
												<g>
													<g>
														<path class="st44" d="M180.649,221.843c-0.333-2.542-0.503-3.483,0.296-5.031c0.799-1.548,2.118-2.752,3.41-3.92
															c0.868-0.785,1.882-1.623,3.048-1.523c1.474,0.126,2.364,1.641,3.02,2.967c2.406,4.868,5.014,9.638,7.813,14.291
															c1.608,2.673,3.343,5.377,5.874,7.201c0.929,0.669,2.09,1.487,1.922,2.619c-0.133,0.893-1.051,1.421-1.879,1.782
															c-1.56,0.681-3.17,1.248-4.813,1.696c-1.596,0.435-3.302,0.755-4.891,0.292c-1.472-0.429-2.674-1.481-3.754-2.571
															c-5.056-5.104-8.802-11.309-10.161-18.363"/>
													</g>
												</g>
											</g>
										</g>
									</g>
								</g>
							</g>
						</g>
					</g>
					<g>
						<g>
							<g>
								<g>
									<g>
										<g>
											<g>
												<g>
													<g>
														<path class="st45" d="M239.01,180.396c-0.011,0.035-0.208-0.053-0.61-0.01c-0.399,0.012-0.987,0.104-1.74,0.235
															c-1.505,0.275-3.665,0.776-6.326,1.433c-1.315,0.327-2.821,0.692-4.353,1.011c-1.491,0.494-2.786,1.685-4.219,2.784
															c-2.849,2.241-5.968,4.719-9.212,7.358c-6.492,5.277-12.226,10.225-16.269,13.926
															c-2.029,1.842-3.638,3.368-4.753,4.421c-0.531,0.503-0.956,0.906-1.281,1.214c-0.297,0.274-0.458,0.413-0.469,0.402
															c-0.011-0.011,0.129-0.171,0.405-0.466c0.31-0.323,0.717-0.747,1.223-1.275c1.078-1.092,2.656-2.654,4.66-4.529
															c3.993-3.765,9.704-8.758,16.201-14.04c3.247-2.641,6.377-5.112,9.241-7.336c1.435-1.08,2.747-2.288,4.359-2.812
															c1.623-0.326,3.044-0.651,4.393-0.966c2.672-0.618,4.849-1.073,6.371-1.298c0.762-0.105,1.358-0.17,1.767-0.153
															c0.203-0.005,0.359,0.017,0.462,0.051C238.963,180.373,239.012,180.389,239.01,180.396z"/>
													</g>
												</g>
											</g>
										</g>
									</g>
								</g>
							</g>
						</g>
					</g>
					<g>
						<g>
							<g>
								<g>
									<g>
										<g>
											<g>
												<g>
													<g>
														<path class="st45" d="M156.856,214.646c-0.008,0.013-0.201-0.095-0.56-0.313c-0.393-0.245-0.911-0.567-1.557-0.97
															c-1.383-0.885-3.314-2.12-5.682-3.636c-2.403-1.557-5.244-3.399-8.395-5.44c-3.166-2.032-6.569-4.415-10.489-6.24
															c-1.963-0.922-3.959-1.543-5.96-2.034c-0.992-0.277-1.981-0.614-2.833-1.189c-0.872-0.566-1.457-1.415-1.996-2.167
															c-1.038-1.549-2.542-2.555-4.081-3.141c-1.54-0.596-3.085-0.841-4.49-0.956c-2.825-0.188-5.144-0.092-6.735-0.251
															c-0.796-0.064-1.411-0.154-1.825-0.229c-0.413-0.08-0.627-0.135-0.624-0.149c0.003-0.016,0.222,0.009,0.637,0.06
															c0.416,0.046,1.03,0.107,1.823,0.144c1.587,0.105,3.886-0.04,6.747,0.109c1.428,0.097,3.004,0.326,4.6,0.925
															c0.794,0.301,1.59,0.701,2.331,1.236c0.742,0.528,1.404,1.236,1.951,2.009c0.554,0.765,1.099,1.542,1.901,2.056
															c0.79,0.529,1.734,0.852,2.711,1.121c1.979,0.479,4.055,1.119,6.03,2.05c3.972,1.85,7.378,4.253,10.528,6.302
															c3.131,2.072,5.955,3.94,8.343,5.52c2.336,1.565,4.24,2.841,5.604,3.755c0.628,0.432,1.13,0.777,1.511,1.04
															C156.689,214.5,156.865,214.634,156.856,214.646z"/>
													</g>
												</g>
											</g>
										</g>
									</g>
								</g>
							</g>
						</g>
					</g>
					<g>
						<g>
							<g>
								<g>
									<g>
										<g>
											<g>
												<g>
													<g>
														<g>
															<polygon class="st71" points="164.929,244.315 149.859,239.653 157.743,215.589 173.91,221.796 															"/>
														</g>
													</g>
												</g>
											</g>
										</g>
									</g>
								</g>
							</g>
						</g>
						<g>
							<g>
								<g>
									<g>
										<g>
											<g>
												<g>
													<g>
														<g>
															<g>
																<g>
																	<g>
																		<g>
																			<g>
																				<g>
																					<g>
																						<path class="st41" d="M171.886,221.864l23.374,9.715l7.53,0.14c2.351,0.044,4.222,1.985,4.178,4.336
																							l-0.81,43.676c0,0-5.206,0.664-6.459-2.44c-1.252-3.104-12.716-25.456-12.716-25.456l-22.108-7.558
																							L171.886,221.864z"/>
																					</g>
																				</g>
																			</g>
																		</g>
																	</g>
																</g>
															</g>
														</g>
														<g>
															<g>
																<g>
																	<g>
																		<g>
																			<g>
																				<g>
																					<g>
																						<g>
																							<path class="st44" d="M171.886,221.864c0,0-0.035,0.146-0.113,0.411c-0.084,0.281-0.2,0.669-0.349,1.169
																								c-0.315,1.038-0.771,2.537-1.357,4.465c-1.191,3.874-2.909,9.465-5.045,16.415l-0.098-0.193
																								c6.248,2.122,13.769,4.677,22.123,7.515l0.077,0.026l0.037,0.073c2.433,4.779,5.035,9.888,7.76,15.239
																								c1.348,2.684,2.726,5.428,4.082,8.249c0.338,0.698,0.662,1.442,0.987,2.138
																								c0.309,0.668,0.887,1.186,1.565,1.518c1.373,0.658,3.023,0.762,4.573,0.62l-0.195,0.217
																								c0.002-0.082,0.003-0.172,0.005-0.262c0.214-11.215,0.418-21.908,0.604-31.657
																								c0.048-2.437,0.095-4.814,0.141-7.126c0.023-1.156,0.046-2.295,0.069-3.417
																								c0.003-0.554,0.042-1.134,0.009-1.65c-0.043-0.526-0.193-1.039-0.43-1.501
																								c-0.473-0.928-1.303-1.642-2.251-1.976c-0.94-0.35-1.995-0.22-3.005-0.277
																								c-2.021-0.042-3.963-0.083-5.82-0.122l-0.031-0.001l-0.028-0.012c-7.174-3.022-12.985-5.47-17.022-7.17
																								c-2.006-0.852-3.57-1.517-4.652-1.977c-0.521-0.224-0.925-0.398-1.217-0.524
																								C172.032,221.936,171.886,221.864,171.886,221.864s0.133,0.044,0.402,0.15
																								c0.288,0.115,0.687,0.275,1.202,0.481c1.081,0.439,2.644,1.075,4.648,1.889
																								c4.076,1.671,9.942,4.077,17.184,7.047l-0.059-0.012c1.857,0.03,3.799,0.061,5.82,0.094
																								c0.505,0.008,1.016,0.017,1.531,0.025c0.521,0.005,1.076,0.074,1.589,0.26
																								c1.034,0.361,1.941,1.135,2.461,2.146c0.261,0.504,0.427,1.063,0.476,1.639
																								c0.038,0.588-0.002,1.122-0.002,1.69c-0.019,1.122-0.039,2.261-0.058,3.417
																								c-0.04,2.312-0.081,4.69-0.123,7.126c-0.176,9.749-0.368,20.443-0.57,31.658
																								c-0.002,0.09-0.003,0.179-0.005,0.262l-0.004,0.2l-0.191,0.017c-1.638,0.146-3.317,0.051-4.829-0.665
																								c-0.743-0.362-1.413-0.956-1.768-1.726c-0.341-0.733-0.643-1.429-0.986-2.139
																								c-1.351-2.815-2.727-5.561-4.07-8.245c-2.714-5.356-5.305-10.469-7.729-15.251l0.114,0.098
																								c-8.343-2.87-15.853-5.454-22.093-7.601l-0.144-0.049l0.046-0.144c2.218-6.968,4.002-12.573,5.238-16.457
																								c0.612-1.903,1.089-3.383,1.418-4.407c0.158-0.484,0.282-0.859,0.371-1.131
																								C171.838,221.983,171.886,221.864,171.886,221.864z"/>
																						</g>
																					</g>
																				</g>
																			</g>
																		</g>
																	</g>
																</g>
															</g>
														</g>
													</g>
												</g>
											</g>
										</g>
									</g>
								</g>
							</g>
							<g>
								<g>
									<g>
										<g>
											<g>
												<g>
													<g>
														<g>
															<g>
																<g>
																	<g>
																		<g>
																			<g>
																				<path class="st41" d="M170.371,218.213l6.597,3.21c0.915,0.445,1.344,1.509,0.995,2.464l-7.924,21.662
																					c-0.349,0.955-1.364,1.491-2.35,1.241l-6.266-1.588c-1.134-0.287-1.774-1.488-1.38-2.59l8.446-23.632
																					C168.763,218.215,169.64,217.857,170.371,218.213z"/>
																			</g>
																		</g>
																	</g>
																</g>
															</g>
														</g>
													</g>
												</g>
												<g>
													<g>
														<g>
															<g>
																<g>
																	<g>
																		<g>
																			<g>
																				<g>
																					<path class="st44" d="M170.371,218.213c-0.007,0.031-0.243-0.134-0.72-0.086
																						c-0.232,0.03-0.523,0.129-0.767,0.37c-0.263,0.228-0.358,0.627-0.512,1.07
																						c-0.623,1.795-1.501,4.322-2.579,7.428c-1.109,3.143-2.422,6.867-3.88,10.998
																						c-0.367,1.034-0.743,2.094-1.127,3.176c-0.189,0.538-0.379,1.081-0.572,1.629
																						c-0.146,0.501-0.054,1.073,0.261,1.504c0.155,0.216,0.358,0.398,0.593,0.525
																						c0.227,0.131,0.503,0.183,0.808,0.262c0.589,0.149,1.182,0.299,1.78,0.45c1.196,0.303,2.409,0.61,3.636,0.92
																						c0.318,0.077,0.604,0.173,0.874,0.167c0.28,0.006,0.557-0.066,0.805-0.189
																						c0.249-0.125,0.463-0.311,0.627-0.531c0.165-0.22,0.249-0.483,0.36-0.784c0.425-1.158,0.843-2.299,1.255-3.421
																						c0.825-2.241,1.62-4.403,2.378-6.464c1.522-4.108,2.894-7.811,4.051-10.936
																						c0.148-0.398,0.302-0.746,0.289-1.115c-0.003-0.365-0.113-0.719-0.307-1.007
																						c-0.371-0.599-1.101-0.787-1.675-1.112c-1.169-0.585-2.182-1.092-3.025-1.514
																						c-0.799-0.408-1.433-0.732-1.904-0.973C170.589,218.352,170.364,218.226,170.371,218.213
																						c0.007-0.014,0.244,0.085,0.69,0.286c0.48,0.222,1.126,0.521,1.941,0.898c0.852,0.403,1.876,0.887,3.058,1.446
																						c0.298,0.142,0.606,0.289,0.924,0.44c0.335,0.154,0.655,0.406,0.878,0.738
																						c0.228,0.329,0.362,0.737,0.371,1.162c0.02,0.434-0.158,0.85-0.293,1.227
																						c-1.132,3.135-2.473,6.849-3.961,10.969c-0.751,2.064-1.538,4.229-2.354,6.473
																						c-0.41,1.122-0.826,2.264-1.248,3.423c-0.101,0.276-0.208,0.612-0.417,0.894
																						c-0.206,0.277-0.475,0.511-0.786,0.667c-0.311,0.155-0.658,0.244-1.009,0.238
																						c-0.176,0.003-0.35-0.027-0.521-0.064l-0.461-0.116c-1.227-0.312-2.44-0.619-3.636-0.923
																						c-0.598-0.152-1.191-0.303-1.779-0.452c-0.281-0.075-0.609-0.135-0.909-0.304
																						c-0.294-0.16-0.548-0.388-0.74-0.658c-0.391-0.537-0.505-1.252-0.321-1.876
																						c0.193-0.583,0.393-1.107,0.586-1.654c0.389-1.081,0.77-2.139,1.141-3.172
																						c1.491-4.119,2.835-7.831,3.97-10.965c1.135-3.086,2.058-5.597,2.713-7.38c0.16-0.421,0.281-0.86,0.584-1.108
																						c0.279-0.255,0.6-0.346,0.849-0.363c0.253-0.015,0.443,0.036,0.56,0.085
																						C170.32,218.17,170.374,218.207,170.371,218.213z"/>
																				</g>
																			</g>
																		</g>
																	</g>
																</g>
															</g>
														</g>
													</g>
												</g>
											</g>
										</g>
									</g>
								</g>
							</g>
							<g>
								<g>
									<g>
										<g>
											<g>
												<g>
													<g>
														<g>
															<g>
																<g>
																	<g>
																		<g>
																			<g>
																				<path class="st44" d="M176.512,226.586c0.114-0.071-1.574-1.924-4.442-2.776
																					c-2.86-0.883-5.292-0.28-5.236-0.157c0.012,0.17,2.363-0.168,5.079,0.676
																					C174.64,225.133,176.408,226.721,176.512,226.586z"/>
																			</g>
																		</g>
																	</g>
																</g>
															</g>
														</g>
													</g>
												</g>
											</g>
										</g>
									</g>
								</g>
							</g>
							<g>
								<g>
									<g>
										<g>
											<g>
												<g>
													<g>
														<g>
															<g>
																<g>
																	<g>
																		<g>
																			<g>
																				<path class="st44" d="M173.976,234.768c0.057-0.125-2.031-1.232-4.734-2.292
																					c-2.702-1.065-4.976-1.672-5.015-1.54c-0.042,0.139,2.151,0.96,4.836,2.019
																					C171.75,234.007,173.917,234.9,173.976,234.768z"/>
																			</g>
																		</g>
																	</g>
																</g>
															</g>
														</g>
													</g>
												</g>
											</g>
										</g>
									</g>
								</g>
							</g>
							<g>
								<g>
									<g>
										<g>
											<g>
												<g>
													<g>
														<g>
															<g>
																<g>
																	<g>
																		<g>
																			<g>
																				<path class="st44" d="M170.548,243.25c0.023-0.17-2.454-0.218-4.976-1.73c-2.548-1.469-3.795-3.61-3.932-3.506
																					c-0.055,0.03,0.172,0.606,0.763,1.407c0.586,0.8,1.579,1.791,2.894,2.567c1.318,0.772,2.666,1.157,3.65,1.28
																					C169.934,243.395,170.548,243.314,170.548,243.25z"/>
																			</g>
																		</g>
																	</g>
																</g>
															</g>
														</g>
													</g>
												</g>
											</g>
										</g>
									</g>
								</g>
							</g>
							<g>
								<g>
									<g>
										<g>
											<g>
												<g>
													<g>
														<g>
															<g>
																<g>
																	<g>
																		<g>
																			<g>
																				<path class="st44" d="M206.631,241.008c0.011-0.084-0.79-0.184-1.994-0.609c-1.199-0.416-2.8-1.225-4.189-2.576
																					c-1.389-1.351-2.242-2.93-2.691-4.117c-0.457-1.192-0.58-1.989-0.664-1.976
																					c-0.057,0.004-0.064,0.829,0.319,2.095c0.374,1.257,1.216,2.947,2.676,4.367
																					c1.459,1.42,3.172,2.215,4.438,2.554C205.803,241.095,206.628,241.065,206.631,241.008z"/>
																			</g>
																		</g>
																	</g>
																</g>
															</g>
														</g>
													</g>
												</g>
											</g>
										</g>
									</g>
								</g>
							</g>
							<g>
								<g>
									<g>
										<g>
											<g>
												<g>
													<g>
														<g>
															<g>
																<g>
																	<g>
																		<g>
																			<g>
																				<path class="st44" d="M206.386,267.409c0.016-0.053-0.542-0.3-1.519-0.418
																					c-0.967-0.118-2.393-0.002-3.749,0.694c-1.357,0.688-2.316,1.687-2.928,2.431
																					c-0.607,0.76-0.89,1.29-0.839,1.326c0.064,0.047,0.451-0.405,1.111-1.084c0.666-0.666,1.623-1.573,2.888-2.213
																					c1.264-0.647,2.562-0.81,3.495-0.79C205.781,267.375,206.367,267.493,206.386,267.409z"/>
																			</g>
																		</g>
																	</g>
																</g>
															</g>
														</g>
													</g>
												</g>
											</g>
										</g>
									</g>
								</g>
							</g>
						</g>
					</g>
				</g>
				<g>
					<g>
						<g>
							<g>
								<path class="st45" d="M155.834,210.827c-0.106,0.044-0.702-1.364-1.925-3.488c-1.217-2.124-3.148-4.924-5.759-7.593
									c-2.621-2.661-5.385-4.643-7.486-5.9c-2.1-1.262-3.497-1.884-3.451-1.989c0.018-0.043,0.383,0.074,1.03,0.325
									c0.651,0.241,1.563,0.665,2.658,1.252c2.19,1.167,5.058,3.128,7.73,5.841c2.662,2.72,4.57,5.624,5.696,7.835
									c0.567,1.105,0.973,2.025,1.202,2.68C155.767,210.442,155.878,210.809,155.834,210.827z"/>
							</g>
						</g>
					</g>
				</g>
				<g>
					<g>
						<g>
							<g>
								<path class="st45" d="M198.93,195.552c0.063,0.08-0.93,0.946-2.481,2.393c-1.553,1.446-3.641,3.5-5.776,5.927
									c-2.132,2.431-3.9,4.767-5.134,6.493c-1.235,1.725-1.966,2.821-2.053,2.769c-0.072-0.043,0.516-1.229,1.659-3.035
									c1.141-1.806,2.868-4.215,5.022-6.671c2.157-2.452,4.322-4.475,5.967-5.839C197.778,196.222,198.878,195.486,198.93,195.552
									z"/>
							</g>
						</g>
					</g>
				</g>
			</g>
		</g>
		<g>
			<g>
				<polygon class="st71" points="215.694,152.691 217.3,122.786 194.571,127.401 199.067,167.859 212.604,187.61 226.917,181.885 
									"/>
			</g>
			<g>
				<g>
					<path class="st72" d="M213.284,151.068c-0.008,0.153-2.165-0.054-4.681,0.651c-2.525,0.675-4.276,1.951-4.361,1.824
						c-0.09-0.079,1.598-1.588,4.232-2.295C211.1,150.516,213.321,150.954,213.284,151.068z"/>
				</g>
			</g>
			<g>
				<g>
					<path class="st45" d="M242.959,165.823l-15.219-5.214c-0.488-0.167-1.027-0.097-1.456,0.189l-30.975,20.667
						c-1.171,0.781-0.895,2.575,0.456,2.968l16.023,4.666c0.469,0.137,0.975,0.059,1.382-0.212l30.171-20.119
						C244.482,168.007,244.256,166.268,242.959,165.823z"/>
				</g>
				<g>
					<path class="st71" d="M226.82,171.304c0,0,0.635-0.116,2.566,1.527c1.931,1.643,2.865,2.827,3.206,4.587
						c0.341,1.76-0.359,3.94-0.853,4.735c-0.494,0.794-2.427,2.76-2.427,2.76s0.051,2.704-1.925,3.676
						c-1.975,0.973-1.975,0.973-1.975,0.973s-0.658,1.797-3.261,1.851l-2.262,0.345c0,0-1.943,1.205-2.858,0.391
						c-0.914-0.814-9.275-6.9-10.149-8.888c-0.874-1.989-0.31-2.267-0.31-2.267s-2.948-0.892-1.403-2.92
						c1.545-2.029,4.081-0.257,6.366,1.037c2.285,1.294,9.09,4.078,9.09,4.078s-5.279-8.514-4.935-9.666
						c0.345-1.151,2.548-2.657,4.462-0.409c1.914,2.248,5.618,8.306,6.267,7.916l2.042-2.34c0,0-3.335-4.86-3.354-6.258
						C225.088,171.034,226.82,171.304,226.82,171.304z"/>
				</g>
				<g>
					<g>
						<path class="st78" d="M217.874,188.666c-0.029,0.057-0.75-0.232-1.869-0.8c-1.118-0.567-2.627-1.427-4.218-2.492
							c-1.591-1.068-2.959-2.137-3.908-2.956c-0.95-0.819-1.492-1.376-1.45-1.425c0.095-0.11,2.471,1.864,5.631,3.974
							C215.211,187.088,217.94,188.536,217.874,188.666z"/>
					</g>
				</g>
			</g>
		</g>
		<g>
			<g>
				<polygon class="st47" points="130.28,89.303 156.183,80.296 183.975,79.026 208.918,87.901 200.444,124 200.548,122.813 
					199.609,152.937 200.934,168.328 197.868,173.312 134.924,172.421 134.344,131.596 				"/>
			</g>
			<g>
				<path class="st47" d="M108.802,133.553c0,0,9.288-28.126,12.771-34.558c3.483-6.431,8.707-9.692,8.707-9.692l4.063,42.644
					l0.362,8.689L108.802,133.553z"/>
			</g>
			<g>
				<path class="st47" d="M208.918,87.901c0,0,9.313,3.797,11.747,14.069c1.508,6.364,6.937,33.578,6.937,33.578h-30.209
					l1.675-27.312L208.918,87.901z"/>
			</g>
			<g>
				<g>
					<path class="st44" d="M206.704,95.428c0.061,0.028-0.33,1.025-1.017,2.612c-0.687,1.587-1.67,3.764-2.795,6.149
						c-2.245,4.768-4.243,8.585-4.495,8.426c0,0,0.465-0.951,1.192-2.521c0.798-1.705,1.777-3.798,2.861-6.114
						c1.124-2.384,2.156-4.537,2.923-6.086C206.141,96.346,206.643,95.4,206.704,95.428z"/>
				</g>
			</g>
			<g>
				<g>
					<path class="st44" d="M132.836,105.21c0.034-0.003,0.102,0.495,0.196,1.398c0.095,0.903,0.212,2.211,0.339,3.828
						c0.255,3.234,0.54,7.708,0.75,12.655c0.209,4.948,0.303,9.43,0.322,12.675c0.01,1.622,0.005,2.935-0.014,3.843
						c-0.018,0.907-0.044,1.409-0.077,1.409c-0.034,0-0.072-0.501-0.113-1.407c-0.037-0.996-0.084-2.286-0.141-3.838
						c-0.122-3.328-0.285-7.76-0.464-12.661c-0.235-4.897-0.447-9.326-0.607-12.653c-0.074-1.551-0.136-2.841-0.184-3.837
						C132.807,105.716,132.803,105.213,132.836,105.21z"/>
				</g>
			</g>
			<g>
				<g>
					<path class="st44" d="M197.868,109.707c0.033-0.006,0.15,0.454,0.334,1.291c0.184,0.837,0.43,2.053,0.706,3.56
						c0.549,3.013,1.225,7.21,1.457,11.894c0.243,4.683,0.086,8.924-0.078,11.983c-0.084,1.53-0.171,2.767-0.249,3.621
						c-0.075,0.854-0.132,1.325-0.166,1.323c-0.034-0.002-0.041-0.477-0.024-1.333c0.025-0.949,0.056-2.166,0.094-3.624
						c0.075-3.059,0.176-7.287-0.065-11.943c-0.231-4.656-0.849-8.838-1.31-11.862c-0.222-1.442-0.408-2.645-0.553-3.583
						C197.889,110.185,197.835,109.714,197.868,109.707z"/>
				</g>
			</g>
		</g>
		<g>
			<g>
				<g>
					<path class="st44" d="M131.976,22.266c0,0-3.238-0.282-5.771,2.393c-2.534,2.674-1.126,7.179-1.126,7.179
						s-5.626,1.929-6.592,6.011c-1.79,3.043-1.139,11.597,2.193,12.814c0.031,2.979,1.393,5.921,3.65,7.885
						c-0.064,3.588,2.43,7.077,5.863,8.202c0.649,1.55,1.364,3.095,2.457,4.376c3.153,3.695,8.404,1.642,8.404,1.642
						s4.417,5.116,6.431,5.224c14.114,0.759,27.776-4.802,26.344-5.851c6.537,5.507,19.204,0.8,18.337-1.609
						c0,0,5.761,0.146,8.669-2.165c6.022-4.787,4.412-10.757,4.412-10.757s3.422,2.33,6.47-0.826
						c1.641-1.699,0.825-4.861,0.825-4.861c0.825-1.196,0.847-2.885,0.055-4.102c2.166-1.698,2.495-3.884,0.579-6.667
						c3.867-3.716-1.948-9.013-1.948-9.013c1.534-0.932,1.917-3.295,0.753-4.656c2.374-2.036-0.351-6.684-3.337-7.637
						c-1.609-8.448-11.239-8.171-11.239-8.171c-1.213-2.907-5.034-4.412-7.926-3.122c-1.783-2.463-9.511-3.907-14.398-0.033
						c-9.166-11.334-20.261-9.903-28.415-4.132c-6.453,4.567-6.638,9.953-7.632,12.923
						C133.565,17.426,131.976,22.266,131.976,22.266z"/>
				</g>
				<g>
					<g>
						
							<ellipse transform="matrix(0.9227 -0.3855 0.3855 0.9227 -7.815 59.5919)" class="st45" cx="144.699" cy="49.284" rx="11.299" ry="11.299"/>
					</g>
					<g>
						<g>
							<path class="st44" d="M151.527,49.284c-0.055,0.003-0.028-0.608-0.306-1.644c-0.275-1.016-0.965-2.502-2.496-3.646
								c-0.758-0.558-1.709-1.031-2.803-1.218c-1.087-0.18-2.31-0.14-3.472,0.307c-1.162,0.42-2.27,1.213-3.056,2.307
								c-0.809,1.08-1.264,2.465-1.278,3.893c0.013,1.429,0.468,2.814,1.277,3.894c0.787,1.095,1.895,1.887,3.057,2.307
								c1.162,0.447,2.386,0.486,3.472,0.307c1.094-0.187,2.045-0.659,2.803-1.218c1.53-1.144,2.221-2.63,2.495-3.646
								C151.499,49.893,151.472,49.281,151.527,49.284c0.017,0,0.026,0.15,0.027,0.438c0.007,0.287-0.029,0.716-0.148,1.252
								c-0.225,1.057-0.889,2.634-2.47,3.874c-0.783,0.606-1.781,1.125-2.939,1.342c-1.15,0.209-2.453,0.183-3.7-0.281
								c-1.247-0.438-2.439-1.278-3.289-2.447c-0.873-1.154-1.368-2.645-1.38-4.178c0.013-1.533,0.508-3.023,1.381-4.177
								c0.85-1.169,2.042-2.009,3.289-2.447c1.247-0.464,2.55-0.491,3.7-0.282c1.158,0.216,2.155,0.736,2.939,1.341
								c1.582,1.24,2.245,2.817,2.471,3.874c0.12,0.536,0.155,0.965,0.149,1.252C151.553,49.135,151.544,49.284,151.527,49.284z"/>
						</g>
					</g>
				</g>
				<g>
					<path class="st71" d="M162.306,14.883l1.506-1.436l16.277,6.56c2.355,0.13,4.219,2.041,4.291,4.399l-0.143,53.035
						c0.021,3.596-0.7,6.711-2.872,9.578l-2.286,3.018c-5.212,6.882-15.935,6.315-20.061-1.267c-0.288-0.53-0.489-0.995-0.575-1.371
						c-0.087-0.473-0.216-0.784-0.242-1.186c-0.484-4.267-0.512-7.967-0.512-7.967c-0.29-4.685-0.386-6.607-0.386-6.563
						c0,0-9.97-1.146-12.665-13.943c-1.34-6.364-1.088-15.12-0.711-23.738C144.448,22.075,152.72,14.871,162.306,14.883z"/>
				</g>
				<g>
					<g>
						<g>
							<g>
								<g>
									<g>
										<g>
											<g>
												<g>
													<path class="st44" d="M165.643,42.732c0.013,0.875,0.765,1.586,1.679,1.589c0.912,0.003,1.643-0.702,1.631-1.577
														c-0.013-0.875-0.765-1.587-1.677-1.59C166.361,41.15,165.63,41.857,165.643,42.732z"/>
												</g>
											</g>
										</g>
									</g>
								</g>
							</g>
						</g>
					</g>
				</g>
				<g>
					<g>
						<g>
							<g>
								<g>
									<g>
										<g>
											<g>
												<g>
													<path class="st44" d="M148.816,42.732c0.013,0.875,0.765,1.586,1.679,1.589c0.912,0.003,1.643-0.702,1.631-1.577
														c-0.013-0.875-0.765-1.587-1.677-1.59C149.535,41.15,148.803,41.857,148.816,42.732z"/>
												</g>
											</g>
										</g>
									</g>
								</g>
							</g>
						</g>
					</g>
				</g>
				<g>
					<g>
						<g>
							<g>
								<g>
									<g>
										<g>
											<g>
												<g>
													<g>
														<path class="st44" d="M145.628,37.41c0.216,0.206,1.423-0.785,3.203-0.869c1.777-0.11,3.13,0.741,3.312,0.513
															c0.09-0.101-0.139-0.48-0.728-0.866c-0.581-0.384-1.556-0.737-2.665-0.677c-1.109,0.062-2.021,0.517-2.536,0.962
															C145.689,36.919,145.523,37.318,145.628,37.41z"/>
													</g>
												</g>
											</g>
										</g>
									</g>
								</g>
							</g>
						</g>
					</g>
				</g>
				<g>
					<g>
						<g>
							<g>
								<g>
									<g>
										<g>
											<g>
												<g>
													<g>
														<path class="st44" d="M163.695,37.594c0.236,0.182,1.337-0.927,3.098-1.194c1.756-0.292,3.189,0.415,3.347,0.17
															c0.079-0.11-0.185-0.464-0.814-0.787c-0.617-0.323-1.623-0.574-2.72-0.4c-1.096,0.175-1.957,0.722-2.424,1.217
															C163.706,37.099,163.581,37.514,163.695,37.594z"/>
													</g>
												</g>
											</g>
										</g>
									</g>
								</g>
							</g>
						</g>
					</g>
				</g>
				<g>
					<g>
						<g>
							<g>
								<g>
									<g>
										<g>
											<g>
												<g>
													<path class="st44" d="M157.475,50.554c0.003-0.101-1.113-0.237-2.918-0.377c-0.457-0.024-0.892-0.093-0.984-0.399
														c-0.124-0.323,0.042-0.822,0.236-1.363c0.372-1.122,0.762-2.297,1.171-3.529c1.62-5.022,2.768-9.143,2.566-9.206
														c-0.203-0.064-1.681,3.956-3.301,8.978c-0.388,1.238-0.76,2.418-1.113,3.547c-0.146,0.525-0.413,1.126-0.146,1.796
														c0.14,0.334,0.485,0.563,0.781,0.627c0.296,0.074,0.552,0.066,0.777,0.068
														C156.354,50.703,157.474,50.655,157.475,50.554z"/>
												</g>
											</g>
										</g>
									</g>
								</g>
							</g>
						</g>
					</g>
				</g>
				<g>
					<g>
						<g>
							<g>
								<g>
									<g>
										<g>
											<g>
												<path class="st72" d="M157.302,71.682c0,0,8.706,0.125,17.045-5.474c0,0-3.896,9.148-16.868,8.588L157.302,71.682z"/>
											</g>
										</g>
									</g>
								</g>
							</g>
						</g>
					</g>
				</g>
				<g>
					<g>
						<g>
							<g>
								<g>
									<g>
										<g>
											<g>
												<path class="st72" d="M158.443,54.807c0.598-0.878,1.696-1.4,2.816-1.336c0.777,0.045,1.576,0.378,2.077,0.984
													c0.501,0.605,0.644,1.494,0.247,2.115c-0.447,0.7-1.443,0.906-2.304,0.707c-0.862-0.199-1.621-0.721-2.344-1.244
													c-0.2-0.145-0.404-0.296-0.535-0.501c-0.131-0.205-0.17-0.48-0.031-0.663"/>
											</g>
										</g>
									</g>
								</g>
							</g>
						</g>
					</g>
				</g>
				<g>
					<g>
						<g>
							<g>
								<g>
									<g>
										<g>
											<g>
												<g>
													<path class="st44" d="M162.776,51.523c-0.29-0.002-0.197,1.93-1.783,3.385c-1.582,1.459-3.653,1.345-3.654,1.616
														c-0.021,0.123,0.477,0.353,1.348,0.332c0.854-0.013,2.086-0.35,3.056-1.239c0.967-0.892,1.345-2.036,1.371-2.832
														C163.147,51.973,162.908,51.505,162.776,51.523z"/>
												</g>
											</g>
										</g>
									</g>
								</g>
							</g>
						</g>
					</g>
				</g>
				<g>
					<g>
						<g>
							<g>
								<g>
									<path class="st44" d="M161.991,30.654c0.247,0.452,1.972-0.044,4.077-0.112c2.105-0.11,3.864,0.239,4.072-0.232
										c0.091-0.224-0.269-0.63-1.014-0.991c-0.739-0.361-1.873-0.637-3.135-0.585c-1.262,0.054-2.368,0.426-3.074,0.847
										C162.205,30.003,161.881,30.438,161.991,30.654z"/>
								</g>
							</g>
						</g>
					</g>
				</g>
				<g>
					<g>
						<g>
							<g>
								<g>
									<path class="st44" d="M145.885,29.761c0.333,0.388,1.539-0.092,3.013-0.186c1.47-0.145,2.737,0.135,3.003-0.302
										c0.116-0.212-0.101-0.607-0.666-0.962c-0.557-0.354-1.472-0.621-2.484-0.54c-1.012,0.083-1.871,0.493-2.363,0.933
										C145.887,29.146,145.737,29.571,145.885,29.761z"/>
								</g>
							</g>
						</g>
					</g>
				</g>
				<g>
					<path class="st71" d="M181.808,46.201c-0.046-0.961,0.951-3.281,1.893-3.477c2.514-0.522,7.09-0.547,7.455,5.885
						c0.499,8.793-8.432,7.48-8.461,7.228C182.671,55.641,181.967,49.519,181.808,46.201z"/>
				</g>
				<g>
					<path class="st72" d="M185.192,52.354c0.037-0.03,0.159,0.098,0.424,0.203c0.259,0.101,0.698,0.156,1.147-0.042
						c0.909-0.394,1.608-1.913,1.561-3.5c-0.023-0.802-0.234-1.554-0.553-2.169c-0.305-0.628-0.746-1.054-1.219-1.11
						c-0.471-0.081-0.786,0.217-0.88,0.471c-0.104,0.253-0.038,0.425-0.084,0.443c-0.023,0.024-0.197-0.136-0.147-0.503
						c0.027-0.177,0.118-0.39,0.315-0.571c0.201-0.183,0.506-0.288,0.834-0.272c0.681,0.009,1.326,0.598,1.677,1.273
						c0.388,0.676,0.644,1.521,0.67,2.42c0.044,1.775-0.768,3.484-2.019,3.924c-0.609,0.196-1.136,0.039-1.414-0.153
						C185.219,52.566,185.162,52.372,185.192,52.354z"/>
				</g>
				<g>
					<path class="st45" d="M148.267,49.324c-0.248,0-0.502-0.011-0.761-0.033c-2.186-0.186-3.882-1.049-5.039-2.564
						c-2.483-3.25-1.592-8.315-1.553-8.529l0.042-0.231l0.209-0.105c0.106-0.053,2.656-1.292,7.576-0.611
						c4.987,0.69,6.553,2.989,6.617,3.086l0.079,0.12l-0.002,0.144c-0.002,0.189-0.092,4.658-2.828,7.139
						C151.446,48.793,149.989,49.324,148.267,49.324z M141.799,38.613c-0.139,1.026-0.526,5.01,1.415,7.547
						c0.99,1.294,2.461,2.033,4.371,2.196c1.783,0.149,3.262-0.288,4.388-1.308c2.164-1.959,2.474-5.508,2.516-6.3
						c-0.363-0.427-1.956-2.025-5.877-2.567C144.789,37.652,142.484,38.353,141.799,38.613z"/>
				</g>
				<g>
					<path class="st45" d="M166.726,49.732c-1.751,0-3.236-0.539-4.422-1.607c-2.841-2.558-2.936-7.216-2.938-7.413l-0.002-0.144
						l0.079-0.12c0.066-0.101,1.683-2.476,6.841-3.189c5.09-0.704,7.726,0.575,7.836,0.63l0.227,0.114l0.029,0.253
						c0.027,0.231,0.617,5.691-2.088,9.016c-1.159,1.425-2.749,2.24-4.726,2.421C167.277,49.719,166.998,49.732,166.726,49.732z
						 M160.31,40.858c0.043,0.813,0.363,4.538,2.624,6.572c1.168,1.05,2.696,1.497,4.542,1.328c1.714-0.157,3.087-0.855,4.081-2.076
						c2.134-2.621,1.987-6.932,1.909-8.049c-0.724-0.273-3.11-0.989-7.054-0.444C162.336,38.752,160.684,40.416,160.31,40.858z"/>
				</g>
				<g>
					<path class="st45" d="M159.701,40.955c-0.824-0.678-1.58-1.039-2.312-1.103c-0.717-0.065-1.617,0.245-1.954,0.954l-0.848-0.403
						c0.468-0.984,1.659-1.596,2.884-1.487c0.927,0.081,1.851,0.511,2.827,1.313L159.701,40.955z"/>
				</g>
				<g>
					<path class="st44" d="M185.612,17.882c-1.523-2.433-4.297-3.731-6.918-4.9c-5.698-2.541-11.772-5.141-17.954-4.301
						c-5.14,0.699-9.636,3.692-13.928,6.604l0.304,5.259c1.507,3.349,6.015,4.945,9.293,3.288c0.917,1.385,2.661,2.172,4.306,1.942
						c1.645-0.23,3.107-1.464,3.609-3.047c1.994,3.037,5.965,4.628,9.504,3.808c-1.12,1.623-1.835,3.646-1.418,5.573
						c0.418,1.927,2.225,3.612,4.187,3.419c-0.289,2.075-0.572,4.238,0.09,6.226c0.662,1.988,2.576,3.727,4.654,3.454
						c1.37-0.18,2.522-1.193,3.2-2.397c0.678-1.204,0.954-2.589,1.174-3.953c0.65-4.021,0.91-8.094,1.169-12.159
						C187.076,23.683,187.215,20.443,185.612,17.882z"/>
				</g>
				<g>
					<g>
						<path class="st45" d="M203.088,44.783c-0.07-0.009,0.255-1.113,0.163-3.081c-0.098-1.93-0.735-4.843-2.949-7.433l-0.083-0.097
							l0.052-0.117c0.811-1.838,0.797-4.32-0.412-6.389c-1.164-2.081-3.702-3.486-6.336-3.369c-0.532,0.025-1.056,0.109-1.558,0.248
							l-0.354,0.098l0.044-0.363c0.268-2.229-0.871-4.451-2.591-5.529c-1.734-1.1-3.895-1.126-5.492-0.4l-0.347,0.158l0.06-0.377
							c0.27-1.683-0.479-3.271-1.499-4.178c-1.03-0.94-2.322-1.177-3.304-1.109c-1.004,0.063-1.745,0.403-2.205,0.674
							c-0.463,0.278-0.674,0.483-0.694,0.46c-0.007-0.008,0.04-0.063,0.141-0.164c0.098-0.104,0.26-0.241,0.487-0.4
							c0.452-0.311,1.204-0.702,2.253-0.804c1.023-0.107,2.41,0.104,3.543,1.095c1.113,0.954,1.953,2.636,1.683,4.493L183.4,17.98
							c1.712-0.801,4.02-0.799,5.911,0.38c1.88,1.168,3.113,3.546,2.828,5.981l-0.31-0.264c0.54-0.151,1.103-0.242,1.673-0.268
							c2.816-0.125,5.518,1.381,6.76,3.623c1.276,2.219,1.263,4.843,0.377,6.788l-0.031-0.214c2.259,2.713,2.842,5.719,2.874,7.687
							c0.018,1.001-0.088,1.781-0.185,2.303C203.188,44.517,203.105,44.787,203.088,44.783z"/>
					</g>
				</g>
				<g>
					
						<rect x="179.077" y="34.4" transform="matrix(0.3506 -0.9365 0.9365 0.3506 78.7377 194.3946)" class="st45" width="0.939" height="12.04"/>
				</g>
			</g>
			<g>
				<polygon class="st41" points="184.779,41.566 183.277,29.845 184.209,29.726 185.59,40.505 187.745,40.204 186.026,27.821 
					186.956,27.691 188.805,41.005 				"/>
			</g>
			<g>
				<path class="st45" d="M183.174,30.843c0,0-2.136-17.61-7.947-22.322l-2.31-2.57c0,0,3.168-0.648,6.629,1.175
					c3.461,1.822,5.77,9.619,7.515,20.63L183.174,30.843z"/>
			</g>
			<g>
				<g>
					<circle class="st45" cx="188.275" cy="47.222" r="11.299"/>
				</g>
				<g>
					<g>
						<path class="st44" d="M195.103,47.222c-0.055,0.003-0.028-0.609-0.306-1.644c-0.275-1.016-0.965-2.502-2.496-3.646
							c-0.758-0.559-1.71-1.031-2.803-1.218c-1.087-0.18-2.31-0.14-3.472,0.307c-1.162,0.42-2.27,1.213-3.056,2.307
							c-0.809,1.08-1.264,2.465-1.278,3.893c0.013,1.429,0.468,2.814,1.277,3.894c0.787,1.095,1.895,1.887,3.057,2.307
							c1.162,0.447,2.386,0.486,3.472,0.306c1.094-0.187,2.045-0.659,2.803-1.218c1.53-1.144,2.221-2.63,2.495-3.646
							C195.075,47.831,195.048,47.219,195.103,47.222c0.017,0,0.026,0.15,0.027,0.438c0.007,0.287-0.029,0.716-0.148,1.252
							c-0.225,1.057-0.889,2.634-2.47,3.874c-0.783,0.606-1.781,1.125-2.939,1.342c-1.15,0.209-2.453,0.183-3.7-0.281
							c-1.247-0.438-2.439-1.278-3.289-2.447c-0.873-1.154-1.368-2.645-1.38-4.178c0.013-1.533,0.508-3.023,1.381-4.177
							c0.85-1.169,2.042-2.009,3.289-2.447c1.247-0.464,2.55-0.491,3.7-0.282c1.158,0.216,2.155,0.736,2.939,1.341
							c1.582,1.24,2.245,2.817,2.471,3.874c0.12,0.536,0.156,0.964,0.149,1.252C195.129,47.073,195.12,47.222,195.103,47.222z"/>
					</g>
				</g>
			</g>
		</g>
		<g>
			<g>
				<path class="st71" d="M112.54,134.575c0,0-3.738,19.236-3.738,27.944c0,8.707,7.256,14.802,14.512,12.19
					c7.256-2.612,16.338-14.341,20.897-23.8l-7.546-7.837l-6.674,3.926l2.09-7.114L112.54,134.575z"/>
			</g>
			<g>
				<g>
					<path class="st72" d="M136.666,143.072c0.017,0.03-0.311,0.253-0.915,0.636c-0.697,0.429-1.559,0.96-2.58,1.588
						c-2.195,1.313-5.223,3.139-8.707,4.926c-0.875,0.442-1.735,0.862-2.616,1.192c-0.876,0.323-1.731,0.564-2.537,0.814
						c-1.612,0.486-3.026,1.02-4.077,1.714c-1.057,0.682-1.752,1.448-2.135,2.036c-0.39,0.587-0.517,0.966-0.559,0.95
						c-0.016-0.006,0.004-0.103,0.058-0.287c0.058-0.181,0.162-0.445,0.339-0.763c0.345-0.64,1.032-1.479,2.105-2.224
						c1.067-0.759,2.52-1.345,4.133-1.856c0.805-0.263,1.657-0.514,2.506-0.834c0.841-0.321,1.696-0.741,2.561-1.179
						c3.46-1.774,6.517-3.553,8.754-4.788c1.117-0.623,2.024-1.122,2.658-1.454C136.289,143.211,136.649,143.044,136.666,143.072z"
						/>
				</g>
			</g>
			<g>
				<path class="st71" d="M160.874,125.702c0,0,1.732-2.531,3.463-2.597c1.732-0.067,1.998,2.728,0.333,4.994
					c-1.665,2.266-3.796,4.131-3.796,4.131V125.702z"/>
			</g>
			<g>
				<path class="st71" d="M144.212,150.909l4.486-4.843c0,0,5.792-3.591,6.488-8.457c0.695-4.866,1.912-12.585,1.912-12.585
					l-15.745-1.607l-2.506,12.743l-0.378,5.461l-1.802,1.451L144.212,150.909z"/>
			</g>
			<g>
				<polygon class="st45" points="142.966,112.226 144.166,141.592 160.372,141.904 164.136,113.276 				"/>
			</g>
			<g>
				<g>
					<path class="st71" d="M141.867,139.639c0,0,7.298-0.232,7.762-4.634c0,0,3.104,0.227,3.104-1.735
						c0-1.747-1.965-2.372-1.965-2.372s1.892-0.862,1.51-2.393c-0.557-2.229-8.806-3.913-8.806-3.913l-0.189-2.574
						c0,0,3.746-0.201,3.599-2.196c-0.129-1.764-2.309-1.732-3.161-1.847c-0.448-0.06-5.137-0.635-5.634,2.457
						c-0.053,0.327-0.005,0.664,0.103,0.977l0.981,2.843c0,0-2.82,1.327-1.404,4.971l0.507,0.883c0,0-2.223,3.7-1.412,7.059
						s-0.196,5.905-0.196,5.905"/>
				</g>
				<g>
					<g>
						<path class="st72" d="M136.666,143.072c-0.019-0.007,0.086-0.312,0.202-0.909c0.116-0.595,0.239-1.488,0.2-2.633
							c-0.026-0.572-0.095-1.205-0.236-1.885c-0.158-0.666-0.331-1.458-0.291-2.287c0.045-1.669,0.57-3.519,1.572-5.349
							l-0.002,0.191c-0.157-0.269-0.333-0.572-0.511-0.88l-0.007-0.012l-0.006-0.015c-0.327-0.825-0.535-1.797-0.338-2.796
							c0.205-0.993,0.853-1.921,1.83-2.444l-0.114,0.269c-0.196-0.563-0.396-1.136-0.599-1.718
							c-0.101-0.291-0.204-0.585-0.307-0.881c-0.103-0.28-0.224-0.637-0.223-0.99c0.037-0.709,0.294-1.395,0.815-1.903
							c0.511-0.505,1.182-0.793,1.856-0.96c1.355-0.341,2.804-0.211,4.181-0.034c0.695,0.104,1.504,0.27,2.046,0.928
							c0.26,0.328,0.383,0.738,0.388,1.144c0.033,0.422-0.176,0.85-0.451,1.144c-0.461,0.491-1.056,0.721-1.625,0.896
							c-0.579,0.17-1.155,0.267-1.75,0.312l0.23-0.261c0.063,0.87,0.125,1.727,0.187,2.574l-0.192-0.218
							c2.312,0.516,4.518,1.12,6.525,2.029c0.497,0.237,0.982,0.493,1.429,0.816c0.437,0.32,0.877,0.737,1.031,1.334
							c0.129,0.573-0.073,1.182-0.419,1.594c-0.343,0.427-0.764,0.723-1.231,0.958l-0.023-0.387c0.682,0.252,1.271,0.655,1.676,1.23
							c0.398,0.577,0.532,1.309,0.296,1.963c-0.264,0.67-0.928,0.982-1.485,1.126c-0.581,0.15-1.145,0.179-1.701,0.152l0.178-0.149
							c-0.126,0.785-0.415,1.507-0.878,2.054c-0.463,0.535-0.989,0.954-1.53,1.242c-1.073,0.599-2.094,0.868-2.92,1.047
							c-0.83,0.173-1.483,0.239-1.925,0.271c-0.442,0.027-0.674,0.019-0.675,0.003c-0.001-0.016,0.229-0.04,0.665-0.097
							c0.436-0.062,1.08-0.157,1.894-0.355c0.809-0.204,1.807-0.497,2.828-1.097c0.517-0.288,1.006-0.698,1.429-1.202
							c0.421-0.515,0.67-1.179,0.779-1.901l0.023-0.155l0.155,0.005c0.507,0.018,1.06-0.019,1.583-0.163
							c0.516-0.139,1.045-0.422,1.227-0.92c0.175-0.491,0.071-1.13-0.27-1.599c-0.336-0.478-0.892-0.852-1.476-1.061l-0.466-0.166
							l0.442-0.221c0.777-0.388,1.608-1.175,1.393-2.086c-0.111-0.409-0.454-0.766-0.865-1.059
							c-0.411-0.294-0.877-0.538-1.358-0.764c-1.948-0.873-4.153-1.47-6.429-1.972l-0.179-0.04l-0.013-0.179
							c-0.063-0.846-0.127-1.704-0.192-2.573l-0.018-0.242l0.248-0.019c0.541-0.041,1.106-0.136,1.637-0.294
							c0.527-0.158,1.06-0.383,1.404-0.759c0.449-0.426,0.399-1.185,0.041-1.655c-0.377-0.476-1.069-0.658-1.729-0.749
							c-1.387-0.181-2.731-0.297-4.002,0.014c-0.623,0.151-1.213,0.412-1.64,0.831c-0.433,0.405-0.649,1.014-0.685,1.564
							c0.012,0.543,0.326,1.147,0.495,1.731c0.199,0.584,0.395,1.158,0.588,1.722l0.061,0.177l-0.174,0.092
							c-0.823,0.435-1.432,1.266-1.61,2.134c-0.183,0.882-0.009,1.781,0.295,2.569l-0.013-0.026
							c0.175,0.309,0.348,0.614,0.502,0.885l0.053,0.094l-0.055,0.098c-0.983,1.747-1.527,3.564-1.594,5.163
							c-0.049,0.812,0.094,1.527,0.243,2.228c0.129,0.698,0.185,1.346,0.194,1.93c0.008,1.168-0.152,2.069-0.304,2.663
							c-0.074,0.298-0.151,0.521-0.206,0.668C136.713,143.004,136.674,143.076,136.666,143.072z"/>
					</g>
				</g>
			</g>
			<g>
				<polygon class="st44" points="164.092,111.009 163.465,108.15 143.857,108.15 143.16,110.891 141.139,111.09 141.186,113.434 
					165.622,113.67 165.787,111.009 				"/>
			</g>
			<g>
				<g>
					<path class="st72" d="M149.629,135.005c0.001,0.066-0.649,0.134-1.698,0.133c-1.265-0.027-2.606-0.056-4.079-0.088
						c-0.8-0.023-1.547-0.05-2.211,0.023c-0.662,0.07-1.229,0.258-1.641,0.525c-0.823,0.558-1.03,1.234-1.115,1.183
						c-0.034,0.008,0.035-0.742,0.915-1.465c0.439-0.343,1.075-0.591,1.784-0.69c0.71-0.103,1.487-0.087,2.28-0.065
						c1.597,0.013,3.046,0.145,4.082,0.231C148.984,134.882,149.628,134.936,149.629,135.005z"/>
				</g>
			</g>
			<g>
				<g>
					<path class="st72" d="M138.274,130.107c-0.047-0.02,0.389-0.728,1.589-1.157c0.62-0.225,1.404-0.102,2.168,0.061
						c0.737,0.15,1.636,0.238,2.526,0.413c1.802,0.327,3.405,0.719,4.567,0.989c1.161,0.276,1.879,0.453,1.868,0.522
						c-0.011,0.064-0.752,0.007-1.935-0.183c-1.184-0.184-2.801-0.522-4.587-0.847c-0.899-0.177-1.732-0.268-2.538-0.455
						c-0.761-0.187-1.435-0.322-1.974-0.168C138.847,129.585,138.323,130.173,138.274,130.107z"/>
				</g>
			</g>
			<g>
				<g>
					<path class="st72" d="M144.212,124.837c-0.048,0.128-1.138-0.145-2.517-0.264c-1.378-0.128-2.521-0.175-2.524-0.319
						c-0.005-0.126,1.142-0.299,2.571-0.168C143.179,124.211,144.264,124.713,144.212,124.837z"/>
				</g>
			</g>
			<g>
				<g>
					<path class="st72" d="M143.933,121.766c0.051,0.12-0.806,0.586-1.977,0.79c-1.171,0.209-2.135,0.064-2.128-0.066
						c0.004-0.14,0.929-0.215,2.043-0.415C142.985,121.881,143.881,121.636,143.933,121.766z"/>
				</g>
			</g>
			<g>
				<g>
					<path class="st72" d="M145.732,146.505c-0.147,0.01,0.112-1.868-1.041-3.699c-1.143-1.838-2.945-2.426-2.872-2.554
						c0.016-0.057,0.481-0.001,1.151,0.334c0.665,0.327,1.521,0.979,2.136,1.961c0.615,0.982,0.826,2.037,0.83,2.778
						C145.943,146.074,145.791,146.516,145.732,146.505z"/>
				</g>
			</g>
			<g>
				<g>
					<path class="st45" d="M164.629,110.901c0,0.135-4.883,0.245-10.905,0.245c-6.024,0-10.906-0.109-10.906-0.245
						c0-0.135,4.882-0.244,10.906-0.244C159.746,110.657,164.629,110.767,164.629,110.901z"/>
				</g>
			</g>
		</g>
	</g>
	<g>
		<g>
			<path class="st44" d="M344.117,246.851h-17.401v-9.062h17.401c2.41,0,4.364,1.954,4.364,4.364v0.335
				C348.48,244.897,346.526,246.851,344.117,246.851z"/>
		</g>
		<g>
			<path class="st45" d="M348.506,242.789l-0.051-0.937c3.785-0.209,6.048-1.48,6.543-3.673c0.524-2.317-1.055-5.062-2.375-5.783
				c-4.215-2.299-16.546-2.808-21.188-2.998c-23.468-0.968-36.885-1.311-59.217-0.94c-10.346,0.141-20.489-3.218-27.243-9.064
				c-2.96-2.563-4.737-6.156-6.455-9.631c-1.871-3.78-3.636-7.351-6.796-9.765c-5.509-4.207-13.266-3.347-20.13-1.948l-0.77,0.158
				c-6.935,1.418-14.104,2.888-20.404-0.143c-5.132-2.469-5.125-6.372-5.118-11.772l0.001-0.65c0-3.48-0.119-6.828-0.234-10.067
				c-0.09-2.531-0.174-4.921-0.206-7.354c-0.231-17.851,0.597-36.97,1.396-55.46c0.8-18.477,1.627-37.583,1.396-55.407l0.939-0.012
				c0.231,17.85-0.597,36.969-1.396,55.459c-0.8,18.477-1.627,37.583-1.396,55.406c0.031,2.423,0.116,4.807,0.205,7.333
				c0.116,3.247,0.235,6.605,0.235,10.101l-0.001,0.651c-0.007,5.247-0.013,8.713,4.586,10.926
				c6.014,2.892,13.027,1.457,19.808,0.068l0.772-0.158c7.068-1.44,15.08-2.314,20.887,2.122c3.334,2.547,5.232,6.384,7.067,10.095
				c1.678,3.392,3.413,6.899,6.229,9.338c6.583,5.7,16.557,8.998,26.612,8.835c22.363-0.37,35.787-0.027,59.272,0.94
				c4.702,0.194,17.192,0.71,21.599,3.114c1.552,0.846,3.478,3.996,2.842,6.814C355.497,240.23,353.873,242.492,348.506,242.789z"/>
		</g>
	</g>
	<g>
		<g>
			<g>
				<g>
					<g>
						<g>
							<g>
								<g>
									<g>
										<path class="st35" d="M239.832,149.57l8.314-2.842c4.168,2.305,9.005,3.523,14.113,3.282
											c14.687-0.692,26.033-13.159,25.341-27.846c-0.692-14.687-13.159-26.033-27.846-25.341
											c-14.687,0.692-26.033,13.159-25.341,27.846c0.289,6.133,2.636,11.678,6.336,16.012l-0.012-0.008L239.832,149.57z"/>
									</g>
									<g>
										<g>
											<path class="st44" d="M239.832,149.57c0,0,0.008-0.179,0.04-0.554c0.035-0.399,0.084-0.959,0.148-1.687
												c0.14-1.532,0.345-3.766,0.61-6.667c0.005-0.058,0.057-0.101,0.115-0.095c0.018,0.002,0.037,0.009,0.051,0.019
												c0,0,0.008,0.005,0.012,0.008l-0.141,0.156c-2.26-2.628-4.757-6.57-5.874-11.83c-0.579-2.612-0.738-5.531-0.39-8.582
												c0.342-3.048,1.235-6.238,2.814-9.279c1.571-3.039,3.824-5.924,6.699-8.307c2.867-2.384,6.359-4.258,10.223-5.294
												c3.86-1.043,8.083-1.171,12.211-0.342c4.126,0.829,8.175,2.649,11.556,5.452c0.421,0.354,0.855,0.693,1.263,1.058
												l1.159,1.161l0.577,0.579l0.519,0.629l1.033,1.255c1.257,1.754,2.397,3.582,3.196,5.543
												c1.673,3.887,2.37,8.064,2.17,12.068c-0.222,4.009-1.36,7.823-3.123,11.121c-1.763,3.305-4.146,6.096-6.813,8.251
												c-5.367,4.33-11.712,6.058-17.038,5.966c-5.378-0.045-9.743-1.685-12.755-3.377l0.085,0.007
												c-2.716,0.898-4.809,1.59-6.245,2.065c-0.682,0.222-1.207,0.394-1.582,0.516
												C240.002,149.523,239.832,149.57,239.832,149.57s0.193-0.077,0.553-0.206c0.378-0.135,0.908-0.324,1.595-0.57
												c1.41-0.498,3.464-1.223,6.131-2.165c0.029-0.01,0.06-0.006,0.085,0.008c3.009,1.643,7.341,3.227,12.655,3.238
												c5.264,0.057,11.508-1.68,16.777-5.962c2.619-2.132,4.955-4.886,6.68-8.14c1.726-3.248,2.836-6.997,3.048-10.937
												c0.19-3.936-0.501-8.037-2.146-11.852c-0.785-1.925-1.907-3.719-3.141-5.441l-1.015-1.231l-0.51-0.618l-0.567-0.568
												l-1.138-1.14c-0.401-0.358-0.827-0.69-1.24-1.038c-3.32-2.753-7.294-4.541-11.344-5.358
												c-4.052-0.818-8.203-0.698-11.996,0.321c-3.797,1.012-7.233,2.846-10.059,5.184c-2.833,2.337-5.059,5.168-6.617,8.155
												c-1.565,2.989-2.459,6.128-2.81,9.131c-0.358,3.006-0.217,5.89,0.339,8.473c1.07,5.202,3.506,9.125,5.718,11.759
												c0.038,0.044,0.033,0.111-0.011,0.15c-0.037,0.032-0.092,0.033-0.13,0.007c-0.004-0.003-0.012-0.008-0.012-0.008
												l0.166-0.077c-0.32,2.862-0.566,5.065-0.734,6.577c-0.085,0.738-0.151,1.307-0.198,1.712
												C239.864,149.361,239.832,149.57,239.832,149.57z"/>
										</g>
									</g>
								</g>
							</g>
						</g>
					</g>
				</g>
			</g>
		</g>
		<g>
			<g>
				<path class="st44" d="M252.152,119.448v8.873c0,0.3,0.166,0.574,0.432,0.714l5.006,2.624c0.536,0.281,1.18-0.108,1.18-0.714
					v-15.115c0-0.657-0.745-1.038-1.278-0.653l-5.006,3.619C252.276,118.947,252.152,119.19,252.152,119.448z"/>
			</g>
			<g>
				<path class="st44" d="M263.495,132.444c-0.32,0-0.631-0.163-0.807-0.458c-0.266-0.446-0.121-1.021,0.325-1.287
					c2.294-1.371,3.866-3.876,4.1-6.539c0.235-2.663-0.874-5.404-2.894-7.155c-0.392-0.34-0.434-0.932-0.094-1.325
					c0.341-0.391,0.933-0.434,1.325-0.094c2.466,2.138,3.821,5.487,3.534,8.739c-0.287,3.252-2.205,6.313-5.008,7.986
					C263.825,132.401,263.659,132.444,263.495,132.444z"/>
			</g>
			<g>
				<path class="st44" d="M260.693,129.705c-0.32,0-0.631-0.163-0.807-0.458c-0.266-0.445-0.121-1.021,0.325-1.287
					c1.302-0.778,2.193-2.2,2.326-3.711c0.134-1.511-0.495-3.067-1.642-4.06c-0.392-0.34-0.434-0.932-0.094-1.325
					c0.34-0.392,0.933-0.434,1.325-0.094c1.594,1.382,2.468,3.544,2.282,5.645c-0.184,2.1-1.424,4.077-3.234,5.158
					C261.024,129.662,260.858,129.705,260.693,129.705z"/>
			</g>
			<g>
				<path class="st44" d="M266.552,134.976c-0.32,0-0.631-0.163-0.807-0.458c-0.266-0.445-0.121-1.021,0.325-1.287
					c3.143-1.878,5.295-5.311,5.616-8.957c0.322-3.647-1.198-7.401-3.964-9.8c-0.392-0.34-0.434-0.933-0.094-1.325
					c0.341-0.391,0.933-0.434,1.325-0.094c3.214,2.787,4.978,7.149,4.604,11.384c-0.372,4.236-2.873,8.223-6.524,10.404
					C266.882,134.933,266.716,134.976,266.552,134.976z"/>
			</g>
			<g>
				<path class="st44" d="M250.077,128.764h-2.374c-0.544,0-0.985-0.441-0.985-0.985v-7.756c0-0.544,0.441-0.985,0.985-0.985h2.374
					c0.544,0,0.986,0.441,0.986,0.985v7.756C251.062,128.322,250.621,128.764,250.077,128.764z"/>
			</g>
		</g>
	</g>
</g>
</svg>
