<?xml version="1.0" encoding="utf-8"?>
<!-- Generator: Adobe Illustrator 25.4.1, SVG Export Plug-In . SVG Version: 6.00 Build 0)  -->
<svg version="1.1" id="Layer_1" xmlns="http://www.w3.org/2000/svg" xmlns:xlink="http://www.w3.org/1999/xlink" x="0px" y="0px"
	 viewBox="0 0 679.259 427.133" style="enable-background:new 0 0 679.259 427.133;" xml:space="preserve">
<style type="text/css">
	.st0{fill:#EBF0F1;}
	.st1{fill:#DFE9F2;}
	.st2{fill:#A8B0B6;}
	.st3{clip-path:url(#SVGID_00000068667275486892962610000003139432498182590645_);}
	.st4{fill:#CCCCCC;}
	.st5{fill:#876441;}
	.st6{fill:#F3A48A;}
	.st7{fill:#CF5D43;}
	.st8{fill:#DD6D4E;}
	.st9{fill:#ABA97B;}
	.st10{fill:#E3E0A2;}
	.st11{fill:#303030;}
	.st12{fill:#EFEDE3;}
	.st13{fill:#353535;}
	.st14{fill:#9F714A;}
	.st15{fill:#775336;}
	.st16{fill:#412C19;}
	.st17{fill:#B5B573;}
	.st18{clip-path:url(#SVGID_00000062194008337901391650000012859596223608221830_);}
	.st19{fill:#3B9A64;}
	.st20{fill:#AC614E;}
	.st21{fill:#C1C57C;}
	.st22{clip-path:url(#SVGID_00000121994826243946725060000002922916460298781093_);}
	.st23{fill:#4CA66F;}
	.st24{fill:#FCF9EE;}
	.st25{fill:#F47F64;}
	.st26{fill:#668F95;}
	.st27{fill:#EBE6D5;}
	.st28{fill:#005D68;}
	.st29{fill:#FFC099;}
	.st30{fill:#003239;}
	.st31{fill:#DF8E7A;}
	.st32{fill:#B77B67;}
	.st33{fill:#68472F;}
	.st34{fill:#FBA983;}
	.st35{fill:#FFFFFF;}
	.st36{fill:#F88D61;}
	.st37{fill:#C79072;}
	.st38{fill:#573C28;}
	.st39{fill:#FFA16C;}
	.st40{fill:#F5F5F5;}
	.st41{fill:#E1E1E1;}
	.st42{fill:#ECECEC;}
	.st43{fill:#FAFAFA;}
	.st44{fill:#1A2E35;}
	.st45{fill:#375A64;}
	.st46{opacity:0.3;}
	.st47{fill:#498269;}
	.st48{fill:#946962;}
	.st49{fill:#6F4540;}
	.st50{fill:#CE4F41;}
	.st51{opacity:0.6;}
	.st52{fill:#305A46;}
	.st53{fill:#F7D858;}
	.st54{opacity:0.2;}
	.st55{opacity:0.4;}
	.st56{fill:#101010;}
	.st57{fill:#6AB792;}
	.st58{fill:#D25F3B;}
	.st59{fill:#E57E5B;}
	.st60{fill:none;stroke:#D25F3B;stroke-width:1.3008;stroke-linecap:round;stroke-linejoin:round;stroke-miterlimit:10;}
	.st61{fill:none;stroke:#498269;stroke-width:1.8047;stroke-linecap:round;stroke-linejoin:round;stroke-miterlimit:10;}
	.st62{fill:#39ACB2;}
	.st63{clip-path:url(#SVGID_00000017482968658974423650000012569863008050063493_);}
	.st64{fill:none;stroke:#305A46;stroke-width:3.1006;stroke-linecap:round;stroke-linejoin:round;stroke-miterlimit:10;}
	.st65{fill:#EC8A63;}
	.st66{fill:#FFB890;}
	.st67{fill:none;stroke:#EC8A63;stroke-width:2.028;stroke-linecap:round;stroke-linejoin:round;stroke-miterlimit:10;}
	.st68{opacity:0.26;fill:#FFFFFF;}
	.st69{fill:none;stroke:#FFFFFF;stroke-width:1.9299;stroke-linecap:round;stroke-linejoin:round;stroke-miterlimit:10;}
	.st70{fill:#DAF0FA;}
	.st71{fill:#FFBF9D;}
	.st72{fill:#FF9A6C;}
	.st73{fill:none;stroke:#44555B;stroke-miterlimit:10;}
	.st74{fill:#C78976;}
	.st75{fill:#BF654E;}
	.st76{fill:none;stroke:#44555B;stroke-width:0.05;stroke-miterlimit:10;}
	.st77{fill:none;stroke:#44555B;stroke-width:0.0469;stroke-miterlimit:10;}
	.st78{fill:#FF735D;}
	.st79{clip-path:url(#SVGID_00000089542421801540886870000008606402199336321933_);}
	.st80{fill:#FFDAD9;}
	.st81{fill:#DCDFE0;}
	.st82{fill:none;stroke:#B6E1F4;stroke-width:5.3697;stroke-linecap:round;stroke-linejoin:round;stroke-miterlimit:10;}
	.st83{fill:none;stroke:#B6E1F4;stroke-width:5.0288;stroke-miterlimit:10;}
	.st84{opacity:0.44;fill:#B6E1F4;}
	.st85{fill:#E07280;}
	.st86{fill:#7E5780;}
	.st87{opacity:0.22;fill:#7E5780;}
	.st88{fill:none;stroke:#FFD0C5;stroke-width:0.3194;stroke-miterlimit:10;}
	.st89{fill:none;stroke:#FFD0C5;stroke-width:0.3836;stroke-miterlimit:10;}
	.st90{fill:none;stroke:#401A49;stroke-width:1.5344;stroke-linecap:round;stroke-linejoin:round;stroke-miterlimit:10;}
	.st91{fill:#401A49;}
	.st92{fill:none;stroke:#161C3E;stroke-width:1.1265;stroke-linecap:round;stroke-linejoin:round;stroke-miterlimit:10;}
	.st93{opacity:0.09;fill:#E07280;}
	.st94{fill:none;stroke:#401A49;stroke-width:0.9884;stroke-linecap:round;stroke-linejoin:round;stroke-miterlimit:10;}
	.st95{fill:none;stroke:#401A49;stroke-width:0.7672;stroke-linecap:round;stroke-linejoin:round;stroke-miterlimit:10;}
	.st96{fill:#994975;}
	.st97{fill:#FF8A9A;}
	.st98{fill:none;stroke:#161C3E;stroke-width:1.0685;stroke-linecap:round;stroke-linejoin:round;stroke-miterlimit:10;}
	.st99{opacity:0.35;fill:#EF5D6B;}
	.st100{fill:none;stroke:#401A49;stroke-width:0.9376;stroke-linecap:round;stroke-linejoin:round;stroke-miterlimit:10;}
	.st101{fill:#FFF5EB;}
	.st102{fill:#F2B2D6;}
	.st103{fill:none;stroke:#FFF5EB;stroke-width:0.8381;stroke-linecap:round;stroke-linejoin:round;stroke-miterlimit:10;}
	.st104{opacity:0.22;fill:#401A49;}
	.st105{fill:none;stroke:#FFDAD9;stroke-width:0.8381;stroke-miterlimit:10;}
	.st106{fill:none;stroke:#FFDAD9;stroke-width:0.8381;stroke-linecap:round;stroke-linejoin:round;stroke-miterlimit:10;}
	.st107{fill:none;stroke:#401A49;stroke-width:1.6763;stroke-linecap:round;stroke-linejoin:round;stroke-miterlimit:10;}
	.st108{fill:#FFD0C5;}
	.st109{fill:#FDB22C;}
	.st110{fill:#1A8B91;}
	.st111{fill:none;stroke:#000000;stroke-width:0.8147;stroke-linecap:round;stroke-linejoin:round;stroke-miterlimit:10;}
	.st112{fill:#ECA079;}
	.st113{fill:#FDF1F5;}
	.st114{fill:#E6C6CE;}
	.st115{fill:#862904;}
	.st116{fill:#DC845E;}
	.st117{fill:none;stroke:#000000;stroke-width:0.848;stroke-linecap:round;stroke-linejoin:round;stroke-miterlimit:10;}
	.st118{clip-path:url(#XMLID_00000038398935111410599930000008867691619514356409_);}
	.st119{clip-path:url(#XMLID_00000173871821754734707790000015741611280162866872_);}
	.st120{fill:none;stroke:#000000;stroke-width:0.8027;stroke-linecap:round;stroke-linejoin:round;stroke-miterlimit:10;}
	.st121{fill:none;stroke:#FFFFFF;stroke-width:2.99;stroke-linecap:round;stroke-linejoin:round;}
	.st122{fill:none;stroke:#FFFFFF;stroke-width:2.99;stroke-linecap:round;stroke-linejoin:round;stroke-dasharray:18.4657,18.4657;}
	.st123{fill:none;stroke:#000000;stroke-width:0.9784;stroke-linecap:round;stroke-linejoin:round;stroke-miterlimit:10;}
	.st124{clip-path:url(#XMLID_00000128457129855016613170000007675418423324614587_);}
	.st125{fill:none;stroke:#000000;stroke-width:0.682;stroke-linecap:round;stroke-linejoin:round;stroke-miterlimit:10;}
	.st126{fill:#AE3700;}
	.st127{fill:none;stroke:#FFFFFF;stroke-width:1.7082;stroke-linecap:round;stroke-linejoin:round;stroke-miterlimit:10;}
	.st128{fill:none;stroke:#000000;stroke-width:0.9976;stroke-linecap:round;stroke-linejoin:round;stroke-miterlimit:10;}
	.st129{fill:#528E72;}
	.st130{fill:#F0DBE0;}
	.st131{fill:#89331A;}
	.st132{fill:none;stroke:#CCDADC;stroke-linecap:round;stroke-linejoin:round;}
	.st133{opacity:0.45;fill:#F7E3C7;enable-background:new    ;}
	.st134{fill:#222222;}
	.st135{fill:#F47365;}
	.st136{fill:none;stroke:#222222;stroke-width:0.211;stroke-linecap:round;stroke-linejoin:round;}
	.st137{opacity:0.5;fill:#F43D4F;enable-background:new    ;}
	.st138{fill:#F43D4F;}
	.st139{fill:none;stroke:#FFF7EE;stroke-width:0.422;stroke-miterlimit:10;}
	.st140{fill:#FBB244;}
	.st141{fill:#FFF7EE;}
	.st142{opacity:0.22;}
	.st143{clip-path:url(#SVGID_00000102524288623668563120000001787652592387565731_);}
	.st144{fill:none;stroke:#FFFFFF;stroke-width:0.422;stroke-linecap:round;stroke-linejoin:round;}
	.st145{fill:none;stroke:#222222;stroke-width:2.166;stroke-linecap:round;stroke-linejoin:round;}
	.st146{fill:none;stroke:#222222;stroke-width:2.1655;stroke-linecap:round;stroke-linejoin:round;stroke-miterlimit:3.9991;}
	.st147{clip-path:url(#SVGID_00000088097308718607959330000004761887274250673028_);}
	.st148{fill:none;stroke:#222222;stroke-width:0.422;stroke-linecap:round;stroke-linejoin:round;}
	.st149{fill:#00454F;}
	.st150{fill:#B0B4B5;}
	.st151{fill-rule:evenodd;clip-rule:evenodd;fill:#00454F;}
	.st152{fill:#D2DADB;}
	.st153{fill:none;stroke:#FFFFFF;stroke-width:3.3017;stroke-miterlimit:10;}
	.st154{fill:#05454F;}
	.st155{fill:none;stroke:#707070;}
	.st156{fill:#F5F7F6;}
</style>
<path class="st0" d="M0.989,426.899c-2.463-2.615,0.38-11.638,0.953-14.52c1.853-9.314,5.453-18.409,7.567-27.712
	c2.673-11.763,4.677-23.686,5.995-35.69c4.658-42.415,1.516-88.306,23.879-124.285c17.532-28.207,47.849-45.052,77.879-58.044
	c62.005-26.824,128.669-42.579,187.585-75.948c31.851-18.039,60.878-40.933,92.474-59.44c31.595-18.507,66.968-32.78,103.306-31.132
	c36.338,1.649,73.517,22.179,87.254,56.766c10.074,25.366,6.823,54.907,17.943,79.809c10.229,22.907,31.111,38.654,45.673,58.939
	c27.417,38.193,30.373,89.276,26.257,136.536c-2.843,32.648-8.976,67.643-26.964,94.719c-0.04,0.06-0.598,0-0.664,0
	c-3.161,0.007-6.323-0.006-9.484,0c-6.568,0.013-13.137-0.013-19.705,0c-9.539,0.018-19.078-0.018-28.617,0
	c-12.073,0.023-24.147-0.023-36.22,0c-14.171,0.027-28.342-0.027-42.513,0c-15.832,0.03-31.664-0.03-47.496,0
	c-17.057,0.033-34.113-0.033-51.17,0c-17.845,0.034-35.689-0.034-53.534,0c-18.196,0.035-36.392-0.035-54.589,0
	c-18.111,0.035-36.222-0.035-54.334,0c-17.59,0.034-35.179-0.034-52.769,0c-16.632,0.032-33.263-0.032-49.895,0
	c-15.237,0.029-30.474-0.029-45.711,0c-13.406,0.026-26.812-0.026-40.218,0c-11.138,0.021-22.277-0.021-33.415,0
	c-4.643,0.009-10.457,0.002-13.943,0c-3.169-0.002-9.508,0-12.678,0C3.123,426.899,1.484,427.425,0.989,426.899z"/>
<g>
	<defs>
		<rect id="SVGID_00000011734309394882016250000003615068251443605401_" x="111.493" y="12.036" width="427.751" height="415.097"/>
	</defs>
	<clipPath id="SVGID_00000000916250491669221830000010788796151316004283_">
		<use xlink:href="#SVGID_00000011734309394882016250000003615068251443605401_"  style="overflow:visible;"/>
	</clipPath>
	<g style="clip-path:url(#SVGID_00000000916250491669221830000010788796151316004283_);">
		<g>
			<g>
				<path class="st35" d="M463.863,486.196c-2.532,3.162-114.802,47.698-168.151-11.793l-2.151-247.531l39.521-46.964l48.513,0.463
					l76.453,139.516L463.863,486.196z"/>
				<g>
					<path class="st47" d="M283.36,209.058c0,0-44.509,23.429-25.328,185.559l-24.576,70.328h63.807l13.301-160.528L283.36,209.058z
						"/>
					<g>
						<path class="st47" d="M318.67,253.133l-3.41,219.269c-12.363,15.215-28.338,13.794-28.338,13.794
							s-14.875-268.536-5.363-275.788c20.3-15.477,51.522-30.5,51.522-30.5L318.67,253.133z"/>
						<line class="st64" x1="285.573" y1="464.945" x2="277.476" y2="283.747"/>
						<path class="st57" d="M327.842,210.408l-9.171,42.725l-25.989,21.964c-4.085,3.452-10.281,0.083-9.603-5.222l2.857-22.363
							c0.941-7.37,3.549-14.428,7.626-20.64l27.464-46.964L327.842,210.408z"/>
					</g>
				</g>
			</g>
			<g>
				<path class="st52" d="M263.363,43.063c-0.175-0.037-0.332-0.035-0.503,0.014c-1.454,0.417-8.586,2.915-6.741,11.379
					c2.055,9.427,32.648,28.584,53.586,16.675l-7.659-20.601L263.363,43.063z"/>
				<path class="st65" d="M301.793,121.467c-1.733,7.673-9.358,12.489-17.031,10.756c-7.673-1.733-12.489-9.358-10.756-17.031
					c1.733-7.673,9.358-12.489,17.031-10.756C298.71,106.169,303.525,113.794,301.793,121.467z"/>
				<path class="st66" d="M315.26,154.111l12.581,56.298l36.91-13.792c6.858-2.563,10.539-10.02,8.402-17.023l-21.066-69.034
					L315.26,154.111z"/>
				<path class="st65" d="M319.791,174.442c0,0,24.39-2.678,22.291-31.353l-25.668,16.438L319.791,174.442z"/>
				<path class="st66" d="M284.569,73.597c0,0-7.62,48.26-0.049,66.752c7.571,18.491,23.647,29.332,47.958,22.739
					c0,0,28.463-3.469,32.579-46.384C371.254,52.096,311.859,37.471,284.569,73.597z"/>
				<path class="st56" d="M350.966,107.848c0,0-4.969-7.867,0.05-29.2c5.02-21.333-52.753-20.768-66.447-5.051
					c0,0,9.208-23.812,43.718-25.067c34.51-1.255,62.431,20.753,50.51,59.318l-8.469,13.487L350.966,107.848z"/>
				<path class="st56" d="M348.778,96.301c0,0,2.653,28.121-21.326,33.098c-15.301,3.176-30.79-8.065-45.227,1.995
					c0,0,5.674,42.5,49.257,32.253c5.835-1.372,11.213-4.179,15.74-8.108c8.85-7.681,21.545-23.333,14.006-45.887L348.778,96.301z"
					/>
				<g>
					
						<ellipse transform="matrix(0.9668 -0.2555 0.2555 0.9668 -17.942 98.5473)" class="st66" cx="370.321" cy="118.329" rx="17.285" ry="17.284"/>
					<path class="st67" d="M377.733,112.731c0,0-12.901-2.717-15.258,11.435"/>
				</g>
				<g>
					<path class="st56" d="M291.102,109.882c-0.331,1.769-2.033,2.935-3.803,2.604c-1.769-0.331-2.935-2.033-2.604-3.803
						c0.331-1.769,2.033-2.935,3.802-2.604C290.267,106.41,291.433,108.113,291.102,109.882z"/>
					<path class="st56" d="M318.614,108.447c-0.331,1.769-2.033,2.935-3.803,2.604c-1.769-0.331-2.935-2.033-2.604-3.803
						c0.331-1.769,2.033-2.935,3.803-2.604C317.779,104.975,318.945,106.678,318.614,108.447z"/>
					<polyline class="st67" points="298.367,112.542 293.058,121.335 298.367,124.117 					"/>
					<path class="st56" d="M308.446,88.041L308.446,88.041c-0.185,2.655,1.95,4.883,4.61,4.806
						c4.015-0.116,9.879,0.089,15.355,1.685c2.037,0.594,4.183-0.458,4.855-2.471l0,0c0.644-1.929-0.4-3.817-2.17-4.818
						c-3.625-2.049-9.341-5.034-18.74-3.356C310.247,84.264,308.595,85.904,308.446,88.041z"/>
					<path class="st56" d="M295.708,89.049L295.708,89.049c-0.092,2.594-1.675,4.876-3.417,4.922
						c-2.63,0.069-6.501,0.538-10.229,2.352c-1.387,0.675-2.712-0.259-2.992-2.201l0,0c-0.268-1.861,0.57-3.76,1.814-4.822
						c2.547-2.174,6.545-5.361,12.589-4.144C294.829,85.428,295.783,86.961,295.708,89.049z"/>
					<g>
						<path class="st68" d="M303.822,106.682c0.11,9.523,7.753,17.156,17.072,17.048c9.319-0.107,16.784-7.914,16.675-17.437
							c-0.11-9.523-7.753-17.156-17.072-17.049C311.177,89.352,303.712,97.159,303.822,106.682z"/>
						<path class="st68" d="M264.758,106.989c0.105,9.145,6.665,16.484,14.651,16.392c7.986-0.092,14.375-7.58,14.269-16.725
							c-0.105-9.145-6.665-16.484-14.651-16.392C271.041,90.356,264.652,97.844,264.758,106.989z"/>
						<path class="st69" d="M303.822,106.682c0.11,9.523,7.753,17.156,17.072,17.048c9.319-0.107,16.784-7.914,16.675-17.437
							c-0.11-9.523-7.753-17.156-17.072-17.049C311.177,89.352,303.712,97.159,303.822,106.682z"/>
						<path class="st69" d="M264.758,106.989c0.105,9.145,6.665,16.484,14.651,16.392c7.986-0.092,14.375-7.58,14.269-16.725
							c-0.105-9.145-6.665-16.484-14.651-16.392C271.041,90.356,264.652,97.844,264.758,106.989z"/>
						<path class="st69" d="M303.822,106.682c0,0-5.121-4.266-10.144-0.026"/>
						<line class="st69" x1="337.568" y1="106.293" x2="354.648" y2="108.798"/>
					</g>
					<path class="st35" d="M295.491,133.288l15.072,0.25c0,0,0.034,4.658-7.648,4.581S295.491,133.288,295.491,133.288z"/>
				</g>
				<g>
					<path class="st47" d="M369.352,42.597c-0.595,3.798-4.156,6.394-7.954,5.799c-3.798-0.595-6.394-4.156-5.799-7.954
						c0.595-3.798,4.156-6.394,7.954-5.799C367.351,35.238,369.947,38.799,369.352,42.597z"/>
					<g>
						<g>
							<path class="st57" d="M352.397,36.305c25.221,10.138,38.071,37.289,28.824,60.757l-85.306-47.596
								C308.563,33.846,331.457,27.888,352.397,36.305z"/>
						</g>
					</g>
					<path class="st47" d="M350.747,80.059c0,0-21.91-29.001-53.482-32.214l-33.97-4.794c0,0,26.267,9.695,36.657,20.839
						C310.342,75.033,338.105,83.279,350.747,80.059z"/>
				</g>
				<path class="st66" d="M327.842,210.408l-2.872,13.38c0,0,24.201,15.613,43.228-9.719l4.956-34.477L327.842,210.408z"/>
			</g>
			<g>
				<g>
					<path class="st47" d="M362.476,253.868c0,0-2.683,195.81,20.102,214.139c42.118,33.88,106.887,28.515,106.887,28.515
						s-14.14-104.847-32.27-229.989l3.486-70.389c0,0-35.528-19.453-79.085-15.774L362.476,253.868z"/>
					<path class="st57" d="M373.154,179.594c0,0-20.12,44.195-10.678,74.275c2.707,8.624,28.39,22.388,28.39,22.388
						c6.996,6.6,18.419,0.866,17.306-8.688l-9.224-79.153c-1.493-12.812-13.549-22.15-26.167-19.474
						c-0.864,0.183-1.757,0.403-2.677,0.661L373.154,179.594z"/>
				</g>
				<g>
					<g>
						<path class="st47" d="M456.971,194.488c0,0-53.547,50.171-13.565,152.979l6.715,36.342
							c3.888,21.039,24.638,34.505,45.436,29.484l0,0c18.813-4.541,33.889-22.703,30.96-41.834
							C517.995,315.782,506.078,213.755,456.971,194.488z"/>
						<line class="st64" x1="424.115" y1="274.95" x2="444.62" y2="354.036"/>
					</g>
					<g>
						<g>
							<g>
								<g>
									<polygon class="st66" points="396.168,371.853 329.807,397.352 328.352,418.028 408.004,413.775 									"/>
								</g>
								<path class="st66" d="M340.525,398.238c0,0-16.91-13.748-40.973-9.217l-22.098-7.923c-3.431-1.23-7.318,0.063-9.112,3.03
									l0,0c-1.942,3.213-0.772,7.27,2.644,9.164l12.221,6.778l-4.974-0.003c-7.897-0.005-15.562-2.471-21.752-7l-17.619-12.891
									c-2.005-1.467-4.715-1.809-7.072-0.892l0,0c-4.558,1.772-5.749,7.229-2.291,10.494l20.762,19.604
									c8.046,7.597,19.248,11.621,30.737,11.04l61.744-3.122L340.525,398.238z"/>
							</g>
							<polygon class="st35" points="370.91,372.725 346.318,378.528 353.317,419.363 380.889,414.845 							"/>
						</g>
						<g>
							<path class="st47" d="M482.702,336.983l-105.788,27.89c-7.812,2.06-12.512,10.022-10.539,17.857l7.741,30.742
								c1.823,7.239,8.768,11.973,16.172,11.024l105.27-11.204c17.292-2.007,29.319-19.234,28.532-36.624l0,0
								C523.188,356.755,502.353,333.631,482.702,336.983z"/>
							<path class="st64" d="M468.222,340.801l-91.611,24.153c-5.97,1.574-10.257,6.8-10.633,12.962l-0.011,0.18"/>
						</g>
						<path class="st64" d="M476.352,415.338l-87.858,9.802c-5.816,0.649-11.375-2.568-13.711-7.933h0"/>
					</g>
				</g>
			</g>
		</g>
		<g>
			<g>
				<path class="st62" d="M201.946,226.745h-32.467c-24.604,0-44.55-19.946-44.55-44.55v0c0-24.604,19.946-44.55,44.55-44.55h32.467
					c24.604,0,44.55,19.946,44.55,44.55v0C246.496,206.8,226.551,226.745,201.946,226.745z"/>
				<polygon class="st62" points="250.333,147.83 210.69,158.691 223.762,175.355 				"/>
			</g>
		</g>
	</g>
</g>
</svg>
