<?xml version="1.0" encoding="utf-8"?>
<!-- Generator: Adobe Illustrator 25.4.1, SVG Export Plug-In . SVG Version: 6.00 Build 0)  -->
<svg version="1.1" id="Layer_1" xmlns="http://www.w3.org/2000/svg" xmlns:xlink="http://www.w3.org/1999/xlink" x="0px" y="0px"
	 viewBox="0 0 268.113 330.621" style="enable-background:new 0 0 268.113 330.621;" xml:space="preserve">
<style type="text/css">
	.st0{fill:#EBF0F1;}
	.st1{fill:#DFE9F2;}
	.st2{fill:#A8B0B6;}
	.st3{clip-path:url(#SVGID_00000127734869079661640460000008220251907892822183_);}
	.st4{fill:#CCCCCC;}
	.st5{fill:#876441;}
	.st6{fill:#F3A48A;}
	.st7{fill:#CF5D43;}
	.st8{fill:#DD6D4E;}
	.st9{fill:#ABA97B;}
	.st10{fill:#E3E0A2;}
	.st11{fill:#303030;}
	.st12{fill:#EFEDE3;}
	.st13{fill:#353535;}
	.st14{fill:#9F714A;}
	.st15{fill:#775336;}
	.st16{fill:#412C19;}
	.st17{fill:#B5B573;}
	.st18{clip-path:url(#SVGID_00000176742818802589374050000008745239801962976438_);}
	.st19{fill:#3B9A64;}
	.st20{fill:#AC614E;}
	.st21{fill:#C1C57C;}
	.st22{clip-path:url(#SVGID_00000129905884259369585330000003274071529155896720_);}
	.st23{fill:#4CA66F;}
	.st24{fill:#FCF9EE;}
	.st25{fill:#F47F64;}
	.st26{fill:#668F95;}
	.st27{fill:#EBE6D5;}
	.st28{fill:#005D68;}
	.st29{fill:#FFC099;}
	.st30{fill:#003239;}
	.st31{fill:#DF8E7A;}
	.st32{fill:#B77B67;}
	.st33{fill:#68472F;}
	.st34{fill:#FBA983;}
	.st35{fill:#FFFFFF;}
	.st36{fill:#F88D61;}
	.st37{fill:#C79072;}
	.st38{fill:#573C28;}
	.st39{fill:#FFA16C;}
	.st40{fill:#F5F5F5;}
	.st41{fill:#E1E1E1;}
	.st42{fill:#ECECEC;}
	.st43{fill:#FAFAFA;}
	.st44{fill:#1A2E35;}
	.st45{fill:#375A64;}
	.st46{opacity:0.3;}
	.st47{fill:#498269;}
	.st48{fill:#946962;}
	.st49{fill:#6F4540;}
	.st50{fill:#CE4F41;}
	.st51{opacity:0.6;}
	.st52{fill:#305A46;}
	.st53{fill:#F7D858;}
	.st54{opacity:0.2;}
	.st55{opacity:0.4;}
	.st56{fill:#101010;}
	.st57{fill:#6AB792;}
	.st58{fill:#D25F3B;}
	.st59{fill:#E57E5B;}
	.st60{fill:none;stroke:#D25F3B;stroke-width:1.3008;stroke-linecap:round;stroke-linejoin:round;stroke-miterlimit:10;}
	.st61{fill:none;stroke:#498269;stroke-width:1.8047;stroke-linecap:round;stroke-linejoin:round;stroke-miterlimit:10;}
	.st62{fill:#39ACB2;}
	.st63{clip-path:url(#SVGID_00000029028311856632726650000000058576239935712128_);}
	.st64{fill:none;stroke:#305A46;stroke-width:3.1006;stroke-linecap:round;stroke-linejoin:round;stroke-miterlimit:10;}
	.st65{fill:#EC8A63;}
	.st66{fill:#FFB890;}
	.st67{fill:none;stroke:#EC8A63;stroke-width:2.028;stroke-linecap:round;stroke-linejoin:round;stroke-miterlimit:10;}
	.st68{opacity:0.26;fill:#FFFFFF;}
	.st69{fill:none;stroke:#FFFFFF;stroke-width:1.9299;stroke-linecap:round;stroke-linejoin:round;stroke-miterlimit:10;}
	.st70{fill:#DAF0FA;}
	.st71{fill:#FFBF9D;}
	.st72{fill:#FF9A6C;}
	.st73{fill:none;stroke:#44555B;stroke-miterlimit:10;}
	.st74{fill:#C78976;}
	.st75{fill:#BF654E;}
	.st76{fill:none;stroke:#44555B;stroke-width:0.05;stroke-miterlimit:10;}
	.st77{fill:none;stroke:#44555B;stroke-width:0.0469;stroke-miterlimit:10;}
	.st78{fill:#FF735D;}
	.st79{clip-path:url(#SVGID_00000008127346829004614940000005003740261115624838_);}
	.st80{fill:#FFDAD9;}
	.st81{fill:#DCDFE0;}
	.st82{fill:none;stroke:#B6E1F4;stroke-width:5.3697;stroke-linecap:round;stroke-linejoin:round;stroke-miterlimit:10;}
	.st83{fill:none;stroke:#B6E1F4;stroke-width:5.0288;stroke-miterlimit:10;}
	.st84{opacity:0.44;fill:#B6E1F4;}
	.st85{fill:#E07280;}
	.st86{fill:#7E5780;}
	.st87{opacity:0.22;fill:#7E5780;}
	.st88{fill:none;stroke:#FFD0C5;stroke-width:0.3194;stroke-miterlimit:10;}
	.st89{fill:none;stroke:#FFD0C5;stroke-width:0.3836;stroke-miterlimit:10;}
	.st90{fill:none;stroke:#401A49;stroke-width:1.5344;stroke-linecap:round;stroke-linejoin:round;stroke-miterlimit:10;}
	.st91{fill:#401A49;}
	.st92{fill:none;stroke:#161C3E;stroke-width:1.1265;stroke-linecap:round;stroke-linejoin:round;stroke-miterlimit:10;}
	.st93{opacity:0.09;fill:#E07280;}
	.st94{fill:none;stroke:#401A49;stroke-width:0.9884;stroke-linecap:round;stroke-linejoin:round;stroke-miterlimit:10;}
	.st95{fill:none;stroke:#401A49;stroke-width:0.7672;stroke-linecap:round;stroke-linejoin:round;stroke-miterlimit:10;}
	.st96{fill:#994975;}
	.st97{fill:#FF8A9A;}
	.st98{fill:none;stroke:#161C3E;stroke-width:1.0685;stroke-linecap:round;stroke-linejoin:round;stroke-miterlimit:10;}
	.st99{opacity:0.35;fill:#EF5D6B;}
	.st100{fill:none;stroke:#401A49;stroke-width:0.9376;stroke-linecap:round;stroke-linejoin:round;stroke-miterlimit:10;}
	.st101{fill:#FFF5EB;}
	.st102{fill:#F2B2D6;}
	.st103{fill:none;stroke:#FFF5EB;stroke-width:0.8381;stroke-linecap:round;stroke-linejoin:round;stroke-miterlimit:10;}
	.st104{opacity:0.22;fill:#401A49;}
	.st105{fill:none;stroke:#FFDAD9;stroke-width:0.8381;stroke-miterlimit:10;}
	.st106{fill:none;stroke:#FFDAD9;stroke-width:0.8381;stroke-linecap:round;stroke-linejoin:round;stroke-miterlimit:10;}
	.st107{fill:none;stroke:#401A49;stroke-width:1.6763;stroke-linecap:round;stroke-linejoin:round;stroke-miterlimit:10;}
	.st108{fill:#FFD0C5;}
	.st109{fill:#FDB22C;}
	.st110{fill:#1A8B91;}
	.st111{fill:none;stroke:#000000;stroke-width:0.8147;stroke-linecap:round;stroke-linejoin:round;stroke-miterlimit:10;}
	.st112{fill:#ECA079;}
	.st113{fill:#FDF1F5;}
	.st114{fill:#E6C6CE;}
	.st115{fill:#862904;}
	.st116{fill:#DC845E;}
	.st117{fill:none;stroke:#000000;stroke-width:0.848;stroke-linecap:round;stroke-linejoin:round;stroke-miterlimit:10;}
	.st118{clip-path:url(#XMLID_00000063615439616473649920000010403938994085287053_);}
	.st119{clip-path:url(#XMLID_00000071530490771260190770000013781415835975610808_);}
	.st120{fill:none;stroke:#000000;stroke-width:0.8027;stroke-linecap:round;stroke-linejoin:round;stroke-miterlimit:10;}
	.st121{fill:none;stroke:#FFFFFF;stroke-width:2.99;stroke-linecap:round;stroke-linejoin:round;}
	.st122{fill:none;stroke:#FFFFFF;stroke-width:2.99;stroke-linecap:round;stroke-linejoin:round;stroke-dasharray:18.4657,18.4657;}
	.st123{fill:none;stroke:#000000;stroke-width:0.9784;stroke-linecap:round;stroke-linejoin:round;stroke-miterlimit:10;}
	.st124{clip-path:url(#XMLID_00000146488903547138263940000014881353701164985479_);}
	.st125{fill:none;stroke:#000000;stroke-width:0.682;stroke-linecap:round;stroke-linejoin:round;stroke-miterlimit:10;}
	.st126{fill:#AE3700;}
	.st127{fill:none;stroke:#FFFFFF;stroke-width:1.7082;stroke-linecap:round;stroke-linejoin:round;stroke-miterlimit:10;}
	.st128{fill:none;stroke:#000000;stroke-width:0.9976;stroke-linecap:round;stroke-linejoin:round;stroke-miterlimit:10;}
	.st129{fill:#528E72;}
	.st130{fill:#F0DBE0;}
	.st131{fill:#89331A;}
	.st132{fill:none;stroke:#CCDADC;stroke-linecap:round;stroke-linejoin:round;}
	.st133{opacity:0.45;fill:#F7E3C7;enable-background:new    ;}
	.st134{fill:#222222;}
	.st135{fill:#F47365;}
	.st136{fill:none;stroke:#222222;stroke-width:0.211;stroke-linecap:round;stroke-linejoin:round;}
	.st137{opacity:0.5;fill:#F43D4F;enable-background:new    ;}
	.st138{fill:#F43D4F;}
	.st139{fill:none;stroke:#FFF7EE;stroke-width:0.422;stroke-miterlimit:10;}
	.st140{fill:#FBB244;}
	.st141{fill:#FFF7EE;}
	.st142{opacity:0.22;}
	.st143{clip-path:url(#SVGID_00000088840612467407820100000004332171496977738905_);}
	.st144{fill:none;stroke:#FFFFFF;stroke-width:0.422;stroke-linecap:round;stroke-linejoin:round;}
	.st145{fill:none;stroke:#222222;stroke-width:2.166;stroke-linecap:round;stroke-linejoin:round;}
	.st146{fill:none;stroke:#222222;stroke-width:2.1655;stroke-linecap:round;stroke-linejoin:round;stroke-miterlimit:3.9991;}
	.st147{clip-path:url(#SVGID_00000028293263130541697740000016980228073643311015_);}
	.st148{fill:none;stroke:#222222;stroke-width:0.422;stroke-linecap:round;stroke-linejoin:round;}
	.st149{fill:#00454F;}
	.st150{fill:#B0B4B5;}
	.st151{fill-rule:evenodd;clip-rule:evenodd;fill:#00454F;}
	.st152{fill:#D2DADB;}
	.st153{fill:none;stroke:#FFFFFF;stroke-width:3.3017;stroke-miterlimit:10;}
	.st154{fill:#05454F;}
	.st155{fill:none;stroke:#707070;}
	.st156{fill:#F5F7F6;}
</style>
<g>
	<path class="st0" d="M27.89,317.25c-37.581-37.104-39.674-153.341,9.07-173.568c1.793-1.306,3.644-2.558,5.512-3.786
		c2.53-1.663,5.091-3.285,7.629-4.965c3.303-1.48,6.053-3.213,8.335-5.154c2.281-1.941,4.094-4.091,5.526-6.405
		c2.783-3.141,4.425-6.712,5.278-10.398c1.289-28.885-6.711-80.885,31.289-77.885c21.438,1.838,34.997,20.557,39.49,42.369
		c0.642,3.116,1.099,6.295,1.368,9.495c-3.661,16.335,0.435,30.273,7.44,43.557c1.401,2.657,2.918,5.287,4.513,7.905
		c2.016,2.473,3.968,5.017,5.838,7.623c8.505,8.415,15.089,17.906,19.302,27.907c1.409,3.348,2.555,6.752,3.425,10.206
		c1.462,3.494,2.709,6.958,3.741,10.392s1.852,6.838,2.46,10.21c2.409,10.626,2.649,21.346,0.848,31.702
		c-0.6,3.452-1.428,6.864-2.477,10.218c-0.743,3.302-1.331,6.723-1.837,10.205c-2.11,25.212-1.815,48.202-26.104,59.823
		C108.732,340.527,54.409,329.005,27.89,317.25z"/>
	<g>
		<g>
			<g>
				
					<ellipse transform="matrix(0.6838 -0.7296 0.7296 0.6838 -14.1516 66.9697)" class="st56" cx="70.198" cy="49.814" rx="27.016" ry="27.016"/>
				
					<ellipse transform="matrix(0.1876 -0.9822 0.9822 0.1876 11.9787 141.5388)" class="st57" cx="91.553" cy="63.528" rx="18.71" ry="18.71"/>
				<circle class="st58" cx="139.791" cy="90.762" r="9.327"/>
				<polygon class="st59" points="119.979,112.419 119.08,150.183 89.659,146.75 95.236,91.233 				"/>
				<path class="st58" d="M119.635,126.433c0,0-15.367,2.18-16.796-15.888l17.019,7.503L119.635,126.433z"/>
				<path class="st59" d="M137.464,57.478c2.352,1.988,3.851,4.779,4.453,7.79c1.785,8.924,5.289,27.483,2.13,36.955
					c-4.107,12.318-14.11,20.106-30.274,17.033c0,0-18.733-0.853-23.354-28.382C83.862,51.817,117.317,40.451,137.464,57.478z"/>
				<g>
					<path class="st56" d="M138.509,85.157c0.3,1.14,1.467,1.821,2.607,1.521c1.14-0.3,1.821-1.467,1.521-2.607
						c-0.3-1.14-1.467-1.821-2.606-1.521C138.89,82.85,138.209,84.017,138.509,85.157z"/>
					<path class="st56" d="M120.472,85.519c0.3,1.14,1.467,1.821,2.606,1.521c1.14-0.3,1.821-1.467,1.521-2.606
						c-0.3-1.14-1.467-1.821-2.607-1.521C120.854,83.212,120.173,84.379,120.472,85.519z"/>
					<polyline class="st60" points="134.892,88.993 137.002,94.074 133.583,94.995 					"/>
					<path class="st56" d="M126.039,68.947L126.039,68.947c0.373,1.42-0.555,2.847-2.004,3.079c-2.188,0.35-5.345,1.064-8.149,2.492
						c-1.043,0.531-2.314,0.182-2.886-0.84l0,0c-0.547-0.979-0.176-2.11,0.681-2.834c1.754-1.483,4.545-3.689,9.812-3.746
						C124.674,67.084,125.738,67.804,126.039,68.947z"/>
					<path class="st56" d="M136.501,68.796L136.501,68.796c-0.095,1.43,0.665,2.766,1.641,2.883
						c1.473,0.177,3.622,0.638,5.614,1.831c0.741,0.444,1.538,0.001,1.806-1.051l0,0c0.256-1.008-0.108-2.096-0.747-2.744
						c-1.308-1.328-3.374-3.289-6.838-2.94C137.2,66.854,136.577,67.645,136.501,68.796z"/>
					<path class="st35" d="M136.917,99.399l-11.93-0.971c0,0-0.602,4.627,5.475,5.158
						C136.538,104.117,136.917,99.399,136.917,99.399z"/>
				</g>
				<path class="st56" d="M97.506,87.971c0,0,9.783-8.655,7.835-25.494c0,0,16.617,2.948,36.333,1.483
					c0,0-4.399-23.276-41.902-17.034c-38.967,6.487-20.86,49.46-6.38,62.657L97.506,87.971z"/>
				<g>
					<path class="st59" d="M78.658,95.548c1.813,5.982,8.132,9.362,14.115,7.549c5.982-1.813,9.362-8.132,7.549-14.115
						s-8.132-9.362-14.115-7.549C80.225,83.246,76.845,89.565,78.658,95.548z"/>
					<path class="st60" d="M84.384,88.959c0,0,8.298-2.383,10.505,6.748"/>
				</g>
			</g>
			<g>
				
					<rect x="66.219" y="238.426" transform="matrix(-1 -4.494728e-11 4.494728e-11 -1 190.7339 485.0401)" class="st52" width="58.296" height="8.189"/>
				<path class="st57" d="M124.515,246.614c0,0,24.606,16.007,34.02,70.085c0,0-51.077,30.33-130.645,0.55
					c0,0,14.073-45.139,38.329-70.635H124.515z"/>
			</g>
			<g>
				<g>
					<g>
						<polygon class="st59" points="154.741,245.804 138.438,193.052 163.407,194.106 171.195,223.607 						"/>
						<path class="st57" d="M138.438,149.058c0,0,23.081,1.126,34.384,49.428l-37.53,17.261L138.438,149.058z"/>
					</g>
					<g>
						<path class="st59" d="M205.305,177.217l10.205,4.471l-36.829,65.898c-3.494,7.482-13.04,9.768-19.545,4.682l0,0
							c-5.408-4.229-6.533-11.964-2.554-17.558L205.305,177.217z"/>
						<g>
							<path class="st59" d="M205.305,177.217l0.165-7.446c0.086-3.886,1.084-7.697,2.914-11.127l3.221-6.037
								c0.765-1.435,2.637-1.837,3.924-0.844l0,0c1.087,0.839,1.556,2.254,1.184,3.576l-1.968,6.992l20.228-19.992
								c0.854-0.88,2.287-0.811,3.052,0.148l0.513,0.643c0.604,0.757,0.591,1.835-0.032,2.578L226.9,157.922l15.273-12.187
								c0.907-0.82,2.327-0.661,3.03,0.338l0.348,0.495c0.592,0.841,0.464,1.99-0.298,2.68l-15.516,13.15l14.333-8.222
								c1.113-0.673,2.562-0.145,2.981,1.086l0.084,0.248c0.287,0.844-0.009,1.777-0.729,2.301l-14.021,10.203l9.264-5.064
								c1.317-0.72,2.933,0.184,3.009,1.683l0,0c0.036,0.713-0.304,1.393-0.896,1.792L211.737,188L205.305,177.217z"/>
							<path class="st60" d="M214.745,162.331c0,0,3.113,4.697,0.765,11.348"/>
						</g>
					</g>
				</g>
				<g>
					<g>
						<path class="st57" d="M138.438,149.058c0,0,21.343,50.043,6.351,65.721l-20.274,23.647H66.219c0,0-19.59-23.79-19.058-55.612
							c0.531-31.822,25.682-35.169,25.682-35.169l61.144,0.698L138.438,149.058z"/>
						<path class="st61" d="M145.319,170.743c0,0,9.325,24.157,2.598,39.197"/>
					</g>
					<path class="st59" d="M133.986,148.343c0,0-20.308-4.788-24.996-4.788c0,0-13.006-0.995-36.148,4.09
						c0,0,22.939,18.296,43.231,40.895L133.986,148.343z"/>
				</g>
				<g>
					<polygon class="st59" points="61.103,197.956 53.686,324.797 35.994,319.925 33.513,206.229 					"/>
					<g>
						<path class="st57" d="M72.843,147.645c0,0-29.174,0.799-35.7,11.812c-6.526,11.013-19.198,46.565-19.198,46.565l45.344,7.377
							L72.843,147.645z"/>
						<polyline class="st61" points="61.103,213.064 69.564,214.363 72.843,188 						"/>
					</g>
				</g>
			</g>
		</g>
		<g>
			<g>
				<path class="st62" d="M192.853,64.194h47.068c15.57,0,28.192-12.622,28.192-28.192v-7.81C268.113,12.622,255.491,0,239.921,0
					l-47.068,0c-15.57,0-28.192,12.622-28.192,28.192v7.81C164.661,51.572,177.283,64.194,192.853,64.194z"/>
				<polygon class="st62" points="200.816,56.172 186.329,74.172 187.873,51.375 				"/>
			</g>
		</g>
	</g>
</g>
</svg>
