<?xml version="1.0" encoding="utf-8"?>
<!-- Generator: Adobe Illustrator 25.4.1, SVG Export Plug-In . SVG Version: 6.00 Build 0)  -->
<svg version="1.1" id="Layer_1" xmlns="http://www.w3.org/2000/svg" xmlns:xlink="http://www.w3.org/1999/xlink" x="0px" y="0px"
	 viewBox="0 0 316.864 349.708" style="enable-background:new 0 0 316.864 349.708;" xml:space="preserve">
<style type="text/css">
	.st0{fill:#EBF0F1;}
	.st1{fill:#DFE9F2;}
	.st2{fill:#A8B0B6;}
	.st3{clip-path:url(#SVGID_00000018929996080577234290000000672174640554562185_);}
	.st4{fill:#CCCCCC;}
	.st5{fill:#876441;}
	.st6{fill:#F3A48A;}
	.st7{fill:#CF5D43;}
	.st8{fill:#DD6D4E;}
	.st9{fill:#ABA97B;}
	.st10{fill:#E3E0A2;}
	.st11{fill:#303030;}
	.st12{fill:#EFEDE3;}
	.st13{fill:#353535;}
	.st14{fill:#9F714A;}
	.st15{fill:#775336;}
	.st16{fill:#412C19;}
	.st17{fill:#B5B573;}
	.st18{clip-path:url(#SVGID_00000109724685542978913190000011359376558380017036_);}
	.st19{fill:#3B9A64;}
	.st20{fill:#AC614E;}
	.st21{fill:#C1C57C;}
	.st22{clip-path:url(#SVGID_00000175296700227622479460000009349323408143433378_);}
	.st23{fill:#4CA66F;}
	.st24{fill:#FCF9EE;}
	.st25{fill:#F47F64;}
	.st26{fill:#668F95;}
	.st27{fill:#EBE6D5;}
	.st28{fill:#005D68;}
	.st29{fill:#FFC099;}
	.st30{fill:#003239;}
	.st31{fill:#DF8E7A;}
	.st32{fill:#B77B67;}
	.st33{fill:#68472F;}
	.st34{fill:#FBA983;}
	.st35{fill:#FFFFFF;}
	.st36{fill:#F88D61;}
	.st37{fill:#C79072;}
	.st38{fill:#573C28;}
	.st39{fill:#FFA16C;}
	.st40{fill:#F5F5F5;}
	.st41{fill:#E1E1E1;}
	.st42{fill:#ECECEC;}
	.st43{fill:#FAFAFA;}
	.st44{fill:#1A2E35;}
	.st45{fill:#375A64;}
	.st46{opacity:0.3;}
	.st47{fill:#498269;}
	.st48{fill:#946962;}
	.st49{fill:#6F4540;}
	.st50{fill:#CE4F41;}
	.st51{opacity:0.6;}
	.st52{fill:#305A46;}
	.st53{fill:#F7D858;}
	.st54{opacity:0.2;}
	.st55{opacity:0.4;}
	.st56{fill:#101010;}
	.st57{fill:#6AB792;}
	.st58{fill:#D25F3B;}
	.st59{fill:#E57E5B;}
	.st60{fill:none;stroke:#D25F3B;stroke-width:1.3008;stroke-linecap:round;stroke-linejoin:round;stroke-miterlimit:10;}
	.st61{fill:none;stroke:#498269;stroke-width:1.8047;stroke-linecap:round;stroke-linejoin:round;stroke-miterlimit:10;}
	.st62{fill:#39ACB2;}
	.st63{clip-path:url(#SVGID_00000133488599506803853770000009745020326360789948_);}
	.st64{fill:none;stroke:#305A46;stroke-width:3.1006;stroke-linecap:round;stroke-linejoin:round;stroke-miterlimit:10;}
	.st65{fill:#EC8A63;}
	.st66{fill:#FFB890;}
	.st67{fill:none;stroke:#EC8A63;stroke-width:2.028;stroke-linecap:round;stroke-linejoin:round;stroke-miterlimit:10;}
	.st68{opacity:0.26;fill:#FFFFFF;}
	.st69{fill:none;stroke:#FFFFFF;stroke-width:1.9299;stroke-linecap:round;stroke-linejoin:round;stroke-miterlimit:10;}
	.st70{fill:#DAF0FA;}
	.st71{fill:#FFBF9D;}
	.st72{fill:#FF9A6C;}
	.st73{fill:none;stroke:#44555B;stroke-miterlimit:10;}
	.st74{fill:#C78976;}
	.st75{fill:#BF654E;}
	.st76{fill:none;stroke:#44555B;stroke-width:0.05;stroke-miterlimit:10;}
	.st77{fill:none;stroke:#44555B;stroke-width:0.0469;stroke-miterlimit:10;}
	.st78{fill:#FF735D;}
	.st79{clip-path:url(#SVGID_00000021118403451655882400000013594937443301019788_);}
	.st80{fill:#FFDAD9;}
	.st81{fill:#DCDFE0;}
	.st82{fill:none;stroke:#B6E1F4;stroke-width:5.3697;stroke-linecap:round;stroke-linejoin:round;stroke-miterlimit:10;}
	.st83{fill:none;stroke:#B6E1F4;stroke-width:5.0288;stroke-miterlimit:10;}
	.st84{opacity:0.44;fill:#B6E1F4;}
	.st85{fill:#E07280;}
	.st86{fill:#7E5780;}
	.st87{opacity:0.22;fill:#7E5780;}
	.st88{fill:none;stroke:#FFD0C5;stroke-width:0.3194;stroke-miterlimit:10;}
	.st89{fill:none;stroke:#FFD0C5;stroke-width:0.3836;stroke-miterlimit:10;}
	.st90{fill:none;stroke:#401A49;stroke-width:1.5344;stroke-linecap:round;stroke-linejoin:round;stroke-miterlimit:10;}
	.st91{fill:#401A49;}
	.st92{fill:none;stroke:#161C3E;stroke-width:1.1265;stroke-linecap:round;stroke-linejoin:round;stroke-miterlimit:10;}
	.st93{opacity:0.09;fill:#E07280;}
	.st94{fill:none;stroke:#401A49;stroke-width:0.9884;stroke-linecap:round;stroke-linejoin:round;stroke-miterlimit:10;}
	.st95{fill:none;stroke:#401A49;stroke-width:0.7672;stroke-linecap:round;stroke-linejoin:round;stroke-miterlimit:10;}
	.st96{fill:#994975;}
	.st97{fill:#FF8A9A;}
	.st98{fill:none;stroke:#161C3E;stroke-width:1.0685;stroke-linecap:round;stroke-linejoin:round;stroke-miterlimit:10;}
	.st99{opacity:0.35;fill:#EF5D6B;}
	.st100{fill:none;stroke:#401A49;stroke-width:0.9376;stroke-linecap:round;stroke-linejoin:round;stroke-miterlimit:10;}
	.st101{fill:#FFF5EB;}
	.st102{fill:#F2B2D6;}
	.st103{fill:none;stroke:#FFF5EB;stroke-width:0.8381;stroke-linecap:round;stroke-linejoin:round;stroke-miterlimit:10;}
	.st104{opacity:0.22;fill:#401A49;}
	.st105{fill:none;stroke:#FFDAD9;stroke-width:0.8381;stroke-miterlimit:10;}
	.st106{fill:none;stroke:#FFDAD9;stroke-width:0.8381;stroke-linecap:round;stroke-linejoin:round;stroke-miterlimit:10;}
	.st107{fill:none;stroke:#401A49;stroke-width:1.6763;stroke-linecap:round;stroke-linejoin:round;stroke-miterlimit:10;}
	.st108{fill:#FFD0C5;}
	.st109{fill:#FDB22C;}
	.st110{fill:#1A8B91;}
	.st111{fill:none;stroke:#000000;stroke-width:0.8147;stroke-linecap:round;stroke-linejoin:round;stroke-miterlimit:10;}
	.st112{fill:#ECA079;}
	.st113{fill:#FDF1F5;}
	.st114{fill:#E6C6CE;}
	.st115{fill:#862904;}
	.st116{fill:#DC845E;}
	.st117{fill:none;stroke:#000000;stroke-width:0.848;stroke-linecap:round;stroke-linejoin:round;stroke-miterlimit:10;}
	.st118{clip-path:url(#XMLID_00000176746234034899469920000011713086080497969542_);}
	.st119{clip-path:url(#XMLID_00000170246912680894983340000014865108631326433681_);}
	.st120{fill:none;stroke:#000000;stroke-width:0.8027;stroke-linecap:round;stroke-linejoin:round;stroke-miterlimit:10;}
	.st121{fill:none;stroke:#FFFFFF;stroke-width:2.99;stroke-linecap:round;stroke-linejoin:round;}
	.st122{fill:none;stroke:#FFFFFF;stroke-width:2.99;stroke-linecap:round;stroke-linejoin:round;stroke-dasharray:18.4657,18.4657;}
	.st123{fill:none;stroke:#000000;stroke-width:0.9784;stroke-linecap:round;stroke-linejoin:round;stroke-miterlimit:10;}
	.st124{clip-path:url(#XMLID_00000178181744327781218760000011979029730357004417_);}
	.st125{fill:none;stroke:#000000;stroke-width:0.682;stroke-linecap:round;stroke-linejoin:round;stroke-miterlimit:10;}
	.st126{fill:#AE3700;}
	.st127{fill:none;stroke:#FFFFFF;stroke-width:1.7082;stroke-linecap:round;stroke-linejoin:round;stroke-miterlimit:10;}
	.st128{fill:none;stroke:#000000;stroke-width:0.9976;stroke-linecap:round;stroke-linejoin:round;stroke-miterlimit:10;}
	.st129{fill:#528E72;}
	.st130{fill:#F0DBE0;}
	.st131{fill:#89331A;}
	.st132{fill:none;stroke:#CCDADC;stroke-linecap:round;stroke-linejoin:round;}
	.st133{opacity:0.45;fill:#F7E3C7;enable-background:new    ;}
	.st134{fill:#222222;}
	.st135{fill:#F47365;}
	.st136{fill:none;stroke:#222222;stroke-width:0.211;stroke-linecap:round;stroke-linejoin:round;}
	.st137{opacity:0.5;fill:#F43D4F;enable-background:new    ;}
	.st138{fill:#F43D4F;}
	.st139{fill:none;stroke:#FFF7EE;stroke-width:0.422;stroke-miterlimit:10;}
	.st140{fill:#FBB244;}
	.st141{fill:#FFF7EE;}
	.st142{opacity:0.22;}
	.st143{clip-path:url(#SVGID_00000171712984313897764900000007253050486545965190_);}
	.st144{fill:none;stroke:#FFFFFF;stroke-width:0.422;stroke-linecap:round;stroke-linejoin:round;}
	.st145{fill:none;stroke:#222222;stroke-width:2.166;stroke-linecap:round;stroke-linejoin:round;}
	.st146{fill:none;stroke:#222222;stroke-width:2.1655;stroke-linecap:round;stroke-linejoin:round;stroke-miterlimit:3.9991;}
	.st147{clip-path:url(#SVGID_00000150083107104184971850000005335243232920210346_);}
	.st148{fill:none;stroke:#222222;stroke-width:0.422;stroke-linecap:round;stroke-linejoin:round;}
	.st149{fill:#00454F;}
	.st150{fill:#B0B4B5;}
	.st151{fill-rule:evenodd;clip-rule:evenodd;fill:#00454F;}
	.st152{fill:#D2DADB;}
	.st153{fill:none;stroke:#FFFFFF;stroke-width:3.3017;stroke-miterlimit:10;}
	.st154{fill:#05454F;}
	.st155{fill:none;stroke:#707070;}
	.st156{fill:#F5F7F6;}
</style>
<g>
	<g>
		<g>
			<g>
				<path class="st0" d="M127.055,0h94.096h31.978l-24.666,17.537v14.637c0,14.95-12.301,27.069-27.474,27.069h-79.114
					c-15.174,0-27.474-12.119-27.474-27.069l0,0C94.4,14.404,109.02,0,127.055,0z"/>
			</g>
		</g>
		<g>
			<g>
				<g>
					<path class="st41" d="M207.192,19.57c0,0.144-21.049,0.26-47.007,0.26c-25.968,0-47.012-0.117-47.012-0.26
						c0-0.144,21.044-0.26,47.012-0.26C186.144,19.31,207.192,19.426,207.192,19.57z"/>
				</g>
			</g>
		</g>
		<g>
			<g>
				<g>
					<path class="st41" d="M207.192,29.311c0,0.144-21.049,0.26-47.007,0.26c-25.968,0-47.012-0.117-47.012-0.26
						c0-0.144,21.044-0.26,47.012-0.26C186.144,29.051,207.192,29.167,207.192,29.311z"/>
				</g>
			</g>
		</g>
	</g>
	<g>
		<g>
			<g>
				<g>
					<path class="st70" d="M240.375,349.708H65.779c-21.421,0-38.787-17.365-38.787-38.787V168.815
						c0-21.421,17.365-38.787,38.787-38.787h174.596c21.421,0,38.787,17.365,38.787,38.787v142.106
						C279.162,332.342,261.796,349.708,240.375,349.708z"/>
				</g>
			</g>
			<g>
				<g>
					<g>
						<polygon class="st70" points="279.098,206.616 316.864,206.616 278.242,245.238 						"/>
					</g>
				</g>
			</g>
		</g>
		<g>
			<g>
				<g>
					<g>
						<g>
							<g>
								<g>
									<path class="st74" d="M20.96,230.36L5.126,212.404c-4.282-4.28-5.747-6.346-4.894-7.096
										c1.138-1.001,0.655-0.667,9.545,6.006c0,0-12.605-9.635-8.234-9.695c0.77-0.011,2.908,1.239,5.2,2.743
										c-3.119-2.653-3.982-4.437-3.391-5.293c1.017-1.472,8.726,3.871,12.275,6.448c-2.904-2.164-8.431-6.359-9.406-7.674
										c-1.333-1.798,1.369-1.654,3.57-0.902c2.471,0.844,16.118,7.809,20.162,9.613c2.782,1.241,3.758-1.275,3.758-1.275
										c1.488-6.252,5.986-10.326,7.724-10.859c1.738-0.528,3.048,1.678,1.821,3.269c-0.991,1.286-1.993,3.926-2.664,5.937
										c-0.553,1.658-0.837,3.391-0.807,5.126c0.034,2.02,0.141,3.728,0.271,5.178l14.463,19.855l-24.196,14.032L20.96,230.36z"/>
								</g>
							</g>
						</g>
					</g>
					<g>
						<g>
							<g>
								<g>
									<g>
										<g>
											<g>
												<path class="st75" d="M15.269,214.069c-0.163,0.227-2.975-1.708-6.281-4.32c-3.307-2.614-5.838-4.903-5.655-5.114
													c0.184-0.21,2.996,1.724,6.282,4.321C12.9,211.552,15.432,213.842,15.269,214.069z"/>
											</g>
										</g>
									</g>
								</g>
							</g>
						</g>
					</g>
					<g>
						<g>
							<g>
								<g>
									<g>
										<g>
											<g>
												<path class="st75" d="M18.353,210.911c-0.16,0.229-3.272-1.663-6.951-4.226c-3.68-2.564-6.533-4.827-6.374-5.056
													c0.16-0.229,3.272,1.663,6.952,4.226C15.659,208.418,18.513,210.682,18.353,210.911z"/>
											</g>
										</g>
									</g>
								</g>
							</g>
						</g>
					</g>
					<g>
						<g>
							<g>
								<g>
									<g>
										<g>
											<g>
												<path class="st75" d="M20.591,207.552c-0.156,0.231-3.132-1.51-6.645-3.889c-3.514-2.38-6.235-4.495-6.079-4.727
													c0.156-0.231,3.131,1.51,6.646,3.89C18.026,205.205,20.747,207.321,20.591,207.552z"/>
											</g>
										</g>
									</g>
								</g>
							</g>
						</g>
					</g>
				</g>
				<g>
					<g>
						<path class="st74" d="M41.406,216.663l57.677,73.143l-13.208,30.751c0,0-15.82-3.502-20.618-10.168
							c-4.798-6.666-44.297-80.03-44.297-80.03L41.406,216.663z"/>
					</g>
				</g>
			</g>
			<g>
				<g>
					<g>
						<g>
							<g>
								<g>
									<g>
										<g>
											<path class="st44" d="M187.826,114.314c4.152,3.596,4.137,9.938,3.657,15.41c-0.48,5.472-0.844,11.702,2.945,15.679
												c3.123,3.277,8.793,4.712,9.521,9.18c0.34,2.085-0.754,4.327-2.606,5.343c-1.852,1.015-4.331,0.732-5.906-0.675
												c1.221,3.528,0.376,7.942-2.685,10.079c-3.061,2.136-8.183,0.822-9.133-2.788c0.577,2.389-1.174,5.081-3.593,5.52
												c-2.419,0.44-5.005-1.463-5.306-3.903"/>
										</g>
									</g>
								</g>
							</g>
							<g>
								<g>
									<g>
										<g>
											<path class="st44" d="M128.391,151.228c-1.034,2.726-4.511,4.221-7.201,3.097c-2.69-1.124-4.069-4.65-2.855-7.301
												c0.952-2.08,3.202-3.581,3.417-5.858c0.26-2.758-2.55-4.722-5.046-5.924c-2.496-1.202-5.414-2.765-5.685-5.521
												c-0.261-2.661,2.119-4.732,4.114-6.512c1.995-1.78,3.958-4.533,2.728-6.907c-0.629-1.215-1.938-1.914-2.784-2.989
												c-1.873-2.38-0.893-6.169,1.492-8.036c2.384-1.867,5.69-2.127,8.67-1.591c2.98,0.536,5.783,1.771,8.686,2.634
												c9.572,2.847,20.327,1.438,28.842-3.778"/>
										</g>
									</g>
								</g>
							</g>
							<g>
								<g>
									<g>
										<g>
											<g>
												<g>
													<g>
														<g>
															<g>
																<g>
																	<g>
																		<g>
																			<g>
																				<g>
																					<g>
																						<path class="st74" d="M146.103,215.719c10.751,2.175,21.256-4.682,23.593-15.399l14.186-65.062
																							c3.729-15.826-6.338-31.608-22.261-34.898l-1.489-0.218c-14.99-2.196-29.152,7.485-32.545,22.25
																							c-3.156,13.733-6.466,28.946-7.466,36.415c-2.07,15.464,13.018,20.126,13.018,20.126l-2.708,13.027
																							C128.166,202.854,135.196,213.512,146.103,215.719L146.103,215.719z"/>
																					</g>
																				</g>
																			</g>
																		</g>
																	</g>
																</g>
															</g>
														</g>
													</g>
												</g>
											</g>
										</g>
									</g>
								</g>
								<g>
									<g>
										<g>
											<g>
												<g>
													<g>
														<g>
															<g>
																<g>
																	<g>
																		<g>
																			<g>
																				<g>
																					<g>
																						<g>
																							<g>
																								<g>
																									<path class="st44" d="M130.366,132.587c-0.212,1.158,0.594,2.292,1.8,2.535
																										c1.203,0.242,2.352-0.497,2.563-1.655c0.212-1.158-0.594-2.293-1.797-2.536
																										C131.727,130.688,130.578,131.429,130.366,132.587z"/>
																								</g>
																							</g>
																						</g>
																					</g>
																				</g>
																			</g>
																		</g>
																	</g>
																</g>
															</g>
														</g>
														<g>
															<g>
																<g>
																	<g>
																		<g>
																			<g>
																				<g>
																					<g>
																						<g>
																							<g>
																								<g>
																									<g>
																										<path class="st44" d="M129.798,130.431c0.231,0.327,2.082-0.664,4.454-0.31
																											c2.374,0.319,3.936,1.794,4.235,1.542c0.145-0.11-0.057-0.67-0.734-1.333
																											c-0.666-0.659-1.86-1.38-3.339-1.59c-1.479-0.208-2.801,0.153-3.597,0.605
																											C130.006,129.799,129.682,130.283,129.798,130.431z"/>
																									</g>
																								</g>
																							</g>
																						</g>
																					</g>
																				</g>
																			</g>
																		</g>
																	</g>
																</g>
															</g>
														</g>
													</g>
													<g>
														<g>
															<g>
																<g>
																	<g>
																		<g>
																			<g>
																				<g>
																					<g>
																						<g>
																							<g>
																								<g>
																									<path class="st44" d="M153.554,136.435c-0.212,1.158,0.595,2.292,1.8,2.535
																										c1.203,0.243,2.352-0.497,2.564-1.655c0.212-1.158-0.595-2.294-1.798-2.536
																										C154.914,134.536,153.765,135.277,153.554,136.435z"/>
																								</g>
																							</g>
																						</g>
																					</g>
																				</g>
																			</g>
																		</g>
																	</g>
																</g>
															</g>
														</g>
														<g>
															<g>
																<g>
																	<g>
																		<g>
																			<g>
																				<g>
																					<g>
																						<g>
																							<g>
																								<g>
																									<g>
																										<path class="st44" d="M153.051,134.288c0.232,0.328,2.085-0.663,4.454-0.31
																											c2.373,0.319,3.936,1.794,4.236,1.541c0.145-0.11-0.055-0.669-0.735-1.332
																											c-0.666-0.659-1.86-1.38-3.338-1.59c-1.479-0.208-2.802,0.154-3.598,0.606
																											C153.26,133.657,152.936,134.14,153.051,134.288z"/>
																									</g>
																								</g>
																							</g>
																						</g>
																					</g>
																				</g>
																			</g>
																		</g>
																	</g>
																</g>
															</g>
														</g>
													</g>
													<g>
														<g>
															<g>
																<g>
																	<g>
																		<g>
																			<g>
																				<g>
																					<g>
																						<g>
																							<g>
																								<g>
																									<path class="st44" d="M141.866,150.62c0.031-0.133-1.407-0.604-3.751-1.26
																										c-0.597-0.151-1.152-0.355-1.194-0.784c-0.079-0.458,0.27-1.074,0.667-1.736
																										c0.784-1.382,1.605-2.832,2.467-4.35c3.449-6.203,6.041-11.339,5.79-11.476
																										c-0.251-0.137-3.251,4.78-6.7,10.983c-0.836,1.532-1.635,2.991-2.396,4.389
																										c-0.33,0.655-0.839,1.378-0.662,2.331c0.097,0.476,0.493,0.87,0.866,1.031
																										c0.371,0.175,0.711,0.232,1.008,0.294C140.347,150.524,141.837,150.754,141.866,150.62z"/>
																								</g>
																							</g>
																						</g>
																					</g>
																				</g>
																			</g>
																		</g>
																	</g>
																</g>
															</g>
														</g>
													</g>
												</g>
											</g>
										</g>
										<g>
											<g>
												<g>
													<g>
														<g>
															<g>
																<g>
																	<g>
																		<g>
																			<g>
																				<g>
																					<path class="st44" d="M153.8,124.902c0.14,0.679,2.553,0.72,5.287,1.463c2.749,0.688,4.874,1.831,5.328,1.307
																						c0.205-0.253-0.097-0.917-0.913-1.674c-0.808-0.755-2.157-1.558-3.8-1.988
																						c-1.644-0.427-3.213-0.386-4.287-0.122C154.332,124.15,153.744,124.581,153.8,124.902z"/>
																				</g>
																			</g>
																		</g>
																	</g>
																</g>
															</g>
														</g>
													</g>
												</g>
											</g>
										</g>
										<g>
											<g>
												<g>
													<g>
														<g>
															<g>
																<g>
																	<g>
																		<g>
																			<g>
																				<g>
																					<path class="st44" d="M131.676,123.694c0.338,0.6,2.054,0.28,4.023,0.541c1.978,0.192,3.576,0.893,4.041,0.386
																						c0.208-0.249,0.025-0.827-0.628-1.444c-0.642-0.613-1.78-1.204-3.136-1.361
																						c-1.356-0.155-2.598,0.162-3.363,0.614C131.839,122.882,131.53,123.404,131.676,123.694z"/>
																				</g>
																			</g>
																		</g>
																	</g>
																</g>
															</g>
														</g>
													</g>
												</g>
											</g>
										</g>
									</g>
								</g>
								<g>
									<g>
										<g>
											<g>
												<g>
													<path class="st44" d="M169.601,115.877c0.025,0.027,0.05,0.053,0.075,0.079c2.174,2.301,3.387,5.348,3.364,8.513
														c-0.001,0.111-0.002,0.218-0.003,0.318c-0.041,4.491-0.806,8.955-0.803,13.446c0.003,4.491,0.871,9.188,3.678,12.693
														c1.155,1.442,3.394,2.646,4.708,1.347c0.508-0.503,0.688-1.24,0.845-1.937c2.38-10.511,6.664-19.517,8.272-30.637
														c0.438-3.027-0.571-6.075-2.772-8.197c-2.084-2.009-4.672-4.155-7.437-3.309c-2.773,0.848-6.826,5.198-9.132,6.956"/>
												</g>
											</g>
										</g>
									</g>
								</g>
								<g>
									<g>
										<g>
											<g>
												<g>
													<g>
														<g>
															<g>
																<g>
																	<g>
																		<g>
																			<g>
																				<path class="st74" d="M177.655,141.481c0.28-0.076,11.066-1.584,9.183,8.92
																					c-1.883,10.504-12.04,6.448-12.004,6.143C174.87,156.239,177.655,141.481,177.655,141.481z"/>
																			</g>
																		</g>
																	</g>
																</g>
															</g>
														</g>
													</g>
												</g>
											</g>
										</g>
									</g>
									<g>
										<g>
											<g>
												<g>
													<g>
														<g>
															<g>
																<g>
																	<g>
																		<g>
																			<g>
																				<g>
																					<path class="st75" d="M178.756,153.139c0.052-0.025,0.16,0.161,0.444,0.358
																						c0.277,0.192,0.778,0.38,1.363,0.273c1.182-0.208,2.433-1.803,2.823-3.687
																						c0.198-0.951,0.161-1.897-0.043-2.712c-0.183-0.826-0.584-1.452-1.125-1.651
																						c-0.533-0.228-0.988,0.035-1.17,0.308c-0.193,0.269-0.164,0.49-0.223,0.498
																						c-0.034,0.021-0.194-0.216-0.032-0.635c0.081-0.201,0.248-0.427,0.531-0.584
																						c0.289-0.16,0.678-0.198,1.06-0.086c0.8,0.201,1.395,1.077,1.62,1.971c0.268,0.906,0.332,1.973,0.11,3.041
																						c-0.447,2.105-1.885,3.891-3.482,4.058c-0.773,0.06-1.35-0.273-1.624-0.578
																						C178.729,153.396,178.716,153.152,178.756,153.139z"/>
																				</g>
																			</g>
																		</g>
																	</g>
																</g>
															</g>
														</g>
													</g>
												</g>
											</g>
										</g>
									</g>
								</g>
								<g>
									<g>
										<g>
											<g>
												<g>
													<path class="st44" d="M179.645,109.878c3.216-3.841-3.015-10.947-7.983-13.351c-4.968-2.405-12.201-0.871-17.636,0.09
														c-3.429,0.606-6.91,1.642-10.332,0.995c-2.295-0.433-4.375-1.595-6.44-2.684c-2.066-1.089-4.228-2.141-6.556-2.322
														c-2.328-0.18-4.882,0.699-6.07,2.709c-1.188,2.011-0.364,5.124,1.878,5.778c-2.686-2.033-7.22-0.542-8.177,2.687
														c-0.957,3.229,2.029,6.95,5.389,6.715c-1.334-1.357-3.91,0.185-3.999,2.086c-0.089,1.901,1.41,3.513,3.023,4.523
														c4.118,2.577,9.34,2.712,14.119,1.846c4.78-0.866,9.354-2.636,14.111-3.621c4.757-0.985,12.753-2.831,17.052-0.569
														c3.165,1.666,4.899,6.026,6.914,5.414c1.947-0.591,3.381-2.33,4.035-4.256
														C179.626,113.99,179.639,111.913,179.645,109.878"/>
												</g>
											</g>
										</g>
									</g>
								</g>
							</g>
						</g>
						<g>
							<g>
								<g>
									<g>
										<g>
											<path class="st45" d="M200.216,158.648c0,0,0.213-0.029,0.552-0.238c0.337-0.203,0.802-0.61,1.138-1.299
												c0.324-0.684,0.532-1.638,0.344-2.715c-0.175-1.086-0.877-2.192-1.889-3.088c-1.018-0.904-2.342-1.6-3.785-2.205
												c-1.435-0.615-3.01-1.175-4.428-2.139c-1.417-0.954-2.539-2.434-3.214-4.172c-0.693-1.734-0.972-3.693-0.932-5.683
												c0.108-4.006,1.216-7.75,1.488-11.278c0.33-3.505-0.187-6.84-1.685-9.13c-1.476-2.294-3.536-3.42-4.986-3.752
												c-0.732-0.189-1.324-0.177-1.715-0.17c-0.393,0.042-0.595,0.072-0.593,0.09c-0.002,0.072,0.84-0.12,2.255,0.281
												c1.389,0.382,3.341,1.521,4.72,3.752c1.394,2.217,1.865,5.442,1.515,8.886c-0.29,3.464-1.417,7.202-1.532,11.311
												c-0.041,2.047,0.248,4.076,0.979,5.887c0.71,1.813,1.914,3.387,3.423,4.384c1.501,1.001,3.106,1.547,4.534,2.141
												c1.433,0.58,2.722,1.238,3.708,2.082c0.98,0.839,1.655,1.856,1.844,2.859c0.203,1.004,0.038,1.913-0.241,2.572
												C201.104,158.373,200.152,158.589,200.216,158.648z"/>
										</g>
									</g>
								</g>
							</g>
						</g>
						<g>
							<g>
								<g>
									<g>
										<g>
											<path class="st45" d="M126.167,100.868c0.006-0.013-0.149-0.094-0.456-0.24c-0.152-0.079-0.346-0.162-0.588-0.231
												c-0.237-0.086-0.518-0.165-0.845-0.215c-1.269-0.257-3.415-0.051-5.299,1.621l-0.002,0.001l-0.006,0.007
												c-1.276,1.452-2.107,3.736-1.886,6.261c0.165,2.526,1.545,5.21,3.859,7.128c2.29,1.952,5.41,3.168,8.741,3.517
												c3.341,0.366,6.854,0.027,10.381-0.637c5.754-1.098,10.978-3.302,15.302-5.911c2.18-1.265,4.244-2.473,6.315-3.28
												c2.06-0.829,4.119-1.193,6.004-1.227c3.794-0.065,6.763,1.06,8.621,2.037c1.874,0.998,2.748,1.815,2.787,1.761
												c0,0-0.822-0.877-2.688-1.944c-1.849-1.044-4.847-2.249-8.725-2.231c-1.923,0.01-4.048,0.363-6.159,1.192
												c-2.121,0.806-4.216,2.015-6.399,3.266c-4.315,2.571-9.465,4.725-15.159,5.813c-3.486,0.657-6.962,0.994-10.222,0.647
												c-3.256-0.331-6.271-1.496-8.495-3.363c-2.244-1.839-3.576-4.381-3.764-6.802c-0.239-2.422,0.526-4.616,1.721-6.028
												l-0.007,0.008c1.753-1.61,3.82-1.88,5.058-1.675C125.526,100.543,126.146,100.925,126.167,100.868z"/>
										</g>
									</g>
								</g>
							</g>
						</g>
						<g>
							<g>
								<g>
									<g>
										<g>
											<path class="st45" d="M132.02,92.121c0,0-0.113,0.876,0.369,2.364c0.488,1.462,1.77,3.477,4.139,4.982
												c1.168,0.758,2.581,1.396,4.192,1.737c1.603,0.347,3.368,0.422,5.194,0.272c3.672-0.276,7.516-1.533,11.546-2.577
												c4.016-1.045,8.057-1.586,11.535-0.658c3.478,0.891,6.137,3.007,7.839,5.089c1.727,2.101,2.592,4.183,3.003,5.642
												c0.403,1.472,0.449,2.327,0.514,2.319c0.018-0.002,0.008-0.214-0.028-0.618c-0.017-0.408-0.125-0.997-0.286-1.754
												c-0.355-1.496-1.181-3.644-2.911-5.826c-1.705-2.161-4.41-4.375-8.007-5.327c-3.6-0.988-7.747-0.436-11.79,0.616
												c-4.063,1.055-7.861,2.309-11.457,2.605c-1.786,0.161-3.506,0.102-5.063-0.215c-1.555-0.31-2.935-0.908-4.08-1.623
												c-2.324-1.421-3.61-3.333-4.146-4.735C132.054,92.988,132.088,92.112,132.02,92.121z"/>
										</g>
									</g>
								</g>
							</g>
						</g>
					</g>
					<g>
						<g>
							<path class="st75" d="M137.126,158.485c0.175,1.022,0.356,2.061,0.813,2.993c0.457,0.931,1.239,1.757,2.243,2.017
								c1.07,0.278,2.246-0.144,3.037-0.916c0.791-0.772,1.231-1.849,1.409-2.941c0.161-0.986-0.042-2.247-0.99-2.565
								c-0.394-0.133-0.825-0.06-1.234,0.014c-1.847,0.334-3.693,0.668-5.54,1.001"/>
						</g>
					</g>
					<g>
						<g>
							<g>
								<path class="st44" d="M138.099,162.683c0.075-0.148,1.024,0.645,2.755,0.521c0.838-0.061,1.84-0.393,2.586-1.179
									c0.742-0.775,1.229-1.991,1.105-3.229c-0.022-0.307-0.106-0.608-0.195-0.881c-0.131-0.27-0.098-0.248-0.322-0.286
									c-0.22-0.01-0.596,0.039-0.896,0.058c-0.313,0.024-0.621,0.048-0.922,0.071c-1.201,0.09-2.284,0.157-3.195,0.201
									c-1.821,0.087-2.954,0.077-2.966-0.051c-0.012-0.128,1.099-0.35,2.904-0.604c0.903-0.128,1.979-0.263,3.176-0.4
									c0.301-0.033,0.607-0.068,0.919-0.102c0.328-0.026,0.591-0.086,1.027-0.083c0.211,0.007,0.496,0.065,0.73,0.257
									c0.228,0.19,0.335,0.421,0.409,0.608c0.128,0.367,0.226,0.734,0.257,1.121c0.149,1.545-0.473,3.003-1.424,3.926
									c-0.972,0.943-2.212,1.252-3.174,1.232c-0.982-0.011-1.731-0.323-2.179-0.605
									C138.241,162.968,138.064,162.726,138.099,162.683z"/>
							</g>
						</g>
					</g>
				</g>
				<g>
					<g>
						<path class="st75" d="M133.138,178.933c0,0,10.078,3.823,19.89,1.044c0,0-7.401,6.204-20.902,3.823L133.138,178.933z"/>
					</g>
				</g>
			</g>
			<g>
				<g>
					<g>
						<path class="st43" d="M148.516,322.3c-0.024,0.027-0.517-0.35-1.384-1.052c-0.429-0.357-0.96-0.785-1.608-1.242
							c-0.643-0.462-1.348-1.025-2.195-1.552c-0.828-0.553-1.738-1.154-2.762-1.724c-0.996-0.616-2.12-1.166-3.288-1.771
							c-2.371-1.137-5.053-2.234-7.958-3.118c-2.914-0.856-5.759-1.412-8.365-1.763c-1.308-0.136-2.55-0.293-3.721-0.325
							c-1.168-0.085-2.259-0.083-3.255-0.075c-0.997-0.024-1.895,0.06-2.686,0.093c-0.792,0.026-1.471,0.092-2.025,0.155
							c-1.11,0.11-1.729,0.155-1.734,0.119c-0.006-0.035,0.602-0.148,1.71-0.321c0.553-0.094,1.232-0.191,2.027-0.244
							c0.794-0.061,1.697-0.171,2.701-0.171c1.003-0.031,2.103-0.055,3.282,0.012c1.182,0.014,2.436,0.156,3.759,0.28
							c2.635,0.328,5.512,0.876,8.457,1.74c2.935,0.893,5.639,2.015,8.022,3.187c1.173,0.622,2.3,1.192,3.295,1.829
							c1.023,0.591,1.929,1.215,2.75,1.792c0.839,0.551,1.534,1.138,2.164,1.625c0.635,0.481,1.15,0.935,1.561,1.317
							C148.093,321.845,148.54,322.273,148.516,322.3z"/>
					</g>
				</g>
			</g>
			<g>
				<g>
					<g>
						<g>
							<path class="st47" d="M89.742,270.941l8.205-35.531c3.139-13.361,6.856-26.201,13.105-27.722v4.135l-2.673,101.513
								c0,0-16.718,19.037-38.035,8.455c-6.659-3.306-18.81-26.555-18.81-26.555s-28.229-50.448-27.06-52.737
								c1.169-2.289,18.45-24.549,20.214-25.656L89.742,270.941z"/>
						</g>
					</g>
					<g>
						<g>
							<g>
								<g>
									<g>
										<path class="st47" d="M174.125,197.674c16.298,3.123,34.654,12.632,43.096,36.983
											c3.084,8.896,25.529,74.501,25.529,74.501l-38.275-0.795l-6.233-13.526l3.041,21.941l2.595,31.306l-96.639,1.625
											l0.677-47.153l0.927-93.799c0,0,1.087-1.423,17.749-10.616C136.943,192.428,174.125,197.674,174.125,197.674z"/>
									</g>
								</g>
							</g>
						</g>
					</g>
					<g class="st54">
						<g>
							<g>
								<path d="M183.767,260.375c1.586,19.801,3.414,25.917,5,45.718c0.15,1.87,0.309,3.778,1.043,5.504
									c0.735,1.726,2.16,3.27,3.998,3.645c2.815,0.573,6.473,2.608,7.268-0.153l-2.672-19.071c0,0-0.629-3.587-2.638-8.049
									C189.837,274.805,187.642,274.033,183.767,260.375"/>
							</g>
						</g>
					</g>
					<g>
						<g>
							<path class="st47" d="M126.592,208.288l0.322-2.058l3.089-19.758c0.186-1.192,1.262-2.038,2.464-1.937l38.05,3.176
								c2.391,0.2,4.175,2.288,3.998,4.681l-0.848,11.481l-11.881,15.501l-17.108,2.669"/>
						</g>
					</g>
					<g>
						<g>
							<g>
								<path class="st44" d="M107.489,245.441c0.144,0,0.26,15.479,0.26,34.568c0,19.096-0.117,34.572-0.26,34.572
									c-0.144,0-0.26-15.475-0.26-34.572C107.229,260.919,107.346,245.441,107.489,245.441z"/>
							</g>
						</g>
					</g>
					<g>
						<g>
							<g>
								<path class="st44" d="M205.287,311.526c-0.008,0.004-0.05-0.073-0.123-0.224c-0.083-0.181-0.187-0.404-0.314-0.679
									c-0.282-0.639-0.669-1.518-1.16-2.63c-1.003-2.333-2.425-5.64-4.175-9.71c-3.494-8.253-8.293-19.59-13.594-32.112
									c-2.634-6.279-5.143-12.259-7.427-17.705c-1.213-2.689-2.02-5.446-2.458-8.037c-0.458-2.598-0.644-5.054-0.663-7.294
									c-0.047-4.483,0.624-8.107,1.523-10.451c0.111-0.293,0.207-0.574,0.314-0.83c0.123-0.248,0.238-0.481,0.346-0.699
									c0.206-0.437,0.398-0.797,0.599-1.062c0.172-0.25,0.312-0.453,0.425-0.618c0.098-0.137,0.151-0.205,0.159-0.199
									c0.071,0.042-0.842,1.123-1.652,3.477c-0.829,2.338-1.438,5.932-1.345,10.377c0.119,4.419,0.724,9.798,3.195,15.151
									c2.296,5.441,4.817,11.416,7.465,17.689c5.246,12.546,9.995,23.903,13.453,32.171c1.686,4.097,3.056,7.426,4.023,9.775
									c0.452,1.128,0.81,2.019,1.07,2.668c0.108,0.283,0.195,0.513,0.266,0.699C205.27,311.44,205.295,311.523,205.287,311.526z"
									/>
							</g>
						</g>
					</g>
					<g>
						<g>
							<g>
								<path class="st43" d="M185.987,201.121c0,0-0.353,0.366-1.111,0.964c-0.757,0.599-1.963,1.382-3.646,2.125
									c-1.686,0.73-3.856,1.383-6.429,1.803c-2.574,0.425-5.523,0.703-8.798,0.867c-3.275,0.147-6.861,0.081-10.699,0.157
									c-3.83,0.089-7.95,0.334-12.099,1.472c-4.114,1.107-8.355,3.158-11.379,6.712c-1.483,1.771-2.586,3.924-3.16,6.242
									c-0.586,2.312-0.605,4.818,0.115,7.152c0.383,1.159,0.96,2.236,1.675,3.199c0.731,0.945,1.664,1.728,2.702,2.276
									c1.034,0.554,2.209,0.826,3.339,0.704c1.133-0.111,2.195-0.672,2.933-1.505c1.5-1.707,1.783-4.172,1.479-6.326
									c-0.158-1.094-0.476-2.156-0.951-3.124c-0.485-0.964-1.114-1.855-1.778-2.683c-2.736-3.301-6.572-5.209-10.252-6.075
									c-3.715-0.879-7.36-0.703-10.495,0.119c-3.155,0.785-5.834,2.09-8.035,3.436c-2.213,1.343-3.953,2.755-5.322,3.958
									c-1.373,1.202-2.345,2.238-3.02,2.922c-0.314,0.336-0.56,0.601-0.746,0.801c-0.17,0.178-0.261,0.267-0.268,0.261
									c0,0,1.206-1.642,3.899-4.135c1.354-1.232,3.087-2.676,5.304-4.055c2.206-1.381,4.903-2.725,8.098-3.545
									c3.173-0.857,6.895-1.061,10.684-0.183c3.756,0.865,7.691,2.795,10.523,6.188c0.689,0.855,1.333,1.759,1.847,2.773
									c0.502,1.018,0.836,2.126,1.005,3.27c0.166,1.143,0.168,2.329-0.061,3.496c-0.229,1.16-0.704,2.32-1.531,3.243
									c-0.818,0.925-2,1.55-3.254,1.674c-1.253,0.137-2.532-0.166-3.637-0.756c-1.11-0.585-2.095-1.412-2.873-2.415
									c-0.755-1.014-1.36-2.145-1.761-3.36c-0.754-2.445-0.728-5.047-0.122-7.436c0.596-2.396,1.734-4.615,3.272-6.445
									c3.127-3.663,7.468-5.734,11.644-6.846c4.214-1.142,8.374-1.37,12.216-1.441c3.851-0.058,7.431,0.03,10.692-0.093
									c3.256-0.139,6.21-0.392,8.766-0.786c2.56-0.39,4.715-1.008,6.396-1.702c1.677-0.707,2.89-1.455,3.662-2.023
									c0.4-0.266,0.669-0.518,0.87-0.661C185.878,201.188,185.981,201.114,185.987,201.121z"/>
							</g>
						</g>
					</g>
					<g>
						<g>
							<g>
								<path class="st43" d="M219.055,242.74c0.001,0.018-0.145,0.042-0.426,0.071c-0.281,0.023-0.695,0.076-1.23,0.088
									c-1.07,0.054-2.623,0.035-4.532-0.107c-1.91-0.139-4.171-0.43-6.67-0.775c-2.5-0.34-5.244-0.723-8.137-0.877
									c-2.889-0.137-5.654,0.082-8.098,0.609c-2.439,0.544-4.562,1.365-6.174,2.35c-3.272,1.957-4.453,4.155-4.56,4.044
									c-0.015-0.01,0.059-0.138,0.213-0.374c0.166-0.227,0.364-0.602,0.726-1c0.661-0.848,1.8-1.946,3.429-2.984
									c1.624-1.048,3.782-1.924,6.262-2.504c2.486-0.563,5.296-0.8,8.228-0.661c2.926,0.156,5.682,0.557,8.178,0.922
									c2.496,0.371,4.741,0.699,6.635,0.883c1.893,0.189,3.432,0.263,4.497,0.271C218.462,242.708,219.053,242.698,219.055,242.74
									z"/>
							</g>
						</g>
					</g>
					<g>
						<g>
							<g>
								<path class="st43" d="M195.023,287.57c-0.012,0.126-2.007-0.714-5.742-0.488c-1.857,0.092-4.111,0.484-6.662,1.191
									c-2.556,0.691-5.402,1.702-8.601,2.686c-3.185,0.977-6.807,1.911-10.778,1.876c-3.951,0.004-8.196-0.783-12.282-2.55
									c-4.097-1.724-8.029-4.469-11.2-8.141c-1.594-1.823-2.979-3.905-3.967-6.222c-0.973-2.311-1.511-4.911-1.143-7.509
									c0.383-2.569,1.594-5.026,3.55-6.689c0.975-0.823,2.117-1.457,3.366-1.723c1.239-0.271,2.527-0.224,3.72,0.115
									c1.189,0.337,2.319,0.909,3.209,1.756c0.888,0.837,1.56,1.925,1.804,3.114c0.264,1.176,0.144,2.417-0.271,3.511
									c-0.414,1.1-1.095,2.055-1.873,2.868c-1.569,1.633-3.522,2.725-5.491,3.488c-0.992,0.365-2.005,0.663-3.012,0.825
									c-0.503,0.093-0.999,0.201-1.495,0.278c-0.5,0.058-0.995,0.115-1.486,0.172c-3.939,0.432-7.652-0.001-10.913-0.764
									c-3.268-0.78-6.093-1.965-8.427-3.242c-2.34-1.275-4.204-2.638-5.608-3.877c-0.351-0.308-0.684-0.599-0.997-0.874
									c-0.291-0.294-0.565-0.57-0.82-0.826c-0.516-0.504-0.93-0.951-1.237-1.338c-0.301-0.362-0.538-0.647-0.716-0.861
									c-0.159-0.196-0.237-0.299-0.23-0.304c0.007-0.006,0.099,0.086,0.271,0.27c0.187,0.205,0.437,0.478,0.754,0.825
									c0.318,0.375,0.742,0.809,1.267,1.298c0.259,0.25,0.536,0.518,0.832,0.805c0.316,0.267,0.652,0.551,1.007,0.851
									c1.415,1.207,3.282,2.536,5.616,3.775c2.327,1.243,5.135,2.391,8.373,3.14c3.231,0.733,6.902,1.139,10.784,0.693
									c0.484-0.058,0.972-0.117,1.465-0.176c0.489-0.079,0.977-0.188,1.472-0.281c0.998-0.165,1.97-0.457,2.939-0.817
									c1.914-0.749,3.813-1.824,5.307-3.392c0.742-0.78,1.379-1.685,1.761-2.707c0.382-1.017,0.489-2.15,0.244-3.237
									c-0.457-2.193-2.421-3.898-4.661-4.482c-1.119-0.318-2.326-0.357-3.474-0.105c-1.149,0.243-2.227,0.841-3.142,1.615
									c-1.842,1.565-3.006,3.914-3.37,6.369c-0.352,2.472,0.16,4.987,1.105,7.233c0.959,2.253,2.313,4.297,3.877,6.091
									c3.109,3.611,6.971,6.323,11.002,8.033c4.02,1.753,8.199,2.544,12.093,2.559c3.911,0.053,7.487-0.845,10.672-1.797
									c3.193-0.957,6.055-1.947,8.632-2.615c2.571-0.684,4.851-1.05,6.727-1.112c0.936-0.073,1.772,0.021,2.491,0.043
									c0.715,0.104,1.325,0.155,1.806,0.266c0.458,0.114,0.818,0.204,1.089,0.271C194.902,287.524,195.025,287.561,195.023,287.57
									z"/>
							</g>
						</g>
					</g>
					<g>
						<g>
							<g>
								<path class="st43" d="M107.153,276.907c-0.084,0.035-0.543-1.058-1.514-2.687c-0.966-1.63-2.518-3.762-4.629-5.736
									c-2.119-1.968-4.354-3.366-6.048-4.216c-1.694-0.854-2.816-1.235-2.787-1.322c0.011-0.034,0.3,0.033,0.816,0.184
									c0.519,0.143,1.25,0.415,2.129,0.806c1.76,0.776,4.08,2.156,6.244,4.167c2.156,2.017,3.696,4.234,4.594,5.935
									c0.452,0.85,0.774,1.56,0.953,2.068C107.099,276.61,107.186,276.894,107.153,276.907z"/>
							</g>
						</g>
					</g>
					<g>
						<g>
							<g>
								<path class="st43" d="M68.351,319.706c-0.008,0.004-0.061-0.08-0.157-0.249c-0.107-0.195-0.243-0.444-0.413-0.754
									c-0.356-0.666-0.876-1.651-1.516-2.936c-1.26-2.572-3.116-6.318-4.578-11.261c-0.699-2.474-1.294-5.255-1.434-8.291
									c-0.091-1.515-0.005-3.095,0.192-4.703c0.235-1.605,0.63-3.23,1.183-4.851c1.17-3.2,3.018-6.426,5.867-8.883
									c2.791-2.44,6.644-4.148,10.674-3.744c1.981,0.213,3.962,1.02,5.26,2.557c1.281,1.502,1.897,3.56,1.481,5.467
									c-0.209,0.947-0.718,1.825-1.415,2.472c-0.693,0.657-1.556,1.092-2.443,1.332c-1.786,0.502-3.689,0.177-5.222-0.632
									c-1.552-0.8-2.806-1.982-3.82-3.251c-1.014-1.276-1.802-2.66-2.4-4.063c-1.174-2.822-1.547-5.717-1.336-8.297
									c0.208-2.591,1.011-4.847,1.984-6.649c0.97-1.812,2.11-3.191,3.134-4.202c1.032-1.008,1.937-1.675,2.576-2.082
									c0.312-0.214,0.572-0.344,0.738-0.443c0.169-0.095,0.258-0.139,0.262-0.132c0.012,0.02-0.326,0.229-0.941,0.662
									c-0.615,0.432-1.493,1.119-2.491,2.138c-0.99,1.021-2.09,2.4-3.02,4.195c-0.933,1.785-1.694,4.005-1.874,6.541
									c-0.183,2.526,0.204,5.354,1.367,8.1c0.592,1.365,1.368,2.71,2.36,3.945c0.99,1.229,2.207,2.359,3.68,3.11
									c1.46,0.761,3.217,1.048,4.873,0.58c1.646-0.421,3.129-1.698,3.492-3.437c0.375-1.714-0.191-3.636-1.378-5.018
									c-1.182-1.404-3.041-2.176-4.921-2.375c-3.837-0.388-7.575,1.248-10.283,3.612c-2.771,2.377-4.59,5.526-5.75,8.659
									c-0.548,1.587-0.944,3.18-1.182,4.754c-0.201,1.578-0.295,3.122-0.214,4.619c0.119,2.994,0.686,5.75,1.356,8.21
									c1.404,4.917,3.204,8.679,4.406,11.273c0.607,1.266,1.085,2.263,1.427,2.977c0.151,0.319,0.272,0.575,0.367,0.777
									C68.322,319.609,68.359,319.702,68.351,319.706z"/>
							</g>
						</g>
					</g>
					<g>
						<g>
							<g>
								<path class="st43" d="M56.007,231.419c0.018-0.002,0.049,0.141,0.092,0.417c0.036,0.276,0.113,0.683,0.146,1.212
									c0.101,1.055,0.146,2.597-0.008,4.492c-0.284,3.768-1.621,9.042-4.936,13.863c-3.317,4.821-7.765,7.958-11.181,9.57
									c-1.714,0.822-3.17,1.331-4.191,1.614c-0.506,0.158-0.913,0.231-1.184,0.297c-0.273,0.059-0.418,0.081-0.422,0.064
									c-0.011-0.041,0.549-0.211,1.544-0.553c0.996-0.34,2.417-0.897,4.088-1.75c3.334-1.678,7.662-4.806,10.917-9.536
									c3.252-4.73,4.624-9.89,4.998-13.603c0.199-1.867,0.211-3.393,0.172-4.444C56.007,232.008,55.965,231.424,56.007,231.419z"
									/>
							</g>
						</g>
					</g>
					<g>
						<g>
							<g>
								<path class="st43" d="M227.809,274.781c0.067,0.087-1.894,0.899-3.861,3.526c-0.995,1.286-1.993,2.953-3.134,4.801
									c-1.143,1.849-2.565,3.801-4.273,5.65c-3.427,3.711-7.302,6.251-10.247,7.704c-1.469,0.746-2.718,1.218-3.581,1.533
									c-0.874,0.287-1.361,0.429-1.373,0.395c-0.012-0.034,0.453-0.241,1.3-0.584c0.836-0.371,2.052-0.89,3.485-1.671
									c2.874-1.523,6.656-4.074,10.034-7.731c1.686-1.826,3.093-3.731,4.25-5.553c1.157-1.824,2.2-3.493,3.251-4.773
									c1.049-1.282,2.081-2.166,2.867-2.657c0.394-0.245,0.707-0.418,0.934-0.511
									C227.681,274.809,227.801,274.764,227.809,274.781z"/>
							</g>
						</g>
					</g>
				</g>
				<g>
					<g>
						<g>
							<path class="st44" d="M173.764,198.835c0.002,0.018-0.155,0.058-0.459,0.118c-0.364,0.065-0.803,0.143-1.33,0.236
								c-1.157,0.191-2.835,0.446-4.914,0.726c-4.157,0.562-9.918,1.214-16.302,1.682c-3.189,0.233-6.245,0.442-9.035,0.325
								c-2.787-0.102-5.291-0.558-7.292-1.247c-2.009-0.673-3.501-1.556-4.452-2.249c-0.478-0.347-0.826-0.645-1.053-0.857
								c-0.225-0.213-0.337-0.331-0.325-0.345c0.03-0.035,0.518,0.396,1.492,1.034c0.974,0.633,2.464,1.45,4.452,2.067
								c1.98,0.632,4.44,1.042,7.194,1.117c2.754,0.09,5.79-0.132,8.979-0.365c6.374-0.467,12.132-1.061,16.295-1.528
								c2.019-0.23,3.684-0.419,4.931-0.561C173.113,198.857,173.759,198.799,173.764,198.835z"/>
						</g>
					</g>
				</g>
			</g>
			<g>
				<g>
					<g>
						<g>
							<g>
								<g>
									<path class="st74" d="M242.258,316.226c3.166,16.464-9.352,31.775-26.116,31.944l-75.744-0.841l1.99-24.527l64.942-9.686"
										/>
								</g>
							</g>
							<g>
								<g>
									<g>
										<path class="st74" d="M147.073,323.919c-0.347,0.116-4.722-1.845-8.641-3.659c-4.16-1.925-8.724-2.811-13.302-2.579
											l-18.056,0.918c0,0,1.115,2.979,3.03,4.038c1.915,1.059,13.14,1.286,13.14,1.286l-0.575,0.592
											c-2.366,2.436-5.593,3.848-8.988,3.933l-1.725,0.044c-1.28-0.101-2.545-0.348-3.769-0.737l-4.453-1.8
											c-1.348-0.608-2.771-0.509-3.358,0.848c-0.53,1.228-0.141,2.919,3.535,4.771c2.055,1.035,9.675,3.67,9.675,3.67
											s0.111,2.107,0.444,3.216c0.333,1.109,3.327,2.218,3.327,2.218s1.885,3.881,2.661,4.769
											c0.348,0.398,3.059,1.241,5.944,2.051c4.658,1.307,9.591,1.276,14.227-0.108l6.882-2.054v-20.96"/>
									</g>
								</g>
							</g>
						</g>
						<g>
							<g>
								<g>
									<path class="st75" d="M122.375,337.613c-0.009,0.116-2.15,0.006-4.695-0.669c-2.548-0.665-4.466-1.622-4.417-1.728
										c0.052-0.123,2.022,0.636,4.532,1.29C120.301,337.172,122.39,337.481,122.375,337.613z"/>
								</g>
							</g>
						</g>
						<g>
							<g>
								<g>
									<path class="st75" d="M121.739,341.841c0.001,0.119-1.165,0.193-2.539-0.184c-1.377-0.37-2.345-1.025-2.284-1.126
										c0.062-0.116,1.085,0.337,2.402,0.69C120.633,341.583,121.745,341.71,121.739,341.841z"/>
								</g>
							</g>
						</g>
					</g>
					<g>
						<g>
							<g>
								<path class="st75" d="M125.037,322.296c0.04,0.042-0.477,0.626-1.395,1.49c-0.921,0.856-2.256,2-3.934,2.978
									c-1.68,0.978-3.372,1.527-4.611,1.78c-1.243,0.252-2.027,0.271-2.033,0.22c-0.042-0.165,3.129-0.456,6.417-2.391
									c1.635-0.954,2.981-2.039,3.95-2.828C124.397,322.749,124.992,322.247,125.037,322.296z"/>
							</g>
						</g>
					</g>
				</g>
				<g>
					<g>
						<path class="st47" d="M148.912,320.612l-1.839,27.736l71.352,0.026c4.843,0.002,9.596-1.315,13.747-3.808l0,0
							c9.637-5.788,14.612-16.994,12.442-28.024c-0.734-4.508-2.449-9.776-4.604-15.385l-35.872,5.902l1.147,4.466L148.912,320.612z
							"/>
					</g>
				</g>
				<g>
					<g>
						<g>
							<path class="st44" d="M221.812,309.209c0.003,0.018-0.245,0.074-0.72,0.165c-0.526,0.095-1.219,0.219-2.083,0.375
								c-1.87,0.312-4.478,0.748-7.676,1.282c-6.54,1.041-15.481,2.463-25.359,4.035c-9.891,1.514-18.841,2.883-25.387,3.885
								c-3.209,0.466-5.826,0.846-7.702,1.118c-0.871,0.115-1.568,0.208-2.098,0.278c-0.48,0.058-0.734,0.08-0.737,0.062
								c-0.003-0.018,0.246-0.074,0.721-0.166c0.526-0.095,1.219-0.219,2.083-0.375c1.87-0.312,4.478-0.748,7.677-1.282
								c6.54-1.041,15.481-2.463,25.361-4.035c9.886-1.513,18.835-2.882,25.381-3.884c3.21-0.466,5.827-0.846,7.703-1.118
								c0.871-0.115,1.569-0.208,2.099-0.278C221.555,309.213,221.809,309.191,221.812,309.209z"/>
						</g>
					</g>
				</g>
				<g>
					<g>
						<g>
							<path class="st43" d="M185.305,348.396c-0.125-0.023,0.426-2.004,0.496-5.269c-0.002-0.816,0.016-1.709-0.104-2.661
								c-0.05-0.958-0.247-1.963-0.437-3.022c-0.464-2.1-1.208-4.358-2.32-6.581c-1.122-2.22-2.516-4.152-3.9-5.799
								c-0.358-0.401-0.709-0.792-1.05-1.174c-0.346-0.375-0.718-0.705-1.058-1.043c-0.67-0.689-1.376-1.239-1.997-1.77
								c-2.549-2.046-4.361-2.996-4.302-3.095c0.017-0.031,0.47,0.2,1.276,0.647c0.404,0.222,0.901,0.492,1.436,0.872
								c0.533,0.38,1.188,0.751,1.818,1.287c0.644,0.518,1.372,1.059,2.065,1.744c0.351,0.336,0.734,0.664,1.092,1.039
								c0.352,0.383,0.713,0.776,1.083,1.178c1.427,1.656,2.859,3.615,4.002,5.878c1.133,2.265,1.879,4.576,2.325,6.721
								c0.181,1.082,0.365,2.107,0.397,3.084c0.102,0.971,0.064,1.878,0.042,2.706c0.013,0.829-0.139,1.569-0.2,2.221
								c-0.059,0.654-0.188,1.206-0.294,1.655C185.469,347.913,185.34,348.404,185.305,348.396z"/>
						</g>
					</g>
				</g>
				<g>
					<g>
						<g>
							<path class="st43" d="M228.733,346.306c0,0-1.199,0.05-3.31-0.398c-1.044-0.254-2.325-0.613-3.701-1.303
								c-1.368-0.69-2.85-1.677-4.169-3.106c-1.31-1.423-2.472-3.285-3.068-5.5c-0.284-1.105-0.51-2.276-0.528-3.493
								c-0.082-1.214,0.026-2.477,0.297-3.737c0.276-1.258,0.743-2.521,1.477-3.669c0.724-1.148,1.747-2.17,2.996-2.854
								c1.239-0.687,2.7-1.084,4.185-0.96c1.48,0.101,2.954,0.837,3.918,2.026c0.974,1.165,1.522,2.709,1.314,4.217
								c-0.2,1.525-1.24,2.779-2.455,3.512c-2.495,1.485-5.385,1.47-7.886,1.083c-5.106-0.849-9.087-3.899-11.164-7.145
								c-2.142-3.263-2.676-6.484-2.742-8.613c-0.063-2.161,0.284-3.321,0.284-3.321c0.067,0.006-0.206,1.18-0.081,3.311
								c0.126,2.101,0.712,5.254,2.845,8.418c2.066,3.144,5.97,6.077,10.935,6.876c2.433,0.369,5.232,0.348,7.54-1.043
								c1.122-0.681,2.038-1.812,2.211-3.151c0.184-1.332-0.307-2.744-1.201-3.81c-0.889-1.088-2.197-1.744-3.562-1.844
								c-1.363-0.116-2.729,0.248-3.894,0.89c-2.384,1.288-3.727,3.783-4.252,6.181c-0.267,1.213-0.38,2.435-0.308,3.617
								c0.009,1.184,0.221,2.321,0.487,3.395c0.56,2.152,1.667,3.967,2.924,5.367c1.266,1.406,2.699,2.393,4.029,3.095
								c1.338,0.702,2.591,1.085,3.617,1.366C227.543,346.215,228.741,346.236,228.733,346.306z"/>
						</g>
					</g>
				</g>
			</g>
		</g>
	</g>
	<g>
		<g>
			<g>
				<g>
					<g>
						<g>
							<path class="st45" d="M58.765,70.523c0,1.933,1.567,3.501,3.5,3.501c1.933,0,3.501-1.567,3.501-3.501
								c0-1.933-1.567-3.5-3.501-3.5C60.332,67.022,58.765,68.589,58.765,70.523z"/>
						</g>
					</g>
				</g>
			</g>
			<g>
				<g>
					<g>
						<g>
							<circle class="st45" cx="48.257" cy="70.523" r="3.5"/>
						</g>
					</g>
				</g>
			</g>
			<g>
				<g>
					<g>
						<g>
							<path class="st45" d="M30.784,68.772c-0.967,1.674-0.393,3.815,1.281,4.782c1.674,0.967,3.815,0.393,4.782-1.281
								c0.967-1.674,0.393-3.815-1.281-4.782C33.891,66.525,31.75,67.098,30.784,68.772z"/>
						</g>
					</g>
				</g>
			</g>
		</g>
		<g>
			<g>
				<g>
					<g>
						<g>
							<path class="st45" d="M48.04,29.637c0-0.016-0.239-0.02-0.708-0.012c-0.514,0.014-1.202,0.034-2.08,0.059
								c-0.457,0.021-0.971,0.021-1.533,0.068c-0.563,0.079-1.175,0.165-1.835,0.258c-0.666,0.096-1.38,0.198-2.141,0.308
								c-0.751,0.186-1.549,0.384-2.392,0.593c-3.361,0.865-7.433,2.341-11.595,5.056c-4.16,2.67-8.483,6.489-11.992,11.679
								c-3.443,5.196-6.1,11.734-6.803,19.077c-0.069,1.837-0.29,3.707-0.113,5.607c0.066,0.948,0.047,1.912,0.186,2.868
								c0.144,0.955,0.289,1.918,0.435,2.888c0.783,3.83,1.923,7.755,3.897,11.41c1.928,3.663,4.415,7.15,7.452,10.255
								c3.096,3.042,6.712,5.68,10.737,7.713c4.013,2.05,8.459,3.466,13.088,4.017c1.146,0.227,2.32,0.226,3.491,0.297
								c1.171,0.077,2.347,0.119,3.529,0.064c2.36-0.096,4.729-0.392,7.068-0.893c5.083-1.082,9.869-3.152,14.071-5.921
								l-0.427,0.043c4.877,1.957,9.662,3.878,14.333,5.752l0.849,0.341l-0.242-0.881c-1.446-5.259-2.853-10.375-4.213-15.323
								l-0.072,0.378c4.022-5.345,6.586-11.449,7.648-17.509c0.533-3.028,0.758-6.05,0.557-8.97
								c-0.062-1.463-0.132-2.906-0.407-4.309c-0.109-0.704-0.218-1.403-0.325-2.097c-0.128-0.689-0.338-1.357-0.501-2.029
								c-2.769-10.786-9.412-18.752-15.991-23.312c-3.294-2.319-6.542-3.983-9.516-5.021c-0.741-0.265-1.456-0.521-2.143-0.767
								c-0.706-0.179-1.385-0.352-2.035-0.517c-0.649-0.161-1.27-0.315-1.862-0.462c-0.597-0.115-1.174-0.176-1.714-0.259
								c-1.084-0.137-2.036-0.325-2.87-0.366c-0.821-0.028-1.522-0.051-2.106-0.071c-0.533-0.012-0.957-0.021-1.286-0.028
								C48.186,29.619,48.04,29.625,48.04,29.637c0,0.013,0.147,0.033,0.435,0.06c0.328,0.026,0.75,0.059,1.281,0.101
								c0.58,0.039,1.277,0.086,2.092,0.141c0.828,0.064,1.771,0.274,2.843,0.432c4.218,0.773,10.542,2.455,17.002,7.179
								c6.451,4.561,12.925,12.452,15.588,23.054c0.156,0.661,0.36,1.317,0.482,1.994c0.102,0.682,0.205,1.368,0.309,2.06
								c0.264,1.377,0.325,2.794,0.379,4.23c0.186,2.866-0.048,5.829-0.581,8.794c-1.062,5.935-3.592,11.903-7.543,17.128
								l-0.129,0.171l0.057,0.208c1.35,4.951,2.747,10.069,4.182,15.331l0.606-0.54c-4.668-1.88-9.451-3.806-14.326-5.769
								l-0.224-0.09l-0.203,0.134c-4.112,2.705-8.789,4.726-13.757,5.783c-2.287,0.489-4.601,0.78-6.909,0.874
								c-1.155,0.055-2.305,0.012-3.45-0.062c-1.145-0.069-2.293-0.065-3.413-0.288c-4.526-0.535-8.873-1.914-12.799-3.914
								c-3.938-1.983-7.48-4.557-10.517-7.527c-2.978-3.033-5.42-6.439-7.32-10.021c-1.945-3.573-3.071-7.413-3.853-11.165
								c-0.147-0.95-0.293-1.893-0.437-2.829c-0.14-0.937-0.123-1.883-0.193-2.812c-0.184-1.863,0.029-3.698,0.086-5.502
								c0.658-7.208,3.229-13.644,6.582-18.781c3.418-5.13,7.647-8.93,11.727-11.608c4.083-2.722,8.091-4.233,11.407-5.143
								c0.833-0.222,1.621-0.432,2.362-0.629c0.754-0.124,1.46-0.24,2.118-0.348c0.654-0.108,1.26-0.208,1.818-0.3
								c0.558-0.062,1.068-0.076,1.522-0.112c0.873-0.064,1.558-0.113,2.069-0.15C47.8,29.681,48.04,29.653,48.04,29.637z"/>
						</g>
					</g>
				</g>
			</g>
		</g>
	</g>
</g>
</svg>
