<?xml version="1.0" encoding="utf-8"?>
<!-- Generator: Adobe Illustrator 25.4.1, SVG Export Plug-In . SVG Version: 6.00 Build 0)  -->
<svg version="1.1" id="Layer_1" xmlns="http://www.w3.org/2000/svg" xmlns:xlink="http://www.w3.org/1999/xlink" x="0px" y="0px"
	 viewBox="0 0 118.786 98.096" style="enable-background:new 0 0 118.786 98.096;" xml:space="preserve">
<style type="text/css">
	.st0{fill:#EBF0F1;}
	.st1{fill:#DFE9F2;}
	.st2{fill:#A8B0B6;}
	.st3{clip-path:url(#SVGID_00000057126187611999738970000009297163747008477586_);}
	.st4{fill:#CCCCCC;}
	.st5{fill:#876441;}
	.st6{fill:#F3A48A;}
	.st7{fill:#CF5D43;}
	.st8{fill:#DD6D4E;}
	.st9{fill:#ABA97B;}
	.st10{fill:#E3E0A2;}
	.st11{fill:#303030;}
	.st12{fill:#EFEDE3;}
	.st13{fill:#353535;}
	.st14{fill:#9F714A;}
	.st15{fill:#775336;}
	.st16{fill:#412C19;}
	.st17{fill:#B5B573;}
	.st18{clip-path:url(#SVGID_00000112633768412549148530000008723278899785239189_);}
	.st19{fill:#3B9A64;}
	.st20{fill:#AC614E;}
	.st21{fill:#C1C57C;}
	.st22{clip-path:url(#SVGID_00000174595477934413960940000016694356555996210346_);}
	.st23{fill:#4CA66F;}
	.st24{fill:#FCF9EE;}
	.st25{fill:#F47F64;}
	.st26{fill:#668F95;}
	.st27{fill:#EBE6D5;}
	.st28{fill:#005D68;}
	.st29{fill:#FFC099;}
	.st30{fill:#003239;}
	.st31{fill:#DF8E7A;}
	.st32{fill:#B77B67;}
	.st33{fill:#68472F;}
	.st34{fill:#FBA983;}
	.st35{fill:#FFFFFF;}
	.st36{fill:#F88D61;}
	.st37{fill:#C79072;}
	.st38{fill:#573C28;}
	.st39{fill:#FFA16C;}
	.st40{fill:#F5F5F5;}
	.st41{fill:#E1E1E1;}
	.st42{fill:#ECECEC;}
	.st43{fill:#FAFAFA;}
	.st44{fill:#1A2E35;}
	.st45{fill:#375A64;}
	.st46{opacity:0.3;}
	.st47{fill:#498269;}
	.st48{fill:#946962;}
	.st49{fill:#6F4540;}
	.st50{fill:#CE4F41;}
	.st51{opacity:0.6;}
	.st52{fill:#305A46;}
	.st53{fill:#F7D858;}
	.st54{opacity:0.2;}
	.st55{opacity:0.4;}
	.st56{fill:#101010;}
	.st57{fill:#6AB792;}
	.st58{fill:#D25F3B;}
	.st59{fill:#E57E5B;}
	.st60{fill:none;stroke:#D25F3B;stroke-width:1.3008;stroke-linecap:round;stroke-linejoin:round;stroke-miterlimit:10;}
	.st61{fill:none;stroke:#498269;stroke-width:1.8047;stroke-linecap:round;stroke-linejoin:round;stroke-miterlimit:10;}
	.st62{fill:#39ACB2;}
	.st63{clip-path:url(#SVGID_00000098911524710369172110000003996021068735522478_);}
	.st64{fill:none;stroke:#305A46;stroke-width:3.1006;stroke-linecap:round;stroke-linejoin:round;stroke-miterlimit:10;}
	.st65{fill:#EC8A63;}
	.st66{fill:#FFB890;}
	.st67{fill:none;stroke:#EC8A63;stroke-width:2.028;stroke-linecap:round;stroke-linejoin:round;stroke-miterlimit:10;}
	.st68{opacity:0.26;fill:#FFFFFF;}
	.st69{fill:none;stroke:#FFFFFF;stroke-width:1.9299;stroke-linecap:round;stroke-linejoin:round;stroke-miterlimit:10;}
	.st70{fill:#DAF0FA;}
	.st71{fill:#FFBF9D;}
	.st72{fill:#FF9A6C;}
	.st73{fill:none;stroke:#44555B;stroke-miterlimit:10;}
	.st74{fill:#C78976;}
	.st75{fill:#BF654E;}
	.st76{fill:none;stroke:#44555B;stroke-width:0.05;stroke-miterlimit:10;}
	.st77{fill:none;stroke:#44555B;stroke-width:0.0469;stroke-miterlimit:10;}
	.st78{fill:#FF735D;}
	.st79{clip-path:url(#SVGID_00000026880021781108546730000000327954001469726652_);}
	.st80{fill:#FFDAD9;}
	.st81{fill:#DCDFE0;}
	.st82{fill:none;stroke:#B6E1F4;stroke-width:5.3697;stroke-linecap:round;stroke-linejoin:round;stroke-miterlimit:10;}
	.st83{fill:none;stroke:#B6E1F4;stroke-width:5.0288;stroke-miterlimit:10;}
	.st84{opacity:0.44;fill:#B6E1F4;}
	.st85{fill:#E07280;}
	.st86{fill:#7E5780;}
	.st87{opacity:0.22;fill:#7E5780;}
	.st88{fill:none;stroke:#FFD0C5;stroke-width:0.3194;stroke-miterlimit:10;}
	.st89{fill:none;stroke:#FFD0C5;stroke-width:0.3836;stroke-miterlimit:10;}
	.st90{fill:none;stroke:#401A49;stroke-width:1.5344;stroke-linecap:round;stroke-linejoin:round;stroke-miterlimit:10;}
	.st91{fill:#401A49;}
	.st92{fill:none;stroke:#161C3E;stroke-width:1.1265;stroke-linecap:round;stroke-linejoin:round;stroke-miterlimit:10;}
	.st93{opacity:0.09;fill:#E07280;}
	.st94{fill:none;stroke:#401A49;stroke-width:0.9884;stroke-linecap:round;stroke-linejoin:round;stroke-miterlimit:10;}
	.st95{fill:none;stroke:#401A49;stroke-width:0.7672;stroke-linecap:round;stroke-linejoin:round;stroke-miterlimit:10;}
	.st96{fill:#994975;}
	.st97{fill:#FF8A9A;}
	.st98{fill:none;stroke:#161C3E;stroke-width:1.0685;stroke-linecap:round;stroke-linejoin:round;stroke-miterlimit:10;}
	.st99{opacity:0.35;fill:#EF5D6B;}
	.st100{fill:none;stroke:#401A49;stroke-width:0.9376;stroke-linecap:round;stroke-linejoin:round;stroke-miterlimit:10;}
	.st101{fill:#FFF5EB;}
	.st102{fill:#F2B2D6;}
	.st103{fill:none;stroke:#FFF5EB;stroke-width:0.8381;stroke-linecap:round;stroke-linejoin:round;stroke-miterlimit:10;}
	.st104{opacity:0.22;fill:#401A49;}
	.st105{fill:none;stroke:#FFDAD9;stroke-width:0.8381;stroke-miterlimit:10;}
	.st106{fill:none;stroke:#FFDAD9;stroke-width:0.8381;stroke-linecap:round;stroke-linejoin:round;stroke-miterlimit:10;}
	.st107{fill:none;stroke:#401A49;stroke-width:1.6763;stroke-linecap:round;stroke-linejoin:round;stroke-miterlimit:10;}
	.st108{fill:#FFD0C5;}
	.st109{fill:#FDB22C;}
	.st110{fill:#1A8B91;}
	.st111{fill:none;stroke:#000000;stroke-width:0.8147;stroke-linecap:round;stroke-linejoin:round;stroke-miterlimit:10;}
	.st112{fill:#ECA079;}
	.st113{fill:#FDF1F5;}
	.st114{fill:#E6C6CE;}
	.st115{fill:#862904;}
	.st116{fill:#DC845E;}
	.st117{fill:none;stroke:#000000;stroke-width:0.848;stroke-linecap:round;stroke-linejoin:round;stroke-miterlimit:10;}
	.st118{clip-path:url(#XMLID_00000069394088044233442340000007948803525402095273_);}
	.st119{clip-path:url(#XMLID_00000044861251143566327530000004327507791117225655_);}
	.st120{fill:none;stroke:#000000;stroke-width:0.8027;stroke-linecap:round;stroke-linejoin:round;stroke-miterlimit:10;}
	.st121{fill:none;stroke:#FFFFFF;stroke-width:2.99;stroke-linecap:round;stroke-linejoin:round;}
	.st122{fill:none;stroke:#FFFFFF;stroke-width:2.99;stroke-linecap:round;stroke-linejoin:round;stroke-dasharray:18.4657,18.4657;}
	.st123{fill:none;stroke:#000000;stroke-width:0.9784;stroke-linecap:round;stroke-linejoin:round;stroke-miterlimit:10;}
	.st124{clip-path:url(#XMLID_00000051343512268864772790000000343280783687416504_);}
	.st125{fill:none;stroke:#000000;stroke-width:0.682;stroke-linecap:round;stroke-linejoin:round;stroke-miterlimit:10;}
	.st126{fill:#AE3700;}
	.st127{fill:none;stroke:#FFFFFF;stroke-width:1.7082;stroke-linecap:round;stroke-linejoin:round;stroke-miterlimit:10;}
	.st128{fill:none;stroke:#000000;stroke-width:0.9976;stroke-linecap:round;stroke-linejoin:round;stroke-miterlimit:10;}
	.st129{fill:#528E72;}
	.st130{fill:#F0DBE0;}
	.st131{fill:#89331A;}
	.st132{fill:none;stroke:#CCDADC;stroke-linecap:round;stroke-linejoin:round;}
	.st133{opacity:0.45;fill:#F7E3C7;enable-background:new    ;}
	.st134{fill:#222222;}
	.st135{fill:#F47365;}
	.st136{fill:none;stroke:#222222;stroke-width:0.211;stroke-linecap:round;stroke-linejoin:round;}
	.st137{opacity:0.5;fill:#F43D4F;enable-background:new    ;}
	.st138{fill:#F43D4F;}
	.st139{fill:none;stroke:#FFF7EE;stroke-width:0.422;stroke-miterlimit:10;}
	.st140{fill:#FBB244;}
	.st141{fill:#FFF7EE;}
	.st142{opacity:0.22;}
	.st143{clip-path:url(#SVGID_00000011023902081781199760000000680725609117840806_);}
	.st144{fill:none;stroke:#FFFFFF;stroke-width:0.422;stroke-linecap:round;stroke-linejoin:round;}
	.st145{fill:none;stroke:#222222;stroke-width:2.166;stroke-linecap:round;stroke-linejoin:round;}
	.st146{fill:none;stroke:#222222;stroke-width:2.1655;stroke-linecap:round;stroke-linejoin:round;stroke-miterlimit:3.9991;}
	.st147{clip-path:url(#SVGID_00000014599787642810027860000009450303611990744458_);}
	.st148{fill:none;stroke:#222222;stroke-width:0.422;stroke-linecap:round;stroke-linejoin:round;}
	.st149{fill:#00454F;}
	.st150{fill:#B0B4B5;}
	.st151{fill-rule:evenodd;clip-rule:evenodd;fill:#00454F;}
	.st152{fill:#D2DADB;}
	.st153{fill:none;stroke:#FFFFFF;stroke-width:3.3017;stroke-miterlimit:10;}
	.st154{fill:#05454F;}
	.st155{fill:none;stroke:#707070;}
	.st156{fill:#F5F7F6;}
</style>
<g>
	<path class="st149" d="M59.392,98.096c-0.269,0-0.542-0.063-0.797-0.197l-28.679-14.98L2.551,97.884
		c-0.534,0.294-1.182,0.281-1.706-0.03C0.321,97.544,0,96.98,0,96.371V17.132c0-0.63,0.344-1.21,0.897-1.513L29.071,0.211
		c0.505-0.276,1.116-0.282,1.625-0.015l29.495,15.408c0.844,0.441,1.171,1.482,0.73,2.326c-0.44,0.845-1.484,1.172-2.326,0.73
		L29.917,3.679L3.448,18.154v75.309l25.623-14.012c0.505-0.276,1.116-0.282,1.625-0.015l29.495,15.407
		c0.844,0.441,1.171,1.482,0.73,2.326C60.614,97.758,60.014,98.095,59.392,98.096z"/>
	<path class="st149" d="M29.898,82.688c-0.952,0-1.724-0.772-1.724-1.724V49.048c0-0.952,0.772-1.724,1.724-1.724
		c0.952,0,1.724,0.772,1.724,1.724v31.916C31.622,81.916,30.85,82.688,29.898,82.688z"/>
	<path class="st149" d="M29.898,35.649c-0.952,0-1.724-0.772-1.724-1.724V1.724C28.174,0.772,28.946,0,29.898,0
		c0.952,0,1.724,0.772,1.724,1.724v32.201C31.622,34.877,30.85,35.649,29.898,35.649z"/>
	<path class="st149" d="M117.062,98.095c-0.284,0-0.569-0.07-0.827-0.211L88.869,82.919l-28.678,14.98
		c-0.535,0.279-1.176,0.259-1.691-0.053c-0.516-0.312-0.831-0.872-0.831-1.475V63.566c0-0.952,0.772-1.724,1.724-1.724
		c0.952,0,1.724,0.772,1.724,1.724v29.959L88.09,79.436c0.51-0.267,1.12-0.261,1.625,0.015l25.623,14.012V18.154L88.869,3.679
		L61.118,18.176V50.37c0,0.952-0.772,1.724-1.724,1.724c-0.952,0-1.724-0.772-1.724-1.724V17.132c0-0.642,0.357-1.231,0.926-1.528
		L88.09,0.196c0.51-0.267,1.12-0.261,1.625,0.015l28.174,15.408c0.553,0.302,0.897,0.882,0.897,1.513v79.239
		c0,0.609-0.321,1.172-0.845,1.483C117.671,98.014,117.367,98.095,117.062,98.095z"/>
	<path class="st149" d="M88.888,82.688c-0.952,0-1.724-0.772-1.724-1.724V55.373c0-0.952,0.772-1.724,1.724-1.724
		s1.724,0.772,1.724,1.724v25.591C90.612,81.916,89.84,82.688,88.888,82.688z"/>
	<path class="st149" d="M88.888,42.952c-0.952,0-1.724-0.772-1.724-1.724V1.724C87.164,0.772,87.936,0,88.888,0
		s1.724,0.772,1.724,1.724v39.504C90.612,42.18,89.84,42.952,88.888,42.952z"/>
	<path class="st149" d="M18.771,61.295c-3.36,0-6.095-2.734-6.095-6.094c0-3.36,2.734-6.094,6.095-6.094
		c3.36,0,6.094,2.733,6.094,6.094C24.865,58.56,22.131,61.295,18.771,61.295z M18.771,52.554c-1.459,0-2.647,1.187-2.647,2.646
		c0,1.459,1.187,2.647,2.647,2.647c1.459,0,2.646-1.187,2.646-2.647C21.417,53.741,20.23,52.554,18.771,52.554z"/>
	<path class="st149" d="M64.623,59.168c-1.177,0-2.365-0.051-3.562-0.152c-6.364-0.54-10.683-5.715-14.492-10.282
		c-3.686-4.418-6.868-8.233-11.063-7.804c-8.844,0.904-11.891,11.602-11.92,11.71c-0.253,0.917-1.201,1.455-2.12,1.204
		c-0.918-0.252-1.457-1.202-1.204-2.12c0.147-0.533,3.729-13.082,14.894-14.224c6.016-0.607,10.107,4.285,14.061,9.025
		c3.542,4.246,7.206,8.637,12.135,9.055c12.497,1.066,23.891-3.994,33.851-15.02c0.639-0.706,1.729-0.762,2.435-0.124
		c0.706,0.638,0.762,1.729,0.124,2.435C87.983,53.697,76.85,59.168,64.623,59.168z"/>
	<path class="st149" d="M99.439,44.332c-3.344,0-6.066-2.721-6.066-6.066s2.721-6.065,6.066-6.065c3.344,0,6.065,2.721,6.065,6.065
		S102.783,44.332,99.439,44.332z M99.439,35.649c-1.443,0-2.618,1.174-2.618,2.617c0,1.443,1.174,2.618,2.618,2.618
		s2.617-1.175,2.617-2.618C102.056,36.823,100.882,35.649,99.439,35.649z"/>
	<path class="st149" d="M8.765,37.259c-0.952,0-1.724-0.772-1.724-1.724V22.08c0-0.618,0.331-1.189,0.867-1.496l11.041-6.325
		c0.826-0.473,1.88-0.187,2.353,0.638c0.473,0.826,0.187,1.88-0.639,2.353l-10.174,5.829v12.456
		C10.489,36.487,9.718,37.259,8.765,37.259z"/>
	<path class="st149" d="M109.624,84.266c-0.3,0-0.601-0.079-0.87-0.236l-8.722-5.097c-0.822-0.48-1.099-1.536-0.618-2.358
		c0.482-0.82,1.539-1.098,2.359-0.618l6.127,3.581V67.793c0-0.952,0.772-1.724,1.724-1.724c0.952,0,1.724,0.772,1.724,1.724v14.75
		c0,0.618-0.33,1.188-0.866,1.495C110.216,84.19,109.92,84.266,109.624,84.266z"/>
	<path class="st149" d="M81.678,47.494c-0.952,0-1.724-0.772-1.724-1.724V30.359c0-0.952,0.772-1.724,1.724-1.724
		c0.952,0,1.724,0.772,1.724,1.724V45.77C83.402,46.722,82.63,47.494,81.678,47.494z"/>
	<path class="st149" d="M81.678,78.602c-0.952,0-1.724-0.772-1.724-1.724v-15.41c0-0.952,0.772-1.724,1.724-1.724
		c0.952,0,1.724,0.772,1.724,1.724v15.41C83.402,77.831,82.63,78.602,81.678,78.602z"/>
	<path class="st149" d="M36.136,62.071c-0.952,0-1.724-0.772-1.724-1.724V45.281c0-0.952,0.772-1.724,1.724-1.724
		s1.724,0.772,1.724,1.724v15.066C37.86,61.299,37.088,62.071,36.136,62.071z"/>
	<path class="st149" d="M36.136,33.521c-0.952,0-1.724-0.772-1.724-1.724V16.732c0-0.952,0.772-1.724,1.724-1.724
		s1.724,0.772,1.724,1.724v15.065C37.86,32.749,37.088,33.521,36.136,33.521z"/>
</g>
</svg>
