<?xml version="1.0" encoding="utf-8"?>
<!-- Generator: Adobe Illustrator 25.4.1, SVG Export Plug-In . SVG Version: 6.00 Build 0)  -->
<svg version="1.1" id="Layer_1" xmlns="http://www.w3.org/2000/svg" xmlns:xlink="http://www.w3.org/1999/xlink" x="0px" y="0px"
	 viewBox="0 0 71.399 110.186" style="enable-background:new 0 0 71.399 110.186;" xml:space="preserve">
<style type="text/css">
	.st0{fill:#EBF0F1;}
	.st1{fill:#DFE9F2;}
	.st2{fill:#A8B0B6;}
	.st3{clip-path:url(#SVGID_00000145758687627252109940000016794333436190544829_);}
	.st4{fill:#CCCCCC;}
	.st5{fill:#876441;}
	.st6{fill:#F3A48A;}
	.st7{fill:#CF5D43;}
	.st8{fill:#DD6D4E;}
	.st9{fill:#ABA97B;}
	.st10{fill:#E3E0A2;}
	.st11{fill:#303030;}
	.st12{fill:#EFEDE3;}
	.st13{fill:#353535;}
	.st14{fill:#9F714A;}
	.st15{fill:#775336;}
	.st16{fill:#412C19;}
	.st17{fill:#B5B573;}
	.st18{clip-path:url(#SVGID_00000053508460909929267100000012728321814955510941_);}
	.st19{fill:#3B9A64;}
	.st20{fill:#AC614E;}
	.st21{fill:#C1C57C;}
	.st22{clip-path:url(#SVGID_00000102522678770358203030000005727041056007891890_);}
	.st23{fill:#4CA66F;}
	.st24{fill:#FCF9EE;}
	.st25{fill:#F47F64;}
	.st26{fill:#668F95;}
	.st27{fill:#EBE6D5;}
	.st28{fill:#005D68;}
	.st29{fill:#FFC099;}
	.st30{fill:#003239;}
	.st31{fill:#DF8E7A;}
	.st32{fill:#B77B67;}
	.st33{fill:#68472F;}
	.st34{fill:#FBA983;}
	.st35{fill:#FFFFFF;}
	.st36{fill:#F88D61;}
	.st37{fill:#C79072;}
	.st38{fill:#573C28;}
	.st39{fill:#FFA16C;}
	.st40{fill:#F5F5F5;}
	.st41{fill:#E1E1E1;}
	.st42{fill:#ECECEC;}
	.st43{fill:#FAFAFA;}
	.st44{fill:#1A2E35;}
	.st45{fill:#375A64;}
	.st46{opacity:0.3;}
	.st47{fill:#498269;}
	.st48{fill:#946962;}
	.st49{fill:#6F4540;}
	.st50{fill:#CE4F41;}
	.st51{opacity:0.6;}
	.st52{fill:#305A46;}
	.st53{fill:#F7D858;}
	.st54{opacity:0.2;}
	.st55{opacity:0.4;}
	.st56{fill:#101010;}
	.st57{fill:#6AB792;}
	.st58{fill:#D25F3B;}
	.st59{fill:#E57E5B;}
	.st60{fill:none;stroke:#D25F3B;stroke-width:1.3008;stroke-linecap:round;stroke-linejoin:round;stroke-miterlimit:10;}
	.st61{fill:none;stroke:#498269;stroke-width:1.8047;stroke-linecap:round;stroke-linejoin:round;stroke-miterlimit:10;}
	.st62{fill:#39ACB2;}
	.st63{clip-path:url(#SVGID_00000163061361123184242090000004058050861240086963_);}
	.st64{fill:none;stroke:#305A46;stroke-width:3.1006;stroke-linecap:round;stroke-linejoin:round;stroke-miterlimit:10;}
	.st65{fill:#EC8A63;}
	.st66{fill:#FFB890;}
	.st67{fill:none;stroke:#EC8A63;stroke-width:2.028;stroke-linecap:round;stroke-linejoin:round;stroke-miterlimit:10;}
	.st68{opacity:0.26;fill:#FFFFFF;}
	.st69{fill:none;stroke:#FFFFFF;stroke-width:1.9299;stroke-linecap:round;stroke-linejoin:round;stroke-miterlimit:10;}
	.st70{fill:#DAF0FA;}
	.st71{fill:#FFBF9D;}
	.st72{fill:#FF9A6C;}
	.st73{fill:none;stroke:#44555B;stroke-miterlimit:10;}
	.st74{fill:#C78976;}
	.st75{fill:#BF654E;}
	.st76{fill:none;stroke:#44555B;stroke-width:0.05;stroke-miterlimit:10;}
	.st77{fill:none;stroke:#44555B;stroke-width:0.0469;stroke-miterlimit:10;}
	.st78{fill:#FF735D;}
	.st79{clip-path:url(#SVGID_00000173860349842782419540000011749420616515338135_);}
	.st80{fill:#FFDAD9;}
	.st81{fill:#DCDFE0;}
	.st82{fill:none;stroke:#B6E1F4;stroke-width:5.3697;stroke-linecap:round;stroke-linejoin:round;stroke-miterlimit:10;}
	.st83{fill:none;stroke:#B6E1F4;stroke-width:5.0288;stroke-miterlimit:10;}
	.st84{opacity:0.44;fill:#B6E1F4;}
	.st85{fill:#E07280;}
	.st86{fill:#7E5780;}
	.st87{opacity:0.22;fill:#7E5780;}
	.st88{fill:none;stroke:#FFD0C5;stroke-width:0.3194;stroke-miterlimit:10;}
	.st89{fill:none;stroke:#FFD0C5;stroke-width:0.3836;stroke-miterlimit:10;}
	.st90{fill:none;stroke:#401A49;stroke-width:1.5344;stroke-linecap:round;stroke-linejoin:round;stroke-miterlimit:10;}
	.st91{fill:#401A49;}
	.st92{fill:none;stroke:#161C3E;stroke-width:1.1265;stroke-linecap:round;stroke-linejoin:round;stroke-miterlimit:10;}
	.st93{opacity:0.09;fill:#E07280;}
	.st94{fill:none;stroke:#401A49;stroke-width:0.9884;stroke-linecap:round;stroke-linejoin:round;stroke-miterlimit:10;}
	.st95{fill:none;stroke:#401A49;stroke-width:0.7672;stroke-linecap:round;stroke-linejoin:round;stroke-miterlimit:10;}
	.st96{fill:#994975;}
	.st97{fill:#FF8A9A;}
	.st98{fill:none;stroke:#161C3E;stroke-width:1.0685;stroke-linecap:round;stroke-linejoin:round;stroke-miterlimit:10;}
	.st99{opacity:0.35;fill:#EF5D6B;}
	.st100{fill:none;stroke:#401A49;stroke-width:0.9376;stroke-linecap:round;stroke-linejoin:round;stroke-miterlimit:10;}
	.st101{fill:#FFF5EB;}
	.st102{fill:#F2B2D6;}
	.st103{fill:none;stroke:#FFF5EB;stroke-width:0.8381;stroke-linecap:round;stroke-linejoin:round;stroke-miterlimit:10;}
	.st104{opacity:0.22;fill:#401A49;}
	.st105{fill:none;stroke:#FFDAD9;stroke-width:0.8381;stroke-miterlimit:10;}
	.st106{fill:none;stroke:#FFDAD9;stroke-width:0.8381;stroke-linecap:round;stroke-linejoin:round;stroke-miterlimit:10;}
	.st107{fill:none;stroke:#401A49;stroke-width:1.6763;stroke-linecap:round;stroke-linejoin:round;stroke-miterlimit:10;}
	.st108{fill:#FFD0C5;}
	.st109{fill:#FDB22C;}
	.st110{fill:#1A8B91;}
	.st111{fill:none;stroke:#000000;stroke-width:0.8147;stroke-linecap:round;stroke-linejoin:round;stroke-miterlimit:10;}
	.st112{fill:#ECA079;}
	.st113{fill:#FDF1F5;}
	.st114{fill:#E6C6CE;}
	.st115{fill:#862904;}
	.st116{fill:#DC845E;}
	.st117{fill:none;stroke:#000000;stroke-width:0.848;stroke-linecap:round;stroke-linejoin:round;stroke-miterlimit:10;}
	.st118{clip-path:url(#XMLID_00000091003754118674724940000002959412823655623328_);}
	.st119{clip-path:url(#XMLID_00000105396308619898438890000013577146957630567297_);}
	.st120{fill:none;stroke:#000000;stroke-width:0.8027;stroke-linecap:round;stroke-linejoin:round;stroke-miterlimit:10;}
	.st121{fill:none;stroke:#FFFFFF;stroke-width:2.99;stroke-linecap:round;stroke-linejoin:round;}
	.st122{fill:none;stroke:#FFFFFF;stroke-width:2.99;stroke-linecap:round;stroke-linejoin:round;stroke-dasharray:18.4657,18.4657;}
	.st123{fill:none;stroke:#000000;stroke-width:0.9784;stroke-linecap:round;stroke-linejoin:round;stroke-miterlimit:10;}
	.st124{clip-path:url(#XMLID_00000183238483616639445220000015864960252488965792_);}
	.st125{fill:none;stroke:#000000;stroke-width:0.682;stroke-linecap:round;stroke-linejoin:round;stroke-miterlimit:10;}
	.st126{fill:#AE3700;}
	.st127{fill:none;stroke:#FFFFFF;stroke-width:1.7082;stroke-linecap:round;stroke-linejoin:round;stroke-miterlimit:10;}
	.st128{fill:none;stroke:#000000;stroke-width:0.9976;stroke-linecap:round;stroke-linejoin:round;stroke-miterlimit:10;}
	.st129{fill:#528E72;}
	.st130{fill:#F0DBE0;}
	.st131{fill:#89331A;}
	.st132{fill:none;stroke:#CCDADC;stroke-linecap:round;stroke-linejoin:round;}
	.st133{opacity:0.45;fill:#F7E3C7;enable-background:new    ;}
	.st134{fill:#222222;}
	.st135{fill:#F47365;}
	.st136{fill:none;stroke:#222222;stroke-width:0.211;stroke-linecap:round;stroke-linejoin:round;}
	.st137{opacity:0.5;fill:#F43D4F;enable-background:new    ;}
	.st138{fill:#F43D4F;}
	.st139{fill:none;stroke:#FFF7EE;stroke-width:0.422;stroke-miterlimit:10;}
	.st140{fill:#FBB244;}
	.st141{fill:#FFF7EE;}
	.st142{opacity:0.22;}
	.st143{clip-path:url(#SVGID_00000091705996687597960570000000683032195805843858_);}
	.st144{fill:none;stroke:#FFFFFF;stroke-width:0.422;stroke-linecap:round;stroke-linejoin:round;}
	.st145{fill:none;stroke:#222222;stroke-width:2.166;stroke-linecap:round;stroke-linejoin:round;}
	.st146{fill:none;stroke:#222222;stroke-width:2.1655;stroke-linecap:round;stroke-linejoin:round;stroke-miterlimit:3.9991;}
	.st147{clip-path:url(#SVGID_00000139987324448790657070000017452070718653257144_);}
	.st148{fill:none;stroke:#222222;stroke-width:0.422;stroke-linecap:round;stroke-linejoin:round;}
	.st149{fill:#00454F;}
	.st150{fill:#B0B4B5;}
	.st151{fill-rule:evenodd;clip-rule:evenodd;fill:#00454F;}
	.st152{fill:#D2DADB;}
	.st153{fill:none;stroke:#FFFFFF;stroke-width:3.3017;stroke-miterlimit:10;}
	.st154{fill:#05454F;}
	.st155{fill:none;stroke:#707070;}
	.st156{fill:#F5F7F6;}
</style>
<g>
	<path class="st149" d="M50.537,110.186H20.821c-0.952,0-1.724-0.772-1.724-1.724V95.895c0-3.108,2.529-5.637,5.637-5.637h21.889
		c3.109,0,5.637,2.529,5.637,5.637v12.567C52.261,109.414,51.489,110.186,50.537,110.186z M22.545,106.738h26.268V95.895
		c0-1.207-0.982-2.189-2.189-2.189H24.734c-1.208,0-2.189,0.982-2.189,2.189V106.738z"/>
	<path class="st149" d="M61.016,71.182c-0.952,0-1.724-0.772-1.724-1.724V36.884c0-2.349-1.911-4.261-4.261-4.261h-3.923
		c-1.776,0-3.22-1.444-3.22-3.22c0-3.518-2.862-6.38-6.38-6.38H29.85c-3.518,0-6.38,2.862-6.38,6.38c0,1.776-1.445,3.22-3.22,3.22
		h-3.923c-2.35,0-4.261,1.911-4.261,4.261v32.574c0,0.952-0.772,1.724-1.724,1.724c-0.952,0-1.724-0.772-1.724-1.724V36.884
		c0-4.251,3.458-7.709,7.709-7.709h3.698c0.121-5.315,4.482-9.6,9.825-9.6h11.658c5.343,0,9.704,4.286,9.825,9.6h3.698
		c4.251,0,7.709,3.458,7.709,7.709v32.574C62.74,70.411,61.968,71.182,61.016,71.182z"/>
	<path class="st149" d="M55.031,100.552h-4.494c-0.952,0-1.724-0.772-1.724-1.724v-2.933c0-1.207-0.982-2.189-2.189-2.189H24.734
		c-1.208,0-2.189,0.982-2.189,2.189v2.933c0,0.952-0.772,1.724-1.724,1.724h-4.494c-4.251,0-7.709-3.458-7.709-7.709v-2.658
		c0-0.952,0.772-1.724,1.724-1.724c0.952,0,1.724,0.772,1.724,1.724v2.658c0,2.349,1.911,4.261,4.261,4.261h2.77v-1.209
		c0-3.108,2.529-5.637,5.637-5.637h21.889c3.109,0,5.637,2.529,5.637,5.637v1.209h2.771c2.349,0,4.261-1.911,4.261-4.261v-2.658
		c0-0.952,0.772-1.724,1.724-1.724c0.952,0,1.724,0.772,1.724,1.724v2.658C62.74,97.094,59.282,100.552,55.031,100.552z"/>
	<path class="st149" d="M30.481,85.975c-0.359,0-0.721-0.112-1.031-0.343c-2.878-2.152-7.435-7.954-4.082-14.516
		c0.42-0.82,0.818-1.588,1.195-2.313c2.475-4.767,3.838-7.393,3.268-9.845c-0.15-0.645,0.082-1.319,0.598-1.734
		c0.517-0.414,1.224-0.497,1.822-0.213c1.463,0.697,14.318,7.019,14.946,14.249c0.602,6.919-3.201,13.575-3.364,13.855
		c-0.476,0.823-1.528,1.104-2.354,0.628c-0.824-0.475-1.106-1.53-0.631-2.354c0.034-0.059,3.42-6.014,2.914-11.829
		c-0.29-3.34-5.815-7.49-10.446-10.105c-0.372,2.54-1.766,5.224-3.694,8.937c-0.373,0.718-0.768,1.481-1.184,2.294
		c-2.884,5.642,2.83,10.002,3.076,10.185c0.762,0.57,0.919,1.651,0.349,2.413C31.525,85.736,31.006,85.975,30.481,85.975z"/>
	<path class="st149" d="M37.023,81.889c-0.324,0-0.651-0.091-0.943-0.281c-0.796-0.521-1.019-1.589-0.498-2.386
		c3.191-4.879-0.796-8.298-0.967-8.441c-0.731-0.611-0.828-1.698-0.218-2.428c0.611-0.731,1.698-0.829,2.428-0.218
		c2.265,1.893,5.524,7.041,1.642,12.975C38.136,81.614,37.585,81.889,37.023,81.889z"/>
	<path class="st149" d="M53.457,64.542c-0.952,0-1.724-0.772-1.724-1.724c0-8.851-7.202-16.053-16.054-16.053
		c-8.852,0-16.054,7.202-16.054,16.053c0,0.952-0.772,1.724-1.724,1.724c-0.952,0-1.724-0.772-1.724-1.724
		c0-10.753,8.748-19.501,19.502-19.501c10.753,0,19.502,8.748,19.502,19.501C55.181,63.77,54.409,64.542,53.457,64.542z"/>
	<path class="st149" d="M10.342,81.889H7.709C3.458,81.889,0,78.43,0,74.18V14.566C0,8.666,4.8,3.865,10.701,3.865h7.2
		c0.952,0,1.724,0.772,1.724,1.724c0,0.952-0.772,1.724-1.724,1.724h-7.2c-3.999,0-7.253,3.254-7.253,7.253V74.18
		c0,2.35,1.911,4.261,4.261,4.261h2.633c0.952,0,1.724,0.772,1.724,1.724C12.066,81.117,11.294,81.889,10.342,81.889z"/>
	<path class="st149" d="M63.69,81.889h-2.674c-0.952,0-1.724-0.772-1.724-1.724c0-0.952,0.772-1.724,1.724-1.724h2.674
		c2.35,0,4.261-1.911,4.261-4.261V14.566c0-4-3.253-7.253-7.253-7.253h-7.201c-0.952,0-1.724-0.772-1.724-1.724
		c0-0.952,0.772-1.724,1.724-1.724h7.201c5.9,0,10.701,4.801,10.701,10.701V74.18C71.399,78.43,67.941,81.889,63.69,81.889z"/>
	<path class="st149" d="M52.001,12.051H19.397c-1.776,0-3.22-1.444-3.22-3.22V3.22c0-1.775,1.445-3.22,3.22-3.22h32.604
		c1.776,0,3.22,1.444,3.22,3.22v5.611C55.222,10.606,53.777,12.051,52.001,12.051z M19.625,8.603h32.149V3.448H19.625V8.603z"/>
	<path class="st149" d="M17.185,86.408h-2.323c-3.443,0-6.243-2.801-6.243-6.243c0-3.443,2.801-6.244,6.243-6.244h2.323
		c0.952,0,1.724,0.772,1.724,1.724v9.039C18.909,85.636,18.137,86.408,17.185,86.408z M14.861,77.368
		c-1.541,0-2.795,1.255-2.795,2.796c0,1.541,1.254,2.795,2.795,2.795h0.599v-5.592H14.861z"/>
	<path class="st149" d="M56.497,86.409h-2.323c-0.952,0-1.724-0.772-1.724-1.724v-9.039c0-0.952,0.772-1.724,1.724-1.724h2.323
		c3.442,0,6.243,2.801,6.243,6.243C62.74,83.608,59.939,86.409,56.497,86.409z M55.898,82.961h0.599
		c1.541,0,2.795-1.255,2.795-2.796c0-1.542-1.254-2.795-2.795-2.795h-0.599V82.961z"/>
	<path class="st149" d="M69.675,110.186H1.724c-0.952,0-1.724-0.772-1.724-1.724s0.772-1.724,1.724-1.724h67.951
		c0.952,0,1.724,0.772,1.724,1.724S70.627,110.186,69.675,110.186z"/>
	<path class="st149" d="M43.181,103.817h-22.36c-0.952,0-1.724-0.772-1.724-1.724c0-0.952,0.772-1.724,1.724-1.724h22.36
		c0.952,0,1.724,0.772,1.724,1.724C44.905,103.045,44.133,103.817,43.181,103.817z"/>
</g>
</svg>
