<?xml version="1.0" encoding="utf-8"?>
<!-- Generator: Adobe Illustrator 25.4.1, SVG Export Plug-In . SVG Version: 6.00 Build 0)  -->
<svg version="1.1" id="Layer_1" xmlns="http://www.w3.org/2000/svg" xmlns:xlink="http://www.w3.org/1999/xlink" x="0px" y="0px"
	 viewBox="0 0 413.826 468.551" style="enable-background:new 0 0 413.826 468.551;" xml:space="preserve">
<style type="text/css">
	.st0{fill:#EBF0F1;}
	.st1{fill:#DFE9F2;}
	.st2{fill:#A8B0B6;}
	.st3{clip-path:url(#SVGID_00000062909460323657754070000013657525266653241746_);}
	.st4{fill:#CCCCCC;}
	.st5{fill:#876441;}
	.st6{fill:#F3A48A;}
	.st7{fill:#CF5D43;}
	.st8{fill:#DD6D4E;}
	.st9{fill:#ABA97B;}
	.st10{fill:#E3E0A2;}
	.st11{fill:#303030;}
	.st12{fill:#EFEDE3;}
	.st13{fill:#353535;}
	.st14{fill:#9F714A;}
	.st15{fill:#775336;}
	.st16{fill:#412C19;}
	.st17{fill:#B5B573;}
	.st18{clip-path:url(#SVGID_00000036215669291463707250000007886939608482649527_);}
	.st19{fill:#3B9A64;}
	.st20{fill:#AC614E;}
	.st21{fill:#C1C57C;}
	.st22{clip-path:url(#SVGID_00000006708251739958642370000000366006915690085529_);}
	.st23{fill:#4CA66F;}
	.st24{fill:#FCF9EE;}
	.st25{fill:#F47F64;}
	.st26{fill:#668F95;}
	.st27{fill:#EBE6D5;}
	.st28{fill:#005D68;}
	.st29{fill:#FFC099;}
	.st30{fill:#003239;}
	.st31{fill:#DF8E7A;}
	.st32{fill:#B77B67;}
	.st33{fill:#68472F;}
	.st34{fill:#FBA983;}
	.st35{fill:#FFFFFF;}
	.st36{fill:#F88D61;}
	.st37{fill:#C79072;}
	.st38{fill:#573C28;}
	.st39{fill:#FFA16C;}
	.st40{fill:#F5F5F5;}
	.st41{fill:#E1E1E1;}
	.st42{fill:#ECECEC;}
	.st43{fill:#FAFAFA;}
	.st44{fill:#1A2E35;}
	.st45{fill:#375A64;}
	.st46{opacity:0.3;}
	.st47{fill:#498269;}
	.st48{fill:#946962;}
	.st49{fill:#6F4540;}
	.st50{fill:#CE4F41;}
	.st51{opacity:0.6;}
	.st52{fill:#305A46;}
	.st53{fill:#F7D858;}
	.st54{opacity:0.2;}
	.st55{opacity:0.4;}
	.st56{fill:#101010;}
	.st57{fill:#6AB792;}
	.st58{fill:#D25F3B;}
	.st59{fill:#E57E5B;}
	.st60{fill:none;stroke:#D25F3B;stroke-width:1.3008;stroke-linecap:round;stroke-linejoin:round;stroke-miterlimit:10;}
	.st61{fill:none;stroke:#498269;stroke-width:1.8047;stroke-linecap:round;stroke-linejoin:round;stroke-miterlimit:10;}
	.st62{fill:#39ACB2;}
	.st63{clip-path:url(#SVGID_00000168799385771903573660000005141778228496222366_);}
	.st64{fill:none;stroke:#305A46;stroke-width:3.1006;stroke-linecap:round;stroke-linejoin:round;stroke-miterlimit:10;}
	.st65{fill:#EC8A63;}
	.st66{fill:#FFB890;}
	.st67{fill:none;stroke:#EC8A63;stroke-width:2.028;stroke-linecap:round;stroke-linejoin:round;stroke-miterlimit:10;}
	.st68{opacity:0.26;fill:#FFFFFF;}
	.st69{fill:none;stroke:#FFFFFF;stroke-width:1.9299;stroke-linecap:round;stroke-linejoin:round;stroke-miterlimit:10;}
	.st70{fill:#DAF0FA;}
	.st71{fill:#FFBF9D;}
	.st72{fill:#FF9A6C;}
	.st73{fill:none;stroke:#44555B;stroke-miterlimit:10;}
	.st74{fill:#C78976;}
	.st75{fill:#BF654E;}
	.st76{fill:none;stroke:#44555B;stroke-width:0.05;stroke-miterlimit:10;}
	.st77{fill:none;stroke:#44555B;stroke-width:0.0469;stroke-miterlimit:10;}
	.st78{fill:#FF735D;}
	.st79{clip-path:url(#SVGID_00000047037097368327863660000018017330579701280134_);}
	.st80{fill:#FFDAD9;}
	.st81{fill:#DCDFE0;}
	.st82{fill:none;stroke:#B6E1F4;stroke-width:5.3697;stroke-linecap:round;stroke-linejoin:round;stroke-miterlimit:10;}
	.st83{fill:none;stroke:#B6E1F4;stroke-width:5.0288;stroke-miterlimit:10;}
	.st84{opacity:0.44;fill:#B6E1F4;}
	.st85{fill:#E07280;}
	.st86{fill:#7E5780;}
	.st87{opacity:0.22;fill:#7E5780;}
	.st88{fill:none;stroke:#FFD0C5;stroke-width:0.3194;stroke-miterlimit:10;}
	.st89{fill:none;stroke:#FFD0C5;stroke-width:0.3836;stroke-miterlimit:10;}
	.st90{fill:none;stroke:#401A49;stroke-width:1.5344;stroke-linecap:round;stroke-linejoin:round;stroke-miterlimit:10;}
	.st91{fill:#401A49;}
	.st92{fill:none;stroke:#161C3E;stroke-width:1.1265;stroke-linecap:round;stroke-linejoin:round;stroke-miterlimit:10;}
	.st93{opacity:0.09;fill:#E07280;}
	.st94{fill:none;stroke:#401A49;stroke-width:0.9884;stroke-linecap:round;stroke-linejoin:round;stroke-miterlimit:10;}
	.st95{fill:none;stroke:#401A49;stroke-width:0.7672;stroke-linecap:round;stroke-linejoin:round;stroke-miterlimit:10;}
	.st96{fill:#994975;}
	.st97{fill:#FF8A9A;}
	.st98{fill:none;stroke:#161C3E;stroke-width:1.0685;stroke-linecap:round;stroke-linejoin:round;stroke-miterlimit:10;}
	.st99{opacity:0.35;fill:#EF5D6B;}
	.st100{fill:none;stroke:#401A49;stroke-width:0.9376;stroke-linecap:round;stroke-linejoin:round;stroke-miterlimit:10;}
	.st101{fill:#FFF5EB;}
	.st102{fill:#F2B2D6;}
	.st103{fill:none;stroke:#FFF5EB;stroke-width:0.8381;stroke-linecap:round;stroke-linejoin:round;stroke-miterlimit:10;}
	.st104{opacity:0.22;fill:#401A49;}
	.st105{fill:none;stroke:#FFDAD9;stroke-width:0.8381;stroke-miterlimit:10;}
	.st106{fill:none;stroke:#FFDAD9;stroke-width:0.8381;stroke-linecap:round;stroke-linejoin:round;stroke-miterlimit:10;}
	.st107{fill:none;stroke:#401A49;stroke-width:1.6763;stroke-linecap:round;stroke-linejoin:round;stroke-miterlimit:10;}
	.st108{fill:#FFD0C5;}
	.st109{fill:#FDB22C;}
	.st110{fill:#1A8B91;}
	.st111{fill:none;stroke:#000000;stroke-width:0.8147;stroke-linecap:round;stroke-linejoin:round;stroke-miterlimit:10;}
	.st112{fill:#ECA079;}
	.st113{fill:#FDF1F5;}
	.st114{fill:#E6C6CE;}
	.st115{fill:#862904;}
	.st116{fill:#DC845E;}
	.st117{fill:none;stroke:#000000;stroke-width:0.848;stroke-linecap:round;stroke-linejoin:round;stroke-miterlimit:10;}
	.st118{clip-path:url(#XMLID_00000016777562979374842610000010361890245811539113_);}
	.st119{clip-path:url(#XMLID_00000006692751914008614630000003423348706706317220_);}
	.st120{fill:none;stroke:#000000;stroke-width:0.8027;stroke-linecap:round;stroke-linejoin:round;stroke-miterlimit:10;}
	.st121{fill:none;stroke:#FFFFFF;stroke-width:2.99;stroke-linecap:round;stroke-linejoin:round;}
	.st122{fill:none;stroke:#FFFFFF;stroke-width:2.99;stroke-linecap:round;stroke-linejoin:round;stroke-dasharray:18.4657,18.4657;}
	.st123{fill:none;stroke:#000000;stroke-width:0.9784;stroke-linecap:round;stroke-linejoin:round;stroke-miterlimit:10;}
	.st124{clip-path:url(#XMLID_00000077316552487757910140000008420831770595384727_);}
	.st125{fill:none;stroke:#000000;stroke-width:0.682;stroke-linecap:round;stroke-linejoin:round;stroke-miterlimit:10;}
	.st126{fill:#AE3700;}
	.st127{fill:none;stroke:#FFFFFF;stroke-width:1.7082;stroke-linecap:round;stroke-linejoin:round;stroke-miterlimit:10;}
	.st128{fill:none;stroke:#000000;stroke-width:0.9976;stroke-linecap:round;stroke-linejoin:round;stroke-miterlimit:10;}
	.st129{fill:#528E72;}
	.st130{fill:#F0DBE0;}
	.st131{fill:#89331A;}
	.st132{fill:none;stroke:#CCDADC;stroke-linecap:round;stroke-linejoin:round;}
	.st133{opacity:0.45;fill:#F7E3C7;enable-background:new    ;}
	.st134{fill:#222222;}
	.st135{fill:#F47365;}
	.st136{fill:none;stroke:#222222;stroke-width:0.211;stroke-linecap:round;stroke-linejoin:round;}
	.st137{opacity:0.5;fill:#F43D4F;enable-background:new    ;}
	.st138{fill:#F43D4F;}
	.st139{fill:none;stroke:#FFF7EE;stroke-width:0.422;stroke-miterlimit:10;}
	.st140{fill:#FBB244;}
	.st141{fill:#FFF7EE;}
	.st142{opacity:0.22;}
	.st143{clip-path:url(#SVGID_00000148635370196097544870000006533903333782423970_);}
	.st144{fill:none;stroke:#FFFFFF;stroke-width:0.422;stroke-linecap:round;stroke-linejoin:round;}
	.st145{fill:none;stroke:#222222;stroke-width:2.166;stroke-linecap:round;stroke-linejoin:round;}
	.st146{fill:none;stroke:#222222;stroke-width:2.1655;stroke-linecap:round;stroke-linejoin:round;stroke-miterlimit:3.9991;}
	.st147{clip-path:url(#SVGID_00000167388979143324968500000013650833450647446708_);}
	.st148{fill:none;stroke:#222222;stroke-width:0.422;stroke-linecap:round;stroke-linejoin:round;}
	.st149{fill:#00454F;}
	.st150{fill:#B0B4B5;}
	.st151{fill-rule:evenodd;clip-rule:evenodd;fill:#00454F;}
	.st152{fill:#D2DADB;}
	.st153{fill:none;stroke:#FFFFFF;stroke-width:3.3017;stroke-miterlimit:10;}
	.st154{fill:#05454F;}
	.st155{fill:none;stroke:#707070;}
	.st156{fill:#F5F7F6;}
</style>
<g>
	<g>
		<path class="st0" d="M39.431,468.551h333.816l0,0c0-96.527-74.727-174.778-166.908-174.778h0
			C114.158,293.773,39.431,372.024,39.431,468.551L39.431,468.551z"/>
		<g>
			<path class="st109" d="M90.65,22.07c2.867,11.013-3.737,22.265-14.751,25.132c-11.013,2.867-22.265-3.737-25.132-14.751
				C47.901,21.438,54.505,10.187,65.518,7.32C76.531,4.453,87.784,11.057,90.65,22.07z"/>
			<g>
				<g>
					<path class="st35" d="M57.627,138.389H4.373l0,0c0-15.399,11.922-27.883,26.627-27.883l0,0
						C45.706,110.506,57.627,122.989,57.627,138.389L57.627,138.389z"/>
					<path class="st35" d="M75.764,138.389H49.137l0,0c0-7.7,5.961-13.941,13.314-13.941l0,0
						C69.803,124.447,75.764,130.689,75.764,138.389L75.764,138.389z"/>
				</g>
			</g>
			<g>
				<g>
					
						<ellipse transform="matrix(0.7071 -0.7071 0.7071 0.7071 49.7108 252.3027)" class="st110" cx="329.412" cy="66.145" rx="34.188" ry="34.188"/>
					<polygon class="st110" points="359.441,82.491 329.412,130.308 299.132,82.027 					"/>
				</g>
				<path class="st35" d="M313.574,65.575c0,8.762,7.103,15.864,15.865,15.864c8.762,0,15.865-7.103,15.865-15.864
					c0-8.762-7.103-15.865-15.865-15.865C320.676,49.71,313.574,56.813,313.574,65.575z"/>
			</g>
		</g>
	</g>
	<g>
		<g>
			<g>
				<path class="st47" d="M239.772,293.196l42.96,174.201l-62.959,0.309L189.621,364.87l-9.301,102.837H122.96
					c0,0-9.992-136.626,7.6-179.427L239.772,293.196z"/>
				<line class="st111" x1="189.621" y1="364.87" x2="213.564" y2="358.189"/>
			</g>
			<g>
				<g>
					<g>
						<g>
							<path class="st35" d="M215.871,133.161c0,0,18.356,3.503,27.575,10.496l2.725,165.187
								c-58.958,35.559-126.366,1.038-126.366,1.038l18.285-165.371c0,0,2.387-9.322,28.008-11.317L215.871,133.161z"/>
							<path class="st112" d="M166.098,133.194c0,0,21.146-4.669,49.772-0.033c0,0,5.171,19.471-17.819,20.189
								C173.152,154.126,166.098,133.194,166.098,133.194z"/>
						</g>
					</g>
					<path class="st35" d="M151.986,135.499c0,0-48.848,8.085-58.165,60.167l58.757,49.597l8.873-68.016L151.986,135.499z"/>
					<path class="st35" d="M233.711,138.426c0,0,33.511,8.705,48.321,51.954l-62.963,34.11L233.711,138.426z"/>
				</g>
				<g>
					<g>
						<polygon class="st113" points="82.955,171.494 87.501,314.383 135.165,328.96 143.988,184.322 						"/>
						<polygon class="st114" points="143.988,184.322 206.783,164.904 193.264,307.602 135.165,328.96 						"/>
						<polygon class="st113" points="206.783,164.904 269.355,179.133 254.116,322.629 193.264,307.602 						"/>
						<polygon class="st114" points="269.355,179.133 327.268,155.798 299.684,296.486 254.116,322.629 						"/>
					</g>
					<path class="st112" d="M84.943,232.991c0,0-16.87,16.284-8.443,34.842c4.353,9.585,14.856,14.419,26.973,11.431
						c8.939-2.204,10.1-6.922,9.898-16.968c-0.415-20.615-28.282-22.045-28.282-22.045L84.943,232.991z"/>
					<path class="st112" d="M314.694,219.932c0,0,13.779,19.713,6.103,38.482c-3.965,9.694-14.274,17.829-22.123,13.29
						c-5.212-3.014-6.247-8.811-6.449-18.857c-0.415-20.615,20.116-20.914,20.116-20.914L314.694,219.932z"/>
				</g>
			</g>
			<g>
				<g>
					<path class="st115" d="M237.254,38.061c0,0,12.892,13.874-3.711,33.294l-14.716-39.399L237.254,38.061z"/>
					<g>
						<path class="st116" d="M216.139,77.966c-0.254,6.689,4.972,11.279,11.661,11.533c6.689,0.254,12.338-6.423,12.592-13.112
							c0.254-6.689-4.994-9.818-11.682-10.072C222.021,66.061,216.393,71.277,216.139,77.966z"/>
					</g>
					<polygon class="st112" points="185.53,84.464 175.668,142.63 205.586,145.682 208.472,94.944 					"/>
					<polygon class="st116" points="206.71,129.088 182.367,97.649 208.121,101.755 					"/>
					<path class="st112" d="M215.01,20.808c0,0,26.446,2.975,21.666,37.648s-9.614,43.606-24.14,49.818
						c-13.054,5.583-28.622-1.562-36.543-17.099c-3.111-6.102-5.097-15.058-5.074-21.907l-1.348-9.263
						C169.57,60.004,162.246,13.885,215.01,20.808z"/>
					<g>
						<polyline class="st117" points="214.913,76.935 217.447,85.587 212.754,87.719 						"/>
						<g>
							<g>
								<defs>
									<path id="XMLID_24_" d="M205.101,73.488c0,0,0.32-4.818-7.96-4.768c-7.433,0.045-8.557,3.666-8.557,3.666
										s0.521,6.484,8.607,7.248C205.278,80.397,205.101,73.488,205.101,73.488z"/>
								</defs>
								<use xlink:href="#XMLID_24_"  style="overflow:visible;fill:#FFFFFF;"/>
								<clipPath id="XMLID_00000041287571897507502610000016274804687487971712_">
									<use xlink:href="#XMLID_24_"  style="overflow:visible;"/>
								</clipPath>
								<path style="clip-path:url(#XMLID_00000041287571897507502610000016274804687487971712_);" d="M192.86,73.304
									c-0.237,3.42,1.869,6.347,4.704,6.536c2.835,0.189,5.325-2.43,5.562-5.85c0.237-3.42-1.869-6.347-4.704-6.536
									C195.588,67.264,193.097,69.883,192.86,73.304z"/>
							</g>
							<g>
								<path d="M204.65,72.482c-0.379-0.454-0.994-0.977-1.579-1.386c-0.605-0.42-1.258-0.785-1.943-1.085
									c-1.363-0.597-2.875-0.991-4.372-1.094c-1.501-0.099-3.015,0.166-4.4,0.776c-1.361,0.632-2.63,1.626-3.498,2.851
									l-0.019,0.027c-0.101,0.141-0.296,0.175-0.438,0.075c-0.135-0.096-0.171-0.28-0.087-0.42c0.882-1.45,2.14-2.574,3.609-3.398
									c1.483-0.787,3.176-1.208,4.866-1.215c1.693,0.003,3.346,0.294,4.952,0.857c0.8,0.281,1.578,0.64,2.319,1.076
									c0.75,0.459,1.419,0.907,2.125,1.625c0.391,0.398,0.386,1.038-0.012,1.429c-0.398,0.391-1.038,0.386-1.429-0.012
									c-0.019-0.019-0.037-0.039-0.054-0.059L204.65,72.482z"/>
							</g>
						</g>
						<g>
							<g>
								<defs>
									<path id="XMLID_21_" d="M220.247,74.713c0,0,0.328-4.687,5.95-3.718c5.047,0.87,5.4,4.49,5.4,4.49
										s-1.016,5.613-6.598,5.451C219.417,80.774,220.247,74.713,220.247,74.713z"/>
								</defs>
								<use xlink:href="#XMLID_21_"  style="overflow:visible;fill:#FFFFFF;"/>
								<clipPath id="XMLID_00000011719767477948891270000011276747164660051585_">
									<use xlink:href="#XMLID_21_"  style="overflow:visible;"/>
								</clipPath>
								<path style="clip-path:url(#XMLID_00000011719767477948891270000011276747164660051585_);" d="M229.663,76.009
									c-0.227,3.328-2.103,5.911-4.191,5.769c-2.088-0.142-3.597-2.955-3.371-6.284c0.227-3.328,2.103-5.911,4.191-5.769
									C228.38,69.867,229.889,72.681,229.663,76.009z"/>
							</g>
							<g>
								<path d="M219.575,72.56c0.988-1.045,2.094-1.706,3.353-2.149c1.253-0.419,2.575-0.551,3.883-0.299
									c1.312,0.25,2.476,1.019,3.299,1.986c0.829,0.978,1.395,2.102,1.734,3.318c0.038,0.137-0.042,0.279-0.179,0.317
									c-0.13,0.036-0.265-0.034-0.311-0.16l-0.007-0.02c-0.388-1.079-1.016-2.119-1.814-2.922c-0.802-0.804-1.816-1.355-2.9-1.478
									c-1.075-0.132-2.227,0.083-3.222,0.516c-0.989,0.422-1.941,1.154-2.546,1.918l-0.042,0.052
									c-0.284,0.358-0.803,0.418-1.161,0.134c-0.358-0.283-0.418-0.803-0.134-1.161C219.543,72.596,219.56,72.577,219.575,72.56z"
									/>
							</g>
						</g>
						<path class="st115" d="M192.59,61.916l13.611-2.558c1.784-0.448,2.845-2.282,2.344-4.052l0,0
							c-0.452-1.599-2.034-2.602-3.673-2.329l-13.871,1.31c-2.337,0.388-3.791,2.753-3.082,5.014l0,0
							C188.537,61.272,190.586,62.419,192.59,61.916z"/>
						<path class="st115" d="M230.329,64.591l-8.167-4.374c-1.418-0.708-1.97-2.448-1.22-3.845l0,0
							c0.678-1.261,2.194-1.811,3.523-1.278l8.618,3.372c1.894,0.76,2.679,3.021,1.662,4.791l0,0
							C233.859,64.802,231.922,65.387,230.329,64.591z"/>
						<path class="st117" d="M199.251,89.44c0,0,2.804,5.086,14.186,4.239"/>
					</g>
					<path class="st115" d="M179.539,25.236c0.282-0.219,8.225,13.79-3.824,25.284l0.884,19.355l-4.515,1.481l-6.313-12.41
						l1.862-23.302L179.539,25.236z"/>
					<path class="st115" d="M173.156,21.425c0,0-8.865,4.343-15.201,21.183c-7.8,20.73,11.912,37.194,11.912,37.194L173.156,21.425z
						"/>
					<g>
						<path class="st112" d="M177.377,78.495c-1.952,6.402-5.306,8.631-13.739,6.211c-6.434-1.846-9.552-10.111-7.601-16.514
							c1.952-6.403,7.413-7.516,14.022-4.829C174.661,65.234,179.328,72.092,177.377,78.495z"/>
					</g>
				</g>
				<g>
					<path class="st50" d="M157.955,43.314h83.028v-0.706c0-22.1-17.916-42.608-40.017-42.608h-2.995
						c-22.1,0-40.016,20.508-40.016,42.608V43.314z"/>
					<path class="st44" d="M157.955,43.314c0,0,94.703-31.989,110.224-17.071c7.464,7.174-27.195,17.071-27.195,17.071H157.955z"/>
				</g>
			</g>
		</g>
		<line class="st120" x1="413.826" y1="468.551" x2="0" y2="468.551"/>
	</g>
</g>
</svg>
