<?xml version="1.0" encoding="utf-8"?>
<!-- Generator: Adobe Illustrator 25.4.1, SVG Export Plug-In . SVG Version: 6.00 Build 0)  -->
<svg version="1.1" id="Layer_1" xmlns="http://www.w3.org/2000/svg" xmlns:xlink="http://www.w3.org/1999/xlink" x="0px" y="0px"
	 viewBox="0 0 537.747 407.18" style="enable-background:new 0 0 537.747 407.18;" xml:space="preserve">
<style type="text/css">
	.st0{fill:#EBF0F1;}
	.st1{fill:#DFE9F2;}
	.st2{fill:#A8B0B6;}
	.st3{clip-path:url(#SVGID_00000011711982467567059830000011854575524697358217_);}
	.st4{fill:#CCCCCC;}
	.st5{fill:#876441;}
	.st6{fill:#F3A48A;}
	.st7{fill:#CF5D43;}
	.st8{fill:#DD6D4E;}
	.st9{fill:#ABA97B;}
	.st10{fill:#E3E0A2;}
	.st11{fill:#303030;}
	.st12{fill:#EFEDE3;}
	.st13{fill:#353535;}
	.st14{fill:#9F714A;}
	.st15{fill:#775336;}
	.st16{fill:#412C19;}
	.st17{fill:#B5B573;}
	.st18{clip-path:url(#SVGID_00000060709819090073748470000009736784299969966728_);}
	.st19{fill:#3B9A64;}
	.st20{fill:#AC614E;}
	.st21{fill:#C1C57C;}
	.st22{clip-path:url(#SVGID_00000075157458790173734430000003788972847577441972_);}
	.st23{fill:#4CA66F;}
	.st24{fill:#FCF9EE;}
	.st25{fill:#F47F64;}
	.st26{fill:#668F95;}
	.st27{fill:#EBE6D5;}
	.st28{fill:#005D68;}
	.st29{fill:#FFC099;}
	.st30{fill:#003239;}
	.st31{fill:#DF8E7A;}
	.st32{fill:#B77B67;}
	.st33{fill:#68472F;}
	.st34{fill:#FBA983;}
	.st35{fill:#FFFFFF;}
	.st36{fill:#F88D61;}
	.st37{fill:#C79072;}
	.st38{fill:#573C28;}
	.st39{fill:#FFA16C;}
	.st40{fill:#F5F5F5;}
	.st41{fill:#E1E1E1;}
	.st42{fill:#ECECEC;}
	.st43{fill:#FAFAFA;}
	.st44{fill:#1A2E35;}
	.st45{fill:#375A64;}
	.st46{opacity:0.3;}
	.st47{fill:#498269;}
	.st48{fill:#946962;}
	.st49{fill:#6F4540;}
	.st50{fill:#CE4F41;}
	.st51{opacity:0.6;}
	.st52{fill:#305A46;}
	.st53{fill:#F7D858;}
	.st54{opacity:0.2;}
	.st55{opacity:0.4;}
	.st56{fill:#101010;}
	.st57{fill:#6AB792;}
	.st58{fill:#D25F3B;}
	.st59{fill:#E57E5B;}
	.st60{fill:none;stroke:#D25F3B;stroke-width:1.3008;stroke-linecap:round;stroke-linejoin:round;stroke-miterlimit:10;}
	.st61{fill:none;stroke:#498269;stroke-width:1.8047;stroke-linecap:round;stroke-linejoin:round;stroke-miterlimit:10;}
	.st62{fill:#39ACB2;}
	.st63{clip-path:url(#SVGID_00000182487447035282812030000006424340717176548764_);}
	.st64{fill:none;stroke:#305A46;stroke-width:3.1006;stroke-linecap:round;stroke-linejoin:round;stroke-miterlimit:10;}
	.st65{fill:#EC8A63;}
	.st66{fill:#FFB890;}
	.st67{fill:none;stroke:#EC8A63;stroke-width:2.028;stroke-linecap:round;stroke-linejoin:round;stroke-miterlimit:10;}
	.st68{opacity:0.26;fill:#FFFFFF;}
	.st69{fill:none;stroke:#FFFFFF;stroke-width:1.9299;stroke-linecap:round;stroke-linejoin:round;stroke-miterlimit:10;}
	.st70{fill:#DAF0FA;}
	.st71{fill:#FFBF9D;}
	.st72{fill:#FF9A6C;}
	.st73{fill:none;stroke:#44555B;stroke-miterlimit:10;}
	.st74{fill:#C78976;}
	.st75{fill:#BF654E;}
	.st76{fill:none;stroke:#44555B;stroke-width:0.05;stroke-miterlimit:10;}
	.st77{fill:none;stroke:#44555B;stroke-width:0.0469;stroke-miterlimit:10;}
	.st78{fill:#FF735D;}
	.st79{clip-path:url(#SVGID_00000119106377326517690060000009310206072645641608_);}
	.st80{fill:#FFDAD9;}
	.st81{fill:#DCDFE0;}
	.st82{fill:none;stroke:#B6E1F4;stroke-width:5.3697;stroke-linecap:round;stroke-linejoin:round;stroke-miterlimit:10;}
	.st83{fill:none;stroke:#B6E1F4;stroke-width:5.0288;stroke-miterlimit:10;}
	.st84{opacity:0.44;fill:#B6E1F4;}
	.st85{fill:#E07280;}
	.st86{fill:#7E5780;}
	.st87{opacity:0.22;fill:#7E5780;}
	.st88{fill:none;stroke:#FFD0C5;stroke-width:0.3194;stroke-miterlimit:10;}
	.st89{fill:none;stroke:#FFD0C5;stroke-width:0.3836;stroke-miterlimit:10;}
	.st90{fill:none;stroke:#401A49;stroke-width:1.5344;stroke-linecap:round;stroke-linejoin:round;stroke-miterlimit:10;}
	.st91{fill:#401A49;}
	.st92{fill:none;stroke:#161C3E;stroke-width:1.1265;stroke-linecap:round;stroke-linejoin:round;stroke-miterlimit:10;}
	.st93{opacity:0.09;fill:#E07280;}
	.st94{fill:none;stroke:#401A49;stroke-width:0.9884;stroke-linecap:round;stroke-linejoin:round;stroke-miterlimit:10;}
	.st95{fill:none;stroke:#401A49;stroke-width:0.7672;stroke-linecap:round;stroke-linejoin:round;stroke-miterlimit:10;}
	.st96{fill:#994975;}
	.st97{fill:#FF8A9A;}
	.st98{fill:none;stroke:#161C3E;stroke-width:1.0685;stroke-linecap:round;stroke-linejoin:round;stroke-miterlimit:10;}
	.st99{opacity:0.35;fill:#EF5D6B;}
	.st100{fill:none;stroke:#401A49;stroke-width:0.9376;stroke-linecap:round;stroke-linejoin:round;stroke-miterlimit:10;}
	.st101{fill:#FFF5EB;}
	.st102{fill:#F2B2D6;}
	.st103{fill:none;stroke:#FFF5EB;stroke-width:0.8381;stroke-linecap:round;stroke-linejoin:round;stroke-miterlimit:10;}
	.st104{opacity:0.22;fill:#401A49;}
	.st105{fill:none;stroke:#FFDAD9;stroke-width:0.8381;stroke-miterlimit:10;}
	.st106{fill:none;stroke:#FFDAD9;stroke-width:0.8381;stroke-linecap:round;stroke-linejoin:round;stroke-miterlimit:10;}
	.st107{fill:none;stroke:#401A49;stroke-width:1.6763;stroke-linecap:round;stroke-linejoin:round;stroke-miterlimit:10;}
	.st108{fill:#FFD0C5;}
	.st109{fill:#FDB22C;}
	.st110{fill:#1A8B91;}
	.st111{fill:none;stroke:#000000;stroke-width:0.8147;stroke-linecap:round;stroke-linejoin:round;stroke-miterlimit:10;}
	.st112{fill:#ECA079;}
	.st113{fill:#FDF1F5;}
	.st114{fill:#E6C6CE;}
	.st115{fill:#862904;}
	.st116{fill:#DC845E;}
	.st117{fill:none;stroke:#000000;stroke-width:0.848;stroke-linecap:round;stroke-linejoin:round;stroke-miterlimit:10;}
	.st118{clip-path:url(#XMLID_00000083770840115269065430000011112147409522244262_);}
	.st119{clip-path:url(#XMLID_00000026873753976791183500000009281308195118182302_);}
	.st120{fill:none;stroke:#000000;stroke-width:0.8027;stroke-linecap:round;stroke-linejoin:round;stroke-miterlimit:10;}
	.st121{fill:none;stroke:#FFFFFF;stroke-width:2.99;stroke-linecap:round;stroke-linejoin:round;}
	.st122{fill:none;stroke:#FFFFFF;stroke-width:2.99;stroke-linecap:round;stroke-linejoin:round;stroke-dasharray:18.4657,18.4657;}
	.st123{fill:none;stroke:#000000;stroke-width:0.9784;stroke-linecap:round;stroke-linejoin:round;stroke-miterlimit:10;}
	.st124{clip-path:url(#XMLID_00000044143787999750317400000015644906689092315065_);}
	.st125{fill:none;stroke:#000000;stroke-width:0.682;stroke-linecap:round;stroke-linejoin:round;stroke-miterlimit:10;}
	.st126{fill:#AE3700;}
	.st127{fill:none;stroke:#FFFFFF;stroke-width:1.7082;stroke-linecap:round;stroke-linejoin:round;stroke-miterlimit:10;}
	.st128{fill:none;stroke:#000000;stroke-width:0.9976;stroke-linecap:round;stroke-linejoin:round;stroke-miterlimit:10;}
	.st129{fill:#528E72;}
	.st130{fill:#F0DBE0;}
	.st131{fill:#89331A;}
	.st132{fill:none;stroke:#CCDADC;stroke-linecap:round;stroke-linejoin:round;}
	.st133{opacity:0.45;fill:#F7E3C7;enable-background:new    ;}
	.st134{fill:#222222;}
	.st135{fill:#F47365;}
	.st136{fill:none;stroke:#222222;stroke-width:0.211;stroke-linecap:round;stroke-linejoin:round;}
	.st137{opacity:0.5;fill:#F43D4F;enable-background:new    ;}
	.st138{fill:#F43D4F;}
	.st139{fill:none;stroke:#FFF7EE;stroke-width:0.422;stroke-miterlimit:10;}
	.st140{fill:#FBB244;}
	.st141{fill:#FFF7EE;}
	.st142{opacity:0.22;}
	.st143{clip-path:url(#SVGID_00000135667585558604327500000005014192170184207282_);}
	.st144{fill:none;stroke:#FFFFFF;stroke-width:0.422;stroke-linecap:round;stroke-linejoin:round;}
	.st145{fill:none;stroke:#222222;stroke-width:2.166;stroke-linecap:round;stroke-linejoin:round;}
	.st146{fill:none;stroke:#222222;stroke-width:2.1655;stroke-linecap:round;stroke-linejoin:round;stroke-miterlimit:3.9991;}
	.st147{clip-path:url(#SVGID_00000105428310033034809590000008250873056369765303_);}
	.st148{fill:none;stroke:#222222;stroke-width:0.422;stroke-linecap:round;stroke-linejoin:round;}
	.st149{fill:#00454F;}
	.st150{fill:#B0B4B5;}
	.st151{fill-rule:evenodd;clip-rule:evenodd;fill:#00454F;}
	.st152{fill:#D2DADB;}
	.st153{fill:none;stroke:#FFFFFF;stroke-width:3.3017;stroke-miterlimit:10;}
	.st154{fill:#05454F;}
	.st155{fill:none;stroke:#707070;}
	.st156{fill:#F5F7F6;}
</style>
<g id="Group_2323" transform="translate(-771.032 -6484.25)">
	<path id="Path_964" class="st0" d="M1094.029,6856.97c83.107-27.95,168.185-136.411,131.988-216.272
		c-0.223-0.494-0.448-0.988-0.675-1.482c-11.054-24.11-25.363-47.841-47.607-62.773c-40.706-27.323-97.238-18.97-141.99-39.525
		c-26.766-12.3-47.957-34.371-75.38-45.242c-42.1-16.688-92.114-3.54-129.749,22.439c-19.364,13.368-36.672,30.344-47.135,51.106
		c-18.469,36.654-13.514,79.951-3.59,119.188c0.22,0.875,0.443,1.746,0.668,2.614c35.276,136.872,179.469,214.911,313.462,169.924
		L1094.029,6856.97z"/>
	<path id="Path_965" class="st132" d="M1052.176,6590.573c-20.321,4-46.468-0.571-59.644-14.895
		c-7.073-7.688-14.546-30.022,1.681-31.435c16.944,1.654,16.831,25.82,3.708,32.689c-20.128,10.537-36.57,15.261-69.985,3.013"/>
	<g id="Group_2322" transform="translate(915.115 6503.422)">
		<path id="Path_966" class="st133" d="M74.421,380.301c-49.74,1.553-42.117,6.15,46.093,5.538s91.036,3.02,182.636,1.981
			s91.764-8.228,24.4-8.265S74.421,380.301,74.421,380.301z"/>
		<g id="Group_2321">
			<g id="Group_2308" transform="translate(122.633)">
				<path id="Path_967" class="st134" d="M57.064,52.175c-3.59-2.812,6.677-4.027,3.389-11.49s7.848-10.926,2.75-22.562l0,0
					c1.655-1.643,4.039-5.244-0.318-9.839c-3.946-4.263-9.174-7.123-14.891-8.149c-3.909-0.409-7.85,0.381-11.3,2.265l0,0
					c-4.831,3.041-15.095,9.5-14.026,16.786S10.93,25.425,11.31,32.518S-1.759,40.762,0.192,49.787L57.94,60.402
					C57.94,60.402,60.656,54.989,57.064,52.175z"/>
				<path id="Path_968" class="st134" d="M41.289,19.059c0,0,13.731-8.71,17.364-5.578s0.131,5.742,0.131,5.742l0,0
					c-0.039-0.642-0.071-1.262-0.093-1.843C58.472,11.701,41.289,19.059,41.289,19.059z"/>
				<path id="Path_969" class="st135" d="M59.876,31.702c-0.225-2.965-1.01-9.757-1.185-14.322c-0.219-5.68-17.4,1.679-17.4,1.679
					s-3.542,11.7-4.4,14.508c-0.576,1.887-5.155,15.081-5.155,15.081c3.083,3.954,7.835,6.242,12.848,6.188l4.071-11.705
					c1.974,0.673,4.117,0.67,6.089-0.009C58.772,41.411,60.143,35.202,59.876,31.702z"/>
				<g id="Group_2306" transform="translate(44.131 21.131)">
					<path id="Path_970" class="st136" d="M5.247,0.225C3.914,0.461,2.679,1.082,1.695,2.011"/>
					<path id="Path_971" class="st136" d="M0.33,4.969c0.664,0.473,1.41,0.817,2.2,1.016"/>
					<path id="Path_972" class="st136" d="M0.102,6.336c0.814,0.287,1.697,0.313,2.527,0.076"/>
					<path id="Path_973" class="st136" d="M10.826-0.003c1.211,0.115,2.361,0.582,3.31,1.343"/>
					<path id="Path_974" class="st136" d="M8.094,3.246c0.171,1.441,0.75,2.803,1.668,3.927c1.839,2.364,1.409,3.067-0.611,3.84"/>
					<path id="Path_975" class="st137" d="M0.161,9.491c0.857-0.962,1.731,0.385,1.731,0.385s0.834-1.563,1.741-0.67
						c0.786,0.772-0.621,3.1-1.416,3.178S-0.571,10.313,0.161,9.491z"/>
					<path id="Path_976" class="st138" d="M5.683,11.843c1.024-0.329,1.08,1.008,1.08,1.008s1.261-0.771,1.535,0.253
						c0.238,0.889-1.757,1.962-2.362,1.687S4.809,12.125,5.683,11.843z"/>
					<path id="Path_977" class="st137" d="M14.417,9.074c-0.529-0.727-1.225,0.148-1.225,0.148s-0.474-1.141-1.162-0.584
						c-0.6,0.483,0.222,2.188,0.767,2.3S14.869,9.696,14.417,9.074z"/>
					<path id="Path_978" class="st136" d="M9.031,14.037c-1.848,0.326-3.685-0.63-4.479-2.33"/>
					<path id="Path_979" class="st136" d="M2.629,6.413c-0.12-0.771,0.407-1.493,1.177-1.613c0.758-0.119,1.472,0.391,1.608,1.146"
						/>
					<path id="Path_980" class="st136" d="M15.617,3.182c-0.527,0.658-1.163,1.22-1.881,1.662"/>
					<path id="Path_981" class="st136" d="M16.243,4.415c-0.698,0.49-1.484,0.838-2.316,1.026"/>
					<path id="Path_982" class="st136" d="M13.898,5.482c0.023-0.779-0.59-1.43-1.37-1.453s-1.43,0.59-1.453,1.37"/>
				</g>
				<g id="Group_2307" transform="translate(33.981 23.61)">
					<path id="Path_983" class="st135" d="M5.752,1.413C4.861,0.017,3.006-0.395,1.609,0.496c-0.188,0.12-0.361,0.26-0.518,0.417
						c-2.779,2.313,0.262,8.084,3.322,7.832"/>
					<path id="Path_984" class="st136" d="M5.752,1.413C4.861,0.017,3.006-0.395,1.609,0.496c-0.188,0.12-0.361,0.26-0.518,0.417
						c-2.779,2.313,0.262,8.084,3.322,7.832"/>
					<path id="Path_985" class="st136" d="M1.15,3.352c0.674-1.165,2.165-1.563,3.33-0.89c0.024,0.014,0.047,0.028,0.07,0.042"/>
					<path id="Path_986" class="st136" d="M2.622,2.218c0.837,1.213,1.165,2.707,0.913,4.159"/>
				</g>
				<path id="Path_987" class="st134" d="M48.656,43.131l-1.3,3.729c-4.586-2.638-6.842-8.625-6.842-8.625
					C42.932,40.315,45.685,41.971,48.656,43.131z"/>
				<line id="Line_51" class="st139" x1="41.289" y1="19.057" x2="34.498" y2="11.446"/>
				<path id="Path_988" class="st140" d="M34.008,16.707c0.294,0.359,1.837-0.423,3.447-1.743s2.673-2.684,2.38-3.042
					s-1.837,0.423-3.447,1.744S33.715,16.349,34.008,16.707z"/>
				<path id="Path_989" class="st140" d="M35.796,18.882c0.295,0.359,1.837-0.423,3.446-1.744s2.674-2.683,2.38-3.041
					s-1.837,0.423-3.446,1.744S35.502,18.523,35.796,18.882z"/>
			</g>
			<g id="Group_2310" transform="translate(145.572 222.102)">
				<g id="Group_2309">
					<path id="Path_990" class="st135" d="M19.296,57.121c-5.114-9.842-4.8-21.964-8.593-29.621l19.885-11.452L52.696-0.003
						l12.865,23.257L49.392,36.045c-9.99,7.98-18.895,17.132-20.485,29.807l0,0C28.907,65.852,24.408,66.961,19.296,57.121z"/>
					<path id="Path_991" class="st141" d="M29.247,88.827L0.002,33.06l10.7-5.562c3.8,7.657,3.479,19.779,8.593,29.621
						s9.611,8.73,9.611,8.73S34.669,86.009,29.247,88.827z"/>
				</g>
			</g>
			<path id="Path_992" class="st47" d="M248.461,188.55c-11.435-21.677-85.567-52.15-85.568-52.152l21.155,58.246l23.224,6.9
				l-16.018,12.945l15.765,43.408C240.37,235.938,258.493,207.571,248.461,188.55z"/>
			<g id="Group_2312" transform="translate(162.892 136.4)" class="st142">
				<g>
					<defs>
						<path id="SVGID_00000031174101080239170920000014649229843827067045_" d="M85.57,52.15C74.135,30.473,0.003,0,0.002-0.002
							l21.155,58.246l23.224,6.9L28.363,78.089l15.765,43.408C77.479,99.538,95.602,71.171,85.57,52.15z"/>
					</defs>
					<clipPath id="SVGID_00000177484710102362301360000012477389178446330001_">
						<use xlink:href="#SVGID_00000031174101080239170920000014649229843827067045_"  style="overflow:visible;"/>
					</clipPath>
					<g id="Group_2311" style="clip-path:url(#SVGID_00000177484710102362301360000012477389178446330001_);">
						<path id="Path_993" class="st144" d="M14.802-2.566c0,0-27.3,81.417-1.419,71.927s37.173-67,26.751-69.364
							s-13.915,67.22-4.835,66.183c9.08-1.037,56.971-77.507,80.971-50.853s-87.314,63.65-44.236,89.415
							c43.078,25.765,26.968-41.322-41.113-32.82"/>
					</g>
				</g>
			</g>
			<path id="Path_995" class="st134" d="M191.254,214.487l15.761,43.4c3.841-2.53,7.49-5.142,10.908-7.817
				c-4.765-10.373-11.754-25.593-19.132-41.672L191.254,214.487z"/>
			<path id="Path_996" class="st134" d="M184.048,194.643l9.765,2.9c-11.285-24.6-22.5-49.085-27.277-59.608
				c-2.313-0.992-3.642-1.539-3.642-1.539L184.048,194.643z"/>
			<g id="Group_2313" transform="translate(0 159.252)">
				<path id="Path_997" class="st134" d="M326.703,153.224c0,2.188-1.774,3.963-3.963,3.963c-2.189,0-3.963-1.774-3.963-3.963
					c0-2.188,1.774-3.963,3.963-3.963h0C324.928,149.261,326.703,151.035,326.703,153.224z"/>
				<circle id="Ellipse_31" class="st145" cx="322.739" cy="153.223" r="69.842"/>
				<path id="Path_998" class="st145" d="M322.74,153.224h-3.4c-8.591,0-16.274-5.345-19.261-13.4L253.169,10.978
					c-2.401-6.592-8.667-10.979-15.682-10.979h-16.424"/>
				<circle id="Ellipse_32" class="st145" cx="207.272" cy="174.721" r="21.497"/>
				<path id="Path_999" class="st145" d="M112.127,64.222h160.1l-64.96,110.177L148.895,18.182"/>
				<rect id="Rectangle_104" x="122.155" y="15.735" class="st134" width="53.445" height="4.892"/>
				<rect id="Rectangle_105" x="40.032" y="61.772" class="st134" width="98.818" height="4.892"/>
				<path id="Path_1000" class="st134" d="M95.768,153.224c0.001,2.189-1.774,3.964-3.963,3.965c-2.189,0-3.964-1.774-3.965-3.963
					c-0.001-2.189,1.774-3.965,3.963-3.965h0C93.992,149.26,95.767,151.034,95.768,153.224z"/>
				<circle id="Ellipse_33" class="st146" cx="91.774" cy="153.214" r="69.826"/>
				<path id="Path_1001" class="st145" d="M91.801,64.219v89l106.388,41.019"/>
				<line id="Line_52" class="st145" x1="207.272" y1="153.224" x2="91.804" y2="153.224"/>
			</g>
			<path id="Path_1002" class="st134" d="M117.324,119.288c-2.167,2.768,34.66,3.87,38.769-4.468S122.683,112.439,117.324,119.288z"
				/>
			<g id="Group_2315" transform="translate(170.748 263.607)">
				<g id="Group_2314">
					<path id="Path_1003" class="st135" d="M54.844,69.628c-13.946,2.074-28.386-3.325-39.161-1.93l-5.536-28.643L0.003,5.836
						l33.279-5.84l8.683,24.731c5.459,15.311,12.775,29.8,27.355,36.959l0,0C69.32,61.686,68.79,67.554,54.844,69.628z"/>
					<path id="Path_1004" class="st141" d="M97.077,70.788L17.939,82.864l-2.254-15.165c10.776-1.4,25.216,4,39.161,1.93
						s14.475-7.94,14.475-7.94S95.935,63.103,97.077,70.788z"/>
				</g>
			</g>
			<path id="Path_1005" class="st47" d="M128.639,111.605c0,0-15.394,30.016-16.512,39.783s15.321,23.6,15.321,23.6l51.93,130.05
				h44.764L153.89,111.605H128.639z"/>
			<g id="Group_2318" transform="translate(112.07 111.609)" class="st142">
				<g>
					<defs>
						<path id="SVGID_00000091004790711975080480000005749427009528290442_" d="M16.568-0.003c0,0-15.394,30.016-16.512,39.783
							s15.321,23.6,15.321,23.6l51.93,130.05h44.764L41.819-0.003H16.568z"/>
					</defs>
					<clipPath id="SVGID_00000140717294006364926310000004557107586341173424_">
						<use xlink:href="#SVGID_00000091004790711975080480000005749427009528290442_"  style="overflow:visible;"/>
					</clipPath>
					<g id="Group_2317" style="clip-path:url(#SVGID_00000140717294006364926310000004557107586341173424_);">
						<g id="Group_2316" transform="translate(-24.232 -41.208)">
							<path id="Path_1006" class="st144" d="M13.851,107.033c0,0,72.909-17.321,102.9-87.97S9.118,92.237,34.796,155.517
								s79.524-53.419,79.524-53.419s-67.571,20.01-65.339,94.7s116.867-28.9,116.867-28.9"/>
							<path id="Path_1007" class="st144" d="M0.002,72.684c0,0,49.029-9.054,64.883-39.739s-68.8,80.491-60.92,93.8
								s53.178,9.693,118.531-58.844S79.027,246.038,79.027,246.038"/>
						</g>
					</g>
				</g>
			</g>
			<path id="Path_1009" class="st141" d="M117.32,119.288c0,0,14.65-8.576,38.769-4.468c0,0,21.082-35.731,21.8-39.483
				c0.37-1.94-1.8-10.1-3.971-17.522c-2.391-8.156-8.887-14.458-17.111-16.6l0,0c0,0-15.187,19.118-21.976,34.482
				S118.396,110.892,117.32,119.288z"/>
			<path id="Path_1010" class="st134" d="M156.058,71.553c0,0-2.871,20.73,4.391,35.824c3.275-5.632,7.8-13.479,11.422-20.044
				L156.058,71.553z"/>
			<g id="Group_2320" transform="translate(156.961 45.146)">
				<g id="Group_2319">
					<path id="Path_1011" class="st135" d="M29.256,80.851c6.888,6.266,14.094,12.173,21.588,17.7l3.609,4.293
						c0,0,3.193,4.642,5.881,7.7s8.536,11.139,8.536,11.139s2.448,1.574,2.294,0.2c-0.035-0.324-3.628-7.761-3.628-7.761
						s5.459,6.634,7.063,8.121s2.8,1.077,3.367,0.421c0.725,0.269,1.49,0.413,2.263,0.426c0.613-0.016,1.097-0.527,1.081-1.14
						c-0.005-0.206-0.068-0.407-0.181-0.579l-0.6-0.926c0,0,3.328,0.867,1.24-2.459s-7.895-15.576-7.895-15.576
						s-6.96-7.856-11.086-12.835c-2.543-3.067-10.413-12.126-16.082-18.63c-4.137-4.746-7.713-9.954-10.656-15.52L6.743-0.003
						c0,0-8.745,8.5-6.315,25.262c1.151,7.938,4.752,18,8.227,26.4C13.274,62.796,20.311,72.767,29.256,80.851z"/>
					<line id="Line_53" class="st148" x1="80.531" y1="120.445" x2="71.653" y2="106.581"/>
					<line id="Line_54" class="st148" x1="77.965" y1="122.661" x2="68.388" y2="107.967"/>
					<line id="Line_55" class="st148" x1="67.534" y1="114.12" x2="65.236" y2="110.262"/>
				</g>
			</g>
			<path id="Path_1012" class="st141" d="M225.83,139.954c0,0-22.107,16.426-32.017,17.385c0,0-36.112-42.158-38.257-92.661
				s24.3,1.668,29.3,11.2S225.83,139.954,225.83,139.954z"/>
			<path id="Path_1013" class="st136" d="M193.813,157.338c0,0-36.112-42.158-38.257-92.661"/>
			<line id="Line_56" class="st148" x1="207.272" y1="201.541" x2="213.399" y2="203.617"/>
			<path id="Path_1014" class="st148" d="M242.387,200.58c1.309,2.224,3.232,4.023,5.538,5.181"/>
			<path id="Path_1015" class="st148" d="M180.098,221.058c0,0,5.375-3.961,7.212-10.108"/>
		</g>
	</g>
	<path id="Path_1016" class="st132" d="M983.41,6643.724c-7.757-4.454-8.864-6.084-15.122-8.3c-6.388-2.2-13.443-1.205-18.974,2.676
		c-7.317,5.234-10.886,10.78-18.911,14.845c-3.427,1.589-7.18,2.346-10.955,2.209c-23.077-0.1-42.037-19.06-64.8-22.854"/>
</g>
</svg>
